<svg width="1440" height="4482" viewBox="0 0 1440 4482" fill="none" xmlns="http://www.w3.org/2000/svg">
<path opacity="0.7" d="M939.509 1973.8C939.509 1973.8 737.987 1782.86 467.324 1816.24C196.661 1849.62 44.7934 2082.21 53.1353 2243.58C61.4773 2404.95 211.83 2572.46 224.107 2730.47C236.384 2888.47 363.803 3131.56 630.109 3096.59C896.415 3061.62 929.024 2917.58 949.824 2682.87C970.624 2448.15 1107.12 2121.21 939.509 1973.8Z" fill="#F8EFF1"/>
<path opacity="0.7" d="M718.343 397.195C718.343 397.195 667.239 417.502 650.468 468.838C633.697 520.173 662.558 566.731 692.136 578.63C721.714 590.53 764.326 577.459 793.633 588.373C822.94 599.287 877.149 596.605 893.269 545.919C909.39 495.234 886.354 477.425 846.099 454.208C805.843 430.991 758.807 379.358 718.343 397.195Z" fill="#F8EFF1"/>
<path opacity="0.7" d="M-232.146 1289.78C-232.146 1289.78 -207.757 1501.22 -32.3978 1615.05C142.961 1728.89 346.576 1667.22 421.073 1568.38C495.57 1469.54 489.7 1297.08 560.233 1198.27C630.765 1099.47 675.546 893.951 501.965 783.194C328.384 672.437 238.365 740.919 110.668 868.451C-17.0297 995.983 -258.042 1120.62 -232.146 1289.78Z" fill="#F8EFF1"/>
<path opacity="0.7" d="M878.006 2371.7C878.006 2371.7 777.85 2236.65 612.906 2228.1C447.961 2219.54 332.962 2342.27 320.997 2439.37C309.033 2536.47 381.128 2652.17 371.864 2747.68C362.599 2843.2 413.082 3001.55 575.594 3008.7C738.106 3015.85 772.677 2933.39 809.723 2795.61C846.769 2657.84 962.506 2477.23 878.006 2371.7Z" fill="#F8EFF1"/>
<path opacity="0.7" d="M1361.54 4101.57C1361.54 4101.57 1299.75 3945.19 1142.64 3894.24C985.532 3843.28 842.687 3932.06 805.998 4022.76C769.309 4113.46 809.002 4243.88 775.333 4333.74C741.664 4423.6 749.441 4589.62 904.565 4638.59C1059.69 4687.56 1114.43 4616.85 1185.87 4493.36C1257.31 4369.86 1415.85 4225.37 1361.54 4101.57Z" fill="#F8EFF1"/>
<path opacity="0.7" d="M1523.93 3733.14C1523.93 3733.14 1378.7 3496.55 1108.62 3458.74C838.536 3420.93 631.644 3606.29 597.937 3764.32C564.229 3922.35 666.104 4123.07 637.067 4278.86C608.03 4434.66 668.193 4702.45 934.475 4737.6C1200.76 4772.74 1269.54 4642.05 1350.38 4420.71C1431.22 4199.38 1647.68 3918.9 1523.93 3733.14Z" fill="#F8EFF1"/>
<path opacity="0.5" d="M557.513 117.804C557.513 117.804 514.374 83.7008 461.531 94.8446C408.688 105.988 382.798 154.261 387.282 185.827C391.766 217.392 424.391 247.759 429.593 278.596C434.795 309.434 464.222 355.039 516.177 343.658C568.132 332.276 572.037 303.421 572.016 256.951C571.995 210.48 593.192 143.929 557.513 117.804Z" fill="#F8EFF1"/>
<path opacity="0.7" d="M-165.291 -460.409C-165.291 -460.409 -249.887 -265.106 -154.94 -78.8414C-59.9926 107.423 147.178 155.823 261.114 107.473C375.051 59.1231 456.196 -93.1636 566.682 -143.467C677.169 -193.77 818.709 -349.362 723.761 -532.071C628.814 -714.78 516.615 -700.483 342.26 -653.885C167.905 -607.288 -103.135 -619.857 -165.291 -460.409Z" fill="#F8EFF1"/>
<path opacity="0.7" d="M1457.46 919.317C1457.46 919.317 1368.56 849.378 1259.84 872.007C1151.11 894.635 1097.99 993.34 1107.32 1057.95C1116.66 1122.57 1183.91 1184.82 1194.72 1247.95C1205.53 1311.08 1266.25 1404.51 1373.14 1381.39C1480.04 1358.28 1487.98 1299.24 1487.78 1204.13C1487.58 1109.03 1530.98 972.902 1457.46 919.317Z" fill="#F8EFF1"/>
<path opacity="0.7" d="M349.336 -295.266C349.336 -295.266 0.131211 -320.31 -237.112 -71.316C-474.355 177.678 -436.454 525.934 -299.278 676.622C-162.102 827.31 118.47 870.428 256.794 1014.69C395.119 1158.95 713.763 1294.11 945.489 1047.05C1177.21 799.993 1093.83 633.454 926.415 387.936C759.002 142.418 630.662 -285.554 349.336 -295.266Z" fill="#F8EFF1"/>
<path d="M1535.91 4613.71C1535.91 4613.71 1600.5 4343.71 1436.26 4126C1272.02 3908.29 994.658 3893.07 859.081 3980.97C723.503 4068.88 653.61 4282.85 522.911 4372.48C392.212 4462.12 245.401 4694.01 408.839 4907.15C572.276 5120.3 713.324 5076.52 926.994 4977.17C1140.66 4877.83 1492.05 4832.57 1535.91 4613.71Z" fill="#F8EFF1"/>
<path opacity="0.7" d="M1160.56 4759.39C1160.56 4759.39 1227.44 4605.13 1152.38 4458.01C1077.31 4310.88 913.53 4272.65 823.454 4310.84C733.379 4349.03 669.227 4469.32 581.879 4509.05C494.532 4548.78 382.634 4671.68 457.696 4816C532.759 4960.31 621.461 4949.02 759.302 4912.21C897.143 4875.41 1111.42 4885.34 1160.56 4759.39Z" fill="#F8EFF1"/>
</svg>
