<svg width="469" height="459" viewBox="0 0 469 459" fill="none" xmlns="http://www.w3.org/2000/svg">
<path d="M314.543 6.2419C314.543 6.2419 238.283 -17.0469 162.978 30.0475C87.6735 77.142 49.2788 164.989 16.335 235.459C-16.6088 305.928 1.65406 374.976 58.7166 403.972C115.779 432.967 155.035 383.934 235.396 377.55C315.757 371.165 337.291 381.544 404.248 332.759C471.205 283.974 483.944 176.144 431.855 99.4941C379.766 22.8445 314.543 6.2419 314.543 6.2419Z" fill="#A8DADC"/>
<path opacity="0.7" d="M314.543 6.2419C314.543 6.2419 238.283 -17.0469 162.978 30.0475C87.6735 77.142 49.2788 164.989 16.335 235.459C-16.6088 305.928 1.65406 374.976 58.7166 403.972C115.779 432.967 155.035 383.934 235.396 377.55C315.757 371.165 337.291 381.544 404.248 332.759C471.205 283.974 483.944 176.144 431.855 99.4941C379.766 22.8445 314.543 6.2419 314.543 6.2419Z" fill="white"/>
<path d="M141.207 47.4576L130.689 30.0475H38.0352V47.4576V53.7239V343.365H419.386V47.4576H141.207Z" fill="#263238"/>
<path d="M416.885 55.4359H40.8701V337.055H416.885V55.4359Z" fill="white"/>
<path opacity="0.17" d="M418.722 53.024H409.99V339.187H418.722V53.024Z" fill="black"/>
<path opacity="0.17" d="M418.722 226.048H409.99V336.872H418.722V226.048Z" fill="black"/>
<path d="M417.373 51.6351H39.375V66.9565H417.373V51.6351Z" fill="#A8DADC" stroke="#263238" stroke-miterlimit="10"/>
<path d="M416.885 55.4359H40.8701V337.055H416.885V55.4359Z" stroke="#263238" stroke-linecap="round" stroke-linejoin="round"/>
<g opacity="0.17">
<path opacity="0.17" d="M236.778 81.7285H210.469C210.164 81.7285 209.862 81.6661 209.58 81.5447C209.299 81.4234 209.043 81.2456 208.828 81.0215C208.613 80.7974 208.442 80.5314 208.327 80.2389C208.211 79.9463 208.152 79.633 208.153 79.3168C208.153 78.68 208.397 78.0693 208.831 77.619C209.266 77.1687 209.855 76.9158 210.469 76.9158H236.778C237.392 76.9158 237.981 77.1687 238.415 77.619C238.849 78.0693 239.093 78.68 239.093 79.3168C239.095 79.633 239.036 79.9463 238.92 80.2389C238.804 80.5314 238.634 80.7974 238.419 81.0215C238.204 81.2456 237.948 81.4234 237.666 81.5447C237.385 81.6661 237.083 81.7285 236.778 81.7285Z" fill="black"/>
<path opacity="0.17" d="M289.386 81.7286H263.077C262.772 81.7286 262.47 81.6662 262.189 81.5448C261.907 81.4235 261.651 81.2457 261.436 81.0216C261.221 80.7975 261.051 80.5315 260.935 80.239C260.819 79.9464 260.76 79.633 260.762 79.3168C260.762 79.0015 260.822 78.6893 260.938 78.398C261.054 78.1067 261.225 77.842 261.44 77.619C261.655 77.3961 261.91 77.2192 262.191 77.0986C262.472 76.9779 262.773 76.9158 263.077 76.9158H289.386C289.691 76.9144 289.994 76.9754 290.276 77.0955C290.558 77.2155 290.814 77.3921 291.03 77.6152C291.246 77.8383 291.418 78.1035 291.535 78.3955C291.652 78.6875 291.712 79.0006 291.712 79.3168C291.712 79.9565 291.467 80.5699 291.031 81.0222C290.595 81.4745 290.003 81.7286 289.386 81.7286Z" fill="black"/>
<path opacity="0.17" d="M341.995 81.7286H315.696C315.079 81.7286 314.487 81.4745 314.051 81.0222C313.615 80.5699 313.37 79.9565 313.37 79.3168C313.37 79.0006 313.43 78.6875 313.547 78.3955C313.664 78.1035 313.836 77.8383 314.052 77.6152C314.268 77.3921 314.524 77.2155 314.807 77.0955C315.089 76.9754 315.391 76.9144 315.696 76.9158H341.995C342.3 76.9144 342.602 76.9754 342.884 77.0955C343.166 77.2155 343.423 77.3921 343.639 77.6152C343.855 77.8383 344.026 78.1035 344.143 78.3955C344.26 78.6875 344.32 79.0006 344.32 79.3168C344.32 79.9565 344.075 80.5699 343.639 81.0222C343.203 81.4745 342.612 81.7286 341.995 81.7286Z" fill="black"/>
<path opacity="0.17" d="M394.614 81.7286H368.304C367.687 81.7286 367.096 81.4745 366.66 81.0222C366.224 80.5699 365.979 79.9565 365.979 79.3168C365.979 79.0006 366.039 78.6875 366.156 78.3955C366.273 78.1035 366.444 77.8383 366.66 77.6152C366.876 77.3921 367.133 77.2155 367.415 77.0955C367.697 76.9754 367.999 76.9144 368.304 76.9158H394.614C394.918 76.9158 395.219 76.9779 395.5 77.0986C395.781 77.2192 396.036 77.3961 396.251 77.619C396.466 77.842 396.636 78.1067 396.753 78.398C396.869 78.6893 396.929 79.0015 396.929 79.3168C396.93 79.633 396.871 79.9464 396.756 80.239C396.64 80.5315 396.47 80.7975 396.254 81.0216C396.039 81.2457 395.784 81.4235 395.502 81.5448C395.22 81.6662 394.919 81.7286 394.614 81.7286Z" fill="black"/>
</g>
<path d="M275.297 93.9491H51.3037V230.344H275.297V93.9491Z" stroke="#263238" stroke-miterlimit="10"/>
<path d="M52.415 244.395H116.662" stroke="#263238" stroke-width="5" stroke-miterlimit="10"/>
<path d="M51.751 79.5754H115.998" stroke="#E63946" stroke-width="6" stroke-miterlimit="10"/>
<path d="M52.415 258.446H116.662" stroke="#263238" stroke-miterlimit="10"/>
<path d="M52.415 272.497H116.662" stroke="#263238" stroke-miterlimit="10"/>
<path d="M52.415 286.559H116.662" stroke="#263238" stroke-miterlimit="10"/>
<path d="M62.9118 98.6221C61.4436 98.6221 60.0083 99.0736 58.7875 99.9195C57.5667 100.765 56.6152 101.968 56.0534 103.374C55.4915 104.781 55.3445 106.329 55.6309 107.822C55.9174 109.316 56.6244 110.687 57.6626 111.764C58.7008 112.841 60.0235 113.574 61.4635 113.871C62.9036 114.168 64.3962 114.015 65.7527 113.433C67.1091 112.85 68.2685 111.863 69.0842 110.597C69.9 109.331 70.3353 107.843 70.3353 106.32C70.3353 104.279 69.5532 102.321 68.161 100.877C66.7689 99.4331 64.8807 98.6221 62.9118 98.6221V98.6221ZM63.9501 108.129L60.7626 110.046V102.401L63.9085 104.339L67.1064 106.256L63.9501 108.129Z" stroke="#263238" stroke-miterlimit="10"/>
<path d="M386.889 93.9491H287.248V176.618H386.889V93.9491Z" stroke="#263238" stroke-miterlimit="10"/>
<path d="M386.889 152.209L371.741 136.102L352.617 146.029L316.745 114.611L287.248 147.881V176.618H386.889V152.209Z" stroke="#263238" stroke-miterlimit="10"/>
<path d="M353.81 122.051C358.874 122.051 362.978 117.794 362.978 112.544C362.978 107.293 358.874 103.036 353.81 103.036C348.747 103.036 344.643 107.293 344.643 112.544C344.643 117.794 348.747 122.051 353.81 122.051Z" stroke="#263238" stroke-miterlimit="10"/>
<path d="M386.889 193.974H287.248V276.642H386.889V193.974Z" stroke="#263238" stroke-miterlimit="10"/>
<path d="M386.889 252.234L371.741 236.126L352.617 246.053L316.745 214.635L287.248 247.905V276.631H386.889V252.234Z" stroke="#263238" stroke-miterlimit="10"/>
<path d="M363.347 212.746C364.157 207.548 360.75 202.653 355.737 201.813C350.725 200.973 346.005 204.506 345.194 209.704C344.384 214.902 347.791 219.797 352.804 220.637C357.816 221.477 362.537 217.944 363.347 212.746Z" stroke="#263238" stroke-width="1.00285" stroke-miterlimit="10"/>
<path d="M52.0823 418.917C52.0823 418.917 24.5789 368.829 30.9227 356.092C37.2664 343.354 53.4943 366.277 53.4943 366.277C53.4943 366.277 39.3845 319.581 47.1506 299.221C54.9168 278.861 68.2999 299.221 69.0059 313.659C69.7119 328.098 66.1922 352.711 66.1922 352.711C66.1922 352.711 71.8299 301.773 85.2338 317.051C98.6377 332.329 68.2999 383.278 68.2999 383.278C68.2999 383.278 88.7535 371.435 88.0267 386.681C87.2999 401.926 63.3682 415.504 63.3682 415.504" fill="#A8DADC"/>
<path d="M52.3206 409.582C52.3206 409.582 26.8314 384.958 39.2905 373.922C51.7495 362.886 58.2075 385.765 58.2075 385.765C58.2075 385.765 44.4818 315.371 66.6797 312.787C88.8775 310.203 72.5147 373.922 72.5147 373.922C72.5147 373.922 91.442 346.746 90.165 368.829C88.8879 390.912 60.8031 409.582 60.8031 409.582" stroke="#263238" stroke-miterlimit="10"/>
<path d="M64.8211 405.103L47.6172 385.776" stroke="#263238" stroke-miterlimit="10"/>
<path d="M61.2393 406.588L65.8906 350.094" stroke="#263238" stroke-miterlimit="10"/>
<path d="M60.5234 402.497L75.9311 381.308" stroke="#263238" stroke-miterlimit="10"/>
<path d="M82.8147 398.556H35.2314L39.9867 456.751H78.0491L82.8147 398.556Z" fill="#263238"/>
<path d="M329.422 378.465L342.659 413.695H314.865L303.361 378.465H329.422Z" fill="#A8DADC" stroke="#263238" stroke-miterlimit="10"/>
<path d="M313.017 357.115H269.099V398.901H313.017V357.115Z" fill="white" stroke="#263238" stroke-miterlimit="10"/>
<path d="M305.552 366.492H261.634V408.279H305.552V366.492Z" fill="white" stroke="#263238" stroke-miterlimit="10"/>
<path d="M294.141 374.654H250.223V416.44H294.141V374.654Z" fill="white" stroke="#263238" stroke-miterlimit="10"/>
<path d="M274.643 381.878H230.725V423.665H274.643V381.878Z" fill="white" stroke="#263238" stroke-miterlimit="10"/>
<path d="M329.495 378.465H229.365V456.751H329.495V378.465Z" fill="#A8DADC" stroke="#263238" stroke-miterlimit="10"/>
<path d="M329.483 378.465H255.414V456.751H329.483V378.465Z" fill="#A8DADC" stroke="#263238" stroke-miterlimit="10"/>
<path d="M255.414 378.465L244.554 413.695H216.771L229.365 378.465H255.414Z" fill="#A8DADC" stroke="#263238" stroke-miterlimit="10"/>
<path d="M313.682 393.205H267.988V441.818H313.682V393.205Z" fill="white" stroke="#263238" stroke-miterlimit="10"/>
<path d="M313.682 428.941L305.127 419.703L297.62 424.203L284.455 411.1L268.123 424.612L267.988 424.925V441.818H313.682V428.941Z" fill="#263238" stroke="#263238" stroke-miterlimit="10"/>
<path d="M302.883 406.384C302.883 407.504 302.563 408.599 301.963 409.53C301.363 410.462 300.51 411.188 299.512 411.616C298.514 412.045 297.416 412.157 296.357 411.938C295.297 411.72 294.324 411.181 293.56 410.389C292.797 409.596 292.277 408.587 292.066 407.489C291.855 406.39 291.963 405.252 292.377 404.217C292.79 403.182 293.49 402.297 294.388 401.675C295.286 401.053 296.342 400.721 297.422 400.721C298.871 400.721 300.26 401.317 301.284 402.379C302.308 403.441 302.883 404.882 302.883 406.384Z" fill="#263238" stroke="#263238" stroke-miterlimit="10"/>
<path d="M429.301 357.115H385.383V398.901H429.301V357.115Z" fill="white" stroke="#263238" stroke-miterlimit="10"/>
<path d="M421.836 366.492H377.918V408.279H421.836V366.492Z" fill="white" stroke="#263238" stroke-miterlimit="10"/>
<path d="M410.426 374.654H366.508V416.44H410.426V374.654Z" fill="white" stroke="#263238" stroke-miterlimit="10"/>
<path d="M390.927 381.878H347.009V423.665H390.927V381.878Z" fill="white" stroke="#263238" stroke-miterlimit="10"/>
<path d="M445.779 378.465H345.649V456.751H445.779V378.465Z" fill="#A8DADC" stroke="#191847" stroke-miterlimit="10"/>
<path d="M445.768 378.465H371.699V456.751H445.768V378.465Z" fill="#F8FFFF" stroke="#191847" stroke-miterlimit="10"/>
<path d="M405.795 385.894V386.508C405.315 386.486 404.838 386.598 404.414 386.831C403.97 387.12 403.611 387.529 403.376 388.016C402.956 388.906 402.609 389.832 402.338 390.783L396.274 408.957H395.641L390.678 394.54L385.757 408.957H385.186L378.8 390.234C378.323 388.845 378.022 388.016 377.887 387.757C377.696 387.359 377.392 387.032 377.015 386.82C376.548 386.593 376.035 386.486 375.52 386.508V385.894H383.566V386.508H383.182C382.716 386.476 382.254 386.622 381.884 386.917C381.742 387.03 381.627 387.175 381.548 387.341C381.468 387.507 381.427 387.69 381.427 387.876C381.559 388.795 381.796 389.695 382.133 390.557L386.421 403.208L390.024 392.441L389.391 390.546L388.872 389.028C388.669 388.515 388.419 388.025 388.124 387.563C387.983 387.356 387.807 387.177 387.605 387.036C387.364 386.846 387.093 386.701 386.805 386.605C386.49 386.523 386.165 386.487 385.84 386.497V385.884H394.312V386.497H393.731C393.257 386.457 392.786 386.603 392.412 386.907C392.273 387.045 392.164 387.213 392.093 387.399C392.021 387.584 391.988 387.783 391.997 387.983C392.099 389.002 392.344 389.999 392.723 390.944L396.876 403.197L401.029 390.772C401.393 389.86 401.63 388.899 401.736 387.919C401.733 387.658 401.649 387.405 401.497 387.197C401.353 386.985 401.15 386.823 400.915 386.734C400.402 386.563 399.865 386.483 399.327 386.497V385.884L405.795 385.894Z" fill="#263238"/>
<path d="M407.529 390.148H433.6" stroke="#263238" stroke-width="4" stroke-miterlimit="10"/>
<path d="M407.529 396.425H433.6" stroke="#263238" stroke-miterlimit="10"/>
<path d="M407.529 402.691H433.6" stroke="#263238" stroke-miterlimit="10"/>
<path d="M407.529 408.957H433.6" stroke="#263238" stroke-miterlimit="10"/>
<path d="M390.927 303.625H347.009V345.411H390.927V303.625Z" fill="white" stroke="#263238" stroke-miterlimit="10"/>
<path d="M445.779 300.211H345.649V378.498H445.779V300.211Z" fill="#A8DADC" stroke="#263238" stroke-miterlimit="10"/>
<path d="M445.768 300.211H371.699V378.498H445.768V300.211Z" fill="#F8FFFF" stroke="#263238" stroke-miterlimit="10"/>
<path d="M429.966 314.962H384.272V363.575H429.966V314.962Z" fill="white" stroke="#263238" stroke-miterlimit="10"/>
<path d="M429.966 350.687L421.411 341.449L413.904 345.949L400.739 332.846L384.407 346.369L384.272 346.671V363.564H429.966V350.687Z" fill="#263238" stroke="#263238" stroke-miterlimit="10"/>
<path d="M419.168 328.13C419.168 329.25 418.847 330.345 418.247 331.276C417.647 332.208 416.794 332.933 415.796 333.362C414.798 333.791 413.7 333.903 412.641 333.684C411.582 333.466 410.608 332.926 409.845 332.134C409.081 331.342 408.561 330.333 408.35 329.235C408.139 328.136 408.248 326.997 408.661 325.963C409.074 324.928 409.774 324.043 410.672 323.421C411.57 322.799 412.626 322.466 413.706 322.466C415.155 322.466 416.544 323.063 417.568 324.125C418.592 325.187 419.168 326.628 419.168 328.13Z" fill="#263238" stroke="#263238" stroke-miterlimit="10"/>
<path d="M264.323 158.701L290.549 201.511L255.456 201.209C255.456 201.209 256.339 165.732 257.221 161.759C258.104 157.786 263.44 157.485 264.323 158.701Z" fill="white" stroke="#263238" stroke-miterlimit="10"/>
<path d="M321.609 200.467L110.536 186.159L102.944 306.599L314.017 320.907L321.609 200.467Z" fill="#E63946" stroke="#263238" stroke-miterlimit="10"/>
<path d="M315.308 300.646L104.234 286.338L102.958 306.579L314.032 320.888L315.308 300.646Z" fill="white" stroke="#263238" stroke-miterlimit="10"/>
<path d="M309.446 307.974L109.106 294.394L108.789 299.422L309.129 313.002L309.446 307.974Z" fill="#263238"/>
<path d="M114.045 297.326C114.073 296.858 113.967 296.393 113.74 295.989C113.513 295.584 113.175 295.258 112.77 295.052C112.365 294.847 111.909 294.77 111.462 294.832C111.015 294.894 110.595 295.093 110.256 295.402C109.918 295.711 109.675 296.118 109.558 296.57C109.442 297.022 109.458 297.5 109.603 297.943C109.749 298.386 110.018 298.775 110.376 299.06C110.734 299.344 111.166 299.513 111.616 299.543C111.916 299.564 112.217 299.523 112.502 299.422C112.786 299.322 113.049 299.164 113.275 298.958C113.501 298.752 113.685 298.501 113.817 298.221C113.949 297.941 114.027 297.637 114.045 297.326Z" fill="white" stroke="#263238" stroke-miterlimit="10"/>
<path d="M137.978 205.247C137.831 207.572 137.023 209.799 135.656 211.648C134.289 213.496 132.423 214.883 130.296 215.632C128.169 216.381 125.875 216.459 123.705 215.856C121.535 215.254 119.586 213.997 118.104 212.245C116.623 210.494 115.676 208.326 115.382 206.016C115.089 203.706 115.463 201.358 116.457 199.268C117.45 197.179 119.019 195.442 120.965 194.277C122.911 193.112 125.146 192.572 127.388 192.725C128.876 192.825 130.331 193.228 131.67 193.912C133.008 194.595 134.203 195.546 135.186 196.709C136.17 197.872 136.923 199.225 137.402 200.69C137.881 202.155 138.077 203.703 137.978 205.247Z" fill="#263238" stroke="#263238" stroke-linecap="round" stroke-linejoin="round"/>
<path d="M122.165 197.182L133.347 204.935L121.282 211.104L122.165 197.182Z" fill="#E63946"/>
<path d="M192.175 107.752C192.175 107.752 187.804 120.436 188.095 122.826C188.385 125.216 189.548 126.153 188.095 127.661C186.641 129.168 181.979 132.796 182.561 134.907C183.142 137.017 186.06 139.44 186.06 139.44C186.06 139.44 189.257 152.726 192.466 154.233C195.674 155.741 200.616 154.535 200.616 154.535L204.104 164.225L228.566 157.883L227.112 142.476C227.112 142.476 234.38 127.984 232.646 119.23C230.912 110.476 215.754 102.003 205.859 102.003C195.964 102.003 193.047 105.341 192.175 107.752Z" fill="#D4B48F" stroke="#263238" stroke-miterlimit="10"/>
<path d="M192.33 143.1C192.33 143.1 196.14 142.583 197.303 140.182" stroke="#263238" stroke-miterlimit="10"/>
<path d="M192.663 127.617C192.663 128.694 192.32 129.512 191.916 129.512C191.511 129.512 191.168 128.662 191.168 127.617C191.168 126.573 191.5 125.722 191.916 125.722C192.331 125.722 192.663 126.573 192.663 127.617Z" fill="#263238"/>
<path d="M190.877 123.321C190.877 123.321 193.037 120.565 194.355 124.01" stroke="#263238" stroke-miterlimit="10"/>
<path d="M197.989 112.587C197.989 112.587 188.385 113.19 187.804 103.822C187.222 94.4552 200.325 89.3302 205.278 89.3302C210.23 89.3302 206.731 94.466 206.731 94.466C206.731 94.466 218.962 90.8376 222.16 94.1645C225.358 97.4915 222.752 100.205 222.752 100.205C222.752 100.205 238.761 107.149 238.761 119.23C238.761 131.31 230.331 143.1 228.867 145.501C227.403 147.902 223.914 150.034 217.508 150.335C211.102 150.637 207.313 147.31 205.859 142.799L204.406 138.277C204.406 138.277 209.348 132.839 207.022 128.306C204.696 123.774 203.232 126.498 202.651 128.306C202.07 130.115 203.232 131.935 202.07 131.935C200.907 131.935 201.779 130.427 198.581 127.101C195.383 123.774 192.756 122.266 193.919 118.95C194.882 116.584 196.262 114.426 197.989 112.587Z" fill="#263238" stroke="#263238" stroke-miterlimit="10"/>
<path d="M197.127 162.761L193.659 170.717L237.868 160.295L232.76 153.663L197.127 162.761Z" fill="white" stroke="#263238" stroke-miterlimit="10"/>
<path d="M162.761 250.898C162.761 250.898 153.821 264.766 150.385 272.002C146.948 279.237 136.991 293.352 134.676 294.72C132.361 296.087 125.072 295.409 124.418 295.926C123.764 296.443 118.126 302.957 116.641 304.841C115.157 306.725 116.974 307.425 118.292 307.586C119.611 307.748 121.106 306.908 122.757 305.358C123.88 304.375 125.269 303.776 126.733 303.646C127.398 303.473 122.269 310.849 122.435 312.055C122.682 312.772 123.126 313.398 123.713 313.855C124.3 314.313 125.004 314.581 125.737 314.628C126.899 314.456 129.89 312.227 129.89 312.227C129.89 312.227 138.196 313.422 140.635 311.365C143.075 309.309 146.595 297.638 147.26 296.098C147.924 294.558 166.602 276.804 173.714 270.968C180.826 265.132 185.135 259.813 185.135 255.356C185.135 250.898 162.761 250.898 162.761 250.898Z" fill="#D4B48F" stroke="#263238" stroke-miterlimit="10"/>
<path d="M214.881 434.937C214.881 434.937 201.716 438.167 194.044 438.167C186.371 438.167 183.038 437.758 183.038 440.407C183.038 443.056 195.227 447.944 202.298 450.808C209.368 453.672 223.136 457.742 224.319 457.333C225.503 456.923 227.86 442.044 227.86 442.044L214.881 434.937Z" fill="#E63946" stroke="#263238" stroke-miterlimit="10"/>
<path d="M183.816 438.889C183.561 439.047 183.353 439.276 183.215 439.55C183.078 439.824 183.016 440.131 183.037 440.439C183.037 443.088 195.226 447.976 202.297 450.84C209.367 453.704 223.135 457.774 224.318 457.365C224.588 457.268 224.92 456.417 225.273 455.158C211.506 452.315 189.495 441.699 183.816 438.889Z" fill="#263238" stroke="#263238" stroke-miterlimit="10"/>
<path d="M191.292 260.632C191.292 260.632 191.095 276.535 192.476 290.198C193.856 303.861 200.138 363.79 200.782 373.168C201.425 382.546 214.933 434.937 214.933 434.937L227.911 442.076C227.911 442.076 234.4 383.773 234.4 373.986V357.674C234.4 357.674 245.821 311.376 249.341 300.394C252.861 289.412 254.646 267.566 254.252 255.334C243.889 259.537 232.932 261.949 221.817 262.473C203.481 263.28 191.292 260.632 191.292 260.632Z" fill="#263238" stroke="#263238" stroke-miterlimit="10"/>
<path d="M263.14 176.133L257.834 220.17C257.834 220.17 255.758 253.547 255.187 256.562C254.616 259.577 251.937 261.149 239.852 265.423C227.766 269.698 195.03 266.651 192.372 263.894C189.714 261.138 189.133 234.231 189.133 234.231C189.133 234.231 185.592 249.833 182.903 251.975C180.214 254.118 170.226 253.192 165.512 248.605C160.799 244.018 166.395 191.422 166.094 186.534C165.793 181.646 195.03 169.716 195.03 169.716C195.03 169.716 235.595 160.026 237.868 160.295C240.142 160.564 262.558 155.644 264.323 158.701C266.088 161.759 267.272 163.6 267.272 163.6" fill="white"/>
<path d="M263.14 176.133L257.834 220.17C257.834 220.17 255.758 253.547 255.187 256.562C254.616 259.577 251.937 261.149 239.852 265.423C227.766 269.698 195.03 266.651 192.372 263.894C189.714 261.138 189.133 234.231 189.133 234.231C189.133 234.231 185.592 249.833 182.903 251.975C180.214 254.118 170.226 253.192 165.512 248.605C160.799 244.018 166.395 191.422 166.094 186.534C165.793 181.646 195.03 169.716 195.03 169.716C195.03 169.716 235.595 160.026 237.868 160.295C240.142 160.564 262.558 155.644 264.323 158.701C266.088 161.759 267.272 163.6 267.272 163.6" stroke="#263238" stroke-miterlimit="10"/>
<path d="M189.132 234.231L181.169 194.178" stroke="#263238" stroke-miterlimit="10"/>
<path d="M232.21 179.212L213.874 236.234" stroke="#263238" stroke-miterlimit="10"/>
<path d="M227.205 216.358L213.874 250.92" stroke="#263238" stroke-miterlimit="10"/>
<path d="M163.415 235.803C162.978 236.457 162.749 237.236 162.761 238.032C162.761 239.399 160.114 250.382 161.266 252.61C162.419 254.839 167.226 257.757 175.002 258.102C182.779 258.446 185.759 257.24 186.423 255.184C187.088 253.127 188.915 243.006 188.749 241.8C188.583 240.595 187.586 241.284 187.586 241.284C182.526 242.359 177.284 242.066 172.365 240.433C164.578 237.687 163.415 235.803 163.415 235.803Z" fill="white" stroke="#263238" stroke-miterlimit="10"/>
<path d="M192.278 272.303C192.278 272.303 192.673 306.553 193.452 326.73C194.23 346.907 197.387 364.414 198.57 368.527C199.754 372.64 226.478 408.074 232.573 415.611C238.668 423.148 250.462 434.571 250.462 434.571L263.783 427.034C263.783 427.034 246.537 401.506 241.024 389.663C235.511 377.819 225.887 358.266 225.887 358.266L231.981 301.794L242.011 296.087" fill="#263238"/>
<path d="M192.278 272.303C192.278 272.303 192.673 306.553 193.452 326.73C194.23 346.907 197.387 364.414 198.57 368.527C199.754 372.64 226.478 408.074 232.573 415.611C238.668 423.148 250.462 434.571 250.462 434.571L263.783 427.034C263.783 427.034 246.538 401.506 241.024 389.663C235.511 377.819 225.887 358.266 225.887 358.266L231.981 301.794L242.011 296.087" stroke="#263238" stroke-miterlimit="10"/>
<path d="M239.862 298.876L231.649 304.55L225.887 358.288L234.348 373.986" stroke="#696969" stroke-miterlimit="10"/>
<path d="M250.68 434.001C250.68 434.001 244.357 443.691 241.948 446.006C239.54 448.321 230.164 454.145 228.856 455.513C227.548 456.88 234.753 458 239.986 458C245.219 458 251.77 456.869 255.051 454.77C258.332 452.67 270.542 443.68 272.068 442.097C273.594 440.515 263.762 426.938 263.762 426.938L250.68 434.001Z" fill="#E63946" stroke="#263238" stroke-miterlimit="10"/>
<path d="M272.068 442.151C272.598 441.613 271.798 439.685 270.521 437.371C265.745 442.582 255.176 453.672 250.68 455.05C245.759 456.568 233.206 455.556 229.219 455.179C229.09 455.28 228.969 455.392 228.856 455.513C227.548 456.869 234.753 458 239.986 458C245.219 458 251.77 456.869 255.051 454.77C258.332 452.67 270.542 443.734 272.068 442.151Z" fill="#263238" stroke="#263238" stroke-miterlimit="10"/>
<path d="M468.09 456.751H19.46" stroke="#263238" stroke-miterlimit="10"/>
</svg>
