<svg width="90" height="80" viewBox="0 0 90 80" fill="none" xmlns="http://www.w3.org/2000/svg">
<path fill-rule="evenodd" clip-rule="evenodd" d="M9.48828 0C4.51772 0 0.488281 4.02944 0.488281 9V71C0.488281 75.9706 4.51772 80 9.48828 80H81C85.9706 80 90 75.9706 90 71V9C90 4.02944 85.9706 0 81 0H9.48828ZM57.4303 25.3058H53.2975C50.0569 25.3058 49.4307 26.8532 49.4288 29.1137V34.5018H56.7418L55.7402 42.3228H49.4306V62H41.3688V42.321H34.7933V34.5H41.3688V28.3382C41.3688 21.6428 45.4506 18 51.4093 18C54.2651 18 56.7173 18.2145 57.4303 18.3098V25.3058Z" fill="#A8DADC"/>
</svg>
