<svg width="400" height="381" viewBox="0 0 400 381" fill="none" xmlns="http://www.w3.org/2000/svg">
<path d="M298.009 17.0862C298.009 17.0862 241.927 -15.4515 177.561 9.27539C113.195 34.0023 72.1884 98.3078 37.6811 149.536C3.1738 200.764 8.42468 260.003 48.9146 293.746C89.4044 327.489 126.085 294.75 189.15 303.967C252.214 313.184 267.558 325.458 325.672 297.897C383.787 270.336 407.449 185.198 376.965 113.717C346.482 42.2371 298.009 17.0862 298.009 17.0862Z" fill="#A8DADC"/>
<path opacity="0.8" d="M298.009 17.0862C298.009 17.0862 241.927 -15.4515 177.561 9.27539C113.195 34.0023 72.1884 98.3078 37.6811 149.536C3.1738 200.764 8.42468 260.003 48.9146 293.746C89.4044 327.489 126.085 294.75 189.15 303.967C252.214 313.184 267.558 325.458 325.672 297.897C383.787 270.336 407.449 185.198 376.965 113.717C346.482 42.2371 298.009 17.0862 298.009 17.0862Z" fill="white"/>
<path d="M312.857 291.526C309.285 288.468 303.969 292.775 301.839 295.877C300.053 298.444 297.718 302.45 297.169 303.387C297.174 303.305 297.174 303.223 297.169 303.142L297.287 303.052C297.252 303.081 297.212 303.104 297.169 303.119C296.58 299.63 295.605 296.223 294.264 292.965C295.168 292.028 298.632 291.068 299.407 290.8C302.635 289.685 305.702 288.814 307.778 285.79C309.414 283.414 310.328 279.932 307.316 278.247C303.238 276.016 298.837 281.26 297.309 284.73C296.114 287.453 294.673 291.526 294.21 292.831C293.046 290.034 291.69 287.327 290.153 284.73C291.449 283.503 292.875 282.433 294.404 281.539C297.234 279.597 299.999 277.946 301.258 274.487C302.248 271.742 302.28 268.138 298.955 267.312C294.447 266.196 291.498 272.478 290.885 276.239C290.444 278.872 290.089 282.599 289.927 284.362C288.765 282.387 287.603 280.591 286.549 278.95C285.494 277.31 284.397 275.692 283.676 274.32L283.988 274.197C283.867 274.22 283.743 274.22 283.622 274.197V274.13C284.343 273.014 287.571 271.418 288.292 271.006C291.251 269.276 294.124 267.848 295.62 264.489C296.803 261.822 297.094 258.24 293.833 257.158C289.411 255.696 286.032 261.744 285.15 265.438C284.461 268.339 283.762 272.612 283.547 273.996C283.418 273.762 283.299 273.527 283.192 273.304C281.818 270.474 280.628 267.551 279.63 264.556H279.964C279.838 264.56 279.712 264.534 279.598 264.478C279.598 264.366 279.523 264.266 279.49 264.154C280.572 262.737 281.807 261.453 283.17 260.327C285.656 257.939 288.131 255.864 288.841 252.215C289.389 249.347 288.841 245.788 285.451 245.52C280.825 245.174 278.888 251.869 278.866 255.674C278.866 258.017 279.017 261.164 279.146 263.094C278.511 261.108 278.07 259.446 277.79 258.352C277.65 257.816 277.553 257.415 277.5 257.18C277.542 255.548 277.708 253.921 277.995 252.315C278.425 248.823 279.071 245.62 277.317 242.273C275.961 239.706 273.346 237.33 270.57 239.405C266.815 242.217 269.494 248.644 271.818 251.568C273.465 253.632 275.972 256.366 277.145 257.627C277.414 258.743 278.016 261.119 278.995 264.099C277.747 263.022 276.588 261.839 275.531 260.561C273.185 258.017 271.119 255.495 267.6 254.837C264.824 254.313 261.403 254.938 261.22 258.475C260.972 263.284 267.461 265.17 271.13 265.103C273.798 265.103 277.586 264.746 279.157 264.601C280.168 267.658 281.379 270.641 282.783 273.527C282.869 273.695 282.955 273.873 283.052 274.041C281.565 273.317 280.142 272.458 278.802 271.474C275.929 269.622 273.325 267.703 269.763 267.959C266.944 268.16 263.781 269.633 264.437 273.114C265.33 277.834 272.077 277.991 275.617 277.009C278.188 276.295 281.739 275.023 283.278 274.465C284.053 275.871 285.064 277.444 286.205 279.207C287.345 280.97 288.636 282.967 289.906 285.143C288.905 285.5 285.451 282.911 284.687 282.432C281.804 280.579 279.211 278.66 275.649 278.917C272.83 279.118 269.656 280.591 270.323 284.072C271.216 288.792 277.952 288.948 281.502 287.966C284.816 287.04 289.766 285.199 289.906 285.143V285.311C289.897 285.263 289.897 285.213 289.906 285.165C291.395 287.698 292.708 290.338 293.833 293.066C292.531 293.255 289.25 291.95 288.453 291.749C285.225 290.733 282.213 289.584 278.834 290.812C276.165 291.771 273.454 294.059 275.003 297.239C277.058 301.546 283.611 299.861 286.775 297.953C289.293 296.424 292.79 293.936 293.855 293.166C295.176 296.389 296.137 299.758 296.717 303.208C295.307 303.264 292.295 302.093 291.552 301.881C288.324 300.865 285.311 299.716 281.944 300.943C279.275 301.903 276.564 304.19 278.113 307.371C280.168 311.678 286.721 309.993 289.884 308.085C292.252 306.645 295.49 304.358 296.76 303.454C297.509 308.185 297.484 313.014 296.685 317.737L297.137 317.815C297.939 313.066 297.968 308.212 297.223 303.454C298.105 302.628 301.946 302.338 302.796 302.26C306.164 301.802 309.349 301.579 311.942 299.035C313.955 297.016 315.504 293.791 312.857 291.526Z" fill="#A8DADC"/>
<path d="M341.629 311.276C338.078 311.611 335.808 313.932 333.247 316.241C332.666 316.766 330.385 319.109 329.072 319.667C328.234 316.285 327.775 312.814 327.706 309.323C328.986 309.569 333.161 310.339 336.056 310.651C339.703 311.042 346.331 309.769 346.493 304.971C346.622 301.423 343.265 300.508 340.446 300.754C336.895 301.077 334.624 303.409 332.064 305.719C331.45 306.266 328.954 308.821 327.695 309.2C327.645 306.236 327.792 303.272 328.136 300.33L328.244 300.452L328.158 300.307C328.308 300.307 333.538 299.85 336.938 299.281C340.564 298.656 346.622 295.632 345.546 290.957C344.771 287.498 341.296 287.509 338.649 288.524C335.302 289.818 333.699 292.675 331.805 295.598C331.31 296.38 329.18 300.196 328.125 300.307C328.416 297.774 328.793 295.431 329.137 293.311C329.481 291.191 329.772 289.361 329.922 287.732C331.536 287.587 335.302 287.219 337.906 286.772C341.532 286.159 347.59 283.135 346.514 278.448C345.729 274.989 342.21 275.011 339.606 276.027C336.26 277.31 334.657 280.167 332.774 283.101C331.942 284.568 330.988 285.957 329.922 287.252C329.922 287.051 329.922 286.862 329.922 286.672C330.052 283.441 329.969 280.205 329.675 276.986C331.203 276.44 334.754 275.134 337.207 274.029C340.564 272.501 345.74 268.015 343.598 263.753C342.027 260.595 338.659 261.521 336.335 263.161C333.398 265.259 332.516 268.439 331.386 271.764C330.935 273.383 330.352 274.958 329.643 276.473C329.341 273.338 328.943 270.894 328.749 269.778C329.32 268.127 330.514 264.578 331.192 261.967C332.171 258.296 332.042 251.3 327.501 250.352C324.144 249.637 322.713 252.918 322.498 255.841C322.229 259.535 324.069 262.235 325.844 265.237C326.745 266.58 327.544 267.994 328.233 269.466C328.233 269.7 328.351 270.102 328.437 270.648C328.62 271.764 328.879 273.472 329.094 275.547C328.437 273.739 327.34 270.794 326.393 268.673C324.854 265.214 320.432 259.948 316.365 262.235C313.352 263.942 314.288 267.413 315.934 269.789C318.022 272.791 321.099 273.639 324.327 274.744C326.015 275.195 327.65 275.839 329.201 276.663V277.009C329.115 277.102 329.013 277.178 328.9 277.232L329.212 277.12C329.493 280.277 329.569 283.449 329.438 286.616C329.438 286.861 329.438 287.129 329.438 287.397C328.685 286.225 326.35 282.633 324.575 280.289C322.304 277.288 316.817 273.237 313.373 276.451C310.834 278.828 312.513 281.974 314.654 283.893C317.355 286.315 320.54 286.393 323.929 286.694C324.747 286.772 328.33 286.85 329.417 287.542V287.631C329.311 287.707 329.189 287.753 329.062 287.765H329.406C329.255 289.339 328.965 291.113 328.631 293.211C328.298 295.308 327.975 297.294 327.695 299.582C326.845 298.053 325.037 294.817 323.595 292.597C321.551 289.439 316.354 284.976 312.696 287.922C309.995 290.153 311.458 293.367 313.449 295.442C315.977 298.064 319.152 298.377 322.498 298.935C324.248 299.102 325.974 299.476 327.641 300.051C327.269 303.077 327.111 306.128 327.168 309.178C326.221 308.174 323.283 305.083 321.121 303.108C318.355 300.608 312.233 297.663 309.425 301.49C307.348 304.313 309.564 307.069 312.007 308.553C315.095 310.417 318.237 309.881 321.616 309.535C322.433 309.446 325.92 308.843 327.168 309.323C327.235 312.86 327.701 316.376 328.556 319.801H328.513H328.642L328.706 320.046C327.835 319.421 324.112 316.777 321.476 315.192C318.248 313.284 311.792 311.633 309.704 315.951C308.187 319.142 310.888 321.408 313.556 322.367C316.935 323.572 319.916 322.367 323.165 321.396C323.983 321.14 327.598 319.723 328.717 320.102C329.935 324.757 331.891 329.169 334.506 333.157L334.883 332.889C332.283 328.924 330.344 324.533 329.148 319.901C330.654 320.18 334.528 320.883 337.25 321.184C340.898 321.575 347.526 320.303 347.698 315.494C347.805 311.945 344.448 311.064 341.629 311.276Z" fill="#A8DADC"/>
<path d="M392.675 195.553C389.447 197.215 388.199 200.239 386.628 203.363C386.273 204.078 384.981 207.124 383.97 208.139C381.989 205.315 380.328 202.263 379.02 199.045C380.301 198.788 384.454 197.929 387.263 197.104C390.792 196.066 396.505 192.361 394.956 187.831C393.815 184.484 390.361 184.896 387.844 186.213C384.616 187.876 383.357 190.9 381.796 194.024C381.431 194.772 380.01 198.097 378.977 198.934C377.878 196.195 376.964 193.38 376.244 190.509L376.384 190.587L376.255 190.487C376.384 190.42 381.119 188.01 384.056 186.18C387.209 184.227 391.782 179.094 389.146 175.144C387.187 172.232 383.97 173.571 381.861 175.523C379.203 178.001 378.73 181.27 378.009 184.707C377.815 185.622 377.202 189.985 376.255 190.487C375.631 188.032 375.179 185.7 374.716 183.602C374.254 181.504 373.909 179.686 373.468 178.123C374.932 177.376 378.278 175.602 380.559 174.196C383.712 172.243 388.285 167.11 385.649 163.16C383.69 160.237 380.473 161.576 378.364 163.528C375.706 166.005 375.233 169.275 374.512 172.712C374.261 174.392 373.868 176.046 373.339 177.655L373.167 177.108C372.146 174.049 370.924 171.067 369.509 168.181C370.735 167.065 373.576 164.51 375.448 162.602C378.041 159.902 381.258 153.754 377.761 150.607C375.179 148.275 372.382 150.395 370.789 152.839C368.809 155.907 369.11 159.199 369.24 162.725C369.375 164.403 369.375 166.09 369.24 167.768C367.852 164.968 366.614 162.837 366.012 161.888C365.947 160.136 365.807 156.365 365.517 153.698C365.119 149.915 362.525 143.466 357.985 144.303C354.617 144.927 354.445 148.532 355.284 151.321C356.36 154.858 359.007 156.677 361.74 158.786C363.051 159.692 364.292 160.703 365.452 161.81C365.581 162.011 365.786 162.357 366.065 162.837C366.636 163.807 367.475 165.302 368.411 167.155C367.163 165.715 365.097 163.394 363.472 161.788C360.815 159.154 354.864 155.93 351.862 159.623C349.71 162.346 351.765 165.202 354.133 166.798C357.145 168.806 360.309 168.416 363.698 168.226C365.426 167.998 367.173 167.972 368.906 168.148C368.96 168.248 369.014 168.349 369.057 168.449C369.016 168.573 368.945 168.684 368.852 168.773L369.11 168.55C370.494 171.379 371.691 174.301 372.694 177.298C372.765 177.528 372.841 177.774 372.919 178.034C371.843 177.242 368.368 174.787 365.882 173.281C362.708 171.361 356.198 169.677 354.1 173.984C352.583 177.164 355.262 179.451 357.931 180.411C361.299 181.638 364.301 180.489 367.55 179.485C368.336 179.239 371.693 177.956 372.93 178.19V178.268C372.857 178.375 372.761 178.462 372.65 178.525L372.963 178.369C373.382 179.898 373.748 181.716 374.168 183.736C374.587 185.756 375.007 187.786 375.556 190.018C374.232 188.902 371.402 186.592 369.272 185.086C366.248 182.921 359.835 180.757 357.436 184.885C355.693 187.943 358.211 190.464 360.804 191.58C364.032 193.053 367.141 192.149 370.488 191.379C372.17 190.865 373.902 190.551 375.653 190.442C376.384 193.398 377.319 196.295 378.45 199.112C377.224 198.543 373.393 196.78 370.671 195.765C367.217 194.481 360.481 194.08 359.222 198.71C358.297 202.125 361.374 203.854 364.129 204.29C367.658 204.836 370.402 203.174 373.414 201.533C374.146 201.143 377.213 199.235 378.504 199.213C379.821 202.479 381.5 205.576 383.507 208.44C383.465 208.45 383.421 208.45 383.378 208.44H383.518L383.658 208.641C382.636 208.396 378.278 207.347 375.211 206.889C371.585 206.32 364.903 207.28 364.537 212.078C364.258 215.615 367.572 216.698 370.391 216.541C373.963 216.374 376.33 214.153 378.999 211.966C379.666 211.42 382.528 208.731 383.701 208.619C386.482 212.482 389.864 215.838 393.708 218.55L393.966 218.159C390.141 215.469 386.783 212.126 384.035 208.273C385.53 207.961 389.415 207.157 392.018 206.376C395.559 205.338 401.272 201.634 399.723 197.104C398.647 193.823 395.225 194.236 392.675 195.553Z" fill="#A8DADC"/>
<path d="M29.1157 204.847C26.3181 202.549 23.1224 202.616 19.733 202.448C17.9553 202.501 16.178 202.332 14.4391 201.946C16.0774 198.899 18.0487 196.057 20.314 193.477C21.0887 194.593 23.5958 198.108 25.4896 200.406C27.8675 203.296 33.5165 207.101 36.8306 203.754C39.2731 201.277 37.4655 198.175 35.2489 196.378C32.4513 194.08 29.2663 194.147 25.8769 193.979C25.0699 193.979 21.5729 193.979 20.4001 193.388C22.3286 191.197 24.4071 189.153 26.6194 187.273C26.6252 187.325 26.6252 187.377 26.6194 187.429V187.262C26.727 187.362 30.8265 190.799 33.6564 192.841C36.6907 194.995 43.1037 197.137 45.4924 192.997C47.2248 189.929 44.7069 187.418 42.103 186.302C38.875 184.841 35.7654 185.767 32.419 186.537C31.5367 186.738 27.4587 187.987 26.6301 187.307C28.5239 185.677 30.3531 184.249 32.0101 182.966C33.6672 181.683 35.0983 180.556 36.3141 179.496C37.5838 180.545 40.5428 182.955 42.7701 184.506C45.8045 186.648 52.2174 188.802 54.6061 184.662C56.3385 181.594 53.8099 179.083 51.2167 177.967C47.9887 176.505 44.8683 177.431 41.5327 178.201C39.9566 178.671 38.3435 178.996 36.7123 179.172L37.1211 178.782C39.3604 176.533 41.4491 174.128 43.3727 171.585C44.8576 172.276 48.29 173.816 50.7971 174.809C54.2403 176.115 60.9761 176.55 62.2565 171.942C63.2141 168.527 60.1798 166.775 57.393 166.362C53.8637 165.782 51.1091 167.478 48.0856 169.052C46.6804 169.901 45.2082 170.625 43.6847 171.216C45.557 168.739 46.9127 166.675 47.4938 165.738C49.0002 164.945 52.2282 163.227 54.4447 161.843C57.5974 159.868 62.1489 154.724 59.4912 150.785C57.5329 147.873 54.3156 149.223 52.2174 151.187C49.5705 153.664 49.097 156.945 48.3976 160.382C48.1586 161.996 47.7989 163.589 47.3216 165.146C47.2033 165.347 46.9773 165.693 46.6868 166.15C46.0842 167.099 45.1266 168.516 43.8999 170.167C44.6316 168.382 45.7937 165.47 46.5254 163.26C47.709 159.656 48.0103 152.671 43.5341 151.433C40.2308 150.506 38.5953 153.664 38.1541 156.588C37.6699 160.259 39.3377 163.071 40.9302 166.184C41.8579 167.716 42.6159 169.352 43.1898 171.06L42.9853 171.328C42.8609 171.337 42.7362 171.318 42.6195 171.272L42.9208 171.417C41.0254 173.903 38.9729 176.255 36.7768 178.458L36.2173 178.982C36.454 177.599 37.1534 173.336 37.4224 170.368C37.7667 166.574 36.4863 159.712 31.8595 159.578C28.4378 159.478 27.5555 162.926 27.8353 165.883C28.1903 169.565 30.4392 171.908 32.688 174.541C33.2368 175.177 35.7761 177.8 36.1097 179.083L36.0451 179.139C35.9215 179.117 35.8039 179.068 35.7008 178.994L35.9591 179.217C34.8077 180.255 33.3767 181.359 31.7734 182.564C30.1702 183.769 28.5454 185.053 26.8669 186.514C27.2757 184.796 28.115 181.158 28.5454 178.525C29.1587 174.765 28.3625 167.824 23.7572 167.367C20.3463 167.01 19.238 170.424 19.3026 173.348C19.3887 177.052 21.4546 179.552 23.5313 182.352C24.6898 183.719 25.6968 185.216 26.5333 186.816C24.2413 188.745 22.0839 190.841 20.0773 193.087C20.0773 191.692 19.9912 187.351 19.7222 184.372C19.3887 180.578 16.9139 174.073 12.3409 174.832C8.96222 175.39 8.72549 178.982 9.51097 181.794C10.5117 185.354 13.1479 187.217 15.8271 189.382C16.4727 189.906 19.4317 191.993 19.9805 193.187C17.6829 195.805 15.6828 198.688 14.0194 201.779L13.9226 201.679L14.0087 201.801L13.8903 202.013C13.6751 200.897 12.739 196.367 11.8782 193.332C10.8022 189.672 7.19757 183.803 2.85053 185.454C-0.377466 186.693 0.0744552 190.264 1.37642 192.863C3.0227 196.144 5.94942 197.45 8.98374 199.034C9.7477 199.425 13.2877 200.987 13.8688 202.069C11.6506 206.308 10.1304 210.902 9.3711 215.66L9.82301 215.738C10.5716 210.98 12.0924 206.389 14.3207 202.158C15.2245 203.442 17.5487 206.711 19.3349 208.853C21.7236 211.754 27.3618 215.548 30.6759 212.201C33.1399 209.746 31.3215 206.666 29.1157 204.847Z" fill="#A8DADC"/>
<path d="M63.5265 287.531C59.8251 286.415 56.6724 287.854 53.24 289.149C52.4653 289.439 49.2911 290.867 47.7739 290.901C48.1942 287.169 49.0283 283.499 50.2595 279.966C51.4538 280.724 55.3597 283.179 58.1465 284.652C61.6758 286.515 68.8097 287.91 70.7788 283.146C72.2206 279.631 69.1971 277.343 66.2703 276.451C62.5797 275.335 59.427 276.774 55.9838 278.069C55.166 278.37 51.6798 279.943 50.3025 279.82C51.3543 276.815 52.6128 273.891 54.0685 271.072C54.0782 271.128 54.0782 271.184 54.0685 271.24V271.061C54.2191 271.061 59.6637 272.78 63.2791 273.561C67.1527 274.398 74.3834 273.795 75.115 268.673C75.6208 264.88 72.1238 263.496 69.0787 263.462C65.2374 263.407 62.5474 265.627 59.5669 267.814C58.7706 268.394 55.1983 271.385 54.1008 271.061C55.3382 268.64 56.5863 266.431 57.7269 264.444C58.8675 262.458 59.8789 260.729 60.5998 259.166C62.2891 259.669 66.1843 260.807 68.9819 261.398C72.8555 262.235 80.0969 261.632 80.8178 256.5C81.3236 252.717 77.8266 251.333 74.7815 251.289C70.9402 251.233 68.2502 253.465 65.2697 255.64C63.8885 256.785 62.4122 257.801 60.8581 258.675L61.1055 258.106C62.4434 254.912 63.5722 251.628 64.4842 248.276C66.2273 248.343 70.2838 248.454 73.0922 248.276C77.0411 248.097 83.9167 245.676 83.368 240.532C82.9591 236.727 79.2469 236.281 76.2879 237.017C72.5434 237.943 70.4775 240.789 68.0888 243.712C67.0294 245.157 65.8522 246.505 64.5703 247.74C65.4526 244.471 65.9691 241.849 66.1842 240.655C67.3786 239.227 69.9072 236.136 71.5642 233.815C73.9099 230.467 76.3955 223.438 72.1883 220.648C69.0787 218.595 66.4102 221.306 65.1082 224.163C63.462 227.767 64.2905 231.215 64.9576 234.942C65.3596 236.654 65.6331 238.396 65.7754 240.153C65.7754 240.409 65.6463 240.844 65.5387 241.425C65.3019 242.619 64.9146 244.449 64.3551 246.613C64.3551 244.527 64.3551 241.135 64.2152 238.624C63.9677 234.529 61.4929 227.466 56.5433 228.113C52.8849 228.615 52.5298 232.476 53.3153 235.533C54.2837 239.394 57.0705 241.481 59.8897 243.891C61.4195 245.024 62.8233 246.33 64.0753 247.785L63.9785 248.131C63.8572 248.193 63.7258 248.231 63.5911 248.242H63.9462C63.0502 251.527 61.9394 254.744 60.6213 257.872C60.5137 258.129 60.4061 258.374 60.277 258.642C59.965 257.158 58.9643 252.617 58.0605 249.548C56.8984 245.62 52.8957 239.338 48.2366 241.179C44.7934 242.541 45.3099 246.39 46.7409 249.169C48.5486 252.695 51.7228 254.056 55.0046 255.719C55.8009 256.12 59.3732 257.649 60.2125 258.787V258.865C60.0811 258.893 59.9457 258.893 59.8143 258.865L60.1587 258.977C59.427 260.494 58.4478 262.213 57.3395 264.143C56.2313 266.073 55.1875 267.982 54.0147 270.169C53.7457 268.294 53.1431 264.299 52.5191 261.499C51.6367 257.493 48.0967 250.932 43.3193 252.416C39.7792 253.531 40.0267 257.392 41.2641 260.226C42.8135 263.875 45.8909 265.471 49.0436 267.379C50.7384 268.247 52.3338 269.31 53.7995 270.548C52.3008 273.425 50.9992 276.408 49.9044 279.475C49.3341 278.102 47.5479 273.806 46.0953 270.961C44.2661 267.323 39.2197 261.911 34.9587 264.623C31.8168 266.62 33.0112 270.291 34.9587 272.757C37.3582 275.87 40.7261 276.607 44.2446 277.611C45.0947 277.857 48.8714 278.66 49.9044 279.62C48.6525 283.207 47.8041 286.933 47.3758 290.722L47.2467 290.666L47.3758 290.744V291.012C46.7302 290.041 43.9864 285.879 41.9205 283.201C39.4349 280.01 33.4739 275.714 29.8047 279.229C27.0932 281.818 28.9547 285.188 31.2788 287.23C34.2271 289.796 37.6595 289.841 41.3071 290.12C42.2217 290.187 46.3751 290.22 47.365 291.046C46.8413 296.215 47.1577 301.439 48.3011 306.5L48.7746 306.388C47.6461 301.355 47.3406 296.161 47.8707 291.023C49.2803 291.916 52.8957 294.17 55.5319 295.565C59.0611 297.428 66.195 298.823 68.1533 294.058C69.4768 290.689 66.4533 288.401 63.5265 287.531Z" fill="white"/>
<path d="M104.705 308.207C102.262 307.482 100.164 308.419 97.883 309.323C96.7213 309.843 95.504 310.218 94.2568 310.439C94.5424 307.965 95.0947 305.532 95.9031 303.186C96.6994 303.688 99.2925 305.317 101.143 306.299C103.478 307.538 108.213 308.453 109.515 305.295C110.483 302.963 108.439 301.445 106.534 300.832C104.081 300.095 101.993 301.044 99.7122 301.947C98.5097 302.5 97.2384 302.876 95.9354 303.063C96.637 301.072 97.4711 299.133 98.4317 297.261C98.4413 297.297 98.4413 297.336 98.4317 297.373V297.25C98.5285 297.25 102.144 298.366 104.533 298.912C107.104 299.47 111.903 299.069 112.366 295.665C112.699 293.155 110.386 292.24 108.363 292.206C105.813 292.206 104.059 293.646 102.047 295.096C101.52 295.487 99.1634 297.462 98.4317 297.25C99.2495 295.643 100.078 294.181 100.831 292.865C101.584 291.548 102.241 290.399 102.736 289.361C103.812 289.696 106.437 290.477 108.299 290.856C110.87 291.414 115.669 291.012 116.121 287.609C116.465 285.098 114.141 284.183 112.129 284.15C109.579 284.15 107.825 285.6 105.813 287.04C104.898 287.8 103.919 288.472 102.886 289.048L103.059 288.669C103.948 286.553 104.696 284.375 105.297 282.152C106.448 282.152 109.138 282.275 111.042 282.152C113.657 282.03 118.219 280.423 117.854 277.009C117.585 274.487 115.12 274.197 113.162 274.676C110.677 275.301 109.299 277.187 107.728 279.14C107.025 280.096 106.244 280.989 105.393 281.807C105.974 279.642 106.319 277.901 106.469 277.109C107.255 276.16 108.933 274.107 110.031 272.567C111.591 270.336 113.259 265.694 110.451 263.842C108.395 262.48 106.62 264.277 105.759 266.174C104.683 268.562 105.211 270.849 105.652 273.326C105.923 274.459 106.106 275.612 106.2 276.774L106.039 277.622C105.878 278.414 105.63 279.62 105.254 281.059C105.254 279.675 105.254 277.421 105.167 275.759C105.006 273.036 103.36 268.35 100.078 268.796C97.6462 269.12 97.4095 271.686 97.926 273.706C98.5716 276.272 100.422 277.656 102.295 279.285C103.302 280.04 104.229 280.904 105.06 281.862L104.995 282.097C104.917 282.144 104.827 282.167 104.737 282.164H104.974C104.398 284.343 103.679 286.48 102.822 288.557L102.596 289.06C102.381 288.089 101.724 285.065 101.122 283.034C100.347 280.434 97.7 276.261 94.6011 277.455C92.32 278.359 92.6643 280.903 93.6112 282.755C94.8056 285.087 96.9145 285.991 99.0988 287.096C99.6261 287.363 101.993 288.368 102.542 289.126V289.182C102.454 289.205 102.361 289.205 102.273 289.182L102.51 289.249C102.015 290.265 101.369 291.403 100.638 292.686C99.9058 293.969 99.1849 295.23 98.4317 296.681C98.2488 295.431 97.8507 292.786 97.4418 290.923C96.85 288.278 94.5043 283.916 91.3301 284.909C88.9844 285.634 89.1781 288.256 89.9743 290.12C91.0503 292.541 93.0409 293.601 95.1391 294.862C96.2629 295.436 97.3204 296.139 98.2918 296.96C97.292 298.878 96.4289 300.869 95.7094 302.918C95.3328 302.003 94.1385 299.158 93.1808 297.261C91.9649 294.851 88.6186 291.258 85.7887 293.054C83.7013 294.382 84.4975 296.826 85.7887 298.455C87.3919 300.519 89.6193 301.01 91.9542 301.68C92.5137 301.836 95.0208 302.371 95.7094 303.007C94.8789 305.387 94.3157 307.858 94.0309 310.372H93.9448L94.0309 310.428C94.0263 310.487 94.0263 310.547 94.0309 310.606C93.6005 309.959 91.782 307.203 90.4155 305.44C88.7692 303.331 84.8095 300.475 82.3778 302.807C80.5809 304.525 81.8075 306.757 83.3569 308.107C85.3045 309.814 87.5856 309.848 90.0066 310.026C90.6092 310.026 93.3638 310.104 94.0201 310.651C93.6802 314.078 93.8911 317.539 94.6442 320.894L94.9562 320.816C94.2094 317.479 94.0057 314.036 94.3537 310.629C95.2898 311.22 97.6893 312.715 99.4432 313.641C101.778 314.88 106.512 315.806 107.814 312.648C108.643 310.294 106.642 308.832 104.705 308.207Z" fill="white"/>
<path d="M96.9572 306.879C94.6546 307.995 93.7292 310.227 92.5564 312.392C92.0374 313.586 91.3798 314.71 90.598 315.739C89.2181 313.698 88.0666 311.5 87.1656 309.189C88.0802 309.011 91.0607 308.442 93.0728 307.895C95.6014 307.192 99.7225 304.614 98.668 301.356C97.8826 298.957 95.44 299.214 93.6001 300.117C91.2974 301.233 90.3721 303.465 89.1992 305.63C88.6784 306.889 87.9823 308.062 87.1333 309.111C86.3775 307.143 85.7555 305.122 85.2718 303.063L85.3687 303.119L85.2718 303.041C85.3687 303.041 88.7688 301.322 90.8993 300.05C93.0298 298.778 96.4945 295.074 94.6438 292.24C93.2773 290.131 90.9639 291.046 89.436 292.429C87.5207 294.159 87.1333 296.491 86.5953 298.946C86.4447 299.593 85.9497 302.706 85.2718 303.052C84.8522 301.289 84.5294 299.615 84.1958 298.12C83.8623 296.625 83.6578 295.297 83.3673 294.181C84.4433 293.657 86.832 292.44 88.4783 291.458C90.7487 290.097 94.0735 286.482 92.2228 283.648C90.8563 281.539 88.5429 282.465 87.015 283.837C85.0997 285.578 84.7231 287.899 84.1743 290.354C83.9722 291.549 83.6735 292.725 83.2812 293.869C83.2812 293.735 83.2059 293.601 83.1629 293.478C82.4657 291.286 81.6244 289.146 80.645 287.073C81.5274 286.303 83.5825 284.496 84.949 283.123C86.8213 281.226 89.1885 276.874 86.7244 274.576C84.8952 272.88 82.8724 274.364 81.721 276.082C80.2684 278.258 80.4514 280.612 80.5052 283.134C80.6072 284.333 80.6072 285.539 80.5052 286.738C79.5475 284.719 78.6867 283.19 78.2886 282.498C78.2886 281.248 78.1918 278.559 78.0196 276.651C77.7721 273.94 75.9967 269.298 72.7257 269.845C70.3047 270.257 70.1433 272.824 70.7136 274.832C71.4345 277.365 73.3282 278.693 75.2435 280.233C76.1714 280.908 77.049 281.654 77.869 282.465L78.2886 283.212C78.676 283.915 79.2678 284.987 79.9134 286.314C79.031 285.277 77.5784 283.603 76.4379 282.431C74.5656 280.523 70.3262 278.158 68.1634 280.758C66.571 282.677 68.0343 284.752 69.7129 285.913C71.8649 287.374 74.1137 287.129 76.5347 287.029C77.7717 286.883 79.0207 286.883 80.2577 287.029C80.2893 287.101 80.3252 287.172 80.3653 287.241C80.3292 287.327 80.2781 287.407 80.2146 287.475L80.3976 287.319C81.3552 289.352 82.1784 291.451 82.8616 293.601C82.9154 293.779 82.9692 293.958 83.0122 294.136C82.2268 293.556 79.7842 291.76 78.0411 290.655C75.7923 289.249 71.1332 287.977 69.616 291.023C68.54 293.255 70.3908 294.951 72.2845 295.665C74.684 296.58 76.836 295.799 79.1709 295.107C79.7304 294.951 82.1407 294.058 83.0445 294.248V294.326C82.9912 294.398 82.9256 294.458 82.8508 294.505L83.066 294.404C83.3566 295.52 83.604 296.792 83.8838 298.243C84.1636 299.693 84.4326 301.144 84.8092 302.706C83.873 301.903 81.8717 300.207 80.3653 299.102C78.2133 297.529 73.6726 295.911 71.9402 298.834C70.6705 300.999 72.4352 302.807 74.2751 303.666C76.5993 304.782 78.8051 304.134 81.183 303.666C82.387 303.317 83.6251 303.111 84.8737 303.052C85.3682 305.167 86.0045 307.244 86.7782 309.267C85.9067 308.854 83.1952 307.549 81.2584 306.801C78.8051 305.853 74.0061 305.485 73.0485 308.776C72.3491 311.209 74.5118 312.481 76.5024 312.827C79.0203 313.262 80.9894 312.079 83.1629 310.963C83.6901 310.696 85.8959 309.368 86.8213 309.368C87.7279 311.713 88.8942 313.941 90.2968 316.007H90.2107H90.3075L90.4044 316.152C89.6727 315.962 86.5415 315.17 84.3895 314.802C81.8071 314.356 77.0189 314.969 76.7069 318.384C76.4702 320.917 78.8589 321.731 80.8495 321.664C83.3996 321.586 85.1535 320.035 87.0365 318.506C87.5207 318.116 89.5866 316.275 90.4259 316.185C92.3749 318.976 94.7565 321.411 97.4737 323.394L97.6674 323.115C94.9618 321.146 92.594 318.721 90.6626 315.94C91.7386 315.728 94.4932 315.192 96.3869 314.668C98.9263 313.976 103.047 311.387 101.993 308.14C101.24 305.708 98.7649 305.964 96.9572 306.879Z" fill="#A8DADC"/>
<path d="M201.781 380.245C275.338 380.245 334.968 369.38 334.968 355.976C334.968 342.572 275.338 331.707 201.781 331.707C128.224 331.707 68.5938 342.572 68.5938 355.976C68.5938 369.38 128.224 380.245 201.781 380.245Z" fill="#A8DADC"/>
<path opacity="0.5" d="M201.781 380.245C275.338 380.245 334.968 369.38 334.968 355.976C334.968 342.572 275.338 331.707 201.781 331.707C128.224 331.707 68.5938 342.572 68.5938 355.976C68.5938 369.38 128.224 380.245 201.781 380.245Z" fill="white"/>
<path d="M212.24 166.005C212.24 166.005 201.76 205.841 200.598 222.734C199.436 239.628 200.598 258.541 202.147 262.904C203.697 267.267 216.135 330.903 216.135 330.903C216.135 330.903 209.938 339.35 207.603 342.965C205.268 346.581 197.521 352.628 197.133 355.039C196.746 357.449 206.441 356.244 211.487 354.637C216.534 353.03 221.569 347.797 223.904 346.592C226.239 345.387 231.275 344.985 231.275 340.555C231.275 336.125 228.165 327.678 228.165 322.043C228.165 316.408 227.369 278.704 227.369 271.418C227.369 264.132 221.548 254.123 221.548 254.123L233.577 211.476C233.577 211.476 235.514 259.356 237.881 266.999C240.249 274.643 247.2 323.327 247.2 331.773C247.2 340.22 246.425 342.63 246.425 342.63C246.425 342.63 237.494 355.105 234.008 359.524C230.522 363.943 226.637 365.561 229.704 368.384C232.77 371.207 251.041 369.187 255.313 357.114C259.584 345.041 261.134 328.549 262.683 318.897C264.233 309.245 267.342 295.966 265.782 283.893C264.222 271.82 258.412 264.589 259.584 259.345C260.757 254.1 270.054 192.562 270.054 182.899C270.054 173.236 267.73 168.828 267.73 168.828C267.73 168.828 239.399 178.09 212.24 166.005Z" fill="#D4B48F" stroke="#263238" stroke-linecap="round" stroke-linejoin="round"/>
<path d="M270.043 182.91C270.043 173.258 267.719 168.84 267.719 168.84C267.719 168.84 239.399 178.09 212.24 166.017C212.24 166.017 201.76 205.852 200.598 222.746C199.436 239.639 200.598 258.553 202.148 262.916C203.331 266.263 210.756 303.521 214.253 321.419C218.648 323.435 223.626 323.611 228.144 321.91C228.144 315.828 227.369 278.548 227.369 271.362C227.369 264.177 221.548 254.067 221.548 254.067L233.577 211.42C233.577 211.42 235.514 259.3 237.881 266.944C240.249 274.587 247.2 323.271 247.2 331.718C247.2 332.242 247.2 332.756 247.2 333.235C251.439 335.011 256.123 335.293 260.531 334.039C261.403 328.315 262.07 322.959 262.683 318.841C264.233 309.189 267.342 295.911 265.782 283.837C264.222 271.764 258.412 264.534 259.584 259.289C260.757 254.045 270.043 192.573 270.043 182.91Z" fill="#263238" stroke="#263238" stroke-linecap="round" stroke-linejoin="round"/>
<path d="M213.015 156.365C213.015 156.365 211.078 166.017 211.078 168.025C211.078 170.034 219.998 178.492 237.064 180.098C254.129 181.705 265.384 178.492 268.493 176.885C271.603 175.278 268.881 158.775 268.881 158.775C268.881 158.775 242.497 167.222 232.415 164.008C225.813 161.846 219.336 159.294 213.015 156.365Z" fill="#A8DADC" stroke="#263238" stroke-linecap="round" stroke-linejoin="round"/>
<path d="M100.132 142.729C100.132 142.729 93.2347 153.731 92.46 159.31C91.6852 164.89 98.1843 171.306 102.069 168.092C105.953 164.878 108.277 146.746 108.277 144.336C108.277 141.926 107.502 137.083 100.132 142.729Z" fill="#A8DADC" stroke="#263238" stroke-linecap="round" stroke-linejoin="round"/>
<path d="M112.162 121.372C112.162 121.372 105.179 122.186 104.006 125.4C102.833 128.614 97.7972 141.903 97.4099 145.128C97.0225 148.353 105.179 149.156 105.179 149.156L112.162 121.372Z" fill="#A8DADC" stroke="#263238" stroke-linecap="round" stroke-linejoin="round"/>
<path d="M137.781 89.9835C137.781 89.9835 117.983 103.675 113.711 113.338C109.44 123.001 100.519 157.224 98.9593 164.064C97.3991 170.904 104.393 176.137 112.947 178.96C121.501 181.783 128.861 182.988 138.567 174.497C148.272 166.005 147.885 145.485 147.885 135.443C147.885 125.4 145.948 93.9782 145.173 91.1551C144.399 88.3321 137.781 89.9835 137.781 89.9835Z" fill="#A8DADC" stroke="#263238" stroke-linecap="round" stroke-linejoin="round"/>
<path d="M131.314 162.022C131.314 162.022 127.182 183.881 128.011 201.444C128.591 214.316 128.177 227.215 126.773 240.019C125.945 249.012 122.642 261.443 122.642 275.58C122.642 289.718 129.668 323.148 129.668 327.433C129.668 331.718 125.945 348.857 125.945 355.329C125.945 361.801 128.42 372.892 136.705 369.043C144.99 365.193 140.837 346.726 140.837 334.764C140.837 322.802 143.312 302.617 145.377 287.62C147.443 272.623 148.681 246.491 149.509 243.054C150.338 239.617 156.116 213.919 156.536 208.775C156.955 203.631 162.733 187.787 162.733 187.787V228.492C162.733 244.348 164.799 254.625 164.799 266.196C164.799 277.767 163.971 288.055 164.799 298.332C165.628 308.609 163.971 332.611 163.971 339.897C163.971 347.183 163.142 347.183 168.931 351.055C174.72 354.927 173.891 358.342 177.604 361.332C181.316 364.323 188.364 366.476 189.181 360.484C189.999 354.492 181.327 338.625 179.261 334.34C177.195 330.055 183.393 297.518 185.458 286.359C187.524 275.201 188.762 249.079 187.524 239.651C186.287 230.222 199.091 192.942 198.683 179.663C198.672 179.596 157.762 180.02 131.314 162.022Z" fill="#FFD9AC" stroke="#263238" stroke-linecap="round" stroke-linejoin="round"/>
<path d="M198.672 179.596C198.672 179.596 157.784 180.02 131.314 162.022C131.314 162.022 127.182 183.881 128.011 201.444C128.591 214.316 128.177 227.215 126.773 240.019C125.945 249.012 122.642 261.443 122.642 275.58C122.642 284.853 125.654 302.36 127.742 314.634C130.066 316.62 134.327 318.205 141.945 315.996C142.86 306.511 144.183 296.212 145.367 287.598C147.433 272.601 148.67 246.468 149.499 243.031C150.327 239.595 156.105 213.897 156.525 208.753C156.944 203.609 162.723 187.764 162.723 187.764V228.492C162.723 244.348 164.789 254.625 164.789 266.196C164.789 277.767 163.96 288.055 164.789 298.332C165.014 301.188 165.058 305.083 164.993 309.39C170.053 311.702 175.676 312.345 181.101 311.231C182.607 301.635 184.512 291.559 185.491 286.292C187.557 275.134 188.794 249.012 187.557 239.583C186.319 230.155 199.081 192.875 198.672 179.596Z" fill="#263238" stroke="#263238" stroke-linecap="round" stroke-linejoin="round"/>
<path d="M178.701 66.8747C178.701 66.8747 159.839 66.4842 153.286 69.6755C146.733 72.8667 141.74 129.562 141.74 129.562L130.98 163.896C130.98 163.896 154.082 180.634 166.79 181.873C179.497 183.111 199.07 182.263 199.07 182.263L200.608 143.934C200.608 143.934 214.478 100.417 217.555 89.2583C220.633 78.1 212.552 74.083 204.461 70.8917C196.369 67.7004 178.701 66.8747 178.701 66.8747Z" fill="#E63946" stroke="#263238" stroke-linecap="round" stroke-linejoin="round"/>
<path d="M160.022 107.502L147.615 159.009L188.32 172.779L201.028 120.078L160.022 107.502Z" fill="white" stroke="#263238" stroke-linecap="round" stroke-linejoin="round"/>
<path d="M161.077 67.8454L136.619 147.148L167.683 66.6292L161.077 67.8454Z" fill="#263238" stroke="#263238" stroke-linecap="round" stroke-linejoin="round"/>
<path d="M155.987 65.6807C155.987 65.6807 144.818 66.8746 142.128 71.2598C139.438 75.6451 123.642 115.581 123.255 120.769C122.868 125.958 158.031 162.245 158.031 162.245L165.563 157.904C165.563 157.904 154.405 138.734 152.092 131.548C150.301 126.568 147.802 121.893 144.678 117.678L155.557 86.8257" fill="#E63946"/>
<path d="M155.987 65.6807C155.987 65.6807 144.818 66.8746 142.128 71.2598C139.438 75.6451 123.642 115.581 123.255 120.769C122.868 125.958 158.031 162.245 158.031 162.245L165.563 157.904C165.563 157.904 154.405 138.734 152.092 131.548C150.301 126.568 147.802 121.893 144.678 117.678L155.557 86.8257" stroke="#263238" stroke-linecap="round" stroke-linejoin="round"/>
<path d="M165.606 157.915C165.606 157.915 172.923 156.32 174.462 157.112C176 157.904 184.479 165.503 184.479 165.503C184.479 165.503 185.243 167.099 182.553 167.099C179.863 167.099 174.074 163.896 174.074 163.896L179.852 176.673C180.073 177.175 180.188 177.721 180.188 178.274C180.188 178.826 180.073 179.372 179.852 179.875C179.089 181.471 176 180.667 174.472 180.667C172.945 180.667 169.092 181.471 166.004 179.875C162.916 178.279 158.042 162.256 158.042 162.256L165.606 157.915Z" fill="#FFD9AC" stroke="#263238" stroke-linecap="round" stroke-linejoin="round"/>
<path d="M218.449 84.7505C218.826 87.1495 213.446 125.467 213.446 132.954C213.446 140.442 211.423 153.62 205.914 159.913C200.405 166.206 184.329 174.285 184.329 174.285L182.554 167.121C182.554 167.121 201.922 133.881 202.191 132.977C202.46 132.073 208.249 96.1543 208.249 96.1543" fill="#E63946"/>
<path d="M218.449 84.7505C218.826 87.1495 213.446 125.467 213.446 132.954C213.446 140.442 211.423 153.62 205.914 159.913C200.405 166.206 184.329 174.285 184.329 174.285L182.554 167.121C182.554 167.121 201.922 133.881 202.191 132.977C202.46 132.073 208.249 96.1543 208.249 96.1543" stroke="#263238" stroke-linecap="round" stroke-linejoin="round"/>
<path d="M173.31 166.497C171.065 167.564 168.749 168.467 166.381 169.197C164.649 169.487 161.184 173.984 158.29 175.479C155.395 176.974 155.987 179.373 157.429 179.674C158.871 179.976 162.626 178.469 162.626 178.469C162.626 178.469 158.871 183.267 159.161 184.461C159.452 185.655 162.045 186.258 163.207 185.957C164.369 185.655 168.404 186.86 172.439 186.559C176.474 186.258 184.275 174.285 184.275 174.285L182.833 166.195L173.31 166.497Z" fill="#FFD9AC" stroke="#263238" stroke-linecap="round" stroke-linejoin="round"/>
<path d="M231.253 73.0789C231.253 73.0789 220.773 71.8738 215.339 73.8935C209.905 75.9131 206.031 102.448 208.743 110.504C211.454 118.56 212.24 135.052 209.916 145.095C207.592 155.137 209.13 162 228.143 168.427C247.156 174.854 259.175 171.25 265.383 166.418C271.592 161.587 274.712 97.6272 274.712 90.3854C274.712 83.1437 252.988 75.0986 245.66 73.8935C240.893 73.1512 236.069 72.8784 231.253 73.0789Z" fill="#A8DADC" stroke="#263238" stroke-linecap="round" stroke-linejoin="round"/>
<path d="M245.661 73.8933C245.661 73.8933 227.369 116.128 227.369 119.754V128.201L251.041 169.643L251.428 164.064L230.866 126.248V119.006L249.879 74.3731L245.661 73.8933Z" fill="#263238" stroke="#263238" stroke-linecap="round" stroke-linejoin="round"/>
<path d="M263.835 116.529C263.835 116.529 251.805 152.336 250.643 161.999C249.481 171.663 252.978 178.893 261.123 183.312C269.269 187.731 275.865 191.368 288.282 186.938C300.699 182.508 305.734 163.205 303.023 147.884C300.311 132.564 295.265 111.33 290.218 101.287C285.172 91.2446 278.576 88.8233 273.142 93.242C267.709 97.6606 263.835 116.529 263.835 116.529Z" fill="white" stroke="#263238" stroke-linecap="round" stroke-linejoin="round"/>
<path d="M276.198 135.398C276.198 135.398 264.566 168.471 262.877 175.892C261.188 183.312 272.636 189.215 279.835 188.679" stroke="#263238" stroke-linecap="round" stroke-linejoin="round"/>
<path d="M302.915 164.7C298.839 161.123 294.127 158.409 289.046 156.71C280.825 154.044 273.121 151.388 271.066 152.984C269.01 154.579 267.978 161.509 267.978 161.509C267.978 161.509 280.825 163.64 287.507 166.307C291.861 168.111 295.999 170.433 299.838 173.225C299.838 173.225 301.893 171.585 302.915 164.7Z" stroke="#263238" stroke-linecap="round" stroke-linejoin="round"/>
<path d="M181.197 49.3452C181.197 49.3452 155.599 46.1316 147.841 50.1486C140.083 54.1656 149.003 60.6151 156.761 63.427C162.727 65.6246 169.083 66.447 175.387 65.8372C179.648 65.4355 183.532 55.7835 181.197 49.3452Z" fill="#A8DADC" stroke="#263238" stroke-linecap="round" stroke-linejoin="round"/>
<path d="M176.937 70.2668C176.937 70.2668 176.549 82.7418 190.516 85.5537C204.482 88.3656 205.644 79.9188 205.644 79.9188L204.095 59.8337L191.678 54.1987L176.937 70.2668Z" fill="#FFD9AC" stroke="#263238" stroke-linecap="round" stroke-linejoin="round"/>
<path d="M214.543 18.7156C214.543 18.7156 210.304 13.9398 198.661 15.1561C187.019 16.3723 180.423 38.0864 178.099 44.9264C175.775 51.7664 169.179 71.0703 169.566 73.938C169.954 76.8056 179.25 76.3481 183.92 69.1064C187.006 64.4428 189.606 59.4532 191.678 54.2213C194.002 48.988 202.933 35.2522 202.933 35.2522L205.257 54.9689C202.073 61.6749 199.975 68.8792 199.049 76.2924C197.886 87.5511 200.211 98.0175 196.724 104.456C193.238 110.894 192.42 114.911 200.598 113.706C208.776 112.501 217.674 95.6074 218.449 84.6945C219.224 73.7817 219.998 64.9778 220.386 51.7106C220.773 38.4434 220.773 27.9658 218.836 24.3505C217.712 22.2413 216.262 20.3377 214.543 18.7156Z" fill="#263238" stroke="#263238" stroke-linecap="round" stroke-linejoin="round"/>
<path d="M207.894 102.771C206.588 103.439 205.178 103.858 203.729 104.01" stroke="white" stroke-width="0.75" stroke-linecap="round" stroke-linejoin="round"/>
<path d="M215.275 54.9019C215.275 54.9019 216.749 56.676 216.05 65.279C215.35 73.8821 216.437 90.8315 213.349 97.2251C212.718 98.549 211.858 99.7406 210.81 100.74" stroke="white" stroke-width="0.75" stroke-linecap="round" stroke-linejoin="round"/>
<path d="M174.85 60.0906C174.85 60.0906 179.466 59.2983 183.705 54.0986" stroke="white" stroke-width="0.75" stroke-linecap="round" stroke-linejoin="round"/>
<path d="M206.032 18.1685C206.032 18.1685 209.884 21.7391 209.12 24.551" stroke="white" stroke-width="0.75" stroke-linecap="round" stroke-linejoin="round"/>
<path d="M231.673 14.7541C231.673 14.7541 222.355 13.9395 218.481 20.3333C214.607 26.727 218.094 36.8365 218.094 51.7218C218.094 66.607 217.319 81.4923 215.371 87.5178C213.424 93.5433 220.031 91.546 223.129 86.7144C226.228 81.8828 228.951 73.8488 230.5 71.4274C232.049 69.0061 240.98 65.3908 240.98 65.3908C240.98 65.3908 240.206 80.276 242.53 85.4758C244.854 90.6756 254.559 89.504 257.658 87.4843C260.521 85.4048 263.243 83.1231 265.804 80.6554C265.804 80.6554 261.5 78.6357 261.5 66.9753C261.5 55.3148 263.436 34.7834 258.003 23.1229C256.906 20.6829 255.327 18.5091 253.368 16.7421C251.409 14.9751 249.115 13.6544 246.633 12.8655C244.151 12.0766 241.536 11.8371 238.959 12.1624C236.382 12.4877 233.9 13.3707 231.673 14.7541Z" fill="#263238" stroke="#263238" stroke-linecap="round" stroke-linejoin="round"/>
<path d="M244.047 45.7297C248.23 49.6144 251.1 54.7891 252.235 60.4922C254.161 70.0772 251.084 80.4544 256.087 82.0501" stroke="white" stroke-width="0.75" stroke-linecap="round" stroke-linejoin="round"/>
<path d="M240.938 22.3752C245.187 25.3428 248.778 29.2151 251.472 33.7344C258.401 45.3167 256.475 66.0935 258.014 75.2656C259.552 84.4378 264.556 79.6509 264.556 79.6509" stroke="white" stroke-width="0.75" stroke-linecap="round" stroke-linejoin="round"/>
<path d="M234.524 18.9722C235.707 19.3834 236.852 19.9023 237.946 20.5229" stroke="white" stroke-width="0.75" stroke-linecap="round" stroke-linejoin="round"/>
<path d="M231.447 16.9746C231.447 16.9746 227.519 21.0474 226.594 24.0044" stroke="white" stroke-width="0.75" stroke-linecap="round" stroke-linejoin="round"/>
<path d="M226.207 62.6232C226.207 62.6232 228.144 71.0702 226.982 76.7053C225.82 82.3403 230.468 87.1608 234.352 83.5454C238.237 79.9301 240.561 73.5028 240.948 69.0394C241.246 66.0531 241.764 63.0949 242.498 60.1907C242.498 60.1907 228.144 64.2301 226.207 62.6232Z" fill="#D4B48F" stroke="#263238" stroke-linecap="round" stroke-linejoin="round"/>
<path d="M231.253 340.622C231.135 338.483 230.803 336.363 230.263 334.295C225.69 336.293 220.773 338.614 220.773 338.614C220.263 336.916 219.157 335.478 217.674 334.585C216.546 334.061 215.327 333.777 214.091 333.749C212.068 336.538 209.055 340.745 207.635 343.032C205.311 346.659 197.553 352.695 197.166 355.106C196.778 357.516 206.473 356.311 211.519 354.704C216.566 353.097 221.602 347.864 223.936 346.659C226.271 345.454 231.253 345.052 231.253 340.622Z" fill="#E63946" stroke="#263238" stroke-linecap="round" stroke-linejoin="round"/>
<path d="M255.345 357.114C256.592 353.467 257.609 349.74 258.39 345.956L253.01 349.047C253.01 349.047 253.01 347.44 249.9 344.215C248.956 343.261 247.775 342.597 246.489 342.296C246.469 342.401 246.444 342.506 246.414 342.608C246.414 342.608 237.483 355.083 233.997 359.502C230.511 363.921 226.626 365.539 229.693 368.362C232.76 371.185 251.041 369.188 255.345 357.114Z" fill="#E63946" stroke="#263238" stroke-linecap="round" stroke-linejoin="round"/>
<path d="M233.577 211.476L228.144 198.208" stroke="white" stroke-linecap="round" stroke-linejoin="round"/>
<path d="M162.97 54.5785C162.97 54.5785 177.324 72.2755 177.324 75.9019C177.324 79.5284 164.961 82.3179 161.033 81.9386C157.106 81.5592 144.345 65.4355 142.02 60.2134C139.696 54.9914 145.507 51.7666 149.391 50.9521C151.95 50.453 154.546 50.1842 157.149 50.1487" fill="#A8DADC"/>
<path d="M162.97 54.5785C162.97 54.5785 177.324 72.2755 177.324 75.9019C177.324 79.5284 164.961 82.3179 161.033 81.9386C157.106 81.5592 144.345 65.4355 142.02 60.2134C139.696 54.9914 145.507 51.7666 149.391 50.9521C151.95 50.453 154.546 50.1842 157.149 50.1487" stroke="#263238" stroke-linecap="round" stroke-linejoin="round"/>
<path d="M184.695 88.7786C184.695 88.7786 185.706 92.126 185.986 93.7105C186.266 95.295 185.846 98.0734 186.406 99.5351C186.965 100.997 185.986 104.188 183.748 101.856C181.51 99.5239 181.919 96.3327 182.478 94.2907C183.099 92.4045 183.839 90.563 184.695 88.7786Z" fill="#D4B48F" stroke="#263238" stroke-linecap="round" stroke-linejoin="round"/>
<path d="M173.827 73.8934C173.827 73.8934 166.069 73.8934 163.745 75.9018C161.42 77.9103 163.357 81.9385 163.357 81.9385C163.829 83.9219 164.455 85.8624 165.229 87.7408C167.242 91.6127 169.437 91.9698 169.437 91.9698C169.437 91.9698 169.566 98.8321 171.89 98.8321C174.214 98.8321 180.035 99.6355 181.983 98.8321C183.93 98.0287 184.694 91.5904 184.694 88.7897C184.694 85.9889 176.162 73.0788 173.827 73.8934Z" fill="#D4B48F" stroke="#263238" stroke-linecap="round" stroke-linejoin="round"/>
<path d="M174.613 89.1802L173.827 98.4302" stroke="#263238" stroke-linecap="round" stroke-linejoin="round"/>
<path d="M179.11 89.3364L177.55 98.9883" stroke="#263238" stroke-linecap="round" stroke-linejoin="round"/>
<path d="M182.543 89.939C182.543 89.939 181.467 95.9086 180.982 98.6536" stroke="#263238" stroke-linecap="round" stroke-linejoin="round"/>
<path d="M136.695 368.998C128.431 372.847 125.935 361.711 125.935 355.284C125.935 348.857 129.658 331.718 129.658 327.388C129.613 326.499 129.524 325.612 129.389 324.733C131.734 326.563 136.157 328.928 141.106 326.295C140.923 329.352 140.816 332.186 140.816 334.675C140.826 346.77 144.958 365.137 136.695 368.998ZM177.583 361.276C181.306 364.278 188.343 366.42 189.16 360.428C189.978 354.436 181.306 338.569 179.24 334.284C178.529 332.822 178.788 328.058 179.519 322.01C177.185 323.24 174.577 323.806 171.963 323.649C169.348 323.492 166.821 322.619 164.638 321.117C164.337 328.928 163.95 336.382 163.95 339.886C163.95 347.172 163.121 347.172 168.91 351.044C174.699 354.916 173.881 358.286 177.593 361.276H177.583Z" fill="#263238" stroke="#263238" stroke-linecap="round" stroke-linejoin="round"/>
<path d="M168.921 351C174.709 354.849 173.881 358.286 177.593 361.276C181.305 364.267 188.353 366.42 189.171 360.428C189.171 360.294 189.171 360.127 189.171 359.982C183.49 362.493 180.918 360.138 177.916 357.55C174.451 354.548 173.3 350.062 168.684 347.964C164.068 345.867 163.949 339.852 163.949 339.852C163.96 347.139 163.132 347.139 168.921 351Z" fill="white" stroke="#263238" stroke-linecap="round" stroke-linejoin="round"/>
<path d="M141.838 356.043C140.676 359.446 138.771 364.01 135.479 365.327C131.992 366.744 128.506 363.564 126.591 361.321C127.774 366.744 130.723 371.776 136.694 368.998C140.579 367.179 141.719 362.135 141.838 356.043Z" fill="white" stroke="#263238" stroke-linecap="round" stroke-linejoin="round"/>
<path d="M226.595 24.0044C226.595 24.0044 219.999 29.2265 219.224 32.4513C218.449 35.676 219.224 51.7663 220.386 55.7833C221.724 60.427 224.738 64.3562 228.8 66.752C234.18 70.0214 242.498 60.2132 242.498 60.2132L244.047 45.7074C244.047 45.7074 226.595 29.6394 226.595 24.0044Z" fill="#D4B48F" stroke="#263238" stroke-linecap="round" stroke-linejoin="round"/>
<path d="M225.454 41.9247C225.454 43.0406 224.98 43.8774 224.378 43.8774C223.775 43.8774 223.302 43.0071 223.302 41.9247C223.302 40.8424 223.775 39.9832 224.378 39.9832C224.98 39.9832 225.454 40.8535 225.454 41.9247Z" fill="#263238"/>
<path d="M235.298 41.9247C235.298 43.0406 234.836 43.8774 234.222 43.8774C233.609 43.8774 233.146 43.0071 233.146 41.9247C233.146 40.8424 233.62 39.9832 234.222 39.9832C234.825 39.9832 235.298 40.8535 235.298 41.9247Z" fill="#263238"/>
<path d="M227.562 42.6611C226.572 44.4519 225.713 46.3167 224.99 48.2402C224.754 49.4564 226.4 50.6726 228.509 50.4718" stroke="#263238" stroke-linecap="round" stroke-linejoin="round"/>
<path d="M221.989 37.0706C222.57 36.4815 223.326 36.1127 224.134 36.0237C224.943 35.9346 225.756 36.1305 226.444 36.5797" stroke="#263238" stroke-linecap="round" stroke-linejoin="round"/>
<path d="M230.145 36.8253C230.145 36.8253 233.9 34.5937 236.471 38.0415" stroke="#263238" stroke-linecap="round" stroke-linejoin="round"/>
<path d="M227.982 54.9018C227.982 54.9018 232.437 57.0777 236.59 51.3647" stroke="#263238" stroke-linecap="round" stroke-linejoin="round"/>
<path d="M208.355 27.3742C208.355 27.3742 203.675 25.1425 199.414 30.0187C195.153 34.8949 195.11 41.9246 191.333 46.7562C187.556 51.5877 185.383 52.9379 185.383 52.9379C185.383 52.9379 186.233 63.9623 193.033 68.8161C199.833 73.67 207.495 64.8438 213.875 52.9379C213.875 52.9602 207.075 34.4262 208.355 27.3742Z" fill="#FFD9AC" stroke="#263238" stroke-linecap="round" stroke-linejoin="round"/>
<path d="M207 47.5596C205.786 49.6165 204.794 51.8055 204.041 54.0871C203.557 56.3188 200.189 55.5824 199.941 53.585" stroke="#263238" stroke-linecap="round" stroke-linejoin="round"/>
<path d="M194.163 52.8374C194.163 52.8374 194.884 56.3412 199.468 57.5798" stroke="#263238" stroke-linecap="round" stroke-linejoin="round"/>
<path d="M198.5 39.3583C198.5 39.3583 201.394 37.1269 204.041 40.6079" stroke="#263238" stroke-linecap="round" stroke-linejoin="round"/>
<path d="M208.378 43.1072C208.378 43.1072 211.746 42.605 213.672 47.8499" stroke="#263238" stroke-linecap="round" stroke-linejoin="round"/>
<path d="M197.574 45.9304C197.574 45.9304 200.458 43.6987 202.814 47.5596" stroke="#263238" stroke-linecap="round" stroke-linejoin="round"/>
<path d="M207.538 50.2822C207.538 50.2822 210.153 48.9209 210.68 52.7258" stroke="#263238" stroke-linecap="round" stroke-linejoin="round"/>
<path d="M246.382 125.389C246.382 125.389 236.289 118.549 233.965 117.746C230.675 116.872 227.264 116.596 223.883 116.931C223.574 116.978 223.277 117.089 223.01 117.258C222.743 117.427 222.512 117.65 222.33 117.913C222.149 118.177 222.02 118.476 221.952 118.792C221.884 119.108 221.878 119.435 221.935 119.754L222.71 121.361C222.71 121.361 221.161 126.594 224.27 129.406C227.38 132.218 237.451 132.229 237.451 132.229L243.66 135.443L246.382 125.389Z" fill="#D4B48F" stroke="#263238" stroke-linecap="round" stroke-linejoin="round"/>
<path d="M253.914 113.673L261.059 115.994" stroke="#263238" stroke-linecap="round" stroke-linejoin="round"/>
<path d="M257.626 108.484L266.159 127.799C266.159 127.799 255.69 126.996 251.03 124.987C246.371 122.979 242.885 125.389 242.498 128.201C242.11 131.013 240.561 139.058 243.66 140.676C246.759 142.294 261.898 145.496 273.142 147.516C284.386 149.536 290.993 145.496 291.768 141.479C292.543 137.462 281.298 103.262 278.189 96.0204C275.079 88.7786 270.431 82.7419 265.384 82.7419" fill="#A8DADC"/>
<path d="M257.626 108.484L266.159 127.799C266.159 127.799 255.69 126.996 251.03 124.987C246.371 122.979 242.885 125.389 242.498 128.201C242.11 131.013 240.561 139.058 243.66 140.676C246.759 142.294 261.898 145.496 273.142 147.516C284.386 149.536 290.993 145.496 291.768 141.479C292.543 137.462 281.298 103.262 278.189 96.0204C275.079 88.7786 270.431 82.7419 265.384 82.7419" stroke="#263238" stroke-linecap="round" stroke-linejoin="round"/>
<path d="M266.158 127.799C266.158 127.799 272.485 126.739 279.78 132.263" stroke="#263238" stroke-linecap="round" stroke-linejoin="round"/>
</svg>
