<svg width="594" height="594" viewBox="0 0 594 594" fill="none" xmlns="http://www.w3.org/2000/svg">
<path d="M132.308 529.848C227.419 575.182 381.621 575.182 476.733 529.848C571.844 484.514 571.773 411.048 476.733 365.69C381.693 320.332 227.431 320.368 132.319 365.69C37.2081 411.012 37.1962 484.49 132.308 529.848Z" fill="#F6FBFB"/>
<path d="M450.834 455.871C490.516 455.871 522.684 440.542 522.684 421.633C522.684 402.724 490.516 387.395 450.834 387.395C411.152 387.395 378.984 402.724 378.984 421.633C378.984 440.542 411.152 455.871 450.834 455.871Z" fill="#E6E6E6"/>
<path d="M324.395 376.133C308.642 384.449 283.1 384.449 267.371 376.133C251.642 367.817 251.618 354.392 267.371 346.1C283.124 337.808 308.666 337.784 324.395 346.1C340.124 354.416 340.148 367.84 324.395 376.133Z" fill="#E6E6E6"/>
<path d="M237.529 426.278C221.776 434.594 196.234 434.594 180.505 426.278C164.776 417.962 164.752 404.55 180.505 396.246C196.258 387.941 221.8 387.93 237.529 396.246C253.258 404.562 253.282 417.986 237.529 426.278Z" fill="#E6E6E6"/>
<path d="M150.674 476.388C134.909 484.704 109.379 484.704 93.65 476.388C77.9209 468.072 77.8971 454.648 93.65 446.355C109.403 438.063 134.945 438.039 150.674 446.355C166.403 454.671 166.427 468.143 150.674 476.388Z" fill="#E6E6E6"/>
<path d="M158.978 404.229H85.322L92.949 456.501C93.5311 460.326 96.3467 464.068 101.419 466.991C112.884 473.608 131.452 473.608 142.916 466.991C148.369 463.843 151.232 459.756 151.458 455.622L158.978 404.229Z" fill="#457B9D"/>
<path d="M151.102 411.856C135.111 421.087 109.177 421.087 93.1866 411.856C90.3099 410.252 87.7235 408.176 85.5359 405.714L87.401 418.497C89.4559 420.761 91.8629 422.678 94.529 424.175C109.771 432.967 134.47 432.967 149.712 424.175C152.38 422.672 154.787 420.747 156.84 418.473L158.705 405.738C156.525 408.182 153.956 410.25 151.102 411.856Z" fill="#3C6680"/>
<path d="M92.9253 456.56C93.5074 460.386 96.323 464.116 101.396 467.038C109.593 471.79 121.402 473.097 131.666 471.078C113.252 472.479 100.624 464.437 98.7346 457.024C96.8457 449.61 94.4222 413.258 94.4222 413.258L96.4537 405.037L95.8834 404.229H85.2983L92.9253 456.56Z" fill="#3C6680"/>
<path d="M162.756 394.844C162.334 396.9 161.497 398.848 160.297 400.57C157.887 403.979 154.724 406.788 151.054 408.779C135.064 418.01 109.13 418.01 93.1391 408.779C89.4691 406.788 86.3066 403.979 83.8964 400.57C82.7047 398.845 81.8724 396.897 81.4491 394.844C80.0235 387.906 83.9321 380.671 93.1509 375.349C109.141 366.106 135.075 366.106 151.066 375.349C160.38 380.671 164.229 387.906 162.756 394.844Z" fill="#457B9D"/>
<path d="M160.38 400.57C157.97 403.979 154.807 406.788 151.137 408.779C135.147 418.01 109.213 418.01 93.2222 408.779C89.5522 406.788 86.3896 403.979 83.9795 400.57C82.7877 398.845 81.9554 396.897 81.5322 394.844L83.3499 407.33C84.1815 412.355 87.9237 417.249 94.6002 421.098C109.842 429.89 134.541 429.89 149.783 421.098C156.364 417.297 160.107 412.462 160.998 407.508L161.093 406.866L162.756 394.844C162.359 396.893 161.551 398.841 160.38 400.57V400.57Z" fill="#355E78"/>
<path d="M146.278 378.129C132.949 370.43 111.339 370.43 98.0218 378.129C90.478 382.488 87.211 388.369 88.1971 394.048C88.9574 398.408 92.2363 402.649 98.0218 405.987C111.339 413.685 132.949 413.685 146.278 405.987C152.052 402.649 155.331 398.408 156.091 394.107C157.089 388.369 153.822 382.536 146.278 378.129Z" fill="#37474F"/>
<path d="M90.4541 399.322C92.4487 402.08 95.0342 404.357 98.0217 405.987C111.339 413.685 132.949 413.685 146.278 405.987C149.266 404.357 151.851 402.08 153.846 399.322C153.739 394.713 150.662 390.127 144.568 386.611C132.189 379.483 112.099 379.483 99.7324 386.611C93.6379 390.127 90.5491 394.713 90.4541 399.322Z" fill="#E0E0E0"/>
<path d="M120.13 362.898C120.13 362.898 120.202 354.285 114.19 349.617C108.179 344.948 100.552 344.389 98.9009 345.839C97.2495 347.288 97.2733 358.586 102.702 363.777C108.132 368.969 118.265 368.007 120.13 362.898Z" fill="#E63946"/>
<path opacity="0.1" d="M120.13 362.886C112.86 351.648 98.9246 345.839 98.9246 345.839C100.576 344.389 108.12 344.865 114.214 349.617C120.059 354.167 120.13 362.471 120.13 362.886Z" fill="black"/>
<path d="M126.664 373.448C125.619 360.558 122.423 352.788 121.247 352.788C120.071 352.788 121.96 361.627 120.13 373.246C118.942 380.79 116.566 388.322 115.984 391.434C115.841 391.767 115.796 392.134 115.854 392.491C115.959 392.904 116.155 393.288 116.426 393.617C116.697 393.945 117.037 394.21 117.422 394.392C118.61 394.99 119.923 395.301 121.253 395.301C122.584 395.301 123.896 394.99 125.084 394.392C125.466 394.207 125.803 393.942 126.072 393.613C126.341 393.285 126.535 392.902 126.641 392.491C126.658 392.337 126.658 392.182 126.641 392.028C127.165 385.846 127.173 379.631 126.664 373.448V373.448Z" fill="#E63946"/>
<path opacity="0.1" d="M126.664 373.448C125.619 360.558 122.423 352.788 121.247 352.788C120.071 352.788 121.96 361.627 120.13 373.246C118.942 380.79 116.566 388.322 115.984 391.434C115.841 391.767 115.796 392.134 115.854 392.491C115.959 392.904 116.155 393.288 116.426 393.617C116.697 393.945 117.037 394.21 117.422 394.392C118.61 394.99 119.923 395.301 121.253 395.301C122.584 395.301 123.896 394.99 125.084 394.392C125.466 394.207 125.803 393.942 126.072 393.613C126.341 393.285 126.535 392.902 126.641 392.491C126.658 392.337 126.658 392.182 126.641 392.028C127.165 385.846 127.173 379.631 126.664 373.448V373.448Z" fill="black"/>
<path d="M119.988 340.124L115.236 331.202L119.061 320.19V313.442L107.371 320.19V326.926L112.396 335.634C112.478 335.766 112.598 335.87 112.741 335.931V335.931L119.988 340.124Z" fill="#263238"/>
<path d="M139.59 277.636C139.517 276.414 139.157 275.227 138.537 274.172C137.918 273.117 137.057 272.223 136.026 271.565L133.175 269.925C132.09 269.369 130.889 269.079 129.67 269.079C128.451 269.079 127.25 269.369 126.165 269.925L95.8357 287.496C94.8046 288.152 93.9439 289.043 93.3244 290.096C92.7048 291.15 92.344 292.335 92.2717 293.555V328.672C92.3441 329.894 92.7048 331.08 93.3243 332.136C93.9437 333.191 94.8044 334.084 95.8357 334.743L98.6869 336.382C99.773 336.933 100.974 337.22 102.192 337.22C103.409 337.22 104.61 336.933 105.696 336.382L114.666 331.203L119.679 339.887C119.751 340.011 119.857 340.111 119.984 340.177C120.112 340.242 120.255 340.27 120.398 340.256C120.541 340.242 120.676 340.188 120.789 340.099C120.901 340.011 120.986 339.891 121.033 339.756L126.332 324.467L136.085 318.835C137.116 318.177 137.977 317.284 138.597 316.228C139.216 315.173 139.577 313.986 139.649 312.765L139.59 277.636Z" fill="#1D3557"/>
<path d="M92.3311 328.648C92.4034 329.87 92.7641 331.057 93.3836 332.112C94.0031 333.167 94.8637 334.061 95.8951 334.719L98.7463 336.358C99.7326 336.856 100.813 337.139 101.917 337.189C103.021 337.238 104.123 337.052 105.15 336.644C103.498 337.261 102.251 336.335 102.251 334.339V299.222C102.292 298.005 102.643 296.819 103.273 295.776L93.4121 290.086C92.7829 291.128 92.4312 292.314 92.3904 293.531L92.3311 328.648Z" fill="#263238"/>
<path d="M139.471 276.638C139.067 275.153 137.713 274.677 136.085 275.604L105.732 293.163C104.698 293.805 103.85 294.706 103.273 295.776L93.4121 290.086C94.001 289.019 94.8513 288.12 95.8832 287.472L126.272 269.925C127.358 269.374 128.559 269.087 129.777 269.087C130.995 269.087 132.195 269.374 133.281 269.925L136.133 271.577C137.003 272.15 137.747 272.895 138.321 273.765C138.895 274.635 139.286 275.612 139.471 276.638V276.638Z" fill="#455A64"/>
<path d="M118.23 323.219L122.744 320.617V305.542L125.892 303.724L126.225 298.485L122.744 300.493V297.618C122.744 296.43 122.922 295.859 123.777 295.361L126.225 293.947V288.684L123.1 290.49C121.557 291.305 120.278 292.544 119.415 294.062C118.552 295.579 118.141 297.312 118.23 299.055V303.083L115.854 304.437V309.545L118.23 308.191V323.219Z" fill="white"/>
<path d="M245.833 354.083H172.177L179.792 406.355C180.374 410.181 183.19 413.911 188.262 416.845C199.715 423.463 218.295 423.463 229.747 416.845C235.212 413.697 238.063 409.61 238.289 405.476L245.833 354.083Z" fill="#457B9D"/>
<path d="M237.968 361.71C221.978 370.941 196.044 370.941 180.053 361.71C177.178 360.1 174.588 358.025 172.391 355.568L174.244 368.351C176.302 370.612 178.709 372.529 181.372 374.03C196.614 382.821 221.312 382.821 236.554 374.03C239.224 372.523 241.631 370.593 243.682 368.316L245.56 355.58C243.384 358.028 240.819 360.099 237.968 361.71V361.71Z" fill="#3C6680"/>
<path d="M179.78 406.403C180.362 410.228 183.177 413.97 188.25 416.893C196.436 421.645 208.256 422.952 218.509 420.92C200.106 422.322 187.478 414.279 185.577 406.866C183.676 399.453 181.277 363.1 181.277 363.1L183.308 354.879L182.738 354.083H172.153L179.78 406.403Z" fill="#3C6680"/>
<path d="M249.67 344.698C249.248 346.754 248.411 348.703 247.211 350.424C244.801 353.834 241.638 356.643 237.968 358.633C221.978 367.864 196.044 367.864 180.053 358.633C176.383 356.643 173.221 353.834 170.81 350.424C169.619 348.699 168.786 346.752 168.363 344.698V344.698C166.938 337.76 170.846 330.525 180.065 325.203C196.055 315.96 221.99 315.96 237.98 325.203C247.187 330.525 251.096 337.76 249.67 344.698Z" fill="#457B9D"/>
<path d="M247.211 350.46C244.801 353.869 241.638 356.678 237.968 358.669C221.978 367.9 196.044 367.9 180.053 358.669C176.383 356.678 173.221 353.869 170.811 350.46C169.619 348.735 168.787 346.787 168.363 344.734V344.734L170.181 357.22C171.013 362.245 174.755 367.139 181.431 370.989C196.673 379.78 221.372 379.78 236.614 370.989C243.195 367.187 246.938 362.352 247.829 357.398L247.924 356.756L249.682 344.734C249.256 346.791 248.415 348.739 247.211 350.46V350.46Z" fill="#355E78"/>
<path d="M233.145 327.983C219.815 320.285 198.206 320.285 184.888 327.983C177.344 332.343 174.077 338.224 175.064 343.902C175.824 348.262 179.103 352.503 184.888 355.782C198.206 363.481 219.815 363.481 233.145 355.782C238.919 352.444 242.197 348.203 242.958 343.902C243.956 338.224 240.689 332.343 233.145 327.983Z" fill="#37474F"/>
<path d="M177.309 349.177C179.311 351.932 181.9 354.208 184.888 355.842C198.206 363.54 219.815 363.54 233.145 355.842C236.124 354.204 238.704 351.929 240.701 349.177C240.605 344.567 237.517 339.982 231.434 336.453C219.043 329.325 198.966 329.325 186.599 336.453C180.505 339.982 177.416 344.52 177.309 349.177Z" fill="#E0E0E0"/>
<path d="M213.543 341.93C209.515 328.126 211.547 314.131 211.547 304.389C211.547 295.574 209.694 284.407 208.47 284.526C207.246 284.645 208.47 293.08 207.175 304.591C206.64 309.225 202.423 329.373 203.825 342.607C203.918 342.98 204.091 343.327 204.334 343.625C204.576 343.923 204.881 344.163 205.227 344.33C206.302 344.875 207.49 345.159 208.696 345.159C209.901 345.159 211.089 344.875 212.165 344.33C212.509 344.161 212.813 343.92 213.055 343.623C213.297 343.325 213.471 342.979 213.567 342.607C213.612 342.383 213.604 342.151 213.543 341.93V341.93Z" fill="#E63946"/>
<path opacity="0.1" d="M213.543 341.93C209.515 328.126 211.547 314.131 211.547 304.389C211.547 295.574 209.694 284.407 208.47 284.526C207.246 284.645 208.47 293.08 207.175 304.591C206.64 309.225 202.423 329.373 203.825 342.607C203.918 342.98 204.091 343.327 204.334 343.625C204.576 343.923 204.881 344.163 205.227 344.33C206.302 344.875 207.49 345.159 208.696 345.159C209.901 345.159 211.089 344.875 212.165 344.33C212.509 344.161 212.813 343.92 213.055 343.623C213.297 343.325 213.471 342.979 213.567 342.607C213.612 342.383 213.604 342.151 213.543 341.93V341.93Z" fill="black"/>
<path d="M212.022 314.891C212.058 312.387 212.731 309.933 213.978 307.761C215.225 305.589 217.005 303.77 219.15 302.477C227.264 297.511 237.35 304.152 237.778 305.328C238.206 306.504 236.329 311.624 232.456 314.274C228.583 316.923 220.338 320.76 212.022 314.891Z" fill="#E63946"/>
<path opacity="0.1" d="M237.778 305.316C233.025 303.976 227.97 304.181 223.341 305.9C218.712 307.618 214.749 310.763 212.022 314.879C212.059 312.374 212.733 309.919 213.98 307.745C215.227 305.571 217.006 303.75 219.15 302.453C227.264 297.499 237.35 304.128 237.778 305.316Z" fill="black"/>
<path d="M205.227 311.529C204.249 308.876 202.588 306.528 200.413 304.721C198.237 302.915 195.624 301.715 192.836 301.241C183.154 299.602 176.727 305.589 176.691 307.49C176.655 309.391 177.594 309.866 181.205 312.705C184.817 315.545 189.985 319.37 196.079 318.491C198.072 318.211 199.961 317.424 201.562 316.205C203.164 314.986 204.426 313.376 205.227 311.529V311.529Z" fill="#E63946"/>
<path opacity="0.15" d="M205.227 311.529C204.249 308.876 202.588 306.528 200.413 304.721C198.237 302.915 195.624 301.715 192.836 301.241C183.154 299.602 176.727 305.589 176.691 307.49C180.766 304.912 196.673 301.942 205.227 311.529Z" fill="black"/>
<path d="M205.227 311.529C196.673 301.942 180.766 304.912 176.715 307.502C176.715 305.589 183.189 299.602 192.872 301.241C195.653 301.72 198.259 302.923 200.428 304.729C202.597 306.535 204.252 308.881 205.227 311.529V311.529Z" fill="#E63946"/>
<path opacity="0.1" d="M205.227 311.529C196.673 301.942 180.766 304.912 176.715 307.502C176.715 305.589 183.189 299.602 192.872 301.241C195.653 301.72 198.259 302.923 200.428 304.729C202.597 306.535 204.252 308.881 205.227 311.529V311.529Z" fill="black"/>
<path d="M207.9 277.457L202.352 267.015L206.819 254.101V246.201L193.133 254.101V262.001L199.014 272.195C199.112 272.349 199.252 272.473 199.418 272.551V272.551L207.9 277.457Z" fill="#263238"/>
<path d="M230.911 204.253C230.836 202.826 230.426 201.437 229.714 200.199C229.002 198.96 228.008 197.907 226.813 197.125L223.463 195.2C222.194 194.55 220.789 194.211 219.364 194.211C217.939 194.211 216.534 194.55 215.265 195.2L179.625 215.753C178.427 216.532 177.429 217.585 176.715 218.823C176 220.062 175.589 221.453 175.515 222.881V264.009C175.591 265.437 176.003 266.827 176.717 268.065C177.431 269.304 178.428 270.356 179.625 271.137L182.964 273.062C184.236 273.706 185.642 274.041 187.068 274.041C188.494 274.041 189.9 273.706 191.173 273.062L201.675 266.991L207.615 277.16C207.697 277.307 207.82 277.427 207.97 277.504C208.119 277.582 208.288 277.615 208.455 277.599C208.623 277.582 208.782 277.518 208.913 277.412C209.044 277.307 209.142 277.166 209.195 277.006L215.396 259.103L226.836 252.497C228.033 251.717 229.028 250.664 229.74 249.425C230.453 248.186 230.862 246.797 230.935 245.369L230.911 204.253Z" fill="#1D3557"/>
<path d="M175.551 264.009C175.627 265.437 176.039 266.826 176.753 268.065C177.467 269.304 178.463 270.356 179.661 271.137L182.999 273.062C184.157 273.641 185.424 273.971 186.718 274.028C188.012 274.085 189.303 273.869 190.507 273.394C188.571 274.119 187.098 273.026 187.098 270.686V229.545C187.146 228.12 187.554 226.73 188.286 225.506L176.75 218.841C176.014 220.064 175.605 221.455 175.562 222.881L175.551 264.009Z" fill="#263238"/>
<path d="M230.781 203.148C230.294 201.402 228.714 200.855 226.813 201.96L191.173 222.524C189.96 223.277 188.965 224.333 188.286 225.589L176.75 218.936C177.429 217.681 178.424 216.624 179.637 215.871L215.277 195.307C216.55 194.663 217.956 194.327 219.382 194.327C220.808 194.327 222.214 194.663 223.486 195.307L226.837 197.232C227.859 197.901 228.735 198.77 229.413 199.787C230.091 200.804 230.556 201.947 230.781 203.148V203.148Z" fill="#455A64"/>
<path d="M209.42 224.187C212.664 222.322 213.056 222.108 214.327 221.455C215.014 221.041 215.785 220.785 216.584 220.707C217.086 220.652 217.59 220.797 217.986 221.111C218.424 221.448 218.741 221.92 218.889 222.453C219.176 223.347 219.316 224.282 219.305 225.221C219.364 226.896 219.376 227.395 219.376 231.719C219.376 236.044 219.376 236.566 219.305 238.301C219.29 239.398 219.151 240.49 218.889 241.556C218.694 242.384 218.39 243.183 217.986 243.932C217.611 244.665 217.139 245.344 216.584 245.952C215.922 246.672 215.162 247.296 214.327 247.805C213.056 248.625 212.664 248.862 209.42 250.739C206.177 252.616 205.797 252.818 204.514 253.472C203.826 253.886 203.055 254.141 202.257 254.22C201.755 254.275 201.251 254.13 200.855 253.816C200.424 253.472 200.109 253.003 199.952 252.474C199.666 251.583 199.526 250.653 199.536 249.718C199.477 248.043 199.465 247.532 199.465 243.207C199.465 238.883 199.465 238.36 199.536 236.626C199.551 235.529 199.69 234.436 199.952 233.371C200.16 232.546 200.463 231.749 200.855 230.995C201.23 230.262 201.702 229.583 202.257 228.975C202.919 228.255 203.679 227.631 204.514 227.122C205.797 226.302 206.177 226.065 209.42 224.187V224.187ZM209.42 221.277C206.118 223.178 205.714 223.439 204.419 224.259C202.238 225.614 200.472 227.541 199.311 229.83C198.692 230.991 198.221 232.224 197.909 233.501C197.57 234.899 197.383 236.329 197.35 237.766C197.291 239.525 197.279 240.142 197.279 244.479C197.279 248.815 197.279 249.421 197.35 251.119C197.358 252.329 197.546 253.53 197.909 254.683C198.153 255.497 198.643 256.214 199.311 256.739C199.921 257.215 200.69 257.44 201.461 257.368C202.503 257.265 203.511 256.941 204.419 256.418C205.714 255.741 206.118 255.527 209.42 253.626C212.723 251.725 213.139 251.452 214.434 250.632C215.522 249.949 216.513 249.122 217.38 248.173C218.234 247.238 218.957 246.191 219.53 245.061C220.149 243.9 220.62 242.667 220.932 241.39C221.275 239.993 221.467 238.563 221.502 237.125C221.502 235.367 221.574 234.808 221.574 230.413C221.574 226.017 221.574 225.471 221.502 223.772C221.495 222.562 221.303 221.36 220.932 220.208C220.691 219.39 220.201 218.668 219.53 218.141C218.918 217.669 218.149 217.448 217.38 217.523C216.341 217.616 215.335 217.937 214.434 218.461C213.139 219.138 212.723 219.352 209.42 221.265" fill="white"/>
<path d="M209.42 229.153C205.975 231.137 203.183 236.483 203.183 241.033C203.183 245.583 205.975 247.746 209.42 245.785C212.866 243.825 215.657 238.467 215.657 233.905C215.657 229.343 212.866 227.205 209.42 229.153ZM209.42 242.875C207.187 244.158 205.369 242.792 205.369 239.81C205.393 238.294 205.771 236.804 206.475 235.461C207.178 234.118 208.187 232.958 209.42 232.076C211.654 230.781 213.471 232.147 213.471 235.129C213.447 236.647 213.068 238.137 212.365 239.482C211.661 240.827 210.653 241.989 209.42 242.875" fill="white"/>
<path d="M217.404 224.235C217.397 224.782 217.261 225.321 217.007 225.806C216.753 226.291 216.388 226.709 215.942 227.027C215.135 227.49 214.481 227.027 214.481 225.922C214.49 225.376 214.627 224.841 214.88 224.358C215.134 223.875 215.498 223.458 215.942 223.142C216.75 222.667 217.404 223.142 217.404 224.235" fill="white"/>
<path d="M332.699 303.926H258.984L266.599 356.257C267.181 360.083 269.997 363.813 275.069 366.736C286.522 373.353 305.102 373.353 316.554 366.736C322.019 363.587 324.87 359.501 325.096 355.378L332.699 303.926Z" fill="#457B9D"/>
<path d="M324.823 311.565C308.832 320.796 282.898 320.796 266.908 311.565C264.032 309.955 261.443 307.879 259.245 305.423L261.111 318.194C263.165 320.462 265.572 322.384 268.239 323.884C283.481 332.676 308.179 332.676 323.421 323.884C326.09 322.377 328.497 320.447 330.549 318.17L332.414 305.435C330.239 307.883 327.674 309.954 324.823 311.565Z" fill="#3C6680"/>
<path d="M266.646 356.257C267.229 360.083 270.044 363.813 275.117 366.747C283.302 371.499 295.111 372.806 305.375 370.775C286.973 372.177 274.333 364.134 272.444 356.721C270.555 349.308 268.131 312.955 268.131 312.955L270.175 304.734L269.593 303.938H258.984L266.646 356.257Z" fill="#3C6680"/>
<path d="M336.525 294.541C336.103 296.597 335.266 298.545 334.066 300.267C331.655 303.676 328.493 306.485 324.823 308.476C308.832 317.707 282.898 317.707 266.908 308.476C263.238 306.485 260.075 303.676 257.665 300.267C256.473 298.542 255.641 296.594 255.218 294.541V294.541C253.792 287.603 257.701 280.368 266.92 275.046C282.91 265.803 308.844 265.803 324.835 275.046C334.042 280.368 337.95 287.603 336.525 294.541Z" fill="#455A64"/>
<path d="M334.066 300.267C331.655 303.676 328.493 306.485 324.823 308.476C308.832 317.707 282.898 317.707 266.908 308.476C263.238 306.485 260.075 303.676 257.665 300.267C256.474 298.542 255.641 296.594 255.218 294.541V294.541L257.036 307.027C257.867 312.052 261.609 316.947 268.286 320.796C283.528 329.587 308.227 329.587 323.469 320.796C330.05 316.994 333.792 312.159 334.683 307.205L334.778 306.563L336.537 294.541C336.111 296.598 335.27 298.546 334.066 300.267Z" fill="#355E78"/>
<path d="M320 277.826C306.67 270.127 285.06 270.127 271.743 277.826C264.199 282.186 260.932 288.066 261.918 293.745C262.679 298.105 265.957 302.346 271.743 305.684C285.06 313.382 306.67 313.382 320 305.684C325.773 302.346 329.052 298.105 329.812 293.804C330.81 288.066 327.543 282.186 320 277.826Z" fill="#37474F"/>
<path d="M264.176 299.02C266.17 301.777 268.756 304.054 271.743 305.684C285.061 313.382 306.67 313.382 320 305.684C322.987 304.054 325.573 301.777 327.567 299.02C327.472 294.41 324.383 289.824 318.289 286.308C305.91 279.18 285.833 279.18 273.454 286.308C267.359 289.872 264.271 294.422 264.176 299.02Z" fill="#E0E0E0"/>
<path d="M298.615 267.3C298.652 264.721 299.345 262.194 300.629 259.957C301.914 257.72 303.748 255.848 305.957 254.517C314.273 249.397 324.68 256.228 325.12 257.451C325.559 258.675 323.635 263.938 319.655 266.658C315.675 269.379 307.181 273.394 298.615 267.3Z" fill="#E63946"/>
<path opacity="0.1" d="M325.132 257.487C320.244 256.102 315.043 256.306 310.279 258.07C305.515 259.834 301.435 263.066 298.627 267.3C298.661 264.722 299.352 262.195 300.635 259.958C301.917 257.721 303.749 255.849 305.957 254.517C314.297 249.48 324.68 256.263 325.132 257.487Z" fill="black"/>
<path d="M300.089 291.808C296.097 278.158 297.522 262.263 298.627 253.971C300.587 239.239 299.815 231.125 298.627 226.076C296.75 218.081 295.063 214.078 293.875 214.458C292.687 214.838 293.341 218.972 294.089 226.706C295.039 236.471 293.661 245.001 291.927 255.479C289.869 267.702 289.366 280.136 290.43 292.486C290.524 292.855 290.698 293.199 290.94 293.492C291.183 293.786 291.487 294.022 291.832 294.184C292.894 294.723 294.068 295.004 295.259 295.004C296.45 295.004 297.624 294.723 298.687 294.184C299.029 294.02 299.33 293.783 299.571 293.49C299.811 293.196 299.983 292.853 300.077 292.486C300.134 292.264 300.138 292.032 300.089 291.808V291.808Z" fill="#E63946"/>
<path opacity="0.1" d="M300.089 291.808C296.097 278.158 297.522 262.263 298.627 253.971C300.587 239.239 299.815 231.125 298.627 226.076C296.75 218.081 295.063 214.078 293.875 214.458C292.687 214.838 293.341 218.972 294.089 226.706C295.039 236.471 293.661 245.001 291.927 255.479C289.869 267.702 289.366 280.136 290.43 292.486C290.524 292.855 290.698 293.199 290.94 293.492C291.183 293.786 291.487 294.022 291.832 294.184C292.894 294.723 294.068 295.004 295.259 295.004C296.45 295.004 297.624 294.723 298.687 294.184C299.029 294.02 299.33 293.783 299.571 293.49C299.811 293.196 299.983 292.853 300.077 292.486C300.134 292.264 300.138 292.032 300.089 291.808V291.808Z" fill="black"/>
<path d="M289.777 264.057C288.772 261.326 287.064 258.91 284.826 257.051C282.587 255.192 279.898 253.958 277.029 253.472C267.062 251.785 260.397 257.939 260.397 259.899C260.397 261.859 261.324 262.275 265.043 265.257C268.761 268.238 274.071 272.123 280.344 271.197C282.395 270.912 284.34 270.106 285.991 268.856C287.642 267.606 288.946 265.954 289.777 264.057V264.057Z" fill="#E63946"/>
<path opacity="0.15" d="M289.777 264.057C288.772 261.326 287.064 258.91 284.826 257.051C282.587 255.192 279.898 253.958 277.029 253.472C267.062 251.785 260.397 257.939 260.397 259.899C264.603 257.249 280.974 254.232 289.777 264.057Z" fill="black"/>
<path d="M289.777 264.057C280.974 254.184 264.603 257.25 260.409 259.911C260.409 257.939 267.062 251.785 277.041 253.472C279.908 253.96 282.595 255.195 284.831 257.054C287.067 258.912 288.773 261.328 289.777 264.057V264.057Z" fill="#E63946"/>
<path opacity="0.1" d="M289.777 264.057C280.974 254.184 264.603 257.25 260.409 259.911C260.409 257.939 267.062 251.785 277.041 253.472C279.908 253.96 282.595 255.195 284.831 257.054C287.067 258.912 288.773 261.328 289.777 264.057V264.057Z" fill="black"/>
<path d="M300.623 241.568C301.091 239.526 302.089 237.644 303.519 236.113C304.948 234.581 306.756 233.455 308.761 232.848C315.723 230.721 321.033 234.511 321.235 235.901C321.437 237.291 321.164 238.158 318.776 240.653C316.388 243.148 313.085 245.56 308.512 245.5C306.976 245.538 305.454 245.199 304.079 244.513C302.704 243.828 301.518 242.817 300.623 241.568V241.568Z" fill="#E63946"/>
<path opacity="0.15" d="M300.623 241.568C301.091 239.526 302.089 237.644 303.519 236.113C304.948 234.581 306.756 233.455 308.761 232.848C315.723 230.721 321.033 234.511 321.235 235.901C317.992 234.357 306.005 233.703 300.623 241.568Z" fill="black"/>
<path d="M300.623 241.568C306.005 233.691 317.992 234.357 321.235 235.877C321.033 234.464 315.723 230.686 308.749 232.812C306.742 233.424 304.933 234.557 303.506 236.095C302.078 237.632 301.084 239.521 300.623 241.568V241.568Z" fill="#E63946"/>
<path opacity="0.1" d="M300.623 241.568C306.005 233.691 317.992 234.357 321.235 235.877C321.033 234.464 315.723 230.686 308.749 232.812C306.742 233.424 304.933 234.557 303.506 236.095C302.078 237.632 301.084 239.521 300.623 241.568V241.568Z" fill="black"/>
<path d="M293.281 239.691C293.281 239.691 291.547 233.026 285.963 230.662C280.38 228.298 274.345 229.474 273.37 230.923C272.396 232.373 274.832 239.073 280.32 241.532C287.104 244.574 292.794 241.473 293.281 239.691Z" fill="#E63946"/>
<path opacity="0.1" d="M293.281 239.691C285.381 232.563 273.37 230.912 273.37 230.912C274.345 229.45 280.261 228.25 285.963 230.674C291.416 232.967 293.186 239.37 293.281 239.691Z" fill="black"/>
<path d="M296.917 205.524L291.155 194.701L295.788 181.336V173.163L281.627 181.336V189.522L287.71 200.071C287.809 200.232 287.953 200.361 288.126 200.439L296.917 205.524Z" fill="#263238"/>
<path d="M320.76 129.765C320.68 128.291 320.253 126.857 319.514 125.579C318.775 124.301 317.745 123.216 316.507 122.411L313.05 120.416C311.735 119.742 310.28 119.391 308.803 119.391C307.326 119.391 305.87 119.742 304.555 120.416L267.727 141.693C266.492 142.499 265.465 143.585 264.728 144.863C263.991 146.14 263.566 147.574 263.486 149.046V191.636C263.566 193.109 263.991 194.542 264.728 195.82C265.465 197.098 266.492 198.184 267.727 198.99L271.185 200.986C272.501 201.654 273.956 202.002 275.432 202.002C276.908 202.002 278.363 201.654 279.679 200.986L290.561 194.701L296.643 205.239C296.73 205.39 296.859 205.512 297.014 205.592C297.169 205.671 297.344 205.704 297.517 205.687C297.69 205.669 297.855 205.602 297.991 205.493C298.127 205.384 298.228 205.238 298.283 205.073L304.662 186.516L316.542 179.697C317.781 178.89 318.811 177.803 319.55 176.523C320.289 175.243 320.716 173.807 320.795 172.331L320.76 129.765Z" fill="#1D3557"/>
<path d="M263.439 191.636C263.518 193.109 263.944 194.542 264.68 195.82C265.417 197.098 266.445 198.184 267.68 198.99L271.137 200.986C272.335 201.588 273.646 201.93 274.985 201.989C276.324 202.049 277.66 201.824 278.907 201.33C276.911 202.091 275.343 200.962 275.343 198.539V155.949C275.38 154.477 275.789 153.039 276.531 151.767L264.579 144.865C263.838 146.136 263.429 147.575 263.391 149.046L263.439 191.636Z" fill="#263238"/>
<path d="M320.605 128.553C320.106 126.748 318.467 126.177 316.507 127.365L279.679 148.654C278.424 149.436 277.393 150.529 276.685 151.826L264.686 144.936C265.395 143.639 266.426 142.546 267.68 141.764L304.508 120.475C305.826 119.807 307.283 119.459 308.761 119.459C310.239 119.459 311.696 119.807 313.014 120.475L316.483 122.471C317.544 123.156 318.455 124.047 319.163 125.093C319.872 126.138 320.362 127.315 320.605 128.553Z" fill="#455A64"/>
<path d="M305.114 167.377C307.31 162.481 308.428 157.169 308.393 151.803C309.472 150.142 310.375 148.375 311.09 146.528C310.167 147.614 309.127 148.594 307.989 149.45C309.142 147.852 309.951 146.031 310.365 144.104C309.374 145.477 308.221 146.725 306.932 147.823C306.365 147.396 305.675 147.165 304.965 147.165C304.256 147.165 303.566 147.396 302.999 147.823C299.518 149.831 296.964 155.64 297.748 159.703C293.258 161.996 289.29 161.425 286.629 158.61C285.215 162.661 285.892 166.498 288.292 167.247C287.576 167.67 286.742 167.849 285.916 167.757C285.856 171.131 287.638 173.21 290.24 172.403C289.566 173.077 288.756 173.599 287.864 173.935C288.553 176.394 290.537 177.321 292.901 176.014C291.068 179.293 288.285 181.94 284.918 183.605C286.337 183.923 287.805 183.95 289.234 183.684C290.663 183.419 292.024 182.867 293.234 182.061C298.568 178.984 302.667 173.424 305.28 167.389" fill="#F5F5F5"/>
<path d="M102.774 237.41V257.475L106.587 255.277C107.336 254.85 107.656 255.194 107.656 256.465V257.071C107.729 257.528 107.666 257.997 107.477 258.419C107.287 258.841 106.977 259.198 106.587 259.447L92.7707 267.431C92.0223 267.858 91.7016 267.514 91.7016 266.243V265.637C91.629 265.18 91.6915 264.711 91.8814 264.289C92.0714 263.867 92.3805 263.51 92.7707 263.261L97.5227 260.516V244.526L92.6638 248.031C91.7491 248.565 91.4758 246.688 91.4758 245.655C91.5015 245.344 91.5999 245.043 91.7629 244.777C91.9258 244.511 92.149 244.286 92.4144 244.122L101.277 237.35C101.883 237.077 102.774 236.982 102.774 237.41Z" fill="#455A64"/>
<path d="M129.397 221.788C129.368 222.11 129.271 222.421 129.112 222.702L122.233 237.232L130.038 244.692C130.124 244.764 130.194 244.853 130.243 244.953C130.292 245.053 130.319 245.163 130.323 245.274C130.323 245.595 129.718 246.165 128.328 246.961L126.261 248.149C125.227 248.743 124.407 249.076 124.086 248.72L117.386 241.758L117.244 241.877V252.212C117.244 252.961 116.602 253.721 115.105 254.588L113.917 255.301C112.42 256.168 111.779 256.145 111.779 255.396V232.587C111.779 231.838 112.42 231.078 113.917 230.211L115.105 229.486C116.602 228.619 117.244 228.642 117.244 229.391V238.895H117.386L123.552 225.292C124.055 224.453 124.8 223.786 125.69 223.38L127.365 222.405C128.791 221.61 129.397 221.479 129.397 221.788Z" fill="#455A64"/>
<path d="M189.711 164.871V165.833C189.755 166.241 189.676 166.653 189.486 167.016C189.296 167.38 189.002 167.679 188.642 167.876L181.443 172.034L181.087 177.333L182.013 176.798C187.395 173.697 190.959 173.484 190.959 179.614C190.959 185.744 186.147 190.377 181.835 192.872C177.808 195.248 174.85 195.759 174.85 194.333C174.85 193.692 175.954 190.876 176.774 190.413C178.539 190.16 180.243 189.584 181.799 188.714C182.892 188.154 183.819 187.317 184.488 186.287C185.157 185.258 185.545 184.071 185.613 182.845C185.613 180.35 184.425 179.566 181.158 181.467L177.273 183.7C176.24 184.306 175.954 184.033 175.954 183.035L176.632 172.07C176.639 171.585 176.784 171.113 177.049 170.707C177.314 170.301 177.688 169.979 178.128 169.777L188.642 163.706C189.391 163.279 189.711 163.623 189.711 164.871Z" fill="#455A64"/>
<path d="M212.652 150.282C212.62 150.603 212.523 150.914 212.367 151.197L205.524 165.714L213.329 173.187C213.416 173.257 213.487 173.346 213.536 173.446C213.585 173.547 213.612 173.657 213.614 173.769C213.614 174.09 213.008 174.648 211.618 175.456L209.551 176.644C208.518 177.238 207.698 177.57 207.377 177.226L200.677 170.252L200.534 170.371V180.707C200.534 181.455 199.893 182.215 198.396 183.083L197.208 183.807C195.711 184.675 195.07 184.651 195.07 183.902V161.093C195.07 160.344 195.711 159.584 197.208 158.717L198.396 157.992C199.893 157.137 200.534 157.149 200.534 157.897V167.401H200.677L206.878 153.775C207.381 152.936 208.127 152.269 209.017 151.862L210.692 150.9C212.094 150.092 212.652 149.961 212.652 150.282Z" fill="#455A64"/>
<path d="M263.403 96.5012V116.567L267.217 114.369C267.965 113.929 268.286 114.286 268.286 115.557V116.163C268.359 116.62 268.296 117.088 268.106 117.51C267.916 117.932 267.607 118.29 267.217 118.539L253.388 126.522C252.64 126.95 252.319 126.605 252.319 125.334V124.74C252.247 124.283 252.309 123.814 252.499 123.392C252.689 122.97 252.998 122.613 253.388 122.364L258.14 119.62V103.617L253.293 107.181C252.367 107.716 252.105 105.839 252.105 104.805C252.131 104.496 252.228 104.196 252.388 103.93C252.549 103.664 252.77 103.439 253.032 103.273L261.906 96.5131C262.548 96.1567 263.403 96.0736 263.403 96.5012Z" fill="#455A64"/>
<path d="M287.852 94.149C287.852 102.168 284.68 108.738 279.406 111.779C274.131 114.82 270.959 111.921 270.959 103.902C270.959 95.8835 274.131 89.3138 279.406 86.2726C284.68 83.2313 287.852 86.13 287.852 94.149ZM276.305 100.814C276.305 106.48 277.41 108.773 279.406 107.609C281.401 106.445 282.506 102.857 282.506 97.2378C282.506 91.6186 281.401 89.2782 279.406 90.4424C277.41 91.6067 276.305 95.1469 276.305 100.814Z" fill="#455A64"/>
<path d="M309.094 69.8781C309.062 70.1993 308.965 70.5105 308.809 70.7929L301.93 85.3103L309.735 92.7828C309.822 92.8534 309.893 92.942 309.942 93.0425C309.991 93.143 310.018 93.253 310.02 93.3649C310.02 93.6857 309.414 94.244 308.024 95.0519L305.957 96.2399C304.924 96.8339 304.104 97.1665 303.783 96.822L297.083 89.8484L296.94 89.9672V100.303C296.94 101.051 296.299 101.812 294.802 102.679L293.555 103.356C292.058 104.211 291.416 104.199 291.416 103.451V80.6889C291.416 79.9405 292.058 79.1802 293.555 78.3129L294.802 77.5883C296.299 76.721 296.94 76.7448 296.94 77.4932V86.9972H297.083L303.284 73.3709C303.787 72.5316 304.533 71.8647 305.423 71.4582L307.098 70.4959C308.488 69.6881 309.094 69.5574 309.094 69.8781Z" fill="#455A64"/>
<path d="M444.312 191.636C444.455 198.063 439.75 204.811 433.287 216.287C428.773 224.306 424.306 229.997 418.473 238.337C417.035 240.392 415.99 241.984 413.186 245.904C412.129 247.591 410.828 249.112 409.325 250.418C407.364 251.908 405.2 253.108 402.898 253.982C399.987 255.122 396.823 255.454 393.739 254.945C392.493 254.75 391.289 254.348 390.175 253.757C395.39 252.815 400.313 250.667 404.55 247.484C409.195 243.778 410.905 239.501 409.908 235.723L409.266 233.216L409.468 232.955C409.527 232.86 409.622 232.741 409.729 232.598L410.228 231.874C410.395 231.636 410.573 231.351 410.763 231.042L411.369 230.009C413.208 226.764 414.546 223.259 415.337 219.614C415.479 218.948 415.598 218.259 415.693 217.535C416.643 215.408 417.606 213.234 418.568 211.191C421.616 204.729 423.958 197.958 425.553 190.995C425.553 190.995 417.879 162.162 419.091 155.521C420.599 147.205 426.836 145.613 432.325 145.292L434.856 148.298C437.635 156.947 443.861 170.846 444.312 191.636Z" fill="#B28B67"/>
<path d="M409.361 233.276L406.07 230.591C408.62 227.061 410.397 223.033 411.286 218.77C412.937 211.203 410.704 201.318 407.021 199.869C403.112 198.348 398.907 201.936 398.859 201.972L396.044 198.8C396.293 198.574 402.209 193.43 408.565 195.925C415.444 198.622 417.19 211.571 415.432 219.685C414.41 224.599 412.339 229.235 409.361 233.276V233.276Z" fill="#E63946"/>
<path opacity="0.1" d="M409.86 223.487C408.941 226.033 407.661 228.433 406.058 230.615L409.349 233.299C410.126 232.282 410.829 231.21 411.452 230.092C411.048 228.227 410.478 225.946 409.86 223.487Z" fill="black"/>
<path opacity="0.1" d="M401.01 196.02C399.2 196.667 397.519 197.628 396.044 198.859L398.859 202.031C400.245 200.893 401.869 200.081 403.611 199.655C402.959 198.303 402.079 197.073 401.01 196.02Z" fill="black"/>
<path d="M409.931 235.735L401.045 201.283C400.344 198.539 397.956 196.103 393.917 194.535C385.245 191.137 372.296 193.086 365.001 198.907C361.639 201.592 360.095 204.621 360.249 207.449L361.924 242.922C362.091 246.819 365.001 250.395 370.526 252.557C380.742 256.56 395.984 254.256 404.562 247.413C409.219 243.778 410.929 239.513 409.931 235.735Z" fill="#E63946"/>
<path opacity="0.1" d="M392.646 209.765C387.134 214.173 377.356 215.705 370.775 213.08C364.193 210.454 363.362 204.847 368.874 200.451C374.386 196.056 384.175 194.583 390.745 197.149C397.315 199.715 398.158 205.381 392.646 209.765Z" fill="black"/>
<path opacity="0.2" d="M373.032 251.226C374.831 249.537 376.034 247.31 376.463 244.88C376.891 242.449 376.521 239.945 375.408 237.743C375.408 237.743 378.746 241.948 377.344 246.165C375.943 250.383 373.032 251.226 373.032 251.226Z" fill="black"/>
<path opacity="0.4" d="M393.953 194.583C385.28 191.185 372.331 193.133 365.037 198.954C357.743 204.776 358.883 212.248 367.555 215.646C376.228 219.043 389.189 217.095 396.483 211.274C403.778 205.453 402.649 197.98 393.953 194.583ZM392.646 209.765C387.134 214.173 377.356 215.705 370.775 213.08C364.193 210.454 363.362 204.847 368.874 200.451C374.386 196.056 384.176 194.583 390.745 197.149C397.315 199.715 398.158 205.381 392.646 209.765Z" fill="white"/>
<path d="M372.735 234.951C372.735 234.951 370.751 233.418 361.544 231.945C358.74 231.506 354.416 231.066 352.812 230.626C351.208 230.187 350.614 228.167 349.189 226.575C347.797 225.097 345.978 224.092 343.985 223.7L340.421 242.186C342.502 242.653 344.678 242.432 346.623 241.556C350.08 240.214 351.375 239.631 352.67 240.249C354.079 240.988 355.392 241.898 356.578 242.958C360.285 246.356 365.5 250.668 370.502 252.628C376.988 250.537 379.364 239.334 372.735 234.951Z" fill="#E63946"/>
<path d="M342.001 239.56C347.218 239.56 351.446 236.576 351.446 232.895C351.446 229.215 347.218 226.231 342.001 226.231C336.785 226.231 332.557 229.215 332.557 232.895C332.557 236.576 336.785 239.56 342.001 239.56Z" fill="#E63946"/>
<path opacity="0.1" d="M376.667 242.673C376.667 246.985 374.291 251.393 370.537 252.628C365.536 250.668 360.321 246.356 356.614 242.97C355.429 241.905 354.116 240.991 352.705 240.249C351.399 239.631 350.116 240.249 346.659 241.556C344.729 242.406 342.582 242.634 340.517 242.209C341.507 242.355 342.519 242.238 343.45 241.871C344.382 241.504 345.201 240.9 345.827 240.119C346.936 238.884 347.748 237.414 348.203 235.818C349.309 236.193 350.452 236.448 351.613 236.578C354.784 237.054 357.434 239.608 361.117 242.257C364.799 244.906 368.862 248.019 372.426 247.318C373.567 247.168 374.619 246.619 375.394 245.769C376.17 244.919 376.621 243.823 376.667 242.673V242.673Z" fill="black"/>
<path opacity="0.05" d="M342.001 239.56C347.218 239.56 351.446 236.576 351.446 232.895C351.446 229.215 347.218 226.231 342.001 226.231C336.785 226.231 332.557 229.215 332.557 232.895C332.557 236.576 336.785 239.56 342.001 239.56Z" fill="black"/>
<g opacity="0.1">
<path opacity="0.1" d="M343.332 228.096C343.55 227.84 343.689 227.527 343.733 227.194C343.778 226.861 343.725 226.523 343.581 226.219C343.529 226.093 343.445 225.984 343.336 225.901C343.228 225.819 343.1 225.767 342.964 225.75C342.829 225.733 342.692 225.752 342.567 225.805C342.442 225.858 342.333 225.944 342.251 226.053C342.033 226.308 341.894 226.621 341.85 226.954C341.805 227.287 341.858 227.626 342.001 227.93C342.054 228.055 342.138 228.165 342.247 228.247C342.355 228.33 342.483 228.382 342.618 228.399C342.754 228.416 342.891 228.397 343.016 228.343C343.141 228.29 343.25 228.205 343.332 228.096V228.096Z" fill="black"/>
<path opacity="0.1" d="M342.75 231.993C342.966 231.736 343.103 231.422 343.145 231.089C343.187 230.756 343.132 230.418 342.988 230.116C342.937 229.99 342.854 229.88 342.747 229.797C342.639 229.714 342.512 229.662 342.377 229.645C342.243 229.628 342.106 229.647 341.982 229.7C341.857 229.754 341.749 229.84 341.669 229.949C341.451 230.205 341.312 230.518 341.268 230.851C341.223 231.184 341.276 231.523 341.419 231.826C341.469 231.955 341.552 232.067 341.66 232.152C341.769 232.237 341.898 232.291 342.035 232.308C342.171 232.325 342.31 232.305 342.436 232.249C342.562 232.194 342.671 232.105 342.75 231.993V231.993Z" fill="black"/>
<path opacity="0.1" d="M342.144 235.866C342.359 235.606 342.496 235.29 342.538 234.956C342.581 234.621 342.526 234.281 342.382 233.977C342.331 233.851 342.248 233.741 342.141 233.658C342.033 233.575 341.906 233.523 341.771 233.506C341.637 233.489 341.5 233.508 341.376 233.561C341.251 233.615 341.143 233.701 341.063 233.81C340.845 234.066 340.706 234.379 340.662 234.712C340.617 235.045 340.67 235.384 340.813 235.687C340.865 235.814 340.948 235.924 341.056 236.008C341.164 236.092 341.292 236.145 341.427 236.163C341.562 236.181 341.7 236.163 341.826 236.111C341.952 236.059 342.061 235.974 342.144 235.866Z" fill="black"/>
<path opacity="0.1" d="M341.633 239.727C341.846 239.466 341.981 239.15 342.023 238.816C342.065 238.482 342.013 238.143 341.871 237.838C341.82 237.712 341.737 237.602 341.63 237.519C341.522 237.436 341.395 237.384 341.26 237.367C341.126 237.35 340.989 237.369 340.865 237.422C340.74 237.476 340.632 237.562 340.552 237.671C340.335 237.927 340.195 238.24 340.151 238.573C340.107 238.906 340.159 239.245 340.303 239.548C340.354 239.675 340.437 239.785 340.545 239.869C340.653 239.953 340.781 240.006 340.916 240.024C341.051 240.042 341.189 240.024 341.315 239.972C341.441 239.92 341.551 239.835 341.633 239.727Z" fill="black"/>
<path opacity="0.1" d="M346.005 230.389C346.218 230.13 346.353 229.817 346.396 229.485C346.438 229.152 346.385 228.815 346.243 228.512C346.191 228.385 346.108 228.275 346 228.191C345.892 228.107 345.764 228.054 345.629 228.036C345.494 228.018 345.356 228.036 345.23 228.088C345.104 228.14 344.995 228.225 344.912 228.334C344.699 228.592 344.563 228.905 344.521 229.238C344.479 229.57 344.532 229.907 344.674 230.211C344.725 230.337 344.809 230.448 344.917 230.531C345.025 230.615 345.153 230.669 345.288 230.687C345.423 230.705 345.561 230.687 345.687 230.634C345.812 230.582 345.922 230.497 346.005 230.389V230.389Z" fill="black"/>
<path opacity="0.1" d="M340.112 229.7C340.33 229.444 340.469 229.131 340.514 228.798C340.558 228.465 340.505 228.127 340.362 227.823C340.311 227.696 340.227 227.586 340.119 227.502C340.012 227.418 339.884 227.365 339.748 227.347C339.613 227.329 339.476 227.347 339.35 227.399C339.224 227.451 339.114 227.536 339.031 227.645C338.813 227.9 338.674 228.214 338.632 228.548C338.59 228.881 338.646 229.22 338.794 229.522C338.843 229.648 338.925 229.759 339.032 229.843C339.139 229.927 339.266 229.981 339.401 229.999C339.535 230.018 339.672 229.999 339.797 229.947C339.923 229.894 340.031 229.809 340.112 229.7Z" fill="black"/>
<path opacity="0.1" d="M345.352 234.285C345.569 234.03 345.708 233.717 345.753 233.384C345.797 233.051 345.744 232.712 345.601 232.408C345.55 232.282 345.466 232.171 345.358 232.088C345.251 232.004 345.123 231.95 344.988 231.932C344.852 231.914 344.715 231.932 344.589 231.985C344.463 232.037 344.353 232.122 344.27 232.23C344.053 232.486 343.913 232.799 343.869 233.132C343.825 233.465 343.878 233.804 344.021 234.107C344.072 234.234 344.156 234.344 344.264 234.428C344.371 234.512 344.499 234.565 344.634 234.583C344.77 234.601 344.907 234.583 345.033 234.531C345.159 234.479 345.269 234.394 345.352 234.285V234.285Z" fill="black"/>
<path opacity="0.1" d="M339.471 233.596C339.684 233.338 339.82 233.025 339.862 232.692C339.904 232.36 339.851 232.023 339.709 231.719C339.657 231.593 339.574 231.482 339.466 231.399C339.358 231.315 339.23 231.261 339.095 231.243C338.96 231.225 338.822 231.243 338.696 231.296C338.57 231.348 338.461 231.433 338.378 231.541C338.165 231.8 338.029 232.113 337.987 232.445C337.945 232.778 337.998 233.115 338.14 233.418C338.192 233.545 338.275 233.655 338.383 233.739C338.491 233.823 338.619 233.876 338.754 233.894C338.889 233.912 339.027 233.894 339.153 233.842C339.279 233.79 339.388 233.705 339.471 233.596Z" fill="black"/>
<path opacity="0.1" d="M344.71 238.182C344.923 237.921 345.058 237.606 345.1 237.272C345.142 236.938 345.089 236.599 344.948 236.293C344.895 236.168 344.811 236.058 344.702 235.976C344.594 235.893 344.466 235.841 344.331 235.824C344.196 235.807 344.058 235.826 343.933 235.879C343.808 235.933 343.699 236.018 343.617 236.127C343.404 236.385 343.268 236.699 343.226 237.031C343.184 237.363 343.237 237.701 343.379 238.004C343.431 238.13 343.514 238.241 343.622 238.325C343.73 238.408 343.858 238.462 343.993 238.48C344.128 238.498 344.266 238.48 344.392 238.428C344.518 238.375 344.627 238.291 344.71 238.182Z" fill="black"/>
<path opacity="0.1" d="M338.818 237.493C339.035 237.235 339.174 236.92 339.218 236.585C339.262 236.25 339.21 235.91 339.067 235.604C339.015 235.478 338.93 235.369 338.822 235.286C338.713 235.204 338.585 235.152 338.45 235.135C338.315 235.118 338.178 235.137 338.053 235.19C337.927 235.244 337.818 235.329 337.737 235.438C337.519 235.694 337.38 236.007 337.335 236.34C337.291 236.673 337.344 237.011 337.487 237.315C337.538 237.441 337.622 237.552 337.73 237.636C337.837 237.719 337.965 237.773 338.1 237.791C338.236 237.809 338.373 237.791 338.499 237.739C338.625 237.686 338.735 237.602 338.818 237.493Z" fill="black"/>
</g>
<path d="M338.58 233.157C338.021 233.088 337.457 233.06 336.893 233.074C336.738 233.063 336.592 232.997 336.481 232.888C336.37 232.78 336.301 232.635 336.287 232.48C336.286 232.402 336.3 232.325 336.328 232.253C336.357 232.181 336.399 232.116 336.453 232.06C336.508 232.005 336.572 231.961 336.644 231.931C336.715 231.901 336.792 231.886 336.869 231.886C337.489 231.871 338.108 231.902 338.723 231.981C338.801 231.985 338.877 232.005 338.947 232.04C339.018 232.074 339.08 232.121 339.132 232.18C339.184 232.238 339.224 232.307 339.249 232.38C339.275 232.454 339.286 232.532 339.281 232.61C339.276 232.688 339.256 232.765 339.222 232.835C339.188 232.905 339.14 232.968 339.082 233.02C339.023 233.072 338.955 233.112 338.881 233.137C338.808 233.163 338.729 233.173 338.651 233.169L338.58 233.157Z" fill="#FAFAFA"/>
<path d="M314.226 283.077H314.095C314.019 283.06 313.947 283.028 313.883 282.983C313.819 282.938 313.765 282.88 313.724 282.814C313.683 282.747 313.656 282.673 313.644 282.596C313.633 282.518 313.636 282.44 313.656 282.364L314.476 278.8C314.492 278.723 314.524 278.651 314.569 278.586C314.614 278.522 314.672 278.468 314.738 278.426C314.804 278.384 314.878 278.355 314.955 278.342C315.033 278.329 315.112 278.331 315.188 278.348C315.341 278.385 315.474 278.48 315.559 278.613C315.643 278.746 315.672 278.907 315.64 279.061L314.808 282.625C314.776 282.755 314.701 282.87 314.596 282.952C314.49 283.034 314.36 283.078 314.226 283.077ZM316.436 273.573H316.293C316.141 273.536 316.009 273.44 315.926 273.307C315.844 273.173 315.818 273.013 315.854 272.86L316.673 269.296C316.713 269.145 316.809 269.015 316.942 268.933C317.074 268.851 317.234 268.824 317.386 268.856C317.463 268.873 317.535 268.905 317.599 268.95C317.664 268.995 317.718 269.052 317.76 269.119C317.802 269.185 317.831 269.259 317.844 269.336C317.857 269.413 317.855 269.493 317.838 269.569L317.006 273.133C316.981 273.267 316.911 273.389 316.807 273.478C316.704 273.567 316.572 273.617 316.436 273.62V273.573ZM318.622 264.069H318.491C318.415 264.052 318.342 264.02 318.279 263.975C318.215 263.93 318.161 263.872 318.12 263.806C318.079 263.739 318.052 263.665 318.04 263.588C318.028 263.51 318.032 263.432 318.051 263.356L318.871 259.792C318.888 259.714 318.921 259.64 318.966 259.574C319.012 259.509 319.07 259.453 319.137 259.41C319.205 259.367 319.28 259.338 319.359 259.324C319.437 259.31 319.518 259.311 319.596 259.329C319.674 259.346 319.748 259.378 319.813 259.424C319.879 259.469 319.935 259.528 319.978 259.595C320.021 259.662 320.05 259.737 320.064 259.816C320.078 259.895 320.076 259.975 320.059 260.053L319.239 263.617C319.235 263.694 319.215 263.769 319.182 263.837C319.148 263.906 319.101 263.968 319.044 264.019C318.987 264.069 318.92 264.108 318.847 264.133C318.775 264.158 318.698 264.169 318.622 264.164V264.069ZM320.819 254.565H320.677C320.524 254.528 320.392 254.432 320.31 254.299C320.228 254.165 320.202 254.005 320.237 253.852L320.748 251.618C320.851 251.167 320.958 250.727 321.069 250.3C321.108 250.142 321.209 250.007 321.348 249.923C321.487 249.84 321.654 249.815 321.811 249.854C321.969 249.894 322.104 249.994 322.188 250.133C322.271 250.272 322.296 250.439 322.257 250.597C322.15 251.013 322.043 251.452 321.948 251.892L321.425 254.125C321.425 254.204 321.41 254.282 321.379 254.355C321.348 254.428 321.304 254.494 321.247 254.549C321.191 254.605 321.124 254.648 321.05 254.677C320.977 254.706 320.898 254.721 320.819 254.719V254.565ZM323.445 245.239C323.374 245.25 323.302 245.25 323.231 245.239C323.084 245.18 322.966 245.067 322.902 244.923C322.837 244.779 322.832 244.615 322.887 244.467C323.35 243.279 323.861 242.091 324.383 241.081C324.457 240.943 324.581 240.84 324.73 240.793C324.879 240.746 325.041 240.76 325.179 240.831C325.25 240.865 325.313 240.913 325.364 240.972C325.416 241.031 325.455 241.1 325.479 241.174C325.503 241.248 325.513 241.327 325.506 241.404C325.5 241.482 325.477 241.558 325.441 241.627C324.904 242.69 324.424 243.781 324.003 244.894C323.98 245.028 323.912 245.15 323.81 245.24C323.709 245.331 323.58 245.385 323.445 245.393V245.239ZM328.304 236.923C328.153 236.92 328.009 236.86 327.9 236.757C327.845 236.702 327.801 236.638 327.771 236.566C327.741 236.495 327.725 236.418 327.725 236.341C327.725 236.263 327.741 236.187 327.771 236.115C327.801 236.044 327.845 235.979 327.9 235.925C328.76 235.007 329.739 234.207 330.811 233.549C330.945 233.468 331.106 233.443 331.259 233.478C331.412 233.514 331.545 233.607 331.63 233.739C331.671 233.806 331.698 233.88 331.71 233.958C331.722 234.036 331.719 234.115 331.7 234.191C331.681 234.267 331.648 234.339 331.601 234.402C331.554 234.465 331.496 234.518 331.428 234.559C330.447 235.178 329.552 235.925 328.767 236.78C328.718 236.862 328.651 236.932 328.57 236.983C328.49 237.035 328.399 237.067 328.304 237.077V236.923Z" fill="#FAFAFA"/>
<path d="M312.444 290.715H312.313C312.237 290.699 312.165 290.667 312.101 290.622C312.037 290.576 311.983 290.519 311.942 290.452C311.901 290.386 311.874 290.312 311.862 290.234C311.851 290.157 311.854 290.078 311.874 290.003L312.278 288.28C312.295 288.202 312.327 288.128 312.373 288.063C312.419 287.997 312.477 287.941 312.544 287.898C312.611 287.855 312.687 287.826 312.765 287.812C312.844 287.798 312.924 287.8 313.002 287.817C313.08 287.834 313.154 287.866 313.22 287.912C313.285 287.958 313.341 288.016 313.384 288.083C313.427 288.15 313.457 288.226 313.471 288.304C313.485 288.383 313.483 288.463 313.466 288.541L313.062 290.276C313.026 290.41 312.945 290.527 312.832 290.607C312.719 290.687 312.582 290.726 312.444 290.715V290.715Z" fill="#FAFAFA"/>
<path d="M345.114 233.941H345.043C344.483 233.874 343.919 233.842 343.356 233.846C343.199 233.846 343.048 233.785 342.936 233.677C342.823 233.568 342.756 233.42 342.75 233.264C342.748 233.186 342.762 233.108 342.791 233.036C342.819 232.963 342.861 232.897 342.915 232.84C342.969 232.784 343.034 232.739 343.106 232.708C343.177 232.676 343.254 232.659 343.332 232.658C343.951 232.649 344.57 232.681 345.185 232.753C345.343 232.762 345.49 232.834 345.595 232.952C345.7 233.07 345.753 233.225 345.744 233.383C345.734 233.54 345.663 233.687 345.544 233.792C345.426 233.897 345.272 233.95 345.114 233.941V233.941Z" fill="#FAFAFA"/>
<path d="M320.76 283.849H320.618C320.465 283.812 320.333 283.717 320.251 283.583C320.168 283.45 320.142 283.289 320.178 283.136L320.998 279.572C321.015 279.494 321.047 279.42 321.093 279.355C321.139 279.289 321.197 279.233 321.264 279.19C321.331 279.147 321.406 279.118 321.485 279.104C321.564 279.09 321.644 279.092 321.722 279.109C321.8 279.126 321.874 279.158 321.94 279.204C322.005 279.25 322.061 279.308 322.104 279.375C322.147 279.442 322.176 279.518 322.19 279.596C322.204 279.675 322.203 279.755 322.186 279.833L321.354 283.397C321.324 283.53 321.247 283.648 321.139 283.731C321.03 283.813 320.896 283.855 320.76 283.849ZM322.958 274.345H322.815C322.663 274.308 322.531 274.213 322.449 274.079C322.366 273.946 322.34 273.785 322.376 273.632L323.195 270.068C323.212 269.992 323.244 269.92 323.289 269.856C323.334 269.792 323.392 269.738 323.459 269.697C323.525 269.656 323.599 269.629 323.676 269.617C323.754 269.605 323.833 269.609 323.908 269.629C323.985 269.645 324.057 269.677 324.122 269.722C324.186 269.767 324.241 269.825 324.283 269.891C324.324 269.957 324.353 270.031 324.366 270.108C324.379 270.186 324.377 270.265 324.36 270.341L323.528 273.905C323.513 274.051 323.444 274.186 323.334 274.283C323.223 274.38 323.081 274.432 322.934 274.428L322.958 274.345ZM325.144 264.841H325.013C324.937 264.824 324.865 264.792 324.801 264.747C324.737 264.702 324.683 264.644 324.642 264.578C324.601 264.511 324.574 264.437 324.562 264.36C324.55 264.283 324.554 264.204 324.574 264.128L325.393 260.564C325.43 260.411 325.525 260.28 325.659 260.197C325.793 260.115 325.953 260.089 326.106 260.124C326.259 260.161 326.39 260.257 326.473 260.39C326.555 260.524 326.581 260.685 326.546 260.837L325.726 264.401C325.708 264.548 325.636 264.683 325.524 264.78C325.412 264.877 325.268 264.928 325.12 264.924L325.144 264.841ZM327.342 255.337H327.199C327.046 255.3 326.915 255.205 326.832 255.071C326.75 254.938 326.724 254.777 326.759 254.624L327.27 252.391C327.381 251.939 327.488 251.5 327.591 251.072C327.63 250.914 327.731 250.779 327.87 250.695C328.009 250.612 328.176 250.587 328.334 250.626C328.491 250.666 328.627 250.766 328.71 250.905C328.794 251.045 328.818 251.211 328.779 251.369C328.672 251.785 328.565 252.212 328.47 252.652L327.947 254.897C327.949 254.979 327.934 255.06 327.903 255.135C327.871 255.211 327.824 255.279 327.765 255.335C327.706 255.391 327.635 255.433 327.558 255.46C327.481 255.487 327.399 255.498 327.318 255.491L327.342 255.337ZM329.967 246.023C329.896 246.034 329.824 246.034 329.753 246.023C329.607 245.967 329.489 245.856 329.425 245.713C329.36 245.571 329.355 245.409 329.409 245.263C329.85 244.109 330.349 242.979 330.906 241.877C330.977 241.737 331.101 241.631 331.25 241.582C331.399 241.533 331.561 241.545 331.702 241.615C331.772 241.649 331.835 241.697 331.886 241.756C331.938 241.815 331.977 241.884 332.001 241.958C332.026 242.032 332.035 242.111 332.028 242.189C332.022 242.266 331.999 242.342 331.963 242.411C331.428 243.475 330.949 244.566 330.525 245.678C330.499 245.815 330.427 245.939 330.321 246.029C330.215 246.12 330.082 246.172 329.943 246.177L329.967 246.023ZM334.826 237.707C334.709 237.711 334.593 237.68 334.494 237.617C334.394 237.554 334.317 237.462 334.27 237.354C334.224 237.247 334.211 237.127 334.234 237.012C334.257 236.897 334.314 236.791 334.398 236.709C335.258 235.79 336.236 234.991 337.309 234.333C337.375 234.29 337.449 234.261 337.526 234.247C337.603 234.233 337.683 234.235 337.759 234.253C337.836 234.271 337.908 234.304 337.972 234.35C338.035 234.397 338.089 234.455 338.129 234.523C338.208 234.659 338.232 234.821 338.194 234.974C338.156 235.127 338.06 235.259 337.927 235.343C336.946 235.958 336.051 236.701 335.266 237.552C335.219 237.636 335.152 237.707 335.071 237.759C334.99 237.811 334.898 237.842 334.802 237.849L334.826 237.707Z" fill="#FAFAFA"/>
<path d="M318.942 291.488H318.812C318.735 291.471 318.663 291.439 318.599 291.394C318.536 291.349 318.482 291.291 318.441 291.225C318.4 291.158 318.372 291.084 318.361 291.007C318.349 290.929 318.353 290.851 318.372 290.775L318.776 289.04C318.812 288.883 318.91 288.746 319.047 288.66C319.184 288.575 319.349 288.547 319.507 288.583C319.664 288.619 319.801 288.717 319.887 288.854C319.972 288.991 320 289.156 319.964 289.314L319.572 291.06C319.536 291.195 319.452 291.312 319.337 291.391C319.221 291.47 319.081 291.504 318.942 291.488V291.488Z" fill="#FAFAFA"/>
<path d="M342.465 238.218C342.351 238.216 342.239 238.183 342.143 238.123C342.046 238.062 341.969 237.975 341.918 237.873C341.885 237.802 341.866 237.726 341.863 237.648C341.86 237.569 341.872 237.491 341.9 237.418C341.928 237.345 341.97 237.278 342.024 237.222C342.078 237.165 342.143 237.12 342.215 237.089C342.827 236.784 343.493 236.602 344.175 236.555C344.331 236.564 344.477 236.631 344.585 236.743C344.693 236.856 344.755 237.005 344.758 237.16C344.752 237.315 344.687 237.461 344.576 237.57C344.466 237.678 344.318 237.74 344.164 237.743C343.66 237.798 343.17 237.939 342.714 238.158C342.638 238.2 342.552 238.221 342.465 238.218V238.218Z" fill="#FAFAFA"/>
<path d="M325.381 287.14H325.251C325.174 287.123 325.102 287.091 325.038 287.046C324.975 287.001 324.921 286.943 324.88 286.876C324.839 286.81 324.811 286.736 324.8 286.659C324.788 286.581 324.792 286.503 324.811 286.427L325.56 283.207C325.576 283.131 325.608 283.059 325.653 282.995C325.699 282.931 325.756 282.877 325.823 282.836C325.889 282.795 325.963 282.768 326.041 282.756C326.118 282.744 326.197 282.748 326.272 282.768C326.425 282.804 326.557 282.9 326.639 283.034C326.721 283.167 326.748 283.328 326.712 283.481L325.963 286.7C325.931 286.829 325.856 286.942 325.75 287.022C325.644 287.102 325.514 287.144 325.381 287.14V287.14ZM327.389 278.562H327.246C327.094 278.526 326.962 278.43 326.88 278.296C326.797 278.163 326.771 278.002 326.807 277.849L327.555 274.63C327.592 274.477 327.688 274.346 327.821 274.263C327.955 274.181 328.115 274.155 328.268 274.19C328.345 274.207 328.417 274.239 328.48 274.284C328.544 274.329 328.598 274.387 328.639 274.454C328.68 274.52 328.707 274.594 328.719 274.671C328.731 274.749 328.727 274.827 328.708 274.903L327.959 278.123C327.925 278.248 327.851 278.359 327.748 278.439C327.645 278.518 327.519 278.562 327.389 278.562V278.562ZM329.385 269.973H329.242C329.091 269.934 328.961 269.838 328.88 269.705C328.798 269.572 328.77 269.413 328.803 269.26L329.551 266.041C329.568 265.964 329.6 265.892 329.645 265.827C329.69 265.763 329.747 265.708 329.814 265.666C329.88 265.624 329.954 265.596 330.031 265.583C330.108 265.57 330.188 265.572 330.264 265.589C330.417 265.626 330.548 265.721 330.631 265.855C330.713 265.989 330.739 266.149 330.704 266.302L329.955 269.522C329.924 269.649 329.85 269.763 329.747 269.845C329.644 269.926 329.517 269.972 329.385 269.973ZM331.369 261.384H331.238C331.162 261.367 331.089 261.335 331.025 261.29C330.961 261.245 330.906 261.188 330.864 261.121C330.822 261.055 330.794 260.981 330.78 260.904C330.767 260.827 330.769 260.747 330.787 260.671L331.535 257.451C331.552 257.375 331.584 257.302 331.629 257.238C331.674 257.174 331.731 257.119 331.798 257.077C331.864 257.035 331.938 257.007 332.015 256.994C332.092 256.98 332.172 256.983 332.248 257C332.324 257.017 332.397 257.049 332.46 257.094C332.524 257.139 332.578 257.197 332.619 257.263C332.66 257.33 332.687 257.404 332.699 257.481C332.711 257.558 332.707 257.637 332.688 257.713L331.951 260.932C331.913 261.057 331.835 261.165 331.731 261.242C331.626 261.319 331.499 261.361 331.369 261.36V261.384ZM333.424 252.818H333.27C333.194 252.798 333.123 252.762 333.06 252.714C332.998 252.666 332.946 252.605 332.908 252.537C332.869 252.468 332.844 252.393 332.835 252.315C332.826 252.237 332.832 252.157 332.854 252.082C333.175 250.977 333.507 249.908 333.864 248.898C333.925 248.762 334.035 248.655 334.171 248.596C334.308 248.538 334.462 248.533 334.602 248.582C334.742 248.631 334.859 248.731 334.929 248.862C334.999 248.993 335.017 249.146 334.98 249.29C334.636 250.276 334.303 251.321 334.006 252.414C333.964 252.534 333.885 252.638 333.78 252.71C333.676 252.783 333.551 252.821 333.424 252.818V252.818ZM336.608 244.621C336.509 244.62 336.411 244.596 336.323 244.55C336.254 244.512 336.193 244.462 336.144 244.401C336.095 244.34 336.058 244.27 336.036 244.195C336.014 244.12 336.007 244.041 336.015 243.964C336.024 243.886 336.048 243.811 336.085 243.742C336.617 242.745 337.22 241.788 337.891 240.879C337.938 240.816 337.996 240.764 338.064 240.724C338.131 240.684 338.205 240.658 338.282 240.647C338.359 240.636 338.438 240.64 338.514 240.66C338.589 240.679 338.66 240.713 338.723 240.76C338.785 240.807 338.838 240.866 338.877 240.933C338.917 241 338.943 241.074 338.954 241.151C338.965 241.228 338.961 241.307 338.942 241.383C338.922 241.458 338.888 241.529 338.841 241.592C338.207 242.456 337.635 243.365 337.131 244.312C337.078 244.405 337.003 244.483 336.911 244.537C336.819 244.591 336.715 244.62 336.608 244.621V244.621Z" fill="#FAFAFA"/>
<path d="M323.73 294.244H323.599C323.446 294.207 323.314 294.112 323.229 293.979C323.145 293.846 323.116 293.685 323.148 293.531L323.552 291.797C323.569 291.72 323.601 291.648 323.646 291.584C323.691 291.52 323.749 291.467 323.815 291.425C323.882 291.384 323.956 291.357 324.033 291.345C324.11 291.334 324.189 291.338 324.265 291.357C324.341 291.374 324.414 291.406 324.478 291.451C324.542 291.496 324.597 291.553 324.639 291.619C324.681 291.686 324.709 291.759 324.723 291.837C324.736 291.914 324.734 291.993 324.716 292.07L324.312 293.792C324.28 293.922 324.205 294.037 324.1 294.119C323.994 294.201 323.864 294.245 323.73 294.244V294.244Z" fill="#FAFAFA"/>
<path d="M491.024 157.196C485.636 157.196 480.469 155.056 476.66 151.246C472.85 147.436 470.709 142.269 470.709 136.881V92.5452C476.096 92.5483 481.262 94.6897 485.071 98.4987C488.88 102.308 491.021 107.473 491.024 112.86V157.196Z" fill="#263238"/>
<path d="M471.636 146.243C476.602 146.492 480.261 147.431 483.635 157.196C487.009 166.962 494.066 204.467 491.701 208.387L475.711 198.562L472.052 181.158C463.213 173.543 463.76 148.987 471.636 146.243Z" fill="#B28B67"/>
<path d="M503.962 412.402L491.975 415.954L486.795 398.503L499.043 394.309L503.962 412.402Z" fill="#B28B67"/>
<path d="M490.216 410.05L489.706 408.327C488.708 409.171 488.399 419.768 485.607 425.874C482.542 432.563 479.299 437.315 477.933 440.32C476.115 444.336 483.219 446.462 491.072 442.589C494.968 440.665 501.217 435.64 502.203 432.432C503.189 429.224 502.857 425.031 503.724 422.631C504.591 420.231 507.288 417.047 507.395 414.553C507.395 413.175 506.124 410.597 504.841 408.458C503.653 406.51 502.358 404.36 501.693 404.775L502.085 406.082C500.914 408.159 499.169 409.854 497.059 410.965C495.218 411.891 490.858 412.129 490.216 410.05Z" fill="#E63946"/>
<path d="M474.273 213.282C481.496 222.548 482.791 232.123 481.223 259.222C479.655 286.32 479.144 308.987 479.548 310.508C479.952 312.028 488.446 322.922 491.202 332.83C493.959 342.738 501.395 398.93 501.395 398.93C501.395 398.93 497.178 405.108 487.769 405.108C487.769 405.108 457.618 323.005 455.598 316.911C453.578 310.816 440.748 246.593 440.748 246.593L442.696 210.347L474.273 213.282Z" fill="#457B9D"/>
<path d="M427.728 389.331H415.23V407.531H427.728V389.331Z" fill="#B28B67"/>
<path d="M419.091 244.455C420.184 231.945 422.928 210.276 422.928 210.276L454.921 208.399C460.112 216.477 457.855 229.914 456.441 242.043L438.087 313.632C438.455 317.065 441.651 324.324 438.087 342.786C434.143 363.374 428.298 392.895 428.298 392.895C428.298 392.895 419.186 397.493 414.683 392.491C414.683 392.491 412.307 325.536 413.959 307.716C415.8 288.482 418.33 253.044 419.091 244.455Z" fill="#457B9D"/>
<path d="M415.194 401.283V399.501C414.006 400 410.537 410.026 406.047 415.028C401.164 420.552 396.649 424.116 394.416 426.492C391.482 429.783 397.624 433.929 406.296 432.563C410.585 431.885 418.033 428.999 419.934 426.183C421.835 423.368 422.762 419.305 424.306 417.273C425.85 415.242 429.367 413.008 430.246 410.644C430.709 409.349 430.246 406.486 429.616 404.074C429.07 401.853 428.428 399.417 427.716 399.619C427.716 399.881 427.716 400.974 427.716 400.974C425.99 402.618 423.823 403.725 421.479 404.158C419.364 404.538 415.17 403.469 415.194 401.283Z" fill="#E63946"/>
<path d="M446.32 274.844L441.092 248.565C436.466 246.92 432.073 244.679 428.024 241.901C430.606 245.177 433.694 248.02 437.172 250.323L446.32 274.844Z" fill="#263238"/>
<path d="M424.888 189.937C424.104 197.232 421.158 224.247 421.158 224.247C445.274 237.113 475.2 228.583 479.774 223.285C475.628 209.634 471.161 201.901 467.751 198.23L472.099 181.158C472.099 181.158 461.336 165.714 471.683 146.243L458.889 145.197L440.106 144.651C435.616 144.9 432.42 145.328 432.42 145.328C429.545 148.025 425.007 155.426 422.061 162.946C420.172 167.805 418.176 175.563 424.888 189.937Z" fill="#32517C"/>
<path d="M442.827 133.46H452.842C455.947 133.46 459.021 132.848 461.889 131.66C464.757 130.472 467.364 128.731 469.559 126.536C471.754 124.34 473.496 121.734 474.684 118.866C475.872 115.998 476.483 112.923 476.483 109.819V109.819C476.486 102.226 473.475 94.9433 468.111 89.5702C462.747 84.1971 455.469 81.1736 447.876 81.1642V81.1642C440.277 81.1642 432.988 84.1831 427.614 89.5569C422.241 94.9307 419.222 102.219 419.222 109.819C419.222 116.083 421.708 122.09 426.133 126.523C430.559 130.956 436.563 133.45 442.827 133.46V133.46Z" fill="#263238"/>
<path d="M429.415 93.6382C426.385 95.432 422.655 103.047 423.023 119.002C423.332 132.521 427.716 135.872 429.914 136.822C432.112 137.772 436.365 137.19 440.487 136.513V144.627C440.487 144.627 434.785 151.244 435.141 154.975C435.497 158.705 443.386 159.572 448.72 155.937C454.054 152.302 458.556 145.245 458.556 145.245L458.461 126.581C458.461 126.581 460.837 128.957 465.007 125.393C468.405 122.423 469.557 117.41 466.908 114.701C466.22 114.064 465.39 113.598 464.487 113.343C463.584 113.088 462.633 113.051 461.713 113.234C460.793 113.417 459.929 113.816 459.192 114.397C458.456 114.978 457.867 115.726 457.475 116.578C457.475 116.578 450.894 116.828 442.126 112.005C438.711 110.161 435.779 107.536 433.57 104.345C431.361 101.153 429.937 97.4844 429.415 93.6382V93.6382Z" fill="#B28B67"/>
<path d="M438.122 115.604C438.105 115.831 438.132 116.059 438.204 116.275C438.275 116.491 438.389 116.69 438.538 116.862C438.687 117.033 438.869 117.173 439.073 117.273C439.277 117.374 439.499 117.432 439.726 117.446C440.078 117.479 440.432 117.405 440.743 117.235C441.053 117.065 441.305 116.805 441.466 116.491C441.627 116.176 441.691 115.82 441.648 115.469C441.605 115.118 441.458 114.787 441.226 114.521C440.993 114.254 440.686 114.063 440.344 113.972C440.002 113.882 439.641 113.895 439.307 114.012C438.973 114.129 438.682 114.343 438.471 114.627C438.26 114.91 438.138 115.251 438.122 115.604V115.604Z" fill="#263238"/>
<g style="mix-blend-mode:multiply" opacity="0.5">
<g style="mix-blend-mode:multiply" opacity="0.5">
<path d="M437.659 127.116L433.715 128.304C433.786 128.568 433.909 128.816 434.078 129.031C434.247 129.246 434.457 129.425 434.697 129.557C434.936 129.689 435.2 129.772 435.473 129.799C435.745 129.827 436.02 129.799 436.281 129.718C436.797 129.538 437.226 129.17 437.481 128.688C437.737 128.205 437.8 127.644 437.659 127.116Z" fill="#F28F8F"/>
</g>
</g>
<path d="M424.176 110.377L427.609 108.001C427.466 107.769 427.277 107.569 427.053 107.413C426.83 107.257 426.578 107.147 426.311 107.092C426.044 107.036 425.769 107.035 425.502 107.09C425.235 107.144 424.982 107.252 424.758 107.407C424.299 107.733 423.982 108.223 423.874 108.776C423.766 109.329 423.874 109.902 424.176 110.377V110.377Z" fill="#263238"/>
<path d="M424.972 114.369C424.954 114.596 424.981 114.825 425.052 115.041C425.124 115.258 425.237 115.458 425.386 115.63C425.535 115.803 425.717 115.944 425.922 116.045C426.126 116.147 426.348 116.207 426.575 116.222C427.036 116.232 427.482 116.06 427.817 115.745C428.152 115.43 428.351 114.995 428.369 114.535C428.391 114.085 428.233 113.644 427.93 113.309C427.627 112.975 427.204 112.775 426.754 112.753C426.303 112.731 425.862 112.889 425.528 113.192C425.194 113.495 424.994 113.918 424.972 114.369Z" fill="#263238"/>
<g style="mix-blend-mode:multiply" opacity="0.5">
<g style="mix-blend-mode:multiply" opacity="0.5">
<path d="M432.99 113.395L432.717 123.635L427.335 121.972L432.99 113.395Z" fill="#F28F8F"/>
</g>
</g>
<g style="mix-blend-mode:multiply" opacity="0.5">
<g style="mix-blend-mode:multiply" opacity="0.5">
<path d="M440.487 136.525C444.835 135.955 453.792 133.377 455.182 129.837C454.627 131.629 453.532 133.205 452.046 134.351C449.373 136.644 440.487 139.234 440.487 139.234V136.525Z" fill="#F28F8F"/>
</g>
</g>
<path d="M451.986 82.6967L452.64 75.1885C452.149 75.1188 451.65 75.1498 451.172 75.2794C450.694 75.4091 450.247 75.6348 449.859 75.9427C449.471 76.2506 449.15 76.6343 448.915 77.0704C448.681 77.5065 448.537 77.9859 448.494 78.4793C448.422 79.4963 448.746 80.5018 449.396 81.287C450.046 82.0723 450.974 82.5771 451.986 82.6967Z" fill="#263238"/>
<path d="M452.39 83.457L458.473 79.002C458.201 78.5874 457.848 78.2324 457.435 77.9585C457.021 77.6846 456.557 77.4975 456.069 77.4086C455.581 77.3198 455.081 77.3309 454.597 77.4415C454.114 77.552 453.658 77.7596 453.258 78.0516C452.444 78.667 451.9 79.5728 451.738 80.5801C451.576 81.5873 451.81 82.618 452.39 83.457V83.457Z" fill="#263238"/>
<path d="M475.758 198.562C475.758 198.562 440.487 207.674 434.178 208.387C428.88 208.981 424.829 208.827 420.98 206.011C417.131 203.196 414.458 203.112 414.458 203.112C415.16 205.433 415.61 207.823 415.8 210.24C414.149 212.177 411.725 210.621 411.725 210.621C411.641 209.349 411.438 208.088 411.119 206.855C406.747 208.482 404.443 210.49 405.179 213.365C405.773 215.586 406.961 223.582 413.911 224.734C419.578 225.672 430.032 222.251 437.148 220.398C444.264 218.544 482.886 214.458 491.713 208.411C491.598 206.574 491.044 204.793 490.096 203.216C489.148 201.639 487.835 200.313 486.267 199.349C484.7 198.386 482.923 197.814 481.088 197.681C479.253 197.548 477.413 197.859 475.723 198.586L475.758 198.562Z" fill="#B28B67"/>
</svg>
