<svg width="1412" height="1256" viewBox="0 0 1412 1256" fill="none" xmlns="http://www.w3.org/2000/svg">
<path opacity="0.7" d="M1315.91 759.705C1315.91 759.705 1380.5 489.712 1216.26 272.002C1052.02 54.2925 774.658 39.0662 639.081 126.975C503.503 214.883 433.61 428.848 302.911 518.483C172.212 608.118 25.4015 840.011 188.839 1053.15C352.276 1266.3 493.324 1222.52 706.994 1123.17C920.664 1023.83 1272.05 978.566 1315.91 759.705Z" fill="#A8DADC" fill-opacity="0.15"/>
<path opacity="0.7" d="M940.56 905.394C940.56 905.394 1007.44 751.131 932.376 604.007C857.314 456.883 693.53 418.654 603.454 456.844C513.379 495.034 449.227 615.32 361.879 655.052C274.532 694.785 162.634 817.681 237.696 961.997C312.759 1106.31 401.461 1095.02 539.302 1058.21C677.143 1021.41 891.421 1031.34 940.56 905.394Z" fill="#A8DADC" fill-opacity="0.15"/>
<path d="M832.684 883.733C832.684 883.733 876.859 781.814 827.278 684.613C777.697 587.412 669.514 562.154 610.016 587.386C550.519 612.617 508.145 692.087 450.45 718.338C392.755 744.588 318.843 825.783 368.424 921.129C418.005 1016.47 476.595 1009.01 567.643 984.697C658.69 960.38 800.226 966.94 832.684 883.733Z" fill="#A8DADC" fill-opacity="0.6"/>
<path opacity="0.7" d="M832.684 883.733C832.684 883.733 876.859 781.814 827.278 684.613C777.697 587.412 669.514 562.154 610.016 587.386C550.519 612.617 508.145 692.087 450.45 718.338C392.755 744.588 318.843 825.783 368.424 921.129C418.005 1016.47 476.595 1009.01 567.643 984.697C658.69 960.38 800.226 966.94 832.684 883.733Z" fill="#A8DADC" fill-opacity="0.01"/>
<path d="M812.952 938.887V931.896L802.796 923.481L696.377 845.213C694.827 843.384 690.845 842.6 687.494 843.436L421.634 899.753H414.931L414.805 905.502C414.805 905.502 414.704 908.533 415.699 909.709L507.112 1018.16C508.687 1020.03 512.757 1020.77 516.197 1019.91L809.235 942.82C812.045 942.179 813.494 940.468 812.952 938.887Z" fill="white" stroke="#263238" stroke-linecap="round" stroke-linejoin="round"/>
<path d="M809.235 934.914L516.196 1012.01C512.757 1012.89 508.636 1012.11 507.112 1010.24L415.699 901.791C414.124 899.935 415.699 897.727 419.113 896.852L687.493 835.531C690.845 834.682 694.827 835.466 696.376 837.295L812.46 930.014C814.023 931.857 812.574 934.052 809.235 934.914Z" fill="white" stroke="#263238" stroke-linecap="round" stroke-linejoin="round"/>
<path d="M708.435 846.886L698.216 839.425C695.696 836.393 689.068 835.087 683.524 836.498L555.206 865.714L421.86 896.185C414.3 897.806 414.099 900.654 417.564 903.96L452.403 945.289L491.16 991.27L791.04 912.871L708.435 846.886Z" fill="#263238" stroke="#263238" stroke-linecap="round" stroke-linejoin="round"/>
<path d="M581.477 883.733C555.735 890.266 544.408 906.952 556.277 920.946C568.146 934.94 598.601 940.899 624.317 934.274C650.034 927.649 661.134 911.003 649.328 897.087C637.522 883.171 607.143 877.187 581.477 883.733ZM597.189 932.314L566.761 896.381L639.122 899.674L597.189 932.314Z" fill="#A8DADC"/>
<path d="M793.913 928.708L519.41 1000.78C517.28 1001.33 514.76 1000.78 513.79 999.685L511.484 996.954C510.514 995.804 511.484 994.419 513.576 993.87L788.13 921.861C790.196 921.325 792.666 921.861 793.636 922.945L795.917 925.637C796.887 926.774 795.992 928.133 793.913 928.708Z" fill="#A8DADC" stroke="#263238" stroke-linecap="round" stroke-linejoin="round"/>
<path d="M534.315 992.472C532.337 990.146 527.272 989.153 522.975 990.264C518.679 991.374 516.826 994.184 518.805 996.497C520.783 998.809 525.848 999.815 530.145 998.705C534.441 997.594 536.281 994.798 534.315 992.472Z" fill="#263238" stroke="#263238" stroke-linecap="round" stroke-linejoin="round"/>
<path d="M472.261 762.254C472.529 762.235 472.798 762.235 473.067 762.254C473.892 762.254 474.684 761.914 475.268 761.309C475.851 760.703 476.179 759.882 476.179 759.026C476.179 758.171 475.851 757.35 475.268 756.744C474.684 756.139 473.892 755.799 473.067 755.799V755.799H461.273C461.273 755.799 462.004 751.383 462.004 749.867C462.004 748.351 462.735 746.091 460.744 743.19C458.753 740.289 454.293 741.426 454.293 741.426L454.986 747.41C455.085 748.357 454.91 749.312 454.482 750.154L449.19 760.464L446.758 762.607L446.027 775.346C447.602 779.266 452.592 780.508 452.592 780.508H468.481C469.331 780.532 470.156 780.206 470.774 779.601C471.393 778.997 471.755 778.162 471.782 777.28C471.775 776.734 471.634 776.199 471.371 775.726C471.109 775.252 470.734 774.856 470.282 774.576C470.743 774.659 471.216 774.641 471.67 774.523C472.124 774.405 472.549 774.189 472.917 773.89C473.285 773.59 473.589 773.214 473.808 772.785C474.027 772.356 474.156 771.885 474.188 771.4C474.173 770.873 474.032 770.358 473.776 769.902C473.521 769.446 473.16 769.063 472.727 768.787C473.476 768.682 474.163 768.303 474.667 767.718C475.17 767.134 475.456 766.382 475.474 765.599C475.474 764.714 475.135 763.865 474.533 763.238C473.931 762.611 473.114 762.257 472.261 762.254V762.254Z" fill="white"/>
<path d="M468.481 780.965H452.454C452.239 780.965 447.212 779.658 445.549 775.49C445.536 775.417 445.536 775.342 445.549 775.268L446.28 762.541C446.291 762.4 446.354 762.269 446.456 762.176L448.812 760.098L454.066 749.867C454.455 749.125 454.609 748.275 454.507 747.437L453.827 741.439C453.814 741.317 453.844 741.195 453.911 741.094C453.978 740.993 454.078 740.921 454.192 740.89C454.394 740.89 459.043 739.714 461.148 742.863C461.747 743.727 462.176 744.705 462.41 745.741C462.643 746.777 462.677 747.85 462.508 748.9C462.508 749.24 462.508 749.553 462.508 749.828C462.391 751.646 462.176 753.456 461.866 755.25H473.08H473.244C474.2 755.263 475.115 755.66 475.796 756.356C476.477 757.053 476.872 757.996 476.898 758.987C476.885 759.75 476.65 760.491 476.222 761.111C475.795 761.732 475.195 762.204 474.504 762.463C474.984 762.794 475.379 763.243 475.654 763.769C475.928 764.295 476.074 764.883 476.079 765.481C476.073 766.213 475.859 766.926 475.465 767.533C475.071 768.139 474.513 768.612 473.861 768.892C474.467 769.555 474.805 770.434 474.806 771.348C474.788 772.248 474.463 773.112 473.889 773.787C473.314 774.462 472.527 774.903 471.669 775.033C472.135 775.662 472.388 776.434 472.387 777.228C472.374 777.742 472.262 778.248 472.057 778.716C471.853 779.184 471.56 779.604 471.196 779.953C470.831 780.301 470.403 780.57 469.937 780.744C469.471 780.918 468.976 780.993 468.481 780.965V780.965ZM452.592 779.946H468.481C469.202 779.967 469.902 779.692 470.428 779.18C470.954 778.669 471.264 777.962 471.291 777.215C471.285 776.756 471.166 776.306 470.946 775.908C470.725 775.51 470.41 775.178 470.031 774.941C469.939 774.877 469.87 774.783 469.837 774.673C469.803 774.563 469.806 774.445 469.846 774.338C469.885 774.23 469.959 774.14 470.054 774.081C470.149 774.022 470.261 773.998 470.371 774.014C470.547 774.032 470.724 774.032 470.9 774.014C471.623 774.038 472.326 773.765 472.855 773.253C473.384 772.741 473.696 772.033 473.722 771.283C473.713 770.826 473.593 770.38 473.373 769.984C473.153 769.589 472.839 769.258 472.462 769.022C472.377 768.97 472.31 768.892 472.269 768.798C472.228 768.705 472.217 768.6 472.236 768.5C472.255 768.399 472.305 768.307 472.377 768.237C472.449 768.167 472.541 768.122 472.639 768.108C473.272 768.018 473.854 767.698 474.281 767.205C474.708 766.712 474.952 766.078 474.97 765.416C474.928 764.7 474.625 764.026 474.122 763.534C473.618 763.041 472.953 762.766 472.261 762.764V762.764C472.135 762.757 472.016 762.7 471.93 762.605C471.843 762.51 471.794 762.385 471.795 762.254C471.795 761.718 472.236 761.718 473.055 761.718C473.422 761.756 473.793 761.713 474.144 761.592C474.494 761.472 474.816 761.277 475.09 761.02C475.363 760.763 475.582 760.449 475.732 760.099C475.881 759.749 475.959 759.37 475.959 758.987C475.959 758.604 475.881 758.226 475.732 757.876C475.582 757.526 475.363 757.212 475.09 756.955C474.816 756.697 474.494 756.502 474.144 756.382C473.793 756.262 473.422 756.219 473.055 756.256V756.256C473.001 756.269 472.945 756.269 472.891 756.256H461.261C461.192 756.256 461.124 756.241 461.061 756.212C460.998 756.183 460.942 756.14 460.896 756.087C460.847 756.03 460.812 755.963 460.792 755.891C460.773 755.819 460.769 755.742 460.782 755.668C461.122 753.736 461.366 751.786 461.513 749.828C461.513 749.514 461.513 749.174 461.513 748.809C461.667 747.877 461.642 746.922 461.439 746.001C461.235 745.079 460.858 744.208 460.329 743.438C458.93 741.348 455.931 741.609 454.822 741.792L455.452 747.306C455.569 748.356 455.375 749.417 454.898 750.35L449.606 760.66C449.579 760.716 449.541 760.765 449.493 760.804L447.199 762.764L446.494 775.164C447.918 778.535 452.101 779.75 452.63 779.946H452.592Z" fill="#263238"/>
<path d="M445.498 757.877H438.039C436.55 757.877 435.343 759.129 435.343 760.673V779.672C435.343 781.216 436.55 782.468 438.039 782.468H445.498C446.988 782.468 448.195 781.216 448.195 779.672V760.673C448.195 759.129 446.988 757.877 445.498 757.877Z" fill="#263238"/>
<path d="M727.574 598.205C727.486 598.205 727.839 598.309 728.116 598.453C728.381 598.608 728.673 598.706 728.976 598.74C729.278 598.775 729.584 598.745 729.875 598.653C730.166 598.561 730.436 598.409 730.668 598.205C730.9 598.001 731.09 597.751 731.226 597.469C731.363 597.187 731.442 596.879 731.459 596.564C731.477 596.249 731.433 595.933 731.329 595.637C731.226 595.34 731.065 595.069 730.857 594.838C730.649 594.608 730.398 594.424 730.12 594.298V594.298L722.56 590.378C723.39 589.23 724.164 588.039 724.878 586.811C725.872 585.467 726.323 583.776 726.138 582.094C725.785 579.585 722.534 578.801 722.534 578.801L721.111 582.839C720.891 583.484 720.481 584.042 719.939 584.433L713.324 589.293L711.094 589.868L706.621 597.813C706.419 600.857 709.241 603.34 709.241 603.34L719.321 608.566L719.51 608.671C719.777 608.82 720.069 608.914 720.37 608.946C720.671 608.978 720.976 608.948 721.266 608.859C721.556 608.769 721.826 608.621 722.061 608.423C722.296 608.224 722.491 607.98 722.635 607.704C722.802 607.35 722.878 606.957 722.856 606.563C722.834 606.17 722.714 605.789 722.509 605.457L722.887 605.705C723.429 606.002 724.063 606.066 724.65 605.883C725.237 605.699 725.731 605.283 726.025 604.725C726.19 604.377 726.266 603.992 726.246 603.605C726.226 603.219 726.111 602.844 725.911 602.517C726.426 602.7 726.988 602.686 727.494 602.478C728 602.269 728.417 601.88 728.671 601.38C728.926 600.807 728.955 600.153 728.749 599.559C728.544 598.965 728.122 598.479 727.574 598.205Z" fill="white"/>
<path d="M719.371 609.011L719.17 608.893L709.09 603.666C709.069 603.672 709.048 603.672 709.027 603.666C708.901 603.562 706.066 601.053 706.28 597.839C706.269 597.787 706.269 597.734 706.28 597.682L710.715 589.738C710.736 589.694 710.766 589.656 710.803 589.627C710.84 589.597 710.884 589.577 710.93 589.568L713.097 589.006L719.661 584.184C720.145 583.835 720.51 583.336 720.707 582.76L722.131 578.683C722.16 578.598 722.218 578.526 722.295 578.483C722.372 578.439 722.462 578.427 722.547 578.448C722.685 578.448 726.024 579.311 726.402 582.041C726.657 583.547 726.341 585.096 725.52 586.366C725.394 586.576 725.281 586.772 725.193 586.941C724.549 588.073 723.846 589.168 723.088 590.221L730.308 593.971L730.409 594.05C731.022 594.375 731.488 594.934 731.709 595.61C731.93 596.286 731.889 597.024 731.593 597.669C731.35 598.157 730.969 598.557 730.5 598.814C730.032 599.071 729.499 599.173 728.973 599.106C729.183 599.481 729.3 599.904 729.313 600.338C729.326 600.771 729.235 601.201 729.048 601.589C728.813 602.06 728.448 602.449 727.999 602.705C727.55 602.961 727.038 603.073 726.528 603.026C726.702 603.661 726.644 604.341 726.365 604.934C726.066 605.502 725.585 605.944 725.005 606.182C724.425 606.421 723.782 606.442 723.189 606.241C723.302 606.799 723.227 607.38 722.975 607.887C722.81 608.206 722.585 608.489 722.315 608.718C722.044 608.947 721.733 609.119 721.398 609.224C721.063 609.328 720.712 609.363 720.364 609.326C720.017 609.29 719.679 609.183 719.371 609.011V609.011ZM709.468 603.039L719.548 608.266L719.712 608.37C720.17 608.622 720.706 608.677 721.203 608.523C721.701 608.369 722.12 608.019 722.37 607.547C722.512 607.251 722.577 606.922 722.56 606.593C722.542 606.263 722.442 605.943 722.27 605.666C722.23 605.594 722.216 605.511 722.228 605.429C722.24 605.348 722.279 605.273 722.337 605.217C722.396 605.161 722.47 605.127 722.549 605.121C722.629 605.115 722.708 605.136 722.773 605.182C722.877 605.261 722.986 605.331 723.101 605.391C723.558 605.648 724.093 605.706 724.591 605.555C725.09 605.403 725.51 605.053 725.76 604.581C725.897 604.287 725.962 603.962 725.946 603.635C725.931 603.309 725.836 602.991 725.671 602.713C725.628 602.652 725.605 602.579 725.605 602.504C725.605 602.428 725.628 602.355 725.671 602.294C725.716 602.238 725.776 602.197 725.843 602.176C725.91 602.155 725.982 602.155 726.05 602.177C726.483 602.33 726.954 602.32 727.381 602.148C727.807 601.976 728.161 601.653 728.38 601.236C728.596 600.745 728.616 600.186 728.437 599.68C728.257 599.174 727.893 598.761 727.423 598.531V598.531C727.344 598.485 727.286 598.408 727.26 598.318C727.235 598.228 727.243 598.131 727.284 598.048C727.448 597.695 727.738 597.852 728.305 598.139C728.527 598.255 728.768 598.325 729.016 598.344C729.263 598.363 729.512 598.331 729.748 598.25C729.984 598.169 730.202 598.041 730.39 597.873C730.578 597.705 730.732 597.5 730.844 597.27C730.955 597.04 731.022 596.79 731.041 596.533C731.059 596.276 731.028 596.018 730.951 595.774C730.873 595.53 730.749 595.303 730.587 595.108C730.425 594.913 730.228 594.753 730.006 594.638V594.638H729.918L722.433 590.718C722.386 590.693 722.345 590.658 722.313 590.615C722.28 590.572 722.257 590.522 722.244 590.469C722.224 590.422 722.213 590.371 722.213 590.319C722.213 590.267 722.224 590.216 722.244 590.169C722.244 590.169 724.071 587.555 724.525 586.654C724.626 586.445 724.752 586.236 724.878 586.014C725.277 585.458 725.564 584.824 725.72 584.15C725.876 583.477 725.898 582.777 725.785 582.094C725.533 580.277 723.529 579.48 722.761 579.193L721.438 582.956C721.206 583.67 720.765 584.291 720.178 584.733L713.563 589.594H713.45L711.358 590.13L707.036 597.865C706.885 600.557 709.14 602.765 709.468 603.039V603.039Z" fill="#263238"/>
<path d="M711.055 586.107L707.608 584.314C706.277 583.622 704.657 584.18 703.989 585.56L698.752 596.387C698.084 597.767 698.622 599.448 699.953 600.14L703.399 601.933C704.731 602.625 706.351 602.068 707.019 600.687L712.256 589.86C712.924 588.48 712.386 586.8 711.055 586.107Z" fill="#263238"/>
<path d="M737.138 749.501C736.999 749.501 737.529 749.397 737.944 749.318C738.355 749.257 738.75 749.111 739.106 748.889C739.461 748.668 739.771 748.374 740.015 748.027C740.26 747.679 740.435 747.284 740.531 746.865C740.626 746.446 740.64 746.012 740.571 745.588C740.502 745.163 740.352 744.757 740.13 744.394C739.907 744.031 739.617 743.717 739.276 743.472C738.935 743.226 738.55 743.054 738.144 742.965C737.738 742.877 737.319 742.873 736.911 742.955V742.955L725.269 744.98C725.294 742.987 725.222 740.994 725.055 739.009C724.803 737.519 725.168 735.089 722.787 732.632C720.405 730.176 716.146 731.992 716.146 731.992L717.784 737.78C718.055 738.687 718.055 739.657 717.784 740.564L714.181 751.618L712.127 754.153L713.387 766.84C715.567 770.42 720.682 770.76 720.682 770.76L736.117 768.069H736.42C737.263 767.945 738.026 767.48 738.538 766.774C739.051 766.068 739.273 765.18 739.154 764.305C739.06 763.768 738.834 763.265 738.499 762.844C738.164 762.423 737.73 762.098 737.239 761.901C737.444 761.921 737.651 761.921 737.856 761.901C738.275 761.843 738.678 761.7 739.043 761.48C739.407 761.26 739.727 760.967 739.982 760.619C740.237 760.27 740.424 759.873 740.53 759.449C740.637 759.026 740.661 758.585 740.603 758.151C740.512 757.62 740.291 757.122 739.963 756.703C739.634 756.285 739.209 755.96 738.726 755.76C739.446 755.529 740.064 755.038 740.468 754.378C740.872 753.717 741.036 752.928 740.931 752.154C740.851 751.721 740.689 751.308 740.455 750.94C740.221 750.572 739.919 750.256 739.566 750.01C739.214 749.763 738.818 749.591 738.401 749.504C737.984 749.417 737.555 749.416 737.138 749.501Z" fill="white"/>
<path d="M736.483 768.591H736.168L720.758 771.204H720.645C720.418 771.204 715.252 770.76 712.959 766.997C712.94 766.929 712.94 766.856 712.959 766.788L711.699 754.1C711.689 754.033 711.693 753.965 711.71 753.9C711.728 753.835 711.758 753.774 711.799 753.722L713.803 751.265L717.356 740.276C717.602 739.468 717.602 738.601 717.356 737.794L715.731 732.005C715.699 731.885 715.709 731.758 715.76 731.645C715.811 731.533 715.899 731.442 716.008 731.391C716.197 731.313 720.594 729.405 723.177 732.149C724.644 733.666 725.473 735.723 725.483 737.872C725.501 738.183 725.534 738.493 725.584 738.8C725.755 740.61 725.831 742.429 725.811 744.248L736.873 742.328H737.037C737.982 742.174 738.948 742.407 739.731 742.978C740.513 743.548 741.052 744.411 741.233 745.385C741.346 746.138 741.234 746.908 740.912 747.593C740.59 748.278 740.073 748.843 739.431 749.214C740.019 749.484 740.524 749.916 740.892 750.464C741.259 751.011 741.475 751.652 741.515 752.318C741.555 752.984 741.419 753.648 741.12 754.239C740.822 754.83 740.373 755.324 739.822 755.668C740.502 756.235 740.952 757.047 741.082 757.942C741.203 758.833 741.017 759.741 740.556 760.504C740.095 761.266 739.389 761.835 738.562 762.11C739.123 762.649 739.496 763.366 739.62 764.149C739.702 764.655 739.686 765.173 739.572 765.672C739.458 766.172 739.248 766.643 738.956 767.057C738.663 767.471 738.294 767.82 737.869 768.084C737.444 768.347 736.973 768.52 736.483 768.591V768.591ZM720.657 770.303L736.029 767.624H736.281C736.997 767.523 737.645 767.133 738.085 766.538C738.524 765.943 738.718 765.192 738.625 764.449C738.552 763.994 738.365 763.567 738.082 763.211C737.798 762.855 737.429 762.584 737.012 762.424C736.907 762.378 736.82 762.295 736.767 762.19C736.715 762.085 736.699 761.965 736.722 761.849C736.743 761.734 736.802 761.63 736.89 761.556C736.978 761.481 737.088 761.442 737.201 761.444C737.377 761.457 737.554 761.457 737.73 761.444C738.085 761.396 738.428 761.275 738.738 761.089C739.048 760.903 739.32 760.656 739.538 760.361C739.755 760.066 739.915 759.729 740.007 759.37C740.099 759.011 740.122 758.637 740.074 758.269C739.997 757.822 739.812 757.404 739.537 757.052C739.261 756.7 738.904 756.426 738.499 756.256C738.404 756.223 738.321 756.16 738.263 756.076C738.205 755.991 738.173 755.89 738.173 755.786C738.173 755.682 738.205 755.581 738.263 755.497C738.321 755.412 738.404 755.349 738.499 755.316C739.108 755.121 739.632 754.708 739.975 754.15C740.319 753.593 740.461 752.927 740.376 752.271C740.227 751.539 739.807 750.898 739.206 750.484C738.605 750.071 737.871 749.92 737.163 750.063V750.063C737.039 750.075 736.915 750.039 736.815 749.962C736.715 749.885 736.646 749.772 736.621 749.645C736.533 749.109 736.974 749.031 737.881 748.874C738.243 748.84 738.594 748.73 738.912 748.549C739.231 748.368 739.509 748.121 739.731 747.823C739.953 747.525 740.113 747.183 740.202 746.818C740.29 746.453 740.304 746.073 740.244 745.702C740.184 745.33 740.051 744.976 739.852 744.661C739.654 744.346 739.395 744.077 739.091 743.87C738.788 743.664 738.446 743.525 738.089 743.462C737.731 743.398 737.364 743.413 737.012 743.504H736.861L725.395 745.503C725.323 745.516 725.25 745.512 725.18 745.492C725.11 745.472 725.046 745.435 724.992 745.385C724.94 745.337 724.899 745.279 724.871 745.214C724.843 745.148 724.828 745.078 724.828 745.006C724.828 745.006 724.828 740.551 724.614 739.113C724.555 738.781 724.517 738.445 724.5 738.107C724.504 737.161 724.326 736.223 723.978 735.349C723.63 734.474 723.118 733.679 722.472 733.011C720.758 731.182 717.847 731.953 716.776 732.332L718.288 737.663C718.587 738.667 718.587 739.742 718.288 740.747L714.71 751.827C714.688 751.887 714.659 751.945 714.622 751.997L712.694 754.362L713.954 766.71C715.794 769.715 720.115 770.251 720.657 770.303Z" fill="#263238"/>
<path d="M710.086 749.792L702.73 751.07C701.261 751.325 700.27 752.767 700.516 754.29L703.543 773.027C703.789 774.55 705.179 775.578 706.648 775.323L714.004 774.045C715.473 773.79 716.464 772.348 716.218 770.825L713.191 752.088C712.945 750.565 711.555 749.537 710.086 749.792Z" fill="#263238"/>
<path d="M571.272 569.916C569.653 570.907 568.344 572.361 567.501 574.103C566.659 575.846 566.319 577.804 566.522 579.742C564.685 578.413 562.465 577.776 560.231 577.936C557.997 578.096 555.883 579.044 554.239 580.621C552.596 582.199 551.522 584.312 551.196 586.609C550.87 588.907 551.312 591.251 552.447 593.252C555.698 598.962 562.275 600.753 568.134 601.602C570.743 601.981 573.351 602.255 575.972 602.477L579.588 602.83C579.588 602.83 581.012 599.629 581.15 599.315C582.221 596.82 583.254 594.311 584.187 591.776C586.304 586.04 587.967 579.206 584.716 573.483C583.389 571.162 581.227 569.482 578.706 568.813C576.185 568.144 573.511 568.541 571.272 569.916Z" fill="#E63946"/>
<path d="M763.471 701.181C761.697 700.535 759.78 700.431 757.951 700.883C756.121 701.335 754.455 702.323 753.152 703.729C752.962 701.409 752.01 699.227 750.455 697.547C748.9 695.867 746.836 694.792 744.608 694.502C742.38 694.211 740.124 694.722 738.216 695.95C736.308 697.178 734.864 699.047 734.126 701.247C732.009 707.492 734.907 713.869 738.045 719.069C739.443 721.382 740.917 723.629 742.429 725.864C742.631 726.151 744.496 728.961 744.496 728.961C744.496 728.961 747.772 728.033 748.099 727.928C750.619 727.184 753.139 726.386 755.659 725.498C761.254 723.486 767.377 720.415 769.519 714.169C769.947 712.905 770.13 711.565 770.058 710.227C769.985 708.889 769.658 707.58 769.097 706.373C768.535 705.166 767.748 704.086 766.783 703.195C765.818 702.305 764.692 701.62 763.471 701.181Z" fill="#263238"/>
<path d="M422.465 798.775C420.648 799.273 419.007 800.303 417.738 801.742C416.469 803.18 415.626 804.967 415.309 806.889C413.893 805.085 411.923 803.839 409.728 803.359C407.533 802.88 405.245 803.195 403.248 804.253C401.25 805.311 399.662 807.048 398.75 809.173C397.838 811.298 397.657 813.683 398.236 815.931C399.874 822.333 405.796 825.914 411.151 828.383C413.557 829.481 416.002 830.487 418.459 831.441L421.848 832.747C421.848 832.747 424.053 830.069 424.267 829.794C425.956 827.704 427.606 825.574 429.169 823.392C432.697 818.466 436.099 812.364 434.461 805.961C433.784 803.362 432.142 801.146 429.894 799.799C427.646 798.452 424.975 798.084 422.465 798.775Z" fill="#263238"/>
<path d="M456.826 675.95C455.706 675.538 454.496 675.471 453.34 675.756C452.184 676.041 451.133 676.667 450.312 677.557C450.193 676.093 449.592 674.715 448.611 673.655C447.629 672.594 446.326 671.915 444.92 671.732C443.514 671.548 442.09 671.871 440.885 672.646C439.681 673.421 438.77 674.601 438.304 675.989C436.956 679.909 438.796 683.947 440.824 687.239C441.706 688.69 442.639 690.114 443.596 691.525L444.856 693.472L447.137 692.832C448.724 692.361 450.312 691.852 451.887 691.29C455.415 689.983 459.271 688.089 460.619 684.143C461.163 682.535 461.069 680.768 460.358 679.232C459.646 677.696 458.376 676.515 456.826 675.95V675.95Z" fill="#263238"/>
<path d="M510.59 837.974C509.469 837.563 508.256 837.495 507.099 837.781C505.941 838.066 504.887 838.691 504.064 839.581C503.944 838.117 503.344 836.739 502.362 835.678C501.381 834.618 500.078 833.939 498.672 833.756C497.266 833.572 495.841 833.895 494.637 834.67C493.433 835.445 492.521 836.625 492.056 838.013C490.72 841.933 492.547 845.971 494.576 849.263C495.445 850.714 496.39 852.138 497.348 853.549L498.608 855.496L500.876 854.856C502.476 854.385 504.064 853.889 505.626 853.314C509.154 852.007 513.022 850.113 514.37 846.167C514.915 844.56 514.823 842.796 514.114 841.26C513.405 839.724 512.138 838.542 510.59 837.974V837.974Z" fill="#E63946"/>
<path d="M521.665 915.419C521.665 915.419 507.401 930.811 505.952 938.364C504.503 945.916 507.981 952.554 513.815 950.737C519.649 948.921 524.878 930.21 526.327 926.891C527.776 923.572 529.527 919.94 529.527 919.94C529.527 919.94 525.18 913.903 521.665 915.419Z" fill="#E63946" stroke="#263238" stroke-linecap="round" stroke-linejoin="round"/>
<path d="M505.827 939.16C504.756 946.36 508.195 952.475 513.815 950.724C515.831 950.097 517.784 947.432 519.523 944.087C515.743 937.684 509.619 938.102 505.827 939.16Z" fill="white" stroke="#263238" stroke-linecap="round" stroke-linejoin="round"/>
<path d="M521.539 939.788C518.363 944.309 514.268 949.169 511.194 948.32C508.12 947.471 506.494 941.486 505.94 938.403C504.503 945.929 507.994 952.54 513.815 950.737C516.65 949.862 519.346 944.962 521.539 939.788Z" fill="white" stroke="#263238" stroke-linecap="round" stroke-linejoin="round"/>
<path d="M524.575 923.873C524.575 923.873 518.174 920.24 517.885 921.456C517.595 922.671 523.996 925.977 524.878 925.977C525.76 925.977 526.327 925.676 524.575 923.873Z" fill="white" stroke="#263238" stroke-linecap="round" stroke-linejoin="round"/>
<path d="M523.127 925.977C523.127 925.977 516.726 922.357 516.436 923.572C516.147 924.787 522.547 928.093 523.417 928.093C524.286 928.093 524.878 927.793 523.127 925.977Z" fill="white" stroke="#263238" stroke-linecap="round" stroke-linejoin="round"/>
<path d="M521.665 928.093C521.665 928.093 515.264 924.474 514.974 925.676C514.685 926.878 521.085 930.21 521.967 930.21C522.849 930.21 523.416 929.91 521.665 928.093Z" fill="white" stroke="#263238" stroke-linecap="round" stroke-linejoin="round"/>
<path d="M520.216 930.21C520.216 930.21 513.815 926.591 513.512 927.793C513.21 928.995 519.636 932.327 520.505 932.327C521.375 932.327 521.967 932.026 520.216 930.21Z" fill="white" stroke="#263238" stroke-linecap="round" stroke-linejoin="round"/>
<path d="M630.265 905.449C630.265 905.449 622.705 911.486 620.953 915.719C619.202 919.953 622.692 921.155 627.354 922.057C632.016 922.958 636.376 928.093 642.776 929.896C649.177 931.7 657.342 931.099 654.721 926.878C652.1 922.658 643.658 917.209 642.197 914.792C641.314 913.346 640.527 911.84 639.841 910.284L630.265 905.449Z" fill="#E63946" stroke="#263238" stroke-linecap="round" stroke-linejoin="round"/>
<path d="M654.721 926.891C653.771 925.503 652.658 924.244 651.407 923.141C649.527 923.533 647.744 924.321 646.168 925.456C644.593 926.591 643.258 928.049 642.247 929.74L642.776 929.91C649.19 931.713 657.342 931.112 654.721 926.891Z" fill="white" stroke="#263238" stroke-linecap="round" stroke-linejoin="round"/>
<path d="M641.907 913.603C641.907 913.603 634.347 915.118 635.796 916.32C637.245 917.523 643.368 915.118 641.907 913.603Z" fill="white" stroke="#263238" stroke-linecap="round" stroke-linejoin="round"/>
<path d="M644.238 915.118C644.238 915.118 636.678 916.621 638.127 917.836C639.576 919.051 645.7 916.621 644.238 915.118Z" fill="white" stroke="#263238" stroke-linecap="round" stroke-linejoin="round"/>
<path d="M645.397 916.621C645.397 916.621 637.837 918.137 639.286 919.339C640.735 920.541 646.859 918.137 645.397 916.621Z" fill="white" stroke="#263238" stroke-linecap="round" stroke-linejoin="round"/>
<path d="M647.728 918.738C647.728 918.738 640.168 920.24 641.617 921.456C643.066 922.671 649.19 920.24 647.728 918.738Z" fill="white" stroke="#263238" stroke-linecap="round" stroke-linejoin="round"/>
<path d="M655.175 928.093C649.505 929.648 644.276 928.407 639.286 925.676C634.8 923.094 630.128 920.875 625.313 919.038C623.661 918.456 622.089 917.653 620.638 916.647C619.769 920.123 623.057 921.22 627.354 922.057C632.016 922.958 636.376 928.093 642.776 929.896C648.522 931.53 655.628 931.203 655.175 928.093Z" fill="white" stroke="#263238" stroke-linecap="round" stroke-linejoin="round"/>
<path d="M576.399 779.162C576.399 779.162 565.929 828.161 563.887 839.934C561.846 851.707 560.977 858.959 560.977 858.959C560.977 858.959 553.417 864.695 545.857 877.369C538.297 890.044 521.69 915.419 521.69 915.419C521.69 915.419 521.11 919.94 526.352 921.455C526.352 921.455 528.973 922.658 530.434 921.455C531.896 920.253 581.666 872.548 587.487 862.578C593.308 852.608 605.253 817.891 605.253 817.891L612.813 816.388L661.134 862.879L628.525 905.998C628.525 905.998 627.366 908.415 630.567 910.532C633.767 912.649 638.719 911.734 641.34 910.532C643.96 909.33 689.963 862.526 690.253 859.207C690.543 855.888 688.212 851.955 687.632 850.753C687.052 849.551 640.76 785.421 640.76 785.421L638.139 778.482C638.139 778.482 607.572 782.102 593.888 779.384C580.204 776.666 577.571 774.641 576.399 779.162Z" fill="white" stroke="#263238" stroke-linecap="round" stroke-linejoin="round"/>
<path d="M612.801 816.388L629.395 811.253" stroke="#263238" stroke-linecap="round" stroke-linejoin="round"/>
<path d="M614.539 817.29L637.244 814.572" stroke="#263238" stroke-linecap="round" stroke-linejoin="round"/>
<path d="M661.122 862.879L671.026 871.333" stroke="#263238" stroke-linecap="round" stroke-linejoin="round"/>
<path d="M617.286 795.025L607.307 798.474C607.307 798.474 622.994 797.978 623.472 799.951C623.951 801.924 613.959 809.816 613.959 809.816" stroke="#263238" stroke-linecap="round" stroke-linejoin="round"/>
<path d="M581.629 788.609C581.629 788.609 586.921 798.043 574.497 803.4" stroke="#263238" stroke-linecap="round" stroke-linejoin="round"/>
<path d="M644.414 679.609C644.414 679.609 602.317 678.629 600.314 679.23C598.311 679.831 574.988 710.027 572.367 712.745C569.746 715.463 562.753 720.585 562.174 724.505C561.594 728.425 566.836 741.413 572.657 741.413C578.478 741.413 588.961 729.339 588.961 729.339C588.961 729.339 574.988 779.449 575.568 781.605C576.147 783.761 586.051 788.543 608.176 791.261C630.302 793.979 639.676 784.323 640.206 781.305C640.735 778.286 639.613 773.151 639.613 773.151L647.173 759.262C647.173 759.262 660.567 769.623 666.678 765.089C672.789 760.555 672.789 746.666 675.7 742.445C678.61 738.225 685.603 715.58 683.26 712.562C680.916 709.544 644.414 679.609 644.414 679.609Z" fill="#A8DADC" stroke="#263238" stroke-linecap="round" stroke-linejoin="round"/>
<path d="M667.233 712.222C667.233 712.222 659.081 706.094 657.922 708.812C656.762 711.53 649.19 726.635 643.62 732.972C638.051 739.309 635.178 745.346 638.669 750.18C641.174 753.493 644.003 756.527 647.111 759.236" stroke="#263238" stroke-linecap="round" stroke-linejoin="round"/>
<path d="M588.924 729.353L599.407 693.119" stroke="#263238" stroke-linecap="round" stroke-linejoin="round"/>
<path d="M636.061 681.346C636.061 681.346 620.626 679.53 613.935 672.592C607.244 665.654 603.742 658.702 592.099 656.912C585.15 655.822 578.082 655.822 571.133 656.912L574.043 672.592C574.043 672.592 588.029 667.156 595.01 671.377C601.99 675.597 605.493 686.168 615.094 688.886C624.695 691.604 636.93 691.002 636.93 691.002L636.061 681.346Z" fill="#263238" stroke="#263238" stroke-linecap="round" stroke-linejoin="round"/>
<path d="M648.9 684.064C651.636 686.511 653.569 689.781 654.431 693.42C655.59 699.156 650.349 706.094 646.279 710.027C642.209 713.96 638.127 715.763 627.643 717.266C617.16 718.769 607.849 707.61 600.856 706.408C593.863 705.206 579.6 713.346 579.6 713.346L582.523 700.358C588.842 696.512 596.203 694.924 603.477 695.837C615.711 697.34 623.863 706.408 628.513 707.597C633.162 708.786 641.617 706.081 643.368 699.143C645.12 692.205 642.776 685.854 645.699 683.751C648.622 681.647 648.9 684.064 648.9 684.064Z" fill="#263238" stroke="#263238" stroke-linecap="round" stroke-linejoin="round"/>
<path d="M647.4 627.905C647.4 627.905 638.958 630.322 635.468 635.744C631.978 641.167 621.785 672.879 622.074 675.597C622.364 678.315 635.468 675.597 635.468 675.597C635.468 675.597 626.447 695.197 626.447 698.542C626.447 701.887 630.516 703.677 635.758 702.462C641 701.247 658.854 669.378 658.854 669.378C658.854 669.378 664.146 675.754 667.485 673.572C671.265 671.063 670.106 666.019 667.195 666.019C664.284 666.019 675.347 653.646 671.567 645.492C667.787 637.339 650.928 625.187 647.4 627.905Z" fill="#FFD9AC" stroke="#263238" stroke-linecap="round" stroke-linejoin="round"/>
<path d="M644.238 618.249C644.238 618.249 627.933 618.249 627.064 626.402C626.194 634.555 634.624 638.162 643.948 636.659C653.272 635.157 661.701 635.758 662.848 637.26C663.994 638.763 651.508 641.794 654.406 643.911C656.102 645.16 658.148 645.794 660.227 645.714C660.227 645.714 656.145 646.929 656.447 649.948C656.749 652.966 659.282 666.307 661.311 666.307C663.339 666.307 667.22 666.033 667.22 666.033C670.901 664.105 674.247 661.557 677.124 658.493C681.496 653.659 682.655 643.388 677.124 637.352C671.592 631.315 667.22 625.487 662.86 620.666C658.501 615.844 654.418 610.696 645.687 609.494C636.955 608.292 632.28 611.898 644.238 618.249Z" fill="#263238" stroke="#263238" stroke-linecap="round" stroke-linejoin="round"/>
<path d="M678.232 649.412C678.531 651.181 678.59 652.984 678.409 654.769" stroke="white" stroke-linecap="round" stroke-linejoin="round"/>
<path d="M648.308 627.774C648.308 627.774 630.441 629.577 637.195 633.118C643.948 636.659 654.28 630.034 667.296 635.366C669.488 636.192 671.49 637.483 673.174 639.157C674.857 640.831 676.186 642.851 677.074 645.087" stroke="white" stroke-linecap="round" stroke-linejoin="round"/>
<path d="M659.156 641.833C659.156 641.833 671.366 648.027 673.016 657.017" stroke="white" stroke-linecap="round" stroke-linejoin="round"/>
<path d="M635.506 675.61C635.506 675.61 649.479 674.696 653.259 671.377" stroke="#263238" stroke-linecap="round" stroke-linejoin="round"/>
<path d="M622.112 642.996C622.112 642.996 643.369 642.696 655.301 645.414C655.301 645.414 653.209 652.561 649.719 654.978C646.229 657.396 640.168 655.684 638.707 654.469C637.245 653.254 636.086 646.015 636.086 646.015H633.755L632.596 649.647C632.596 649.647 631.714 654.469 628.513 654.469C625.313 654.469 622.112 653.868 622.112 642.996Z" fill="#A8DADC" stroke="#263238" stroke-linecap="round" stroke-linejoin="round"/>
<path d="M633.2 647.779C629.676 646.664 625.916 646.637 622.377 647.7C623.209 654.051 625.855 654.482 628.513 654.482C631.714 654.482 632.596 649.66 632.596 649.66L633.2 647.779Z" fill="#263238" stroke="#263238" stroke-linecap="round" stroke-linejoin="round"/>
<path d="M653.184 650.575C647.93 645.544 642.65 650.457 636.69 649.098C637.169 651.228 637.887 653.802 638.706 654.469C640.168 655.684 646.266 657.396 649.719 654.978C651.179 653.8 652.364 652.295 653.184 650.575Z" fill="#263238" stroke="#263238" stroke-linecap="round" stroke-linejoin="round"/>
<path d="M655.3 645.414L668.518 666.555L667.232 666.033L654.078 649.059L655.3 645.414Z" fill="#A8DADC" stroke="#263238" stroke-linecap="round" stroke-linejoin="round"/>
<path d="M631.134 663.537C631.134 663.537 641.327 666.555 644.238 660.205" stroke="#263238" stroke-linecap="round" stroke-linejoin="round"/>
<path d="M642.486 659.003L646.859 660.819" stroke="#263238" stroke-linecap="round" stroke-linejoin="round"/>
<path d="M634.334 649.647C634.334 649.647 625.312 650.849 625.312 652.365C625.312 653.881 631.134 658.101 631.134 658.101" fill="#FFD9AC"/>
<path d="M634.334 649.647C634.334 649.647 625.312 650.849 625.312 652.365C625.312 653.881 631.134 658.101 631.134 658.101" stroke="#263238" stroke-linecap="round" stroke-linejoin="round"/>
<path d="M633.175 680.745C632.564 680.708 631.954 680.826 631.396 681.088C630.839 681.349 630.351 681.748 629.975 682.248C628.223 684.064 624.217 691.212 623.183 694.008C621.319 699.143 627.871 708.381 634.624 705.153C637.976 703.585 638.807 704.957 642.6 700.123C646.393 695.288 647.149 691.564 647.149 690.062C647.149 688.559 649.769 688.546 644.238 691.264C638.707 693.982 627.644 689.5 633.175 680.745Z" fill="#263238" stroke="#263238" stroke-linecap="round" stroke-linejoin="round"/>
<path d="M449.581 579.755C447.837 580.518 446.343 581.787 445.279 583.409C444.215 585.032 443.626 586.939 443.583 588.901C441.938 587.322 439.821 586.376 437.584 586.22C435.348 586.063 433.127 586.707 431.293 588.042C429.458 589.378 428.12 591.325 427.502 593.559C426.884 595.794 427.023 598.18 427.896 600.321C430.416 606.423 436.716 609.128 442.348 610.775C444.868 611.506 447.388 612.081 449.996 612.748C450.324 612.748 453.537 613.597 453.537 613.597C453.537 613.597 455.351 610.631 455.54 610.33C456.926 608.017 458.275 605.666 459.535 603.274C462.37 597.891 464.902 591.345 462.433 585.243C461.936 584.007 461.21 582.885 460.295 581.941C459.381 580.996 458.296 580.248 457.103 579.738C455.909 579.229 454.631 578.968 453.34 578.971C452.049 578.974 450.772 579.24 449.581 579.755V579.755Z" fill="#263238"/>
<path d="M505.688 604.659C503.922 603.985 502.007 603.852 500.17 604.276C498.334 604.7 496.654 605.663 495.331 607.051C495.162 604.736 494.235 602.55 492.703 600.858C491.171 599.165 489.127 598.067 486.909 597.747C484.692 597.426 482.436 597.902 480.516 599.095C478.596 600.289 477.128 602.128 476.355 604.307C474.15 610.513 476.96 616.929 480.034 622.182C481.395 624.507 482.844 626.781 484.331 629.028L486.359 632.164C486.359 632.164 489.648 631.276 489.976 631.184C492.496 630.466 495.016 629.708 497.536 628.858C503.155 626.925 509.317 623.932 511.522 617.726C511.968 616.471 512.171 615.137 512.119 613.8C512.068 612.464 511.762 611.151 511.22 609.937C510.678 608.723 509.91 607.632 508.961 606.726C508.012 605.821 506.899 605.118 505.688 604.659V604.659Z" fill="#263238"/>
<path d="M499.98 599.433C500.248 599.408 500.518 599.408 500.786 599.433C501.612 599.433 502.403 599.093 502.987 598.488C503.571 597.882 503.899 597.061 503.899 596.205C503.899 595.349 503.571 594.529 502.987 593.923C502.403 593.318 501.612 592.978 500.786 592.978H488.993C488.993 592.978 489.724 588.562 489.724 587.046C489.724 585.53 490.454 583.27 488.464 580.369C486.473 577.468 481.987 578.527 481.987 578.527L482.68 584.511C482.782 585.457 482.606 586.413 482.176 587.255L476.884 597.564L474.452 599.707L473.722 612.447C475.297 616.367 480.286 617.674 480.286 617.674H496.2C497.051 617.695 497.876 617.366 498.495 616.759C499.113 616.152 499.475 615.316 499.501 614.433C499.493 613.887 499.352 613.353 499.089 612.879C498.827 612.406 498.453 612.01 498.002 611.728C498.203 611.748 498.406 611.748 498.607 611.728C499.457 611.753 500.282 611.427 500.9 610.822C501.519 610.217 501.882 609.382 501.908 608.501C501.903 607.961 501.766 607.431 501.511 606.96C501.255 606.49 500.889 606.094 500.446 605.809C501.194 605.707 501.882 605.33 502.385 604.748C502.889 604.166 503.176 603.416 503.193 602.634C503.161 601.773 502.808 600.959 502.209 600.362C501.61 599.765 500.811 599.432 499.98 599.433Z" fill="white"/>
<path d="M496.2 618.066H480.173C479.959 618.066 474.931 616.759 473.268 612.604C473.257 612.53 473.257 612.455 473.268 612.382L473.999 599.642C474.011 599.505 474.074 599.378 474.175 599.289L476.531 597.198L481.786 586.98C482.174 586.233 482.329 585.379 482.227 584.537L481.508 578.526C481.496 578.405 481.526 578.282 481.593 578.181C481.66 578.081 481.76 578.008 481.874 577.978C482.076 577.978 486.725 576.802 488.829 579.951C489.429 580.814 489.858 581.792 490.091 582.828C490.325 583.864 490.358 584.938 490.19 585.987C490.19 586.327 490.19 586.641 490.19 586.915C490.074 588.734 489.859 590.544 489.547 592.338H500.761C500.815 592.324 500.871 592.324 500.925 592.338C501.88 592.347 502.795 592.741 503.476 593.435C504.158 594.13 504.553 595.071 504.579 596.062C504.569 596.825 504.334 597.566 503.906 598.187C503.478 598.809 502.878 599.279 502.185 599.537C502.667 599.87 503.063 600.32 503.338 600.849C503.613 601.378 503.758 601.968 503.76 602.569C503.753 603.298 503.54 604.01 503.145 604.614C502.751 605.218 502.193 605.689 501.543 605.966C502.15 606.634 502.488 607.517 502.488 608.436C502.469 609.334 502.144 610.196 501.569 610.869C500.994 611.542 500.208 611.98 499.35 612.107C499.817 612.737 500.069 613.508 500.068 614.302C500.059 614.815 499.95 615.32 499.75 615.789C499.549 616.257 499.26 616.679 498.899 617.029C498.539 617.38 498.114 617.652 497.651 617.83C497.187 618.008 496.694 618.088 496.2 618.066V618.066ZM480.311 617.046H496.2C496.921 617.068 497.621 616.792 498.147 616.281C498.674 615.769 498.984 615.063 499.01 614.315C499.004 613.857 498.885 613.407 498.665 613.009C498.444 612.611 498.129 612.278 497.75 612.042C497.656 611.98 497.584 611.887 497.548 611.778C497.511 611.669 497.511 611.55 497.548 611.441C497.588 611.33 497.664 611.236 497.762 611.176C497.861 611.117 497.977 611.095 498.09 611.114C498.266 611.132 498.443 611.132 498.619 611.114C498.977 611.128 499.333 611.069 499.669 610.94C500.004 610.811 500.312 610.614 500.574 610.362C500.836 610.11 501.048 609.806 501.196 609.469C501.345 609.132 501.429 608.767 501.442 608.396C501.434 607.94 501.314 607.493 501.094 607.097C500.873 606.702 500.559 606.371 500.182 606.136C500.097 606.08 500.03 605.999 499.989 605.904C499.949 605.809 499.937 605.703 499.955 605.6C499.979 605.502 500.03 605.413 500.102 605.344C500.173 605.274 500.262 605.227 500.358 605.208C500.98 605.124 501.553 604.816 501.979 604.339C502.405 603.861 502.656 603.244 502.689 602.595C502.663 601.847 502.353 601.141 501.826 600.629C501.3 600.118 500.6 599.843 499.879 599.864V599.864C499.753 599.857 499.635 599.801 499.548 599.706C499.461 599.611 499.413 599.485 499.413 599.354C499.413 598.819 499.854 598.819 500.673 598.819C501.033 598.845 501.395 598.793 501.735 598.668C502.076 598.543 502.388 598.346 502.652 598.091C502.916 597.835 503.126 597.526 503.27 597.183C503.414 596.839 503.489 596.469 503.489 596.094C503.489 595.72 503.414 595.349 503.27 595.006C503.126 594.662 502.916 594.353 502.652 594.098C502.388 593.842 502.076 593.646 501.735 593.52C501.395 593.395 501.033 593.344 500.673 593.37H500.509H488.88C488.809 593.37 488.74 593.354 488.677 593.322C488.613 593.29 488.558 593.244 488.514 593.187C488.466 593.133 488.431 593.069 488.411 592.998C488.391 592.928 488.388 592.854 488.401 592.782C488.74 590.845 488.984 588.891 489.131 586.928C489.131 586.615 489.131 586.275 489.131 585.909C489.285 584.977 489.259 584.023 489.056 583.101C488.853 582.18 488.476 581.309 487.947 580.539C486.548 578.448 483.55 578.709 482.441 578.892L483.071 584.419C483.184 585.465 482.991 586.521 482.516 587.451L477.3 597.734C477.274 597.795 477.235 597.848 477.187 597.891L474.906 599.89L474.2 612.29C475.637 615.635 479.82 616.903 480.349 617.046H480.311Z" fill="#263238"/>
<path d="M473.218 594.977H465.759C464.27 594.977 463.062 596.229 463.062 597.773V616.772C463.062 618.316 464.27 619.568 465.759 619.568H473.218C474.707 619.568 475.914 618.316 475.914 616.772V597.773C475.914 596.229 474.707 594.977 473.218 594.977Z" fill="#263238"/>
<path d="M549.675 632.23L549.02 625.696C549.025 625.671 549.025 625.644 549.02 625.618L548.037 615.766H548.138C548.17 615.777 548.206 615.777 548.238 615.766C548.405 615.721 548.548 615.609 548.636 615.454C548.723 615.3 548.748 615.116 548.705 614.943C548.661 614.769 548.553 614.621 548.404 614.53C548.255 614.44 548.078 614.414 547.911 614.459V614.459L542.82 563.5C542.807 563.387 542.765 563.28 542.7 563.188C542.635 563.097 542.549 563.024 542.449 562.977C542.349 562.93 542.24 562.91 542.13 562.919C542.021 562.928 541.916 562.966 541.825 563.03C538.578 565.329 535.213 567.445 531.745 569.367V569.367L531.191 569.681L530.586 570.02C525.871 572.648 520.916 574.784 515.793 576.397V576.397L515.025 576.619C511.638 577.647 508.119 578.127 504.592 578.043C503.483 578.043 502.324 577.899 501.165 577.795L500.207 577.703C497.145 577.416 493.907 576.985 490.619 576.553L489.233 576.371L488.036 576.227C484.659 575.769 481.169 575.338 477.565 575.038H476.935H476.305C471.845 574.669 467.368 574.59 462.899 574.803H462.054H461.639C456.746 575.117 451.891 575.895 447.136 577.128L446.708 577.246H446.531L446.065 577.377H445.914L444.931 577.651C440.66 578.933 436.517 580.635 432.558 582.734V582.734L432.23 582.904L432.003 583.021L431.789 583.139L431.399 583.348C427.213 585.632 423.184 588.212 419.34 591.07V591.07L418.836 591.449L418.295 591.854C414.773 594.501 411.407 597.364 408.215 600.426V600.426L407.799 600.831L407.648 600.988L407.282 601.341C404.472 603.929 401.984 606.87 399.873 610.095V610.095C399.655 610.457 399.485 610.848 399.369 611.258C399.364 611.345 399.364 611.432 399.369 611.519C399.357 611.632 399.357 611.746 399.369 611.859C399.421 612.136 399.558 612.388 399.76 612.578C400.308 613.007 400.976 613.24 401.663 613.244C401.94 613.244 402.267 613.244 402.608 613.244H402.696C403.427 613.244 404.296 613.244 405.317 613.166H405.896L408.895 612.93L411.314 612.721C415.504 612.349 419.71 612.205 423.914 612.29V612.29L425.237 612.408L430.68 612.904C432.27 613.197 433.844 613.581 435.393 614.054L436.3 614.329C440.919 615.885 445.431 617.762 449.807 619.947L450.752 620.404C453.171 621.58 455.666 622.817 458.237 624.115C460.807 625.413 463.356 626.676 465.885 627.905L466.149 628.035L466.452 628.179C470.333 630.074 474.302 631.916 478.434 633.615L478.661 633.706L479.077 633.889L479.329 633.994L479.657 634.124C480.841 634.608 482.038 635.091 483.248 635.535C486.835 636.852 490.506 637.908 494.235 638.698V638.698H494.449L494.89 638.802L495.318 638.88H495.495C499.796 639.734 504.142 640.323 508.511 640.644H508.674H509.153H509.443H509.771C512.152 640.788 514.521 640.88 516.852 640.88C518.301 640.88 519.725 640.88 521.123 640.775H521.514H521.753C527.47 640.561 533.146 639.685 538.675 638.162V638.162L539.116 638.031H539.28L539.57 637.94L539.897 637.835C544.118 636.528 547.457 634.686 549.511 632.439C549.579 632.382 549.635 632.311 549.675 632.23V632.23ZM495.407 637.757L494.663 630.387C498.866 631.322 503.114 632.02 507.389 632.478L508.334 639.573C503.993 639.242 499.676 638.635 495.407 637.757V637.757ZM466.427 626.885L466.061 621.371C470.408 623.057 474.365 624.507 478.145 625.775L478.371 632.308C474.276 630.609 470.307 628.767 466.439 626.872L466.427 626.885ZM427.568 611.323C426.661 611.245 425.766 611.219 424.872 611.18L424.128 608.423C427.572 607.99 431.044 607.837 434.511 607.965L435.002 611.885H434.448H434.347C433.2 611.885 432.079 611.781 430.958 611.781C429.798 611.558 428.677 611.415 427.568 611.323ZM404.611 612.107C406.161 611.036 407.811 609.991 409.525 608.984L410.105 610.931L409.827 611.036H409.739L407.748 611.846C406.64 611.977 405.569 612.055 404.611 612.107V612.107ZM432.52 591.946C428.211 593.501 424.418 595.056 420.953 596.65L419.807 592.416C423.572 589.593 427.521 587.043 431.625 584.785L432.52 591.946ZM433.906 592.808C436.93 591.737 440.206 590.6 443.822 589.463C444.893 589.11 445.939 588.797 446.96 588.509L447.602 595.657C443.193 595.978 438.813 596.637 434.498 597.63L433.906 592.821V592.808ZM488.93 585.595L484.709 585.06C482.403 584.72 480.198 584.393 477.93 584.132L477.653 576.423C481.257 576.723 484.747 577.155 488.124 577.612L488.93 585.595ZM542.883 576.893L545.114 599.224C545.03 599.206 544.945 599.206 544.862 599.224C541.83 600.172 538.7 600.738 535.538 600.909L533.333 582.185C536.678 580.755 539.877 578.982 542.883 576.893V576.893ZM537.617 629.629C532.307 630.977 526.866 631.687 521.4 631.746L520.14 618.379H520.518C526.214 618.379 531.493 618.144 536.243 617.647L537.654 629.616L537.617 629.629ZM465.444 612.055L467.561 612.447C470.887 613.061 474.289 613.754 477.741 614.289L478.107 624.377C474.327 623.07 470.345 621.646 465.973 619.921L465.444 612.055ZM433.263 597.93C429.518 598.846 425.832 600.003 422.226 601.393L421.293 597.93C424.695 596.336 428.45 594.807 432.633 593.252L433.263 597.93ZM433.427 599.237L434.347 606.632C430.816 606.516 427.282 606.682 423.776 607.129L422.516 602.66C426.075 601.269 429.721 600.125 433.427 599.237V599.237ZM434.687 598.936C438.989 597.941 443.357 597.277 447.753 596.95L448.736 607.926C444.401 607.262 440.035 606.825 435.657 606.619L434.687 598.936ZM505.247 616.498C503.168 616.341 500.875 616.145 498.09 615.87C496.427 615.701 494.789 615.518 493.139 615.309L491.513 599.002C495.482 599.537 499.174 600.099 502.752 600.622H503.143L505.247 616.498ZM477.981 585.386C480.148 585.635 482.29 585.961 484.533 586.288L489.069 586.941L490.115 597.486C485.969 596.963 482.114 596.545 478.359 596.179L477.981 585.386ZM477.704 612.957C474.344 612.373 471.038 611.776 467.787 611.166L465.356 610.722L464.423 596.715C468.556 596.82 472.739 597.055 477.149 597.434L477.704 612.957ZM448.875 595.513L448.194 588.091C452.845 586.734 457.594 585.768 462.395 585.203L463.062 595.317C459.194 595.238 455.25 595.317 451.332 595.395C450.513 595.513 449.681 595.513 448.875 595.513ZM448.988 596.82C449.782 596.82 450.576 596.728 451.382 596.702C455.313 596.571 459.257 596.545 463.151 596.624L464.07 610.435C459.673 609.625 454.709 608.736 449.996 608.057L448.988 596.82ZM478.409 597.486C482.189 597.813 486.07 598.231 490.253 598.793L491.879 615.113C487.935 614.616 483.789 613.976 478.964 613.153L478.409 597.486ZM497.99 617.086C500.9 617.373 503.282 617.582 505.449 617.726L507.213 631.041C502.952 630.586 498.72 629.88 494.537 628.924L493.277 616.563C494.852 616.85 496.415 617.02 497.99 617.177V617.086ZM504.479 600.792C509.115 601.471 513.299 602.098 517.23 602.399L518.691 616.968C514.798 616.968 510.728 616.772 506.558 616.485L504.479 600.792ZM536.054 616.249C531.203 616.746 525.81 616.994 519.964 616.981L518.515 602.503C520.304 602.647 522.005 602.712 523.555 602.712C527.486 602.712 531.115 602.569 534.404 602.294L536.054 616.249ZM535.689 602.177C538.928 601.992 542.135 601.404 545.24 600.426V600.426L546.663 614.603H546.6C543.543 615.283 540.451 615.784 537.339 616.106L535.689 602.177ZM534.278 600.988C531.052 601.262 527.448 601.406 523.58 601.406C521.967 601.406 520.216 601.327 518.376 601.184L516.94 586.928C522.121 586.081 527.193 584.63 532.06 582.603L534.278 600.988ZM517.091 601.079C513.198 600.726 508.977 600.138 504.302 599.446L502.765 587.934H504.617C508.323 587.94 512.025 587.665 515.693 587.111L517.091 601.079ZM502.992 599.237C499.325 598.701 495.533 598.126 491.438 597.564L490.379 587.02C493.315 587.386 497.108 587.778 501.518 587.908L502.992 599.237ZM477.099 596.022C472.676 595.644 468.493 595.408 464.335 595.304L463.642 585.034C467.995 584.628 472.376 584.672 476.721 585.164L477.099 596.022ZM462.306 583.949C457.497 584.512 452.74 585.478 448.081 586.837L447.325 578.422C452.062 577.178 456.9 576.395 461.777 576.083L462.306 583.949ZM419.794 597.198C416.109 598.947 412.551 600.969 409.147 603.248L408.819 602.138L408.731 601.85C411.915 598.813 415.255 595.956 418.736 593.292L419.794 597.198ZM409.538 604.529C412.927 602.255 416.468 600.233 420.134 598.479L421.054 601.863C417.358 603.362 413.759 605.108 410.281 607.09L409.538 604.581V604.529ZM411.302 610.461L410.659 608.318C414.126 606.339 417.711 604.593 421.394 603.091L422.528 607.26C419.218 607.769 415.969 608.645 412.839 609.873L411.302 610.461ZM436.287 612.003L435.796 607.991C439.576 608.148 443.923 608.566 448.837 609.298L449.265 614.106C445 613.051 440.66 612.348 436.287 612.003V612.003ZM450.147 609.389C454.872 610.082 459.837 610.957 464.196 611.754L464.7 619.346L460.731 617.739C457.445 616.392 454.078 615.266 450.651 614.368L450.147 609.389ZM479.405 624.743L479.039 614.446C483.878 615.269 488.048 615.91 492.03 616.419L493.29 628.662C488.792 627.696 484.243 626.415 479.379 624.808L479.405 624.743ZM506.759 617.843C510.905 618.118 514.974 618.275 518.855 618.301L520.14 631.759C516.245 631.816 512.35 631.65 508.473 631.263L506.759 617.843ZM522.282 639.73L521.602 632.987C527.052 632.926 532.478 632.234 537.78 630.923L538.524 637.286C533.214 638.756 527.762 639.597 522.27 639.795L522.282 639.73ZM537.503 617.517C540.631 617.187 543.74 616.681 546.815 616.001V616.001L547.734 625.304L547.457 625.487C544.797 627.19 541.904 628.468 538.877 629.277L537.503 617.517ZM542.757 575.43L542.594 575.495L542.468 575.613C539.563 577.682 536.46 579.434 533.207 580.839L532.022 570.791C536.571 568.178 540.124 565.839 541.699 564.728L542.757 575.43ZM530.825 571.51L531.997 581.427C527.132 583.468 522.059 584.932 516.877 585.791L516.071 577.808C521.193 576.229 526.149 574.119 530.863 571.51H530.825ZM514.798 578.148L515.579 585.987C511.957 586.53 508.302 586.801 504.642 586.798H502.614L501.618 579.219C502.626 579.297 503.634 579.389 504.617 579.428C508.048 579.497 511.469 579.043 514.773 578.082L514.798 578.148ZM500.308 579.088L501.329 586.745C496.931 586.615 493.151 586.21 490.241 585.831L489.447 577.769L490.53 577.912C493.895 578.304 497.145 578.722 500.283 579.023L500.308 579.088ZM476.368 576.318L476.633 583.988C472.278 583.517 467.89 583.482 463.529 583.884L462.999 576.044C467.468 575.815 471.946 575.885 476.406 576.253L476.368 576.318ZM445.284 579.01L446.04 578.801L446.808 587.242C445.7 587.555 444.578 587.895 443.406 588.274C439.941 589.398 436.678 590.495 433.704 591.567L432.785 584.197C436.787 582.024 440.986 580.265 445.322 578.945L445.284 579.01ZM407.685 602.791L408.051 603.993C406.4 605.117 404.813 606.306 403.301 607.456C404.447 606.11 405.921 604.529 407.685 602.791ZM400.554 611.611C400.578 611.424 400.633 611.242 400.718 611.075L401.978 610.069C403.994 608.501 406.136 606.855 408.391 605.3L409.097 607.704C406.942 609.011 404.888 610.317 402.998 611.624C402.746 611.807 402.494 611.977 402.267 612.16C401.672 612.202 401.077 612.066 400.554 611.768C400.54 611.744 400.533 611.717 400.533 611.689C400.533 611.662 400.54 611.635 400.554 611.611ZM421.445 611.101C418.093 611.101 414.968 611.284 412.209 611.506L413.255 611.101C416.362 609.904 419.586 609.059 422.868 608.579L423.561 611.193L421.445 611.101ZM437.056 613.388H437.132C441.263 613.746 445.362 614.436 449.391 615.452L449.681 618.601C445.583 616.588 441.367 614.847 437.056 613.388V613.388ZM451.004 619.242L450.702 615.818C453.946 616.68 457.136 617.749 460.253 619.019L464.675 620.81H464.763L465.129 626.206C462.987 625.161 460.883 624.102 458.829 623.057C456.12 621.75 453.524 620.457 451.004 619.242ZM479.669 632.857L479.43 626.206C484.319 627.787 488.88 629.081 493.365 630.126L494.109 637.508C490.57 636.74 487.085 635.727 483.676 634.477C482.34 633.941 480.992 633.406 479.669 632.857V632.857ZM509.632 639.664L508.687 632.595C512.114 632.922 515.478 633.079 518.893 633.079H520.304L520.997 639.86C517.208 640.003 513.414 639.937 509.632 639.664V639.664ZM539.746 636.894L539.015 630.583C542.111 629.741 545.08 628.457 547.835 626.768L548.364 632.073C545.889 634.349 542.939 635.999 539.746 636.894V636.894Z" fill="#A8DADC"/>
<path d="M541.057 559.397L555.496 692.845" stroke="#263238" stroke-width="3" stroke-linecap="round" stroke-linejoin="round"/>
<path d="M557.776 671.076C557.776 671.076 565.336 668.959 566.218 671.377C567.1 673.794 566.508 680.432 566.218 681.346C565.929 682.261 562.438 683.463 562.438 681.647C562.438 679.831 560.46 675.61 560.46 675.61L557.776 671.076Z" stroke="#263238" stroke-linecap="round" stroke-linejoin="round"/>
<path d="M574.661 744.144C575.89 742.258 576.663 740.094 576.915 737.833C577.167 735.573 576.891 733.282 576.11 731.156C573.489 723.616 562.426 710.628 558.356 703.076C554.286 695.523 556.895 696.138 556.895 696.138C556.895 696.138 560.675 694.321 560.977 692.218C561.279 690.114 562.426 676.812 562.426 674.696C562.426 672.579 552.535 668.358 548.453 667.757C544.37 667.156 545.832 671.076 547.004 680.131C548.175 689.186 549.914 714.548 551.363 723.316C552.812 732.083 554.866 741.426 562.426 745.947C569.986 750.468 574.661 744.144 574.661 744.144Z" fill="#FFD9AC" stroke="#263238" stroke-linecap="round" stroke-linejoin="round"/>
<path d="M546.714 675.31C546.714 675.31 548.742 673.493 550.204 673.493C551.666 673.493 561.544 677.413 561.544 677.413" stroke="#263238" stroke-linecap="round" stroke-linejoin="round"/>
<path d="M548.742 683.15C550.118 682.354 551.588 681.748 553.114 681.346C554.866 681.046 560.977 682.248 560.977 682.248" stroke="#263238" stroke-linecap="round" stroke-linejoin="round"/>
<path d="M552.245 687.083C552.657 686.645 553.158 686.308 553.712 686.098C554.266 685.888 554.858 685.809 555.446 685.867C557.243 685.984 559.012 686.394 560.687 687.083" stroke="#263238" stroke-linecap="round" stroke-linejoin="round"/>
<path d="M557.776 691.604L552.245 694.021" stroke="#263238" stroke-linecap="round" stroke-linejoin="round"/>
<path d="M555.761 693.603L566.975 798.814" stroke="#263238" stroke-width="3" stroke-linecap="round" stroke-linejoin="round"/>
<path d="M576.689 751.082C576.689 751.082 572.909 745.947 569.129 741.426C565.349 736.905 560.095 741.726 560.095 741.726C560.095 741.726 554.273 742.628 554.273 744.745C554.273 746.862 556.315 750.481 556.315 750.481C556.315 750.481 555.445 756.217 557.776 758.321C560.107 760.425 561.556 761.039 563.005 761.039C564.454 761.039 632.015 762.241 637.547 761.94C643.078 761.64 656.447 764.057 661.121 757.406C665.796 750.755 662.873 740.812 652.969 739.897C643.066 738.983 602.897 751.383 576.689 751.082Z" fill="#FFD9AC" stroke="#263238" stroke-linecap="round" stroke-linejoin="round"/>
</svg>
