<svg width="500" height="500" viewBox="0 0 500 500" fill="none" xmlns="http://www.w3.org/2000/svg">
<path d="M437.05 327.58C437.05 327.58 472.11 249.58 432.76 175.19C393.41 100.8 307.55 81.47 260.33 100.78C213.11 120.09 179.48 180.91 133.69 201C87.9001 221.09 29.2401 283.23 68.5901 356.2C107.94 429.17 154.44 423.46 226.7 404.85C298.96 386.24 411.29 391.26 437.05 327.58Z" fill="#A8DADC" fill-opacity="0.6"/>
<path opacity="0.7" d="M437.05 327.58C437.05 327.58 472.11 249.58 432.76 175.19C393.41 100.8 307.55 81.47 260.33 100.78C213.11 120.09 179.48 180.91 133.69 201C87.9001 221.09 29.2401 283.23 68.5901 356.2C107.94 429.17 154.44 423.46 226.7 404.85C298.96 386.24 411.29 391.26 437.05 327.58Z" fill="#A8DADC" fill-opacity="0.01"/>
<path d="M421.39 369.79V364.44L413.33 358L328.87 298.1C327.64 296.7 324.48 296.1 321.82 296.74L110.82 339.84H105.5L105.4 344.24C105.4 344.24 105.32 346.56 106.11 347.46L178.66 430.46C179.91 431.89 183.14 432.46 185.87 431.8L418.44 372.8C420.67 372.31 421.82 371 421.39 369.79Z" fill="white" stroke="#263238" stroke-linecap="round" stroke-linejoin="round"/>
<path d="M418.44 366.75L185.87 425.75C183.14 426.43 179.87 425.83 178.66 424.4L106.11 341.4C104.86 339.98 106.11 338.29 108.82 337.62L321.82 290.69C324.48 290.04 327.64 290.64 328.87 292.04L421 363C422.24 364.41 421.09 366.09 418.44 366.75Z" fill="white" stroke="#263238" stroke-linecap="round" stroke-linejoin="round"/>
<path d="M338.44 299.38L330.33 293.67C328.33 291.35 323.07 290.35 318.67 291.43L216.83 313.79L111 337.11C105 338.35 104.84 340.53 107.59 343.06L135.24 374.69L166 409.88L404 349.88L338.44 299.38Z" fill="#263238" stroke="#263238" stroke-linecap="round" stroke-linejoin="round"/>
<path d="M237.68 327.58C217.25 332.58 208.26 345.35 217.68 356.06C227.1 366.77 251.27 371.33 271.68 366.26C292.09 361.19 300.9 348.45 291.53 337.8C282.16 327.15 258.05 322.57 237.68 327.58ZM250.15 364.76L226 337.26L283.43 339.78L250.15 364.76Z" fill="#A8DADC"/>
<path d="M406.28 362L188.42 417.16C186.73 417.58 184.73 417.16 183.96 416.32L182.13 414.23C181.36 413.35 182.13 412.29 183.79 411.87L401.69 356.76C403.33 356.35 405.29 356.76 406.06 357.59L407.87 359.65C408.64 360.52 407.93 361.56 406.28 362Z" fill="#A8DADC" stroke="#263238" stroke-linecap="round" stroke-linejoin="round"/>
<path d="M200.25 410.8C198.68 409.02 194.66 408.26 191.25 409.11C187.84 409.96 186.37 412.11 187.94 413.88C189.51 415.65 193.53 416.42 196.94 415.57C200.35 414.72 201.81 412.58 200.25 410.8Z" fill="#263238" stroke="#263238" stroke-linecap="round" stroke-linejoin="round"/>
<path d="M151 234.61C151.213 234.595 151.427 234.595 151.64 234.61C152.295 234.61 152.924 234.35 153.387 233.887C153.85 233.423 154.11 232.795 154.11 232.14C154.11 231.485 153.85 230.857 153.387 230.393C152.924 229.93 152.295 229.67 151.64 229.67H142.28C142.28 229.67 142.86 226.29 142.86 225.13C142.86 223.97 143.44 222.24 141.86 220.02C140.28 217.8 136.74 218.67 136.74 218.67L137.29 223.25C137.369 223.974 137.23 224.705 136.89 225.35L132.69 233.24L130.76 234.88L130.18 244.63C131.43 247.63 135.39 248.58 135.39 248.58H148C148.675 248.599 149.33 248.349 149.821 247.886C150.312 247.423 150.599 246.785 150.62 246.11C150.615 245.692 150.503 245.283 150.294 244.92C150.086 244.558 149.789 244.255 149.43 244.04C149.796 244.104 150.171 244.09 150.531 244C150.892 243.909 151.229 243.744 151.521 243.515C151.813 243.286 152.054 242.998 152.228 242.67C152.402 242.342 152.505 241.981 152.53 241.61C152.518 241.207 152.406 240.812 152.203 240.463C152.001 240.114 151.714 239.821 151.37 239.61C151.964 239.529 152.51 239.239 152.91 238.792C153.31 238.345 153.537 237.77 153.55 237.17C153.55 236.493 153.282 235.843 152.804 235.363C152.326 234.884 151.677 234.613 151 234.61Z" fill="white"/>
<path d="M148 248.93H135.28C135.11 248.93 131.12 247.93 129.8 244.74C129.79 244.684 129.79 244.626 129.8 244.57L130.38 234.83C130.389 234.722 130.439 234.622 130.52 234.55L132.39 232.96L136.56 225.13C136.869 224.562 136.991 223.911 136.91 223.27L136.37 218.68C136.36 218.587 136.384 218.493 136.437 218.416C136.49 218.339 136.569 218.283 136.66 218.26C136.82 218.26 140.51 217.36 142.18 219.77C142.656 220.431 142.997 221.179 143.182 221.972C143.367 222.765 143.394 223.587 143.26 224.39C143.26 224.65 143.26 224.89 143.26 225.1C143.167 226.492 142.997 227.877 142.75 229.25H151.65H151.78C152.539 229.26 153.265 229.563 153.806 230.096C154.346 230.63 154.66 231.351 154.68 232.11C154.67 232.694 154.483 233.261 154.144 233.736C153.805 234.211 153.329 234.571 152.78 234.77C153.162 235.023 153.475 235.367 153.693 235.769C153.911 236.172 154.027 236.622 154.03 237.08C154.026 237.64 153.856 238.186 153.543 238.65C153.23 239.114 152.788 239.476 152.27 239.69C152.751 240.198 153.019 240.871 153.02 241.57C153.006 242.259 152.748 242.92 152.292 243.436C151.836 243.953 151.212 244.291 150.53 244.39C150.901 244.872 151.101 245.462 151.1 246.07C151.09 246.463 151.001 246.85 150.839 247.208C150.676 247.567 150.444 247.889 150.155 248.155C149.866 248.422 149.526 248.628 149.156 248.761C148.786 248.894 148.393 248.952 148 248.93ZM135.39 248.15H148C148.572 248.166 149.128 247.956 149.546 247.564C149.963 247.173 150.209 246.632 150.23 246.06C150.226 245.709 150.131 245.365 149.956 245.06C149.781 244.755 149.531 244.501 149.23 244.32C149.157 244.271 149.103 244.198 149.076 244.115C149.05 244.031 149.052 243.94 149.084 243.858C149.115 243.776 149.173 243.706 149.249 243.661C149.324 243.616 149.413 243.598 149.5 243.61C149.64 243.624 149.781 243.624 149.92 243.61C150.494 243.629 151.052 243.42 151.472 243.028C151.892 242.636 152.139 242.094 152.16 241.52C152.153 241.171 152.058 240.829 151.883 240.526C151.708 240.224 151.459 239.971 151.16 239.79C151.093 239.75 151.039 239.69 151.007 239.619C150.974 239.547 150.965 239.467 150.98 239.39C150.996 239.313 151.035 239.243 151.093 239.189C151.15 239.135 151.222 239.101 151.3 239.09C151.803 239.021 152.264 238.777 152.603 238.4C152.942 238.022 153.136 237.537 153.15 237.03C153.117 236.482 152.876 235.967 152.477 235.589C152.078 235.212 151.55 235.002 151 235C150.9 234.995 150.806 234.952 150.737 234.879C150.668 234.806 150.63 234.71 150.63 234.61C150.63 234.2 150.98 234.2 151.63 234.2C151.922 234.229 152.216 234.196 152.494 234.104C152.773 234.012 153.029 233.862 153.246 233.666C153.463 233.469 153.636 233.229 153.755 232.961C153.874 232.693 153.935 232.403 153.935 232.11C153.935 231.817 153.874 231.527 153.755 231.259C153.636 230.991 153.463 230.751 153.246 230.554C153.029 230.358 152.773 230.208 152.494 230.116C152.216 230.024 151.922 229.991 151.63 230.02C151.587 230.03 151.543 230.03 151.5 230.02H142.27C142.215 230.02 142.161 230.008 142.111 229.986C142.061 229.963 142.017 229.931 141.98 229.89C141.942 229.847 141.914 229.796 141.898 229.74C141.883 229.685 141.88 229.627 141.89 229.57C142.16 228.091 142.353 226.599 142.47 225.1C142.47 224.86 142.47 224.6 142.47 224.32C142.593 223.607 142.573 222.876 142.411 222.171C142.25 221.466 141.951 220.799 141.53 220.21C140.42 218.61 138.04 218.81 137.16 218.95L137.66 223.17C137.752 223.973 137.599 224.786 137.22 225.5L133.02 233.39C132.999 233.433 132.968 233.471 132.93 233.5L131.11 235L130.55 244.49C131.68 247.07 135 248 135.42 248.15H135.39Z" fill="#263238"/>
<path d="M129.76 231.26H123.84C122.658 231.26 121.7 232.218 121.7 233.4V247.94C121.7 249.122 122.658 250.08 123.84 250.08H129.76C130.942 250.08 131.9 249.122 131.9 247.94V233.4C131.9 232.218 130.942 231.26 129.76 231.26Z" fill="#263238"/>
<path d="M353.63 109.06C353.56 109.06 353.84 109.14 354.06 109.25C354.27 109.369 354.502 109.444 354.742 109.47C354.982 109.496 355.225 109.474 355.456 109.403C355.687 109.333 355.901 109.216 356.085 109.06C356.27 108.904 356.42 108.713 356.528 108.497C356.636 108.281 356.699 108.045 356.713 107.804C356.727 107.563 356.692 107.322 356.61 107.095C356.528 106.868 356.4 106.66 356.235 106.484C356.07 106.308 355.871 106.167 355.65 106.07L349.65 103.07C350.309 102.191 350.923 101.28 351.49 100.34C352.278 99.3117 352.637 98.0175 352.49 96.73C352.21 94.81 349.63 94.21 349.63 94.21L348.5 97.3C348.325 97.7941 348 98.2208 347.57 98.52L342.32 102.24L340.55 102.68L337 108.76C336.84 111.09 339.08 112.99 339.08 112.99L347.08 116.99L347.23 117.07C347.441 117.184 347.673 117.256 347.912 117.28C348.151 117.305 348.393 117.282 348.623 117.214C348.853 117.145 349.068 117.032 349.254 116.88C349.441 116.728 349.596 116.541 349.71 116.33C349.842 116.059 349.902 115.758 349.885 115.457C349.867 115.156 349.773 114.864 349.61 114.61L349.91 114.8C350.34 115.028 350.843 115.077 351.309 114.936C351.775 114.796 352.167 114.477 352.4 114.05C352.531 113.784 352.591 113.489 352.576 113.193C352.56 112.897 352.468 112.61 352.31 112.36C352.719 112.5 353.164 112.49 353.566 112.33C353.968 112.171 354.299 111.873 354.5 111.49C354.703 111.052 354.725 110.551 354.562 110.097C354.4 109.642 354.065 109.27 353.63 109.06Z" fill="white"/>
<path d="M347.12 117.33L346.96 117.24L338.96 113.24C338.943 113.244 338.926 113.244 338.91 113.24C338.81 113.16 336.56 111.24 336.73 108.78C336.721 108.74 336.721 108.7 336.73 108.66L340.25 102.58C340.266 102.547 340.29 102.518 340.32 102.495C340.349 102.472 340.383 102.457 340.42 102.45L342.14 102.02L347.35 98.33C347.734 98.0623 348.024 97.6811 348.18 97.24L349.31 94.12C349.333 94.0544 349.379 93.9997 349.44 93.9664C349.501 93.9331 349.572 93.9237 349.64 93.94C349.75 93.94 352.4 94.6 352.7 96.69C352.902 97.8423 352.651 99.0281 352 100C351.9 100.16 351.81 100.31 351.74 100.44C351.229 101.306 350.671 102.144 350.07 102.95L355.8 105.82L355.88 105.88C356.366 106.129 356.736 106.557 356.911 107.074C357.087 107.592 357.054 108.157 356.82 108.65C356.627 109.024 356.324 109.33 355.952 109.526C355.581 109.723 355.157 109.801 354.74 109.75C354.907 110.037 355 110.361 355.01 110.692C355.02 111.024 354.948 111.353 354.8 111.65C354.613 112.011 354.323 112.308 353.967 112.504C353.611 112.7 353.205 112.786 352.8 112.75C352.938 113.236 352.892 113.756 352.67 114.21C352.433 114.645 352.051 114.983 351.591 115.165C351.13 115.348 350.621 115.364 350.15 115.21C350.24 115.637 350.18 116.082 349.98 116.47C349.849 116.714 349.671 116.931 349.456 117.106C349.241 117.282 348.994 117.413 348.728 117.493C348.463 117.573 348.184 117.6 347.908 117.572C347.632 117.544 347.364 117.462 347.12 117.33ZM339.26 112.76L347.26 116.76L347.39 116.84C347.754 117.033 348.179 117.075 348.574 116.957C348.969 116.839 349.301 116.571 349.5 116.21C349.612 115.984 349.664 115.732 349.65 115.479C349.636 115.227 349.557 114.983 349.42 114.77C349.389 114.715 349.377 114.651 349.387 114.589C349.397 114.527 349.427 114.47 349.474 114.427C349.52 114.384 349.579 114.358 349.642 114.353C349.705 114.348 349.768 114.365 349.82 114.4C349.902 114.46 349.989 114.514 350.08 114.56C350.442 114.756 350.867 114.801 351.263 114.685C351.658 114.569 351.991 114.301 352.19 113.94C352.299 113.715 352.35 113.466 352.338 113.216C352.326 112.966 352.251 112.723 352.12 112.51C352.086 112.464 352.067 112.408 352.067 112.35C352.067 112.292 352.086 112.236 352.12 112.19C352.155 112.147 352.203 112.115 352.256 112.099C352.31 112.083 352.367 112.083 352.42 112.1C352.764 112.217 353.138 112.21 353.476 112.078C353.815 111.946 354.096 111.699 354.27 111.38C354.441 111.004 354.457 110.577 354.314 110.189C354.172 109.802 353.883 109.486 353.51 109.31C353.448 109.274 353.401 109.216 353.381 109.147C353.36 109.078 353.367 109.004 353.4 108.94C353.53 108.67 353.76 108.79 354.21 109.01C354.386 109.099 354.578 109.152 354.774 109.166C354.971 109.181 355.168 109.157 355.355 109.095C355.542 109.033 355.715 108.935 355.865 108.806C356.014 108.678 356.136 108.521 356.225 108.345C356.314 108.169 356.367 107.977 356.381 107.781C356.396 107.584 356.371 107.387 356.31 107.2C356.248 107.013 356.15 106.84 356.021 106.69C355.893 106.541 355.736 106.419 355.56 106.33H355.49L349.55 103.33C349.513 103.311 349.48 103.284 349.454 103.251C349.428 103.219 349.41 103.181 349.4 103.14C349.384 103.104 349.375 103.065 349.375 103.025C349.375 102.985 349.384 102.946 349.4 102.91C349.4 102.91 350.85 100.91 351.21 100.22C351.29 100.06 351.39 99.9 351.49 99.73C351.807 99.3049 352.034 98.8198 352.158 98.304C352.282 97.7883 352.3 97.2527 352.21 96.73C352.01 95.34 350.42 94.73 349.81 94.51L348.76 97.39C348.576 97.936 348.226 98.4113 347.76 98.75L342.51 102.47H342.42L340.76 102.88L337.33 108.8C337.21 110.86 339 112.55 339.26 112.76Z" fill="#263238"/>
<path d="M340.519 99.8016L337.784 98.4296C336.727 97.8997 335.441 98.3265 334.912 99.3829L330.755 107.669C330.225 108.725 330.652 110.011 331.708 110.541L334.443 111.913C335.5 112.443 336.786 112.016 337.316 110.96L341.472 102.674C342.002 101.618 341.575 100.332 340.519 99.8016Z" fill="#263238"/>
<path d="M361.22 224.85C361.11 224.85 361.53 224.77 361.86 224.71C362.186 224.663 362.5 224.552 362.782 224.382C363.064 224.212 363.31 223.988 363.504 223.722C363.698 223.456 363.837 223.153 363.913 222.833C363.989 222.512 363.999 222.18 363.945 221.855C363.89 221.53 363.771 221.22 363.594 220.941C363.418 220.663 363.188 220.423 362.917 220.236C362.646 220.048 362.341 219.916 362.018 219.848C361.696 219.78 361.364 219.777 361.04 219.84L351.8 221.39C351.82 219.865 351.763 218.34 351.63 216.82C351.43 215.68 351.72 213.82 349.83 211.94C347.94 210.06 344.56 211.45 344.56 211.45L345.86 215.88C346.075 216.574 346.075 217.316 345.86 218.01L343 226.47L341.37 228.41L342.37 238.12C344.1 240.86 348.16 241.12 348.16 241.12L360.41 239.06H360.65C361.32 238.966 361.925 238.609 362.332 238.069C362.738 237.529 362.914 236.85 362.82 236.18C362.746 235.769 362.567 235.384 362.3 235.061C362.034 234.739 361.69 234.491 361.3 234.34C361.463 234.355 361.627 234.355 361.79 234.34C362.122 234.296 362.442 234.186 362.732 234.018C363.021 233.849 363.275 233.625 363.477 233.359C363.68 233.092 363.828 232.788 363.912 232.464C363.997 232.139 364.017 231.802 363.97 231.47C363.898 231.064 363.723 230.682 363.462 230.362C363.201 230.042 362.864 229.793 362.48 229.64C363.052 229.463 363.542 229.088 363.863 228.582C364.184 228.076 364.314 227.473 364.23 226.88C364.167 226.549 364.038 226.233 363.852 225.951C363.667 225.67 363.427 225.428 363.147 225.239C362.867 225.05 362.553 224.919 362.223 224.852C361.892 224.785 361.551 224.785 361.22 224.85Z" fill="white"/>
<path d="M360.7 239.46H360.45L348.22 241.46H348.13C347.95 241.46 343.85 241.12 342.03 238.24C342.016 238.188 342.016 238.132 342.03 238.08L341.03 228.37C341.022 228.319 341.025 228.266 341.039 228.217C341.053 228.167 341.077 228.12 341.11 228.08L342.7 226.2L345.52 217.79C345.715 217.172 345.715 216.508 345.52 215.89L344.23 211.46C344.205 211.368 344.213 211.271 344.253 211.184C344.294 211.098 344.363 211.029 344.45 210.99C344.6 210.93 348.09 209.47 350.14 211.57C351.304 212.731 351.962 214.306 351.97 215.95C351.984 216.188 352.011 216.425 352.05 216.66C352.186 218.046 352.246 219.438 352.23 220.83L361.01 219.36H361.14C361.89 219.243 362.656 219.421 363.278 219.857C363.899 220.294 364.326 220.955 364.47 221.7C364.56 222.276 364.471 222.866 364.215 223.39C363.96 223.914 363.549 224.347 363.04 224.63C363.507 224.837 363.908 225.168 364.199 225.587C364.491 226.006 364.662 226.497 364.694 227.006C364.726 227.515 364.618 228.024 364.381 228.476C364.144 228.928 363.787 229.306 363.35 229.57C363.89 230.004 364.247 230.625 364.35 231.31C364.447 231.992 364.299 232.687 363.933 233.27C363.567 233.854 363.006 234.29 362.35 234.5C362.796 234.912 363.091 235.461 363.19 236.06C363.255 236.447 363.242 236.844 363.152 237.226C363.061 237.608 362.895 237.969 362.663 238.286C362.431 238.603 362.137 238.87 361.8 239.072C361.463 239.273 361.089 239.405 360.7 239.46ZM348.14 240.77L360.34 238.72H360.54C361.108 238.643 361.623 238.344 361.971 237.889C362.32 237.433 362.474 236.859 362.4 236.29C362.342 235.942 362.194 235.615 361.969 235.343C361.744 235.07 361.451 234.862 361.12 234.74C361.037 234.705 360.968 234.642 360.926 234.561C360.884 234.481 360.871 234.389 360.89 234.3C360.907 234.212 360.954 234.132 361.023 234.076C361.093 234.019 361.18 233.988 361.27 233.99C361.41 234 361.55 234 361.69 233.99C361.972 233.953 362.244 233.861 362.49 233.719C362.736 233.576 362.952 233.387 363.125 233.161C363.297 232.935 363.424 232.678 363.497 232.403C363.57 232.128 363.588 231.842 363.55 231.56C363.489 231.219 363.342 230.898 363.124 230.629C362.905 230.359 362.622 230.15 362.3 230.02C362.225 229.995 362.159 229.946 362.113 229.882C362.067 229.817 362.042 229.739 362.042 229.66C362.042 229.581 362.067 229.503 362.113 229.438C362.159 229.374 362.225 229.325 362.3 229.3C362.784 229.151 363.199 228.835 363.472 228.408C363.745 227.981 363.857 227.472 363.79 226.97C363.672 226.41 363.338 225.919 362.861 225.603C362.384 225.286 361.802 225.171 361.24 225.28C361.141 225.289 361.043 225.262 360.963 225.203C360.884 225.144 360.829 225.057 360.81 224.96C360.74 224.55 361.09 224.49 361.81 224.37C362.097 224.344 362.375 224.26 362.628 224.121C362.881 223.983 363.102 223.794 363.278 223.566C363.454 223.338 363.581 223.076 363.651 222.797C363.721 222.517 363.733 222.226 363.685 221.942C363.638 221.658 363.532 221.387 363.374 221.146C363.217 220.905 363.011 220.699 362.77 220.541C362.529 220.383 362.258 220.276 361.974 220.228C361.69 220.18 361.4 220.191 361.12 220.26H361L351.9 221.79C351.843 221.8 351.785 221.797 351.73 221.782C351.674 221.766 351.623 221.738 351.58 221.7C351.539 221.663 351.507 221.619 351.484 221.569C351.462 221.519 351.45 221.465 351.45 221.41C351.45 221.41 351.45 218 351.28 216.9C351.233 216.646 351.203 216.388 351.19 216.13C351.193 215.406 351.052 214.688 350.775 214.019C350.499 213.349 350.093 212.741 349.58 212.23C348.22 210.83 345.91 211.42 345.06 211.71L346.26 215.79C346.497 216.559 346.497 217.381 346.26 218.15L343.42 226.63C343.403 226.676 343.379 226.72 343.35 226.76L341.82 228.57L342.82 238.02C344.28 240.32 347.71 240.73 348.14 240.77Z" fill="#263238"/>
<path d="M339.751 225.073L333.912 226.051C332.747 226.246 331.96 227.349 332.155 228.515L334.558 242.855C334.753 244.021 335.856 244.807 337.022 244.612L342.86 243.634C344.026 243.439 344.813 242.336 344.617 241.17L342.215 226.83C342.02 225.664 340.917 224.877 339.751 225.073Z" fill="#263238"/>
<path d="M229.58 87.41C228.295 88.1684 227.257 89.2811 226.588 90.6148C225.919 91.9486 225.649 93.4468 225.81 94.93C224.352 93.9134 222.591 93.4259 220.818 93.5483C219.045 93.6708 217.367 94.3958 216.063 95.6032C214.758 96.8105 213.906 98.4275 213.647 100.186C213.389 101.944 213.739 103.738 214.64 105.27C217.22 109.64 222.44 111.01 227.09 111.66C229.16 111.95 231.23 112.16 233.31 112.33L236.18 112.6C236.18 112.6 237.31 110.15 237.42 109.91C238.27 108 239.09 106.08 239.83 104.14C241.51 99.75 242.83 94.52 240.25 90.14C239.197 88.3635 237.481 87.078 235.48 86.566C233.48 86.0541 231.357 86.3577 229.58 87.41Z" fill="#E63946"/>
<path d="M382.12 187.87C380.712 187.375 379.191 187.296 377.739 187.641C376.286 187.987 374.964 188.743 373.93 189.82C373.78 188.044 373.024 186.374 371.79 185.089C370.556 183.803 368.917 182.98 367.149 182.758C365.381 182.535 363.59 182.927 362.076 183.866C360.562 184.806 359.416 186.237 358.83 187.92C357.15 192.7 359.45 197.58 361.94 201.56C363.05 203.33 364.22 205.05 365.42 206.76C365.58 206.98 367.06 209.13 367.06 209.13C367.06 209.13 369.66 208.42 369.92 208.34C371.92 207.77 373.92 207.16 375.92 206.48C380.36 204.94 385.22 202.59 386.92 197.81C387.26 196.842 387.405 195.817 387.347 194.793C387.29 193.769 387.03 192.767 386.585 191.843C386.139 190.92 385.515 190.093 384.748 189.411C383.982 188.73 383.089 188.206 382.12 187.87Z" fill="#263238"/>
<path d="M111.48 262.56C110.037 262.941 108.735 263.73 107.728 264.831C106.721 265.932 106.052 267.299 105.8 268.77C104.676 267.389 103.113 266.436 101.371 266.069C99.6286 265.702 97.8133 265.943 96.2278 266.753C94.6423 267.562 93.3824 268.891 92.6585 270.518C91.9346 272.144 91.7905 273.97 92.2501 275.69C93.5501 280.59 98.2501 283.33 102.5 285.22C104.41 286.06 106.35 286.83 108.3 287.56L110.99 288.56C110.99 288.56 112.74 286.51 112.91 286.3C114.25 284.7 115.56 283.07 116.8 281.4C119.6 277.63 122.3 272.96 121 268.06C120.463 266.071 119.16 264.375 117.376 263.344C115.592 262.313 113.472 262.031 111.48 262.56Z" fill="#263238"/>
<path d="M138.75 168.56C137.862 168.245 136.901 168.193 135.984 168.411C135.066 168.63 134.232 169.108 133.58 169.79C133.486 168.669 133.009 167.615 132.23 166.803C131.451 165.992 130.417 165.472 129.301 165.332C128.185 165.191 127.055 165.438 126.099 166.031C125.143 166.624 124.42 167.528 124.05 168.59C122.98 171.59 124.44 174.68 126.05 177.2C126.75 178.31 127.49 179.4 128.25 180.48L129.25 181.97L131.06 181.48C132.32 181.12 133.58 180.73 134.83 180.3C137.63 179.3 140.69 177.85 141.76 174.83C142.192 173.599 142.117 172.248 141.553 171.072C140.989 169.896 139.98 168.993 138.75 168.56Z" fill="#263238"/>
<path d="M181.42 292.56C180.53 292.245 179.568 292.194 178.649 292.412C177.73 292.63 176.894 293.109 176.24 293.79C176.145 292.669 175.669 291.615 174.89 290.803C174.111 289.992 173.077 289.472 171.961 289.332C170.845 289.191 169.714 289.438 168.759 290.031C167.803 290.624 167.08 291.528 166.71 292.59C165.65 295.59 167.1 298.68 168.71 301.2C169.4 302.31 170.15 303.4 170.91 304.48L171.91 305.97L173.71 305.48C174.98 305.12 176.24 304.74 177.48 304.3C180.28 303.3 183.35 301.85 184.42 298.83C184.852 297.601 184.779 296.25 184.217 295.075C183.654 293.899 182.649 292.995 181.42 292.56Z" fill="#E63946"/>
<path d="M190.21 351.83C190.21 351.83 178.89 363.61 177.74 369.39C176.59 375.17 179.35 380.25 183.98 378.86C188.61 377.47 192.76 363.15 193.91 360.61C195.06 358.07 196.45 355.29 196.45 355.29C196.45 355.29 193 350.67 190.21 351.83Z" fill="#E63946" stroke="#263238" stroke-linecap="round" stroke-linejoin="round"/>
<path d="M177.64 370C176.79 375.51 179.52 380.19 183.98 378.85C185.58 378.37 187.13 376.33 188.51 373.77C185.51 368.87 180.65 369.19 177.64 370Z" fill="white" stroke="#263238" stroke-linecap="round" stroke-linejoin="round"/>
<path d="M190.11 370.48C187.59 373.94 184.34 377.66 181.9 377.01C179.46 376.36 178.17 371.78 177.73 369.42C176.59 375.18 179.36 380.24 183.98 378.86C186.23 378.19 188.37 374.44 190.11 370.48Z" fill="white" stroke="#263238" stroke-linecap="round" stroke-linejoin="round"/>
<path d="M192.52 358.3C192.52 358.3 187.44 355.52 187.21 356.45C186.98 357.38 192.06 359.91 192.76 359.91C193.46 359.91 193.91 359.68 192.52 358.3Z" fill="white" stroke="#263238" stroke-linecap="round" stroke-linejoin="round"/>
<path d="M191.37 359.91C191.37 359.91 186.29 357.14 186.06 358.07C185.83 359 190.91 361.53 191.6 361.53C192.29 361.53 192.76 361.3 191.37 359.91Z" fill="white" stroke="#263238" stroke-linecap="round" stroke-linejoin="round"/>
<path d="M190.21 361.53C190.21 361.53 185.13 358.76 184.9 359.68C184.67 360.6 189.75 363.15 190.45 363.15C191.15 363.15 191.6 362.92 190.21 361.53Z" fill="white" stroke="#263238" stroke-linecap="round" stroke-linejoin="round"/>
<path d="M189.06 363.15C189.06 363.15 183.98 360.38 183.74 361.3C183.5 362.22 188.6 364.77 189.29 364.77C189.98 364.77 190.45 364.54 189.06 363.15Z" fill="white" stroke="#263238" stroke-linecap="round" stroke-linejoin="round"/>
<path d="M276.4 344.2C276.4 344.2 270.4 348.82 269.01 352.06C267.62 355.3 270.39 356.22 274.09 356.91C277.79 357.6 281.25 361.53 286.33 362.91C291.41 364.29 297.89 363.83 295.81 360.6C293.73 357.37 287.03 353.2 285.87 351.35C285.17 350.243 284.545 349.091 284 347.9L276.4 344.2Z" fill="#E63946" stroke="#263238" stroke-linecap="round" stroke-linejoin="round"/>
<path d="M295.81 360.61C295.056 359.548 294.173 358.584 293.18 357.74C291.688 358.04 290.272 358.643 289.022 359.512C287.772 360.38 286.713 361.496 285.91 362.79L286.33 362.92C291.42 364.3 297.89 363.84 295.81 360.61Z" fill="white" stroke="#263238" stroke-linecap="round" stroke-linejoin="round"/>
<path d="M285.64 350.44C285.64 350.44 279.64 351.6 280.79 352.52C281.94 353.44 286.8 351.6 285.64 350.44Z" fill="white" stroke="#263238" stroke-linecap="round" stroke-linejoin="round"/>
<path d="M287.49 351.6C287.49 351.6 281.49 352.75 282.64 353.68C283.79 354.61 288.65 352.75 287.49 351.6Z" fill="white" stroke="#263238" stroke-linecap="round" stroke-linejoin="round"/>
<path d="M288.41 352.75C288.41 352.75 282.41 353.91 283.56 354.83C284.71 355.75 289.57 353.91 288.41 352.75Z" fill="white" stroke="#263238" stroke-linecap="round" stroke-linejoin="round"/>
<path d="M290.26 354.37C290.26 354.37 284.26 355.52 285.41 356.45C286.56 357.38 291.42 355.52 290.26 354.37Z" fill="white" stroke="#263238" stroke-linecap="round" stroke-linejoin="round"/>
<path d="M296.17 361.53C291.67 362.72 287.52 361.77 283.56 359.68C280 357.704 276.292 356.006 272.47 354.6C271.159 354.155 269.912 353.539 268.76 352.77C268.07 355.43 270.68 356.27 274.09 356.91C277.79 357.6 281.25 361.53 286.33 362.91C290.89 364.16 296.53 363.91 296.17 361.53Z" fill="white" stroke="#263238" stroke-linecap="round" stroke-linejoin="round"/>
<path d="M233.65 247.55C233.65 247.55 225.34 285.05 223.72 294.06C222.1 303.07 221.41 308.62 221.41 308.62C221.41 308.62 215.41 313.01 209.41 322.71C203.41 332.41 190.23 351.83 190.23 351.83C190.23 351.83 189.77 355.29 193.93 356.45C193.93 356.45 196.01 357.37 197.17 356.45C198.33 355.53 237.83 319.02 242.45 311.39C247.07 303.76 256.55 277.19 256.55 277.19L262.55 276.04L300.9 311.62L275.02 344.62C275.02 344.62 274.1 346.47 276.64 348.09C279.18 349.71 283.11 349.01 285.19 348.09C287.27 347.17 323.78 311.35 324.01 308.81C324.24 306.27 322.39 303.26 321.93 302.34C321.47 301.42 284.73 252.34 284.73 252.34L282.65 247.03C282.65 247.03 258.39 249.8 247.53 247.72C236.67 245.64 234.58 244.09 233.65 247.55Z" fill="white" stroke="#263238" stroke-linecap="round" stroke-linejoin="round"/>
<path d="M262.54 276.04L275.71 272.11" stroke="#263238" stroke-linecap="round" stroke-linejoin="round"/>
<path d="M263.92 276.73L281.94 274.65" stroke="#263238" stroke-linecap="round" stroke-linejoin="round"/>
<path d="M300.89 311.62L308.75 318.09" stroke="#263238" stroke-linecap="round" stroke-linejoin="round"/>
<path d="M266.1 259.69L258.18 262.33C258.18 262.33 270.63 261.95 271.01 263.46C271.39 264.97 263.46 271.01 263.46 271.01" stroke="#263238" stroke-linecap="round" stroke-linejoin="round"/>
<path d="M237.8 254.78C237.8 254.78 242 262 232.14 266.1" stroke="#263238" stroke-linecap="round" stroke-linejoin="round"/>
<path d="M287.63 171.36C287.63 171.36 254.22 170.61 252.63 171.07C251.04 171.53 232.53 194.64 230.45 196.72C228.37 198.8 222.82 202.72 222.36 205.72C221.9 208.72 226.06 218.66 230.68 218.66C235.3 218.66 243.62 209.42 243.62 209.42C243.62 209.42 232.53 247.77 232.99 249.42C233.45 251.07 241.31 254.73 258.87 256.81C276.43 258.89 283.87 251.5 284.29 249.19C284.71 246.88 283.82 242.95 283.82 242.95L289.82 232.32C289.82 232.32 300.45 240.25 305.3 236.78C310.15 233.31 310.15 222.68 312.46 219.45C314.77 216.22 320.32 198.89 318.46 196.58C316.6 194.27 287.63 171.36 287.63 171.36Z" fill="#A8DADC" stroke="#263238" stroke-linecap="round" stroke-linejoin="round"/>
<path d="M305.74 196.32C305.74 196.32 299.27 191.63 298.35 193.71C297.43 195.79 291.42 207.35 287 212.2C282.58 217.05 280.3 221.67 283.07 225.37C285.059 227.905 287.304 230.227 289.77 232.3" stroke="#263238" stroke-linecap="round" stroke-linejoin="round"/>
<path d="M243.59 209.43L251.91 181.7" stroke="#263238" stroke-linecap="round" stroke-linejoin="round"/>
<path d="M281 172.69C281 172.69 268.75 171.3 263.44 165.99C258.13 160.68 255.35 155.36 246.11 153.99C240.595 153.156 234.986 153.156 229.47 153.99L231.78 165.99C231.78 165.99 242.88 161.83 248.42 165.06C253.96 168.29 256.74 176.38 264.36 178.46C271.98 180.54 281.69 180.08 281.69 180.08L281 172.69Z" fill="#263238" stroke="#263238" stroke-linecap="round" stroke-linejoin="round"/>
<path d="M291.19 174.77C293.362 176.643 294.897 179.145 295.58 181.93C296.5 186.32 292.34 191.63 289.11 194.64C285.88 197.65 282.64 199.03 274.32 200.18C266 201.33 258.61 192.79 253.06 191.87C247.51 190.95 236.19 197.18 236.19 197.18L238.51 187.24C243.525 184.297 249.368 183.081 255.14 183.78C264.85 184.93 271.32 191.87 275.01 192.78C278.7 193.69 285.41 191.62 286.8 186.31C288.19 181 286.33 176.14 288.65 174.53C290.97 172.92 291.19 174.77 291.19 174.77Z" fill="#263238" stroke="#263238" stroke-linecap="round" stroke-linejoin="round"/>
<path d="M290 131.79C290 131.79 283.3 133.64 280.53 137.79C277.76 141.94 269.67 166.21 269.9 168.29C270.13 170.37 280.53 168.29 280.53 168.29C280.53 168.29 273.37 183.29 273.37 185.85C273.37 188.41 276.6 189.78 280.76 188.85C284.92 187.92 299.09 163.53 299.09 163.53C299.09 163.53 303.29 168.41 305.94 166.74C308.94 164.82 308.02 160.96 305.71 160.96C303.4 160.96 312.18 151.49 309.18 145.25C306.18 139.01 292.8 129.71 290 131.79Z" fill="white" stroke="#263238" stroke-linecap="round" stroke-linejoin="round"/>
<path d="M287.49 124.4C287.49 124.4 274.55 124.4 273.86 130.64C273.17 136.88 279.86 139.64 287.26 138.49C294.66 137.34 301.35 137.8 302.26 138.95C303.17 140.1 293.26 142.42 295.56 144.04C296.906 144.996 298.53 145.481 300.18 145.42C300.18 145.42 296.94 146.35 297.18 148.66C297.42 150.97 299.43 161.18 301.04 161.18C302.65 161.18 305.73 160.97 305.73 160.97C308.651 159.495 311.307 157.545 313.59 155.2C317.06 151.5 317.98 143.64 313.59 139.02C309.2 134.4 305.73 129.94 302.27 126.25C298.81 122.56 295.57 118.62 288.64 117.7C281.71 116.78 278 119.54 287.49 124.4Z" fill="#263238" stroke="#263238" stroke-linecap="round" stroke-linejoin="round"/>
<path d="M314.47 148.25C314.707 149.604 314.754 150.983 314.61 152.35" stroke="white" stroke-linecap="round" stroke-linejoin="round"/>
<path d="M290.72 131.69C290.72 131.69 276.54 133.07 281.9 135.78C287.26 138.49 295.46 133.42 305.79 137.5C307.53 138.132 309.119 139.121 310.455 140.402C311.791 141.683 312.845 143.228 313.55 144.94" stroke="white" stroke-linecap="round" stroke-linejoin="round"/>
<path d="M299.33 142.45C299.33 142.45 309.02 147.19 310.33 154.07" stroke="white" stroke-linecap="round" stroke-linejoin="round"/>
<path d="M280.56 168.3C280.56 168.3 291.65 167.6 294.65 165.06" stroke="#263238" stroke-linecap="round" stroke-linejoin="round"/>
<path d="M269.93 143.34C269.93 143.34 286.8 143.11 296.27 145.19C296.27 145.19 294.61 150.66 291.84 152.51C289.07 154.36 284.26 153.05 283.1 152.12C281.94 151.19 281.02 145.65 281.02 145.65H279.17L278.25 148.43C278.25 148.43 277.55 152.12 275.01 152.12C272.47 152.12 269.93 151.66 269.93 143.34Z" fill="#A8DADC" stroke="#263238" stroke-linecap="round" stroke-linejoin="round"/>
<path d="M278.73 147C275.933 146.147 272.949 146.126 270.14 146.94C270.8 151.8 272.9 152.13 275.01 152.13C277.55 152.13 278.25 148.44 278.25 148.44L278.73 147Z" fill="#263238" stroke="#263238" stroke-linecap="round" stroke-linejoin="round"/>
<path d="M294.59 149.14C290.42 145.29 286.23 149.05 281.5 148.01C281.88 149.64 282.45 151.61 283.1 152.12C284.26 153.05 289.1 154.36 291.84 152.51C292.999 151.608 293.939 150.456 294.59 149.14Z" fill="#263238" stroke="#263238" stroke-linecap="round" stroke-linejoin="round"/>
<path d="M296.27 145.19L306.76 161.37L305.74 160.97L295.3 147.98L296.27 145.19Z" fill="#A8DADC" stroke="#263238" stroke-linecap="round" stroke-linejoin="round"/>
<path d="M277.09 159.06C277.09 159.06 285.18 161.37 287.49 156.51" stroke="#263238" stroke-linecap="round" stroke-linejoin="round"/>
<path d="M286.1 155.59L289.57 156.98" stroke="#263238" stroke-linecap="round" stroke-linejoin="round"/>
<path d="M279.63 148.43C279.63 148.43 272.47 149.35 272.47 150.51C272.47 151.67 277.09 154.9 277.09 154.9" fill="white"/>
<path d="M279.63 148.43C279.63 148.43 272.47 149.35 272.47 150.51C272.47 151.67 277.09 154.9 277.09 154.9" stroke="#263238" stroke-linecap="round" stroke-linejoin="round"/>
<path d="M278.71 172.23C278.225 172.202 277.741 172.292 277.298 172.492C276.856 172.692 276.469 172.997 276.17 173.38C274.78 174.77 271.6 180.24 270.78 182.38C269.3 186.31 274.5 193.38 279.86 190.91C282.52 189.71 283.18 190.76 286.19 187.06C289.2 183.36 289.8 180.51 289.8 179.36C289.8 178.21 291.88 178.2 287.49 180.28C283.1 182.36 274.32 178.93 278.71 172.23Z" fill="#263238" stroke="#263238" stroke-linecap="round" stroke-linejoin="round"/>
<path d="M133 94.94C131.616 95.5238 130.431 96.4951 129.586 97.737C128.742 98.979 128.274 100.439 128.24 101.94C126.934 100.732 125.254 100.007 123.479 99.8877C121.704 99.7681 119.942 100.26 118.486 101.282C117.03 102.305 115.968 103.795 115.477 105.505C114.987 107.215 115.097 109.041 115.79 110.68C117.79 115.35 122.79 117.42 127.26 118.68C129.26 119.24 131.26 119.68 133.33 120.19C133.59 120.19 136.14 120.84 136.14 120.84C136.14 120.84 137.58 118.57 137.73 118.34C138.83 116.57 139.9 114.77 140.9 112.94C143.15 108.82 145.16 103.81 143.2 99.14C142.806 98.1945 142.23 97.3358 141.504 96.613C140.778 95.8903 139.917 95.3175 138.97 94.9275C138.023 94.5375 137.008 94.3379 135.984 94.34C134.959 94.3422 133.946 94.546 133 94.94Z" fill="#263238"/>
<path d="M177.53 114C176.129 113.484 174.609 113.382 173.151 113.707C171.694 114.031 170.36 114.768 169.31 115.83C169.177 114.058 168.441 112.386 167.225 111.09C166.009 109.795 164.386 108.955 162.627 108.709C160.867 108.464 159.076 108.828 157.553 109.742C156.029 110.655 154.863 112.063 154.25 113.73C152.5 118.48 154.73 123.39 157.17 127.41C158.25 129.19 159.4 130.93 160.58 132.65L162.19 135.05C162.19 135.05 164.8 134.37 165.06 134.3C167.06 133.75 169.06 133.17 171.06 132.52C175.52 131.04 180.41 128.75 182.16 124C182.514 123.04 182.676 122.019 182.635 120.996C182.594 119.973 182.351 118.968 181.921 118.039C181.491 117.11 180.881 116.275 180.128 115.582C179.375 114.889 178.492 114.351 177.53 114Z" fill="#263238"/>
<path d="M173 110C173.213 109.981 173.427 109.981 173.64 110C174.295 110 174.923 109.74 175.387 109.277C175.85 108.813 176.11 108.185 176.11 107.53C176.11 106.875 175.85 106.247 175.387 105.783C174.923 105.32 174.295 105.06 173.64 105.06H164.28C164.28 105.06 164.86 101.68 164.86 100.52C164.86 99.36 165.44 97.63 163.86 95.41C162.28 93.19 158.72 94 158.72 94L159.27 98.58C159.351 99.3043 159.211 100.036 158.87 100.68L154.67 108.57L152.74 110.21L152.16 119.96C153.41 122.96 157.37 123.96 157.37 123.96H170C170.676 123.976 171.33 123.725 171.821 123.26C172.312 122.795 172.599 122.156 172.62 121.48C172.614 121.062 172.501 120.653 172.293 120.291C172.085 119.929 171.788 119.626 171.43 119.41C171.59 119.425 171.751 119.425 171.91 119.41C172.585 119.429 173.239 119.179 173.731 118.716C174.222 118.253 174.509 117.615 174.53 116.94C174.526 116.527 174.418 116.121 174.215 115.761C174.012 115.401 173.722 115.098 173.37 114.88C173.964 114.801 174.509 114.513 174.909 114.068C175.309 113.622 175.536 113.048 175.55 112.45C175.524 111.791 175.244 111.168 174.769 110.711C174.293 110.254 173.659 109.999 173 110Z" fill="white"/>
<path d="M170 124.26H157.28C157.11 124.26 153.12 123.26 151.8 120.08C151.791 120.024 151.791 119.966 151.8 119.91L152.38 110.16C152.389 110.055 152.44 109.958 152.52 109.89L154.39 108.29L158.56 100.47C158.869 99.8983 158.991 99.2446 158.91 98.6L158.34 94C158.33 93.9068 158.354 93.8131 158.407 93.736C158.46 93.6589 158.539 93.6035 158.63 93.58C158.79 93.58 162.48 92.68 164.15 95.09C164.626 95.7507 164.967 96.4991 165.152 97.292C165.337 98.085 165.364 98.9068 165.23 99.71C165.23 99.97 165.23 100.21 165.23 100.42C165.138 101.812 164.968 103.197 164.72 104.57H173.62C173.663 104.56 173.707 104.56 173.75 104.57C174.508 104.577 175.234 104.879 175.775 105.41C176.316 105.942 176.629 106.662 176.65 107.42C176.642 108.004 176.455 108.572 176.116 109.047C175.776 109.522 175.3 109.883 174.75 110.08C175.133 110.334 175.447 110.679 175.665 111.084C175.883 111.488 175.998 111.94 176 112.4C175.995 112.958 175.825 113.503 175.512 113.965C175.199 114.428 174.757 114.788 174.24 115C174.722 115.511 174.991 116.187 174.99 116.89C174.976 117.578 174.717 118.238 174.261 118.752C173.805 119.267 173.181 119.603 172.5 119.7C172.87 120.182 173.071 120.772 173.07 121.38C173.062 121.772 172.976 122.159 172.817 122.517C172.658 122.876 172.428 123.199 172.142 123.467C171.856 123.735 171.519 123.944 171.151 124.08C170.783 124.216 170.392 124.277 170 124.26ZM157.39 123.48H170C170.572 123.496 171.128 123.286 171.545 122.894C171.963 122.503 172.209 121.962 172.23 121.39C172.226 121.039 172.131 120.695 171.956 120.39C171.781 120.085 171.531 119.831 171.23 119.65C171.155 119.603 171.099 119.532 171.069 119.448C171.04 119.364 171.041 119.273 171.07 119.19C171.101 119.105 171.162 119.033 171.24 118.988C171.319 118.942 171.41 118.925 171.5 118.94C171.64 118.954 171.78 118.954 171.92 118.94C172.204 118.951 172.487 118.905 172.753 118.807C173.019 118.708 173.263 118.558 173.471 118.364C173.679 118.171 173.847 117.939 173.965 117.681C174.084 117.423 174.15 117.144 174.16 116.86C174.154 116.51 174.059 116.168 173.884 115.866C173.709 115.563 173.46 115.31 173.16 115.13C173.093 115.087 173.039 115.026 173.007 114.953C172.975 114.879 172.966 114.799 172.98 114.72C173 114.645 173.04 114.577 173.097 114.524C173.153 114.47 173.224 114.435 173.3 114.42C173.794 114.355 174.249 114.12 174.587 113.754C174.925 113.389 175.124 112.917 175.15 112.42C175.129 111.848 174.883 111.307 174.465 110.916C174.048 110.524 173.492 110.314 172.92 110.33C172.82 110.325 172.726 110.282 172.657 110.209C172.588 110.136 172.55 110.04 172.55 109.94C172.55 109.53 172.9 109.53 173.55 109.53C173.836 109.55 174.123 109.511 174.393 109.415C174.663 109.319 174.911 109.169 175.12 108.973C175.33 108.778 175.497 108.541 175.611 108.278C175.726 108.015 175.785 107.732 175.785 107.445C175.785 107.158 175.726 106.875 175.611 106.612C175.497 106.349 175.33 106.112 175.12 105.917C174.911 105.721 174.663 105.571 174.393 105.475C174.123 105.379 173.836 105.34 173.55 105.36H173.42H164.19C164.134 105.36 164.079 105.347 164.029 105.323C163.979 105.299 163.935 105.264 163.9 105.22C163.862 105.179 163.834 105.129 163.818 105.076C163.803 105.022 163.8 104.965 163.81 104.91C164.079 103.427 164.273 101.932 164.39 100.43C164.39 100.19 164.39 99.93 164.39 99.65C164.512 98.9368 164.492 98.2065 164.33 97.5012C164.169 96.7958 163.87 96.1293 163.45 95.54C162.34 93.94 159.96 94.14 159.08 94.28L159.58 98.51C159.67 99.31 159.517 100.119 159.14 100.83L155 108.7C154.979 108.746 154.949 108.787 154.91 108.82L153.1 110.35L152.54 119.84C153.68 122.4 157 123.37 157.42 123.48H157.39Z" fill="#263238"/>
<path d="M151.76 106.59H145.84C144.658 106.59 143.7 107.548 143.7 108.73V123.27C143.7 124.452 144.658 125.41 145.84 125.41H151.76C152.942 125.41 153.9 124.452 153.9 123.27V108.73C153.9 107.548 152.942 106.59 151.76 106.59Z" fill="#263238"/>
<path d="M212.44 135.1L211.92 130.1C211.925 130.08 211.925 130.06 211.92 130.04L211.14 122.5H211.22C211.246 122.508 211.274 122.508 211.3 122.5C211.433 122.466 211.546 122.38 211.616 122.262C211.685 122.143 211.705 122.003 211.67 121.87C211.636 121.737 211.55 121.624 211.432 121.555C211.314 121.485 211.173 121.466 211.04 121.5L207 82.5C206.989 82.4137 206.957 82.3315 206.905 82.2615C206.853 82.1914 206.785 82.1356 206.706 82.0995C206.626 82.0635 206.539 82.0482 206.453 82.0553C206.366 82.0624 206.282 82.0915 206.21 82.14C203.633 83.8999 200.962 85.519 198.21 86.99L197.77 87.23L197.29 87.49C193.548 89.5013 189.615 91.136 185.55 92.37L184.94 92.54C182.253 93.3266 179.46 93.6943 176.66 93.63C175.78 93.63 174.86 93.52 173.94 93.44L173.18 93.37C170.75 93.15 168.18 92.82 165.57 92.49L164.47 92.35L163.52 92.24C160.84 91.89 158.07 91.56 155.21 91.33H154.71H154.21C150.671 91.0478 147.117 90.9877 143.57 91.15H142.9H142.57C138.687 91.3904 134.834 91.9862 131.06 92.93L130.72 93.02H130.58L130.21 93.12H130.09L129.31 93.33C125.92 94.3111 122.632 95.6136 119.49 97.22L119.23 97.35L119.05 97.44L118.88 97.53L118.57 97.69C115.248 99.438 112.051 101.413 109 103.6L108.6 103.89L108.17 104.2C105.376 106.226 102.704 108.416 100.17 110.76L99.8402 111.07L99.7202 111.19L99.4302 111.46C97.2002 113.441 95.225 115.692 93.5502 118.16C93.3769 118.437 93.2423 118.736 93.1502 119.05C93.1457 119.117 93.1457 119.183 93.1502 119.25C93.1407 119.336 93.1407 119.424 93.1502 119.51C93.1914 119.722 93.3002 119.915 93.4602 120.06C93.8954 120.388 94.4251 120.567 94.9702 120.57C95.1902 120.57 95.4502 120.57 95.7202 120.57H95.7902C96.3702 120.57 97.0602 120.57 97.8702 120.51H98.3302L100.71 120.33L102.63 120.17C105.955 119.885 109.293 119.775 112.63 119.84L113.68 119.93L118 120.31C119.262 120.534 120.511 120.828 121.74 121.19L122.46 121.4C126.126 122.591 129.707 124.028 133.18 125.7L133.93 126.05C135.85 126.95 137.83 127.897 139.87 128.89C141.91 129.883 143.934 130.85 145.94 131.79L146.15 131.89L146.39 132C149.47 133.45 152.62 134.86 155.9 136.16L156.08 136.23L156.41 136.37L156.61 136.45L156.87 136.55C157.81 136.92 158.76 137.29 159.72 137.63C162.567 138.637 165.481 139.446 168.44 140.05H168.61L168.96 140.13L169.3 140.19H169.44C172.854 140.843 176.303 141.294 179.77 141.54H179.9H180.28H180.51H180.77C182.66 141.65 184.54 141.72 186.39 141.72C187.54 141.72 188.67 141.72 189.78 141.64H190.09H190.28C194.817 141.476 199.322 140.805 203.71 139.64L204.06 139.54H204.19L204.42 139.47L204.68 139.39C208.03 138.39 210.68 136.98 212.31 135.26C212.364 135.216 212.409 135.162 212.44 135.1ZM169.37 139.33L168.78 133.69C172.115 134.405 175.487 134.94 178.88 135.29L179.63 140.72C176.185 140.466 172.759 140.002 169.37 139.33ZM146.37 131.01L146.08 126.79C149.53 128.08 152.67 129.19 155.67 130.16L155.85 135.16C152.6 133.86 149.45 132.45 146.38 131L146.37 131.01ZM115.53 119.1C114.81 119.04 114.1 119.02 113.39 118.99L112.8 116.88C115.534 116.549 118.289 116.432 121.04 116.53L121.43 119.53H120.99H120.91C120 119.53 119.11 119.45 118.22 119.45C117.3 119.28 116.41 119.17 115.53 119.1ZM97.3102 119.7C98.5402 118.88 99.8502 118.08 101.21 117.31L101.67 118.8L101.45 118.88H101.38L99.8002 119.5C98.9202 119.6 98.0702 119.66 97.3102 119.7ZM119.46 104.27C116.04 105.46 113.03 106.65 110.28 107.87L109.37 104.63C112.359 102.469 115.493 100.518 118.75 98.79L119.46 104.27ZM120.56 104.93C122.96 104.11 125.56 103.24 128.43 102.37C129.28 102.1 130.11 101.86 130.92 101.64L131.43 107.11C127.931 107.356 124.455 107.86 121.03 108.62L120.56 104.94V104.93ZM164.23 99.41L160.88 99C159.05 98.74 157.3 98.49 155.5 98.29L155.28 92.39C158.14 92.62 160.91 92.95 163.59 93.3L164.23 99.41ZM207.05 92.75L208.82 109.84C208.754 109.827 208.686 109.827 208.62 109.84C206.214 110.566 203.73 110.999 201.22 111.13L199.47 96.8C202.125 95.7054 204.664 94.3486 207.05 92.75ZM202.87 133.11C198.656 134.141 194.338 134.685 190 134.73L189 124.5H189.3C193.82 124.5 198.01 124.32 201.78 123.94L202.9 133.1L202.87 133.11ZM145.59 119.66L147.27 119.96C149.91 120.43 152.61 120.96 155.35 121.37L155.64 129.09C152.64 128.09 149.48 127 146.01 125.68L145.59 119.66ZM120.05 108.85C117.078 109.551 114.152 110.436 111.29 111.5L110.55 108.85C113.25 107.63 116.23 106.46 119.55 105.27L120.05 108.85ZM120.18 109.85L120.91 115.51C118.108 115.421 115.303 115.548 112.52 115.89L111.52 112.47C114.345 111.405 117.238 110.53 120.18 109.85ZM121.18 109.62C124.595 108.858 128.061 108.35 131.55 108.1L132.33 116.5C128.889 115.991 125.425 115.658 121.95 115.5L121.18 109.62ZM177.18 123.06C175.53 122.94 173.71 122.79 171.5 122.58C170.18 122.45 168.88 122.31 167.57 122.15L166.28 109.67C169.43 110.08 172.36 110.51 175.2 110.91H175.51L177.18 123.06ZM155.54 99.25C157.26 99.44 158.96 99.69 160.74 99.94L164.34 100.44L165.17 108.51C161.88 108.11 158.82 107.79 155.84 107.51L155.54 99.25ZM155.32 120.35C152.654 119.903 150.03 119.447 147.45 118.98L145.52 118.64L144.78 107.92C148.06 108 151.38 108.18 154.88 108.47L155.32 120.35ZM132.44 107L131.9 101.32C135.591 100.281 139.36 99.5422 143.17 99.11L143.7 106.85C140.63 106.79 137.5 106.85 134.39 106.91C133.74 107 133.08 107 132.44 107ZM132.53 108C133.16 108 133.79 107.93 134.43 107.91C137.55 107.81 140.68 107.79 143.77 107.85L144.5 118.42C141.01 117.8 137.07 117.12 133.33 116.6L132.53 108ZM155.88 108.51C158.88 108.76 161.96 109.08 165.28 109.51L166.57 122C163.44 121.62 160.15 121.13 156.32 120.5L155.88 108.51ZM171.42 123.51C173.73 123.73 175.62 123.89 177.34 124L178.74 134.19C175.359 133.842 172 133.302 168.68 132.57L167.68 123.11C168.93 123.33 170.17 123.46 171.42 123.58V123.51ZM176.57 111.04C180.25 111.56 183.57 112.04 186.69 112.27L187.85 123.42C184.76 123.42 181.53 123.27 178.22 123.05L176.57 111.04ZM201.63 122.87C197.78 123.25 193.5 123.44 188.86 123.43L187.71 112.35C189.13 112.46 190.48 112.51 191.71 112.51C194.83 112.51 197.71 112.4 200.32 112.19L201.63 122.87ZM201.34 112.1C203.911 111.959 206.456 111.509 208.92 110.76L210.05 121.61H210C207.574 122.13 205.12 122.514 202.65 122.76L201.34 112.1ZM200.22 111.19C197.66 111.4 194.8 111.51 191.73 111.51C190.45 111.51 189.06 111.45 187.6 111.34L186.46 100.43C190.572 99.7817 194.597 98.6713 198.46 97.12L200.22 111.19ZM186.58 111.26C183.49 110.99 180.14 110.54 176.43 110.01L175.21 101.2H176.68C179.622 101.204 182.559 100.994 185.47 100.57L186.58 111.26ZM175.39 109.85C172.48 109.44 169.47 109 166.22 108.57L165.38 100.5C167.71 100.78 170.72 101.08 174.22 101.18L175.39 109.85ZM154.84 107.39C151.33 107.1 148.01 106.92 144.71 106.84L144.16 98.98C147.615 98.6697 151.092 98.7032 154.54 99.08L154.84 107.39ZM143.1 98.15C139.283 98.5811 135.508 99.3202 131.81 100.36L131.21 93.92C134.969 92.9676 138.809 92.3684 142.68 92.13L143.1 98.15ZM109.36 108.29C106.436 109.628 103.612 111.176 100.91 112.92L100.65 112.07L100.58 111.85C103.107 109.526 105.758 107.339 108.52 105.3L109.36 108.29ZM101.22 113.9C103.911 112.16 106.721 110.613 109.63 109.27L110.36 111.86C107.427 113.007 104.571 114.343 101.81 115.86L101.22 113.94V113.9ZM102.62 118.44L102.11 116.8C104.862 115.285 107.707 113.949 110.63 112.8L111.53 115.99C108.903 116.38 106.325 117.05 103.84 117.99L102.62 118.44ZM122.45 119.62L122.06 116.55C125.06 116.67 128.51 116.99 132.41 117.55L132.75 121.23C129.365 120.423 125.921 119.884 122.45 119.62ZM133.45 117.62C137.2 118.15 141.14 118.82 144.6 119.43L145 125.24L141.85 124.01C139.242 122.979 136.569 122.118 133.85 121.43L133.45 117.62ZM156.67 129.37L156.38 121.49C160.22 122.12 163.53 122.61 166.69 123L167.69 132.37C164.12 131.63 160.51 130.65 156.65 129.42L156.67 129.37ZM178.38 124.09C181.67 124.3 184.9 124.42 187.98 124.44L189 134.74C185.909 134.784 182.818 134.657 179.74 134.36L178.38 124.09ZM190.7 140.84L190.16 135.68C194.486 135.633 198.792 135.103 203 134.1L203.59 138.97C199.376 140.094 195.049 140.739 190.69 140.89L190.7 140.84ZM202.78 123.84C205.263 123.588 207.73 123.2 210.17 122.68L210.9 129.8L210.68 129.94C208.569 131.243 206.273 132.221 203.87 132.84L202.78 123.84ZM206.95 91.63L206.82 91.68L206.72 91.77C204.415 93.3539 201.952 94.6944 199.37 95.77L198.43 88.08C202.04 86.08 204.86 84.29 206.11 83.44L206.95 91.63ZM197.48 88.63L198.41 96.22C194.549 97.7818 190.523 98.9022 186.41 99.56L185.77 93.45C189.836 92.2419 193.769 90.6271 197.51 88.63H197.48ZM184.76 93.71L185.38 99.71C182.506 100.125 179.605 100.333 176.7 100.33H175.09L174.3 94.53C175.1 94.59 175.9 94.66 176.68 94.69C179.403 94.7424 182.118 94.3954 184.74 93.66L184.76 93.71ZM173.26 94.43L174.07 100.29C170.58 100.19 167.58 99.88 165.27 99.59L164.64 93.42L165.5 93.53C168.17 93.83 170.75 94.15 173.24 94.38L173.26 94.43ZM154.26 92.31L154.47 98.18C151.014 97.8195 147.531 97.7927 144.07 98.1L143.65 92.1C147.197 91.9248 150.751 91.9782 154.29 92.26L154.26 92.31ZM129.59 94.37L130.19 94.21L130.8 100.67C129.92 100.91 129.03 101.17 128.1 101.46C125.35 102.32 122.76 103.16 120.4 103.98L119.67 98.34C122.847 96.6767 126.18 95.3302 129.62 94.32L129.59 94.37ZM99.7502 112.57L100.04 113.49C98.7302 114.35 97.4702 115.26 96.2702 116.14C97.1802 115.11 98.3502 113.9 99.7502 112.57ZM94.0902 119.32C94.1095 119.177 94.1535 119.038 94.2202 118.91L95.2202 118.14C96.8202 116.94 98.5202 115.68 100.31 114.49L100.87 116.33C99.1602 117.33 97.5302 118.33 96.0302 119.33C95.8302 119.47 95.6302 119.6 95.4502 119.74C94.9775 119.773 94.5054 119.668 94.0902 119.44C94.0797 119.422 94.0741 119.401 94.0741 119.38C94.0741 119.359 94.0797 119.338 94.0902 119.32ZM110.67 118.93C108.01 118.93 105.53 119.07 103.34 119.24L104.17 118.93C106.637 118.014 109.195 117.367 111.8 117L112.35 119L110.67 118.93ZM123.06 120.68H123.12C126.399 120.954 129.653 121.483 132.85 122.26L133.08 124.67C129.828 123.129 126.481 121.797 123.06 120.68ZM134.13 125.16L133.89 122.54C136.465 123.199 138.997 124.018 141.47 124.99L144.98 126.36H145.05L145.34 130.49C143.64 129.69 141.97 128.88 140.34 128.08C138.19 127.08 136.13 126.09 134.13 125.16ZM156.88 135.58L156.69 130.49C160.57 131.7 164.19 132.69 167.75 133.49L168.34 139.14C165.532 138.552 162.766 137.777 160.06 136.82C159 136.41 157.93 136 156.88 135.58ZM180.66 140.79L179.91 135.38C182.63 135.63 185.3 135.75 188.01 135.75H189.13L189.68 140.94C186.673 141.049 183.662 140.999 180.66 140.79ZM204.56 138.67L203.98 133.84C206.438 133.196 208.793 132.213 210.98 130.92L211.4 134.98C209.436 136.722 207.095 137.985 204.56 138.67Z" fill="#A8DADC"/>
<path d="M205.6 79.36L217.06 181.49" stroke="#263238" stroke-width="3" stroke-linecap="round" stroke-linejoin="round"/>
<path d="M218.87 164.83C218.87 164.83 224.87 163.21 225.57 165.06C226.27 166.91 225.8 171.99 225.57 172.69C225.34 173.39 222.57 174.31 222.57 172.92C222.57 171.53 221 168.3 221 168.3L218.87 164.83Z" stroke="#263238" stroke-linecap="round" stroke-linejoin="round"/>
<path d="M232.27 220.75C233.246 219.307 233.859 217.651 234.06 215.92C234.26 214.19 234.04 212.437 233.42 210.81C231.34 205.04 222.56 195.1 219.33 189.32C216.1 183.54 218.17 184.01 218.17 184.01C218.17 184.01 221.17 182.62 221.41 181.01C221.65 179.4 222.56 169.22 222.56 167.6C222.56 165.98 214.71 162.75 211.47 162.29C208.23 161.83 209.39 164.83 210.32 171.76C211.25 178.69 212.63 198.1 213.78 204.81C214.93 211.52 216.56 218.67 222.56 222.13C228.56 225.59 232.27 220.75 232.27 220.75Z" fill="white" stroke="#263238" stroke-linecap="round" stroke-linejoin="round"/>
<path d="M210.09 168.07C210.09 168.07 211.7 166.68 212.86 166.68C214.02 166.68 221.86 169.68 221.86 169.68" stroke="#263238" stroke-linecap="round" stroke-linejoin="round"/>
<path d="M211.7 174.07C212.792 173.461 213.958 172.997 215.17 172.69C216.56 172.46 221.41 173.38 221.41 173.38" stroke="#263238" stroke-linecap="round" stroke-linejoin="round"/>
<path d="M214.48 177.08C214.807 176.745 215.205 176.487 215.644 176.326C216.084 176.166 216.554 176.105 217.02 176.15C218.447 176.239 219.851 176.553 221.18 177.08" stroke="#263238" stroke-linecap="round" stroke-linejoin="round"/>
<path d="M218.87 180.54L214.48 182.39" stroke="#263238" stroke-linecap="round" stroke-linejoin="round"/>
<path d="M217.27 182.07L226.17 262.59" stroke="#263238" stroke-width="3" stroke-linecap="round" stroke-linejoin="round"/>
<path d="M233.88 226.06C233.88 226.06 230.88 222.13 227.88 218.67C224.88 215.21 220.71 218.9 220.71 218.9C220.71 218.9 216.09 219.59 216.09 221.21C216.09 222.83 217.71 225.6 217.71 225.6C217.71 225.6 217.02 229.99 218.87 231.6C220.72 233.21 221.87 233.68 223.02 233.68C224.17 233.68 277.79 234.6 282.18 234.37C286.57 234.14 297.18 235.99 300.89 230.9C304.6 225.81 302.28 218.2 294.42 217.5C286.56 216.8 254.68 226.29 233.88 226.06Z" fill="white" stroke="#263238" stroke-linecap="round" stroke-linejoin="round"/>
</svg>
