<svg width="89" height="80" viewBox="0 0 89 80" fill="none" xmlns="http://www.w3.org/2000/svg">
<path fill-rule="evenodd" clip-rule="evenodd" d="M9.83887 0C4.8683 0 0.838867 4.02944 0.838867 9V71C0.838867 75.9706 4.86831 80 9.83887 80H80C84.9706 80 89 75.9706 89 71V9C89 4.02944 84.9706 0 80 0H9.83887ZM37.0658 18H53.786C61.4801 18 67.7195 24.1572 67.7195 31.75V48.25C67.7195 55.8428 61.4801 62 53.786 62H37.0658C29.3717 62 23.1322 55.8428 23.1322 48.25V31.75C23.1322 24.1572 29.3717 18 37.0658 18ZM53.786 57.875C59.1643 57.875 63.5394 53.5575 63.5394 48.25V31.75C63.5394 26.4425 59.1643 22.125 53.786 22.125H37.0658C31.6874 22.125 27.3123 26.4425 27.3123 31.75V48.25C27.3123 53.5575 31.6874 57.875 37.0658 57.875H53.786ZM45.4258 29C39.27 29 34.279 33.9253 34.279 40C34.279 46.0747 39.27 51 45.4258 51C51.5816 51 56.5726 46.0747 56.5726 40C56.5726 33.9253 51.5816 29 45.4258 29ZM45.4258 46.875C41.5857 46.875 38.459 43.7895 38.459 40C38.459 36.2077 41.5857 33.125 45.4258 33.125C49.2659 33.125 52.3926 36.2077 52.3926 40C52.3926 43.7895 49.2659 46.875 45.4258 46.875ZM58.8939 28.175C58.8939 28.9845 58.2289 29.6407 57.4086 29.6407C56.5883 29.6407 55.9233 28.9845 55.9233 28.175C55.9233 27.3655 56.5883 26.7092 57.4086 26.7092C58.2289 26.7092 58.8939 27.3655 58.8939 28.175Z" fill="#A8DADC"/>
</svg>
