<svg width="421" height="458" viewBox="0 0 421 458" fill="none" xmlns="http://www.w3.org/2000/svg">
<path d="M236.176 32.71C188.774 30.7053 138.532 29.8444 92.484 44.297C44.9945 59.1914 12.37 98.4716 3.09713 146.938C-0.673146 166.943 -0.166093 187.562 4.58254 207.342C6.91988 217.128 9.91255 228.307 15.177 236.994C24.297 252.013 36.9121 266.749 34.9461 285.947C32.7617 306.924 18.7267 324.99 19.7425 346.646C21.6757 387.92 109.304 439.954 238.939 416.87C368.574 393.787 377.235 336.078 356.953 288.054C336.671 240.03 333.754 247.732 355.02 201.656C376.285 155.58 357.171 37.8183 236.176 32.71Z" fill="#A8DADC"/>
<path opacity="0.7" d="M236.176 32.71C188.774 30.7053 138.532 29.8444 92.484 44.297C44.9945 59.1914 12.37 98.4716 3.09713 146.938C-0.673146 166.943 -0.166093 187.562 4.58254 207.342C6.91988 217.128 9.91255 228.307 15.177 236.994C24.297 252.013 36.9121 266.749 34.9461 285.947C32.7617 306.924 18.7267 324.99 19.7425 346.646C21.6757 387.92 109.304 439.954 238.939 416.87C368.574 393.787 377.235 336.078 356.953 288.054C336.671 240.03 333.754 247.732 355.02 201.656C376.285 155.58 357.171 37.8183 236.176 32.71Z" fill="white"/>
<path d="M38.8672 326.032C66.4281 344.401 98.5063 354.153 131.269 354.122C243.177 354.122 306.405 256.102 302.593 168.175C314.4 159.334 324.587 148.375 332.673 135.815C321.671 140.871 310 144.189 298.05 145.658C310.642 137.855 320.062 125.562 324.547 111.078C312.731 118.358 299.802 123.491 286.319 126.255C277.228 116.251 265.213 109.631 252.13 107.418C239.047 105.205 225.626 107.523 213.94 114.012C202.255 120.502 192.956 130.802 187.481 143.321C182.006 155.84 180.66 169.881 183.651 183.273C159.683 182.032 136.234 175.574 114.83 164.321C93.4253 153.067 74.5436 137.269 59.4118 117.953C51.705 131.717 49.3442 148.009 52.8097 163.514C56.2752 179.02 65.3067 192.573 78.0668 201.418C68.4935 201.104 59.1314 198.42 50.7614 193.591C50.1061 222.553 70.1155 249.635 99.1028 255.672C90.2316 258.177 80.9253 258.545 71.8958 256.748C75.7422 269.169 83.2384 280.032 93.3346 287.814C103.431 295.597 115.621 299.911 128.199 300.151C115.678 310.338 101.344 317.868 86.0163 322.308C70.6884 326.749 54.6669 328.014 38.8672 326.032Z" fill="#A8DADC"/>
<path opacity="0.4" d="M38.8672 326.032C66.4281 344.401 98.5063 354.153 131.269 354.122C243.177 354.122 306.405 256.102 302.593 168.175C314.4 159.334 324.587 148.375 332.673 135.815C321.671 140.871 310 144.189 298.05 145.658C310.642 137.855 320.062 125.562 324.547 111.078C312.731 118.358 299.802 123.491 286.319 126.255C277.228 116.251 265.213 109.631 252.13 107.418C239.047 105.205 225.626 107.523 213.94 114.012C202.255 120.502 192.956 130.802 187.481 143.321C182.006 155.84 180.66 169.881 183.651 183.273C159.683 182.032 136.234 175.574 114.83 164.321C93.4253 153.067 74.5436 137.269 59.4118 117.953C51.705 131.717 49.3442 148.009 52.8097 163.514C56.2752 179.02 65.3067 192.573 78.0668 201.418C68.4935 201.104 59.1314 198.42 50.7614 193.591C50.1061 222.553 70.1155 249.635 99.1028 255.672C90.2316 258.177 80.9253 258.545 71.8958 256.748C75.7422 269.169 83.2384 280.032 93.3346 287.814C103.431 295.597 115.621 299.911 128.199 300.151C115.678 310.338 101.344 317.868 86.0163 322.308C70.6884 326.749 54.6669 328.014 38.8672 326.032Z" fill="white"/>
<path d="M333.536 40.2988C332.335 37.7259 330.516 35.5173 328.252 33.8858C325.989 32.2543 323.359 31.2549 320.615 30.984C317.871 30.7131 315.106 31.1798 312.587 32.3392C310.067 33.4985 307.878 35.3114 306.231 37.6031C304.268 34.2094 301.481 31.4083 298.149 29.4788C294.817 27.5493 291.056 26.5588 287.24 26.6057C283.424 26.6527 279.686 27.7356 276.399 29.7466C273.112 31.7575 270.391 34.6264 268.506 38.0674H267.763C264.993 38.0689 262.244 38.5829 259.648 39.5852C257.524 34.3707 254.056 29.8637 249.625 26.5589C245.194 23.2542 239.97 21.2793 234.527 20.8512C232.737 17.0479 230.036 13.7849 226.681 11.3749C223.327 8.96479 219.431 7.48839 215.369 7.0871C211.306 6.68581 207.212 7.37308 203.479 9.08307C199.746 10.7931 196.499 13.4685 194.049 16.853C191.137 11.8084 186.999 7.64408 182.05 4.77532C177.1 1.90657 171.512 0.433687 165.843 0.503598C160.173 0.57351 154.62 2.18377 149.738 5.17376C144.856 8.16375 140.815 12.4289 138.019 17.5439H136.927C129.955 17.5448 123.149 19.7432 117.411 23.8475C111.672 27.9519 107.272 33.7682 104.794 40.5253C104.357 40.4573 103.92 40.3894 103.483 40.3554C102.28 37.785 100.459 35.579 98.1961 33.9495C95.9329 32.32 93.3035 31.3218 90.5607 31.0511C87.818 30.7803 85.0542 31.246 82.5352 32.4034C80.0162 33.5608 77.8268 35.3709 76.1776 37.6597C74.2136 34.2687 71.4276 31.4701 68.0967 29.5424C64.7658 27.6147 61.0063 26.6251 57.1921 26.6721C53.3779 26.719 49.642 27.8009 46.3562 29.8101C43.0705 31.8193 40.3493 34.6856 38.4635 38.1241H37.7207C33.8814 38.1348 30.105 39.1353 26.7312 41.0356C23.3574 42.9359 20.4923 45.6764 18.3936 49.0103C16.2949 52.3442 15.0285 56.1671 14.7085 60.1346C14.3885 64.1022 15.0249 68.09 16.5603 71.7392C18.0958 75.3884 20.4821 78.5844 23.5046 81.0395C26.5271 83.4946 30.0908 85.1318 33.875 85.8037C37.6593 86.4757 41.5452 86.1613 45.1832 84.8888C48.8212 83.6163 52.0969 81.4258 54.7156 78.5142C57.2754 81.4048 60.7386 83.2632 64.4925 83.7607C68.2464 84.2581 72.0489 83.3626 75.2274 81.2326C76.7158 82.9158 78.5227 84.2629 80.5353 85.1901C82.5479 86.1172 84.723 86.6045 86.9252 86.6215C89.1274 86.6385 91.3093 86.1849 93.335 85.2889C95.3607 84.3929 97.1867 83.0738 98.6991 81.4138C103.588 82.28 108.613 81.2217 112.789 78.4463C116.045 81.8075 119.919 84.457 124.181 86.238C128.442 88.019 133.005 88.8953 137.599 88.8151C142.193 88.7348 146.725 87.6996 150.926 85.7707C155.127 83.8419 158.913 81.0585 162.059 77.5855C165.859 81.8794 171.002 84.6407 176.577 85.3807C182.152 86.1208 187.799 84.7918 192.52 81.629C194.732 84.127 197.416 86.1262 200.406 87.5021C203.395 88.878 206.625 89.6012 209.895 89.6267C213.165 89.6522 216.406 88.9795 219.414 87.6503C222.423 86.3212 225.136 84.3641 227.384 81.9008C235.12 83.2564 243.059 81.3834 249.468 76.6907C251.51 79.45 254.106 81.7161 257.076 83.3318C260.045 84.9474 263.319 85.8741 266.668 86.0476C270.018 86.2211 273.364 85.6372 276.474 84.3363C279.585 83.0355 282.385 81.049 284.681 78.5142C287.241 81.4048 290.704 83.2632 294.458 83.7607C298.212 84.2581 302.015 83.3626 305.193 81.2326C306.68 82.917 308.485 84.2653 310.497 85.1933C312.509 86.1213 314.684 86.609 316.886 86.626C319.087 86.643 321.269 86.1889 323.294 85.2921C325.319 84.3953 327.143 83.075 328.654 81.4138C331.323 81.8961 334.058 81.8109 336.694 81.1632C339.33 80.5156 341.811 79.3191 343.987 77.6464C346.164 75.9737 347.989 73.8597 349.354 71.4329C350.718 69.006 351.592 66.3168 351.923 63.5288C352.255 60.7408 352.036 57.912 351.281 55.2143C350.525 52.5166 349.249 50.0063 347.529 47.8358C345.81 45.6653 343.682 43.88 341.277 42.5882C338.871 41.2965 336.238 40.5253 333.536 40.3214V40.2988Z" fill="#263238"/>
<path opacity="0.2" d="M333.536 40.2988C332.335 37.7259 330.516 35.5173 328.252 33.8858C325.989 32.2543 323.359 31.2549 320.615 30.984C317.871 30.7131 315.106 31.1798 312.587 32.3392C310.067 33.4985 307.878 35.3114 306.231 37.6031C304.268 34.2094 301.481 31.4083 298.149 29.4788C294.817 27.5493 291.056 26.5588 287.24 26.6057C283.424 26.6527 279.686 27.7356 276.399 29.7466C273.112 31.7575 270.391 34.6264 268.506 38.0674H267.763C264.993 38.0689 262.244 38.5829 259.648 39.5852C257.524 34.3707 254.056 29.8637 249.625 26.5589C245.194 23.2542 239.97 21.2793 234.527 20.8512C232.737 17.0479 230.036 13.7849 226.681 11.3749C223.327 8.96479 219.431 7.48839 215.369 7.0871C211.306 6.68581 207.212 7.37308 203.479 9.08307C199.746 10.7931 196.499 13.4685 194.049 16.853C191.137 11.8084 186.999 7.64408 182.05 4.77532C177.1 1.90657 171.512 0.433687 165.843 0.503598C160.173 0.57351 154.62 2.18377 149.738 5.17376C144.856 8.16375 140.815 12.4289 138.019 17.5439H136.927C129.955 17.5448 123.149 19.7432 117.411 23.8475C111.672 27.9519 107.272 33.7682 104.794 40.5253C104.357 40.4573 103.92 40.3894 103.483 40.3554C102.28 37.785 100.459 35.579 98.1961 33.9495C95.9329 32.32 93.3035 31.3218 90.5607 31.0511C87.818 30.7803 85.0542 31.246 82.5352 32.4034C80.0162 33.5608 77.8268 35.3709 76.1776 37.6597C74.2136 34.2687 71.4276 31.4701 68.0967 29.5424C64.7658 27.6147 61.0063 26.6251 57.1921 26.6721C53.3779 26.719 49.642 27.8009 46.3562 29.8101C43.0705 31.8193 40.3493 34.6856 38.4635 38.1241H37.7207C33.8814 38.1348 30.105 39.1353 26.7312 41.0356C23.3574 42.9359 20.4923 45.6764 18.3936 49.0103C16.2949 52.3442 15.0285 56.1671 14.7085 60.1346C14.3885 64.1022 15.0249 68.09 16.5603 71.7392C18.0958 75.3884 20.4821 78.5844 23.5046 81.0395C26.5271 83.4946 30.0908 85.1318 33.875 85.8037C37.6593 86.4757 41.5452 86.1613 45.1832 84.8888C48.8212 83.6163 52.0969 81.4258 54.7156 78.5142C57.2754 81.4048 60.7386 83.2632 64.4925 83.7607C68.2464 84.2581 72.0489 83.3626 75.2274 81.2326C76.7158 82.9158 78.5227 84.2629 80.5353 85.1901C82.5479 86.1172 84.723 86.6045 86.9252 86.6215C89.1274 86.6385 91.3093 86.1849 93.335 85.2889C95.3607 84.3929 97.1867 83.0738 98.6991 81.4138C103.588 82.28 108.613 81.2217 112.789 78.4463C116.045 81.8075 119.919 84.457 124.181 86.238C128.442 88.019 133.005 88.8953 137.599 88.8151C142.193 88.7348 146.725 87.6996 150.926 85.7707C155.127 83.8419 158.913 81.0585 162.059 77.5855C165.859 81.8794 171.002 84.6407 176.577 85.3807C182.152 86.1208 187.799 84.7918 192.52 81.629C194.732 84.127 197.416 86.1262 200.406 87.5021C203.395 88.878 206.625 89.6012 209.895 89.6267C213.165 89.6522 216.406 88.9795 219.414 87.6503C222.423 86.3212 225.136 84.3641 227.384 81.9008C235.12 83.2564 243.059 81.3834 249.468 76.6907C251.51 79.45 254.106 81.7161 257.076 83.3318C260.045 84.9474 263.319 85.8741 266.668 86.0476C270.018 86.2211 273.364 85.6372 276.474 84.3363C279.585 83.0355 282.385 81.049 284.681 78.5142C287.241 81.4048 290.704 83.2632 294.458 83.7607C298.212 84.2581 302.015 83.3626 305.193 81.2326C306.68 82.917 308.485 84.2653 310.497 85.1933C312.509 86.1213 314.684 86.609 316.886 86.626C319.087 86.643 321.269 86.1889 323.294 85.2921C325.319 84.3953 327.143 83.075 328.654 81.4138C331.323 81.8961 334.058 81.8109 336.694 81.1632C339.33 80.5156 341.811 79.3191 343.987 77.6464C346.164 75.9737 347.989 73.8597 349.354 71.4329C350.718 69.006 351.592 66.3168 351.923 63.5288C352.255 60.7408 352.036 57.912 351.281 55.2143C350.525 52.5166 349.249 50.0063 347.529 47.8358C345.81 45.6653 343.682 43.88 341.277 42.5882C338.871 41.2965 336.238 40.5253 333.536 40.3214V40.2988Z" fill="white"/>
<path d="M172.303 60.9471L165.346 80.1907H175.405L163.03 112.267L190.095 78.5937L179.272 73.7799L191.635 56.9375L172.303 60.9471Z" fill="#A8DADC"/>
<path d="M333.536 49.4619C332.335 46.8898 330.514 44.6821 328.25 43.0517C325.986 41.4213 323.356 40.4231 320.612 40.1534C317.868 39.8836 315.104 40.3514 312.585 41.5117C310.066 42.6719 307.878 44.4855 306.231 46.7775C304.269 43.3833 301.483 40.5814 298.152 38.6509C294.82 36.7205 291.059 35.7288 287.243 35.7746C283.427 35.8204 279.689 36.9022 276.402 38.9121C273.114 40.9221 270.392 43.7901 268.506 47.2306H267.763C264.992 47.2264 262.243 47.7406 259.648 48.7484C257.526 43.5331 254.058 39.0254 249.626 35.7205C245.195 32.4155 239.97 30.4412 234.527 30.0143C232.737 26.211 230.036 22.948 226.681 20.5379C223.327 18.1278 219.432 16.6514 215.369 16.2501C211.306 15.8488 207.213 16.5361 203.48 18.2461C199.747 19.9561 196.5 22.6315 194.05 26.016C191.138 20.9709 187.001 16.8057 182.052 13.936C177.103 11.0662 171.516 9.59223 165.846 9.66099C160.176 9.72976 154.623 11.3389 149.741 14.3279C144.858 17.3169 140.816 21.5813 138.019 26.6956H136.927C129.977 26.7137 123.197 28.915 117.478 33.0095C111.759 37.104 107.371 42.8994 104.892 49.6318C104.455 49.6318 104.018 49.4959 103.581 49.4619C102.377 46.8923 100.556 44.6872 98.292 43.0588C96.0284 41.4304 93.3987 40.4334 90.656 40.1638C87.9133 39.8942 85.1499 40.3609 82.6314 41.5192C80.113 42.6775 77.9244 44.4883 76.276 46.7775C74.313 43.3859 71.5277 40.5865 68.1974 38.6579C64.8671 36.7292 61.1078 35.7385 57.2936 35.7843C53.4794 35.8301 49.7433 36.9109 46.4569 38.919C43.1706 40.9272 40.4486 43.7928 38.5618 47.2306H37.8191C34.029 47.2261 30.296 48.1887 26.9494 50.0336C23.6028 51.8785 20.7453 54.549 18.6289 57.8096C20.5712 60.7954 23.1365 63.2896 26.1348 65.1074C29.1331 66.9251 32.4874 68.0198 35.9492 68.3103C39.4109 68.6007 42.8913 68.0795 46.1324 66.7853C49.3735 65.491 52.2921 63.4569 54.672 60.8337C57.2318 63.7243 60.695 65.5827 64.4489 66.0802C68.2027 66.5777 72.0053 65.6822 75.1838 63.5521C76.6722 65.2353 78.4791 66.5825 80.4917 67.5096C82.5043 68.4368 84.6795 68.924 86.8816 68.9411C89.0838 68.9581 91.2657 68.5044 93.2914 67.6084C95.3171 66.7125 97.1431 65.3933 98.6555 63.7333C103.545 64.5995 108.569 63.5412 112.745 60.7658C116.003 64.1242 119.877 66.7712 124.139 68.5504C128.4 70.3297 132.962 71.205 137.555 71.1248C142.148 71.0445 146.679 70.0103 150.881 68.0832C155.082 66.1561 158.868 63.3752 162.015 59.905C165.818 64.1952 170.961 66.9529 176.536 67.6908C182.11 68.4287 187.756 67.0991 192.477 63.9372C194.687 66.4374 197.37 68.4388 200.359 69.8167C203.348 71.1946 206.578 71.9194 209.849 71.9459C213.12 71.9725 216.361 71.3003 219.37 69.9711C222.379 68.642 225.092 66.6844 227.34 64.2204C228.979 64.5019 230.638 64.6458 232.299 64.6508C238.436 64.6505 244.421 62.6714 249.425 58.9875C251.468 61.7452 254.064 64.0098 257.033 65.6243C260.003 67.2389 263.276 68.1649 266.625 68.3383C269.974 68.5118 273.319 67.9285 276.43 66.6288C279.54 65.3291 282.341 63.3441 284.638 60.8111C287.198 63.7016 290.661 65.56 294.415 66.0575C298.169 66.555 301.971 65.6595 305.15 63.5294C306.636 65.2138 308.442 66.5621 310.454 67.4902C312.466 68.4182 314.64 68.9059 316.842 68.9229C319.044 68.9399 321.225 68.4858 323.25 67.589C325.275 66.6922 327.1 65.3719 328.611 63.7107C332.026 64.3165 335.535 63.9885 338.791 62.7591C342.047 61.5296 344.938 59.4411 347.178 56.6996C345.476 54.6205 343.395 52.9108 341.054 51.6687C338.713 50.4266 336.158 49.6766 333.536 49.4619Z" fill="#263238"/>
<path d="M69.3719 83.396L64.4023 119.108" stroke="#263238" stroke-linecap="round" stroke-linejoin="round"/>
<path d="M123.142 106.842L118.173 142.554" stroke="#263238" stroke-linecap="round" stroke-linejoin="round"/>
<path d="M57.3359 169.908L54.1357 192.923" stroke="#263238" stroke-linecap="round" stroke-linejoin="round"/>
<path d="M85.7012 140.119L82.501 163.146" stroke="#263238" stroke-linecap="round" stroke-linejoin="round"/>
<path d="M49.493 226.257L44.5234 261.981" stroke="#263238" stroke-linecap="round" stroke-linejoin="round"/>
<path d="M285.303 120.569L280.334 156.282" stroke="#263238" stroke-linecap="round" stroke-linejoin="round"/>
<path d="M37.7957 310.39L32.8262 346.114" stroke="#263238" stroke-linecap="round" stroke-linejoin="round"/>
<path d="M70.3883 397.683L67.625 417.516" stroke="#263238" stroke-linecap="round" stroke-linejoin="round"/>
<path d="M271.355 90.0671L268.603 109.911" stroke="#263238" stroke-linecap="round" stroke-linejoin="round"/>
<path d="M80.0211 220.299L77.2578 240.132" stroke="#263238" stroke-linecap="round" stroke-linejoin="round"/>
<path d="M21.3256 270.226L18.5732 290.07" stroke="#263238" stroke-linecap="round" stroke-linejoin="round"/>
<path d="M193.972 327.448L191.209 347.28" stroke="#263238" stroke-linecap="round" stroke-linejoin="round"/>
<path d="M135.648 409.825L132.896 429.67" stroke="#263238" stroke-linecap="round" stroke-linejoin="round"/>
<path d="M274.982 236.303L272.229 256.147" stroke="#263238" stroke-linecap="round" stroke-linejoin="round"/>
<path d="M300.878 171.504L298.114 191.349" stroke="#263238" stroke-linecap="round" stroke-linejoin="round"/>
<path d="M28.4469 143.913L25.6836 163.746" stroke="#263238" stroke-linecap="round" stroke-linejoin="round"/>
<path d="M237.956 283.943L235.192 303.787" stroke="#263238" stroke-linecap="round" stroke-linejoin="round"/>
<path d="M282.671 296.798L279.907 316.642" stroke="#263238" stroke-linecap="round" stroke-linejoin="round"/>
<path d="M251.258 393.368L248.495 413.212" stroke="#263238" stroke-linecap="round" stroke-linejoin="round"/>
<path d="M199.455 99.1284L196.691 118.973" stroke="#263238" stroke-linecap="round" stroke-linejoin="round"/>
<path d="M334.41 121.43L331.646 141.274" stroke="#263238" stroke-linecap="round" stroke-linejoin="round"/>
<path d="M322.81 204.771L320.058 224.603" stroke="#263238" stroke-linecap="round" stroke-linejoin="round"/>
<path d="M350.836 290.931L348.072 310.775" stroke="#263238" stroke-linecap="round" stroke-linejoin="round"/>
<path d="M336.342 353.057L333.579 372.9" stroke="#263238" stroke-linecap="round" stroke-linejoin="round"/>
<path d="M301.709 251.209L298.945 271.053" stroke="#263238" stroke-linecap="round" stroke-linejoin="round"/>
<path d="M239.714 116.979L236.951 136.823" stroke="#263238" stroke-linecap="round" stroke-linejoin="round"/>
<path d="M196.724 163.44L193.961 183.284" stroke="#263238" stroke-linecap="round" stroke-linejoin="round"/>
<path d="M249.216 158.275L246.453 178.119" stroke="#263238" stroke-linecap="round" stroke-linejoin="round"/>
<path d="M106.518 192.663L103.755 212.507" stroke="#263238" stroke-linecap="round" stroke-linejoin="round"/>
<path d="M94.1547 275.889L91.4023 295.722" stroke="#263238" stroke-linecap="round" stroke-linejoin="round"/>
<path d="M142.343 305.78L139.591 325.624" stroke="#263238" stroke-linecap="round" stroke-linejoin="round"/>
<path d="M308.655 323.37L302.921 364.644" stroke="#263238" stroke-linecap="round" stroke-linejoin="round"/>
<path d="M356.002 158.037L350.257 199.311" stroke="#263238" stroke-linecap="round" stroke-linejoin="round"/>
<path d="M121.209 321.365L115.475 362.639" stroke="#263238" stroke-linecap="round" stroke-linejoin="round"/>
<path d="M63.8892 341.844L61.126 361.688" stroke="#263238" stroke-linecap="round" stroke-linejoin="round"/>
<path d="M183.509 457.589C223.797 457.589 256.458 451.311 256.458 443.567C256.458 435.823 223.797 429.545 183.509 429.545C143.22 429.545 110.56 435.823 110.56 443.567C110.56 451.311 143.22 457.589 183.509 457.589Z" fill="#A8DADC"/>
<path opacity="0.5" d="M183.509 457.589C223.797 457.589 256.458 451.311 256.458 443.567C256.458 435.823 223.797 429.545 183.509 429.545C143.22 429.545 110.56 435.823 110.56 443.567C110.56 451.311 143.22 457.589 183.509 457.589Z" fill="white"/>
<path d="M147.893 258.096C147.893 258.096 151.726 262.524 153.649 264.959C155.571 267.395 160.475 266.285 160.475 266.285L165.161 269.162L168.787 262.966C168.787 262.966 165.587 259.432 163.883 257.88C162.179 256.329 158.334 253.452 155.145 253.893C151.956 254.335 147.674 254.562 147.893 258.096Z" fill="#A8DADC" stroke="#263238" stroke-linecap="round" stroke-linejoin="round"/>
<path d="M145.598 248.14L140.279 252.455C140.109 252.591 139.974 252.768 139.884 252.971C139.794 253.173 139.753 253.395 139.763 253.617C139.774 253.84 139.837 254.056 139.945 254.248C140.054 254.441 140.206 254.602 140.388 254.72L155.406 264.586C155.686 264.767 156.015 264.847 156.343 264.814C156.67 264.781 156.979 264.637 157.22 264.404L161.512 260.18C161.659 260.038 161.773 259.864 161.846 259.67C161.918 259.476 161.947 259.267 161.931 259.06C161.914 258.852 161.852 258.651 161.749 258.473C161.646 258.294 161.505 258.142 161.337 258.028L147.357 248.072C147.094 247.891 146.783 247.8 146.467 247.812C146.152 247.824 145.848 247.939 145.598 248.14Z" fill="#263238"/>
<path d="M146.898 249.76L142.802 252.908L155.319 261.879L159.873 258.515L146.898 249.76Z" fill="white" stroke="#263238" stroke-linecap="round" stroke-linejoin="round"/>
<path d="M163.882 257.88C163.882 257.88 158.76 251.028 157.056 251.028C155.281 251.243 153.554 251.764 151.944 252.568C150.852 253.01 148.744 254.562 150.852 255.23C152.623 255.564 154.443 255.487 156.182 255.004C156.182 255.004 159.677 261.131 161.938 261.414" fill="#A8DADC"/>
<path d="M163.882 257.88C163.882 257.88 158.76 251.028 157.056 251.028C155.281 251.243 153.554 251.764 151.944 252.568C150.852 253.01 148.744 254.562 150.852 255.23C152.623 255.564 154.443 255.487 156.182 255.004C156.182 255.004 159.677 261.131 161.938 261.414" stroke="#263238" stroke-linecap="round" stroke-linejoin="round"/>
<path d="M166.012 260.316L161.534 269.377C161.534 269.377 182.013 283.977 194.17 282.391L196.299 269.128C196.299 269.128 176.891 265.617 166.012 260.316Z" fill="#A8DADC" stroke="#263238" stroke-linecap="round" stroke-linejoin="round"/>
<path d="M218.482 325.522C218.482 325.522 215.348 345.038 217.303 356.818C219.258 368.597 221.617 371.451 223.965 379.176C226.313 386.901 226.313 396.653 226.313 396.653L218.81 397.468C218.81 397.468 209.078 374.294 208.292 355.198C207.506 336.101 211.034 324.718 211.034 324.718L218.482 325.522Z" fill="#A8DADC" stroke="#263238" stroke-linecap="round" stroke-linejoin="round"/>
<path d="M216.079 394.523C216.079 394.523 227.995 392.19 228.312 393.855C228.628 395.52 227.995 396.868 229.6 397.536C231.206 398.204 229.284 399.869 229.284 401.874C229.284 403.879 230.245 405.272 231.217 407.22C232.189 409.168 228.912 411.275 228.912 412.646C228.995 414.142 229.323 415.613 229.884 416.995C230.529 419 230.201 418.66 228.912 420.665C227.623 422.67 230.529 426.679 229.884 428.684C229.24 430.689 226.662 431.017 227.623 432.354C228.793 434.38 229.458 436.677 229.557 439.036C229.557 441.041 227.307 445.719 227.307 445.719C224.96 446.119 222.565 446.119 220.218 445.719L212.529 444.36C209.129 445.046 205.688 445.493 202.229 445.696C198.68 445.696 194.813 441.687 196.768 441.347C201.853 439.894 206.811 437.999 211.59 435.684C214.484 434.019 213.195 430.338 213.195 427.665C213.195 424.992 215.129 423.666 215.129 421.662C215.129 419.657 212.234 416.984 211.906 415.307C211.579 413.631 212.234 412.306 212.234 411.309C212.234 410.312 210.301 409.304 210.301 407.911C210.301 406.518 212.551 402.894 212.551 402.894C211.944 401.799 211.408 400.664 210.945 399.496C210.717 398.402 210.607 397.285 210.618 396.166C210.618 396.166 209.951 394.523 216.079 394.523Z" fill="#263238" stroke="#263238" stroke-linecap="round" stroke-linejoin="round"/>
<path d="M222.665 324.163C219.787 330.047 217.938 336.413 217.204 342.965C216.111 353.329 215.358 362.594 218.296 369.13C221.234 375.665 222.763 385.213 222.239 389.291C221.714 393.368 220.054 400.742 220.054 400.742L204.643 398.556C204.643 398.556 205.375 379.448 200.646 368.28C195.916 357.112 196.146 335.626 196.146 327.697C196.074 323.876 196.249 320.054 196.67 316.258L224.281 320.086L222.665 324.163Z" fill="#A8DADC" stroke="#263238" stroke-linecap="round" stroke-linejoin="round"/>
<path d="M221.551 396.573C221.551 396.573 203.835 392.903 202.23 394.24C200.624 395.577 200.296 398.578 200.296 398.578C200.296 398.578 198.68 402.248 199.652 403.256C200.624 404.264 202.23 406.257 202.23 406.257C202.23 406.257 199.969 408.93 200.296 409.939C200.624 410.947 202.874 412.272 202.874 413.269C202.874 414.265 200.613 415.613 200.941 417.278C201.268 418.943 202.546 420.959 202.546 422.624C202.546 424.289 201.258 428.967 200.296 432.648C199.335 436.329 199.324 436.986 196.43 439.988C193.536 442.989 180.647 443.997 180.647 446.342C180.647 448.686 193.841 451.348 203.191 449.343C210.76 447.724 218.012 450.012 218.657 447.01C219.301 444.009 221.223 439.988 220.906 437.949C220.59 435.91 218.329 433.939 218.329 431.935C218.329 429.93 220.579 425.92 220.906 424.584C221.234 423.247 218.329 420.914 218.657 419.906C218.984 418.898 221.223 418.909 221.223 415.896C221.223 412.883 219.301 411.887 220.262 410.561C221.223 409.236 223.484 405.884 223.484 404.898C223.484 403.913 221.868 401.897 221.868 401.897C221.868 401.897 223.156 398.238 221.551 396.573Z" fill="#263238" stroke="#263238" stroke-linecap="round" stroke-linejoin="round"/>
<path d="M191.919 238.954C191.919 238.954 186.349 249.148 186.535 252.546C186.72 255.944 192.378 268.46 192.378 269.977C192.378 270.419 187.07 281.304 184.514 291.192C178.256 315.408 170.981 352.468 170.981 352.468C170.981 352.468 195.709 357.78 210.148 358.347C219.294 358.574 228.401 357.038 237.006 353.816L228.017 302.337C227.787 301.028 227.481 299.734 227.099 298.463L221.267 278.676L230.933 242.601C230.933 242.601 220.568 223.754 212.529 222.621C204.491 221.489 193.568 235.952 191.919 238.954Z" fill="#E63946" stroke="#263238" stroke-linecap="round" stroke-linejoin="round"/>
<path d="M236.067 349.704C228.374 352.258 220.398 353.78 212.333 354.235" stroke="#263238" stroke-linecap="round" stroke-linejoin="round"/>
<path d="M216.014 280.749C216.014 280.749 220.088 288.235 222.283 308.408" stroke="#263238" stroke-linecap="round" stroke-linejoin="round"/>
<path d="M212.245 282.052C212.245 282.052 214.43 292.46 214.43 298.645" stroke="#263238" stroke-linecap="round" stroke-linejoin="round"/>
<path d="M191.22 286.604C191.22 286.604 186.851 299.619 185.879 307.105" stroke="#263238" stroke-linecap="round" stroke-linejoin="round"/>
<path d="M207.735 354.269C207.735 354.269 200.657 353.872 196.452 353.136" stroke="#263238" stroke-linecap="round" stroke-linejoin="round"/>
<path d="M191.22 352.615C191.22 352.615 179.402 351.483 173.089 349.455" stroke="#263238" stroke-linecap="round" stroke-linejoin="round"/>
<path d="M194.409 234.446C193.649 232.732 193.33 230.844 193.481 228.964C193.787 226.065 202.492 216.403 209.329 214.783C216.166 213.164 218.34 216.72 218.951 218.974C219.563 221.228 220.197 224.773 218.951 225.77C217.706 226.767 206.839 229.95 202.798 232.215C198.756 234.48 194.726 235.409 194.409 234.446Z" fill="#A8DADC" stroke="#263238" stroke-linecap="round" stroke-linejoin="round"/>
<path d="M201.247 218.657C201.247 218.657 208.03 216.618 210.258 219.619C217.325 229.134 221.442 245.399 221.442 257.314C221.442 262.151 222.065 264.405 222.993 264.405C223.921 264.405 229.546 258.288 229.546 258.288C229.546 258.288 228.607 244.436 225.178 234.763C221.748 225.09 216.44 216.074 213.371 214.783C210.302 213.492 202.175 216.403 201.247 218.657Z" fill="#A8DADC" stroke="#263238" stroke-linecap="round" stroke-linejoin="round"/>
<path d="M173.133 184.983C173.133 184.983 175.82 199.979 167.279 203.853C158.737 207.727 149.115 208.769 145.904 216.006C142.693 223.244 150.786 227.333 158.683 225.464C166.579 223.595 165.116 220.435 168.316 228.182C171.516 235.93 175.841 236.53 185.398 231.512C194.955 226.495 203.562 217.048 201.41 199.957C199.259 182.865 177.698 174.631 173.133 184.983Z" fill="#263238" stroke="#263238" stroke-linecap="round" stroke-linejoin="round"/>
<path d="M173.111 196.412C172.654 198.913 172.438 201.455 172.467 204C172.696 206.673 174.182 208.961 174.062 210.581C173.941 212.201 171.779 215.769 172.347 216.244C172.915 216.72 175.623 216.879 175.623 216.879C175.623 216.879 179.468 222.451 180.517 224.105C181.565 225.759 182.876 227.39 184.634 226.687C186.393 225.985 189.888 222.361 189.888 222.361C189.888 222.361 194.726 223.289 197.533 225.759C200.012 228.218 202.275 230.902 204.294 233.778L210.345 220.299C210.345 220.299 205.091 216.482 203.125 214.772C201.275 213.015 199.514 211.158 197.85 209.211C197.85 209.211 201.05 204.068 197.61 201.826C194.606 199.866 193.328 203.298 192.618 204.17L191.919 205.042C191.919 205.042 189.626 202.562 187.78 202.188C185.934 201.814 182.581 203.615 179.566 201.735C177.255 200.18 175.093 198.397 173.111 196.412Z" fill="#D4B48F" stroke="#263238" stroke-linecap="round" stroke-linejoin="round"/>
<path d="M176.049 207.013L177.338 209.788C177.338 209.788 179.031 209.471 179.522 208.237" stroke="#263238" stroke-width="0.75" stroke-linecap="round" stroke-linejoin="round"/>
<path d="M174.946 204.238C175.015 203.962 175.145 203.706 175.325 203.49C175.505 203.275 175.731 203.106 175.985 202.996C176.239 202.886 176.514 202.839 176.789 202.858C177.063 202.877 177.33 202.962 177.568 203.106" stroke="#263238" stroke-width="0.75" stroke-linecap="round" stroke-linejoin="round"/>
<path d="M179.217 219.257C179.896 219.145 180.539 218.864 181.09 218.438C181.642 218.012 182.086 217.453 182.384 216.811" stroke="#263238" stroke-width="0.75" stroke-linecap="round" stroke-linejoin="round"/>
<path d="M233.871 196.74C231.511 194.735 228.604 193.547 225.559 193.342C225.406 193.206 225.253 193.07 225.101 192.957C221.605 190.08 212.442 189.038 205.037 191.043C203.86 190.316 202.876 189.296 202.175 188.076C199.379 182.922 195.96 178.414 187.572 178.414C179.184 178.414 168.622 184.213 167.071 190.975C166.055 195.37 169.496 196.774 172.03 197.216C172.813 197.577 173.692 197.649 174.52 197.42C174.52 197.42 176.388 202.573 181.357 203.219C186.327 203.865 187.747 202.222 192.585 204.204C193.457 204.522 194.237 205.063 194.852 205.778C195.467 206.494 195.898 207.359 196.102 208.293C196.319 210.743 196.07 213.214 195.37 215.565C193.055 223.493 187.725 222.077 183.138 232.69C178.55 243.303 180.495 254.279 186.775 248.457C193.055 242.635 206.205 229.428 204.316 233.789C202.426 238.15 206.598 241.264 215.238 236.802C223.877 232.339 220.186 240.2 229.437 238.863C244.564 236.587 242.565 204.42 233.871 196.74Z" fill="#263238" stroke="#263238" stroke-linecap="round" stroke-linejoin="round"/>
<path d="M188.905 207.285C188.905 207.285 187.737 202.755 190.576 201.735C193.416 200.716 195.426 206.934 195.087 209.369C194.748 211.804 191.417 213.356 191.417 213.356" fill="#D4B48F"/>
<path d="M188.905 207.285C188.905 207.285 187.737 202.755 190.576 201.735C193.416 200.716 195.426 206.934 195.087 209.369C194.748 211.804 191.417 213.356 191.417 213.356" stroke="#263238" stroke-linecap="round" stroke-linejoin="round"/>
<path d="M167.999 261.256L167.584 268.766C167.584 268.766 166.219 276.807 170.632 275.142C174.673 273.625 173.362 264.745 173.362 264.745" stroke="#263238" stroke-width="3" stroke-linecap="round" stroke-linejoin="round"/>
<path d="M174.313 147.402L168 261.256" stroke="#263238" stroke-width="2" stroke-linecap="round" stroke-linejoin="round"/>
<path d="M174.597 244.21L173.21 238.898C172.982 237.931 172.436 237.078 171.666 236.484C170.897 235.891 169.951 235.595 168.994 235.647C168.74 235.64 168.488 235.694 168.257 235.804C168.026 235.914 167.822 236.077 167.661 236.281C166.733 237.776 174.597 244.21 174.597 244.21Z" fill="#A8DADC" stroke="#263238" stroke-linecap="round" stroke-linejoin="round"/>
<path d="M172.992 240.812C172.992 240.812 168.797 235.862 166.919 235.454C166.076 235.381 165.238 235.649 164.582 236.202C163.198 237.172 162.14 238.566 161.556 240.189C160.846 242.126 160.016 245.082 160.584 247.302C161.501 250.892 164.756 252.603 166.253 253.259C167.142 253.657 168.063 253.971 169.005 254.2L172.424 260.01L180.266 251.866L172.992 240.812Z" fill="#A8DADC" stroke="#263238" stroke-linecap="round" stroke-linejoin="round"/>
<path d="M216.198 243.088C218.437 248.751 217.476 261.347 216.198 264.325C214.92 267.304 204.992 289.55 198.592 288.553C192.191 287.556 186.435 279.922 182.919 275.946C179.402 271.971 168.72 259.636 168.72 259.636L178.102 246.044L192.869 263L196.386 265.99C196.386 265.99 195.752 242.091 202.469 238.104" fill="#E63946"/>
<path d="M216.198 243.088C218.437 248.751 217.476 261.347 216.198 264.325C214.92 267.304 204.992 289.55 198.592 288.553C192.191 287.556 186.435 279.922 182.919 275.947C179.402 271.971 168.72 259.636 168.72 259.636L178.102 246.044L192.869 263L196.386 265.99C196.386 265.99 195.752 242.091 202.469 238.104" stroke="#263238" stroke-linecap="round" stroke-linejoin="round"/>
<path d="M178.55 262.638C178.55 262.339 178.464 262.048 178.304 261.8C178.144 261.552 177.917 261.359 177.651 261.245C177.385 261.131 177.092 261.102 176.81 261.161C176.528 261.22 176.269 261.365 176.066 261.577C175.863 261.788 175.726 262.058 175.671 262.351C175.616 262.644 175.647 262.947 175.758 263.222C175.87 263.497 176.058 263.731 176.298 263.896C176.538 264.06 176.82 264.146 177.108 264.144C177.298 264.144 177.487 264.105 177.662 264.029C177.838 263.953 177.998 263.842 178.132 263.702C178.266 263.562 178.372 263.396 178.443 263.213C178.515 263.031 178.551 262.835 178.55 262.638Z" fill="#263238" stroke="#263238" stroke-linecap="round" stroke-linejoin="round"/>
<path d="M169.496 139.813C169.496 139.813 143.141 141.727 127.992 147.493C112.843 153.258 99.8457 172.343 99.8457 172.343C99.8457 172.343 103.712 181.404 99.7256 189.48C99.7256 189.48 137.582 192.991 155.996 205.643C155.996 205.643 198.069 193.297 229.393 201.282C229.393 201.282 238.131 185.584 255.137 181.823C249.159 173.329 242.184 165.639 234.374 158.932C221.857 148.444 188.239 141.569 169.496 139.813Z" fill="#263238"/>
<path opacity="0.15" d="M227.559 200.84C221.879 185.414 205.561 149.373 174.717 141.127L171.55 146.87C164.778 165.941 159.604 185.582 156.084 205.575C158.574 204.884 197.446 194.045 227.559 200.84Z" fill="white"/>
<path opacity="0.1" d="M99.7582 189.31C99.7582 189.367 99.7582 189.423 99.6818 189.48C99.6053 189.537 137.538 192.991 155.953 205.643H156.084C159.603 185.65 164.778 166.009 171.549 146.938L174.717 141.195C131.706 147.493 106.202 180.09 99.7582 189.31Z" fill="white"/>
<path opacity="0.39" d="M255.126 181.823C249.151 173.329 242.18 165.64 234.374 158.932C223.135 149.463 194.77 142.939 175.547 140.458C176.017 140.855 176.552 141.308 177.131 141.818C206.446 151.23 222.064 185.799 227.602 200.829L229.393 201.248C229.393 201.248 238.076 185.584 255.126 181.823Z" fill="white"/>
<path d="M169.496 139.813C169.496 139.813 143.141 141.727 127.992 147.493C112.843 153.258 99.8457 172.343 99.8457 172.343C99.8457 172.343 103.712 181.404 99.7256 189.48C99.7256 189.48 137.582 192.991 155.996 205.643C155.996 205.643 198.069 193.297 229.393 201.282C229.393 201.282 238.131 185.584 255.137 181.823C249.159 173.329 242.184 165.639 234.374 158.932C221.857 148.444 188.239 141.569 169.496 139.813Z" stroke="#263238" stroke-linecap="round" stroke-linejoin="round"/>
<path d="M174.782 141.104L175.405 135.645" stroke="#263238" stroke-width="2" stroke-linecap="round" stroke-linejoin="round"/>
<path d="M355.538 187.035L355.833 189.612C355.944 190.591 355.797 191.583 355.408 192.483C355.018 193.383 354.401 194.157 353.622 194.722L351.516 196.207L355.538 196.152L355.244 197.124C354.863 198.385 354.244 199.554 353.424 200.565C352.603 201.575 351.597 202.406 350.463 203.009L349.621 203.457L352.853 203.85L351.8 205.128C350.452 206.804 348.597 207.959 346.536 208.403L346.115 208.502C346.115 208.502 347.547 211.592 355.665 212.946C351.431 215.014 346.666 215.604 342.082 214.627C335.438 213.263 329.278 209.026 326.488 202.616C324.822 199.155 324.483 195.167 325.54 191.457C324.381 190.143 323.292 188.765 322.276 187.329L322.476 186.86L326.119 188.88C326.119 188.88 322.845 184.971 323.066 184.283C323.066 184.283 326.835 186.467 327.204 186.369C327.572 186.27 331.721 181.248 336.522 184.993C341.324 188.738 339.765 193.564 339.765 193.564C339.765 193.564 347.262 194.896 355.538 187.035Z" fill="#455A64"/>
<path d="M308.093 95.5103L308.388 98.0981C308.497 99.0758 308.349 100.066 307.96 100.964C307.57 101.861 306.954 102.633 306.177 103.197L304.071 104.682H308.156L307.862 105.654C307.479 106.914 306.858 108.082 306.035 109.091C305.213 110.099 304.205 110.928 303.071 111.529L302.239 111.976L305.461 112.38L304.408 113.647C303.06 115.324 301.205 116.479 299.143 116.923L298.712 117.01C298.712 117.01 300.144 120.1 308.272 121.454C304.037 123.528 299.266 124.118 294.679 123.136C288.035 121.771 281.875 117.545 279.085 111.125C277.421 107.666 277.083 103.683 278.137 99.9762C276.982 98.6584 275.896 97.2769 274.884 95.8378L275.084 95.3792L278.716 97.3884C278.716 97.3884 275.442 93.4793 275.663 92.7914C275.663 92.7914 279.443 95.0298 279.811 94.877C280.18 94.7241 284.402 89.745 289.204 93.5121C294.005 97.2792 292.457 102.073 292.457 102.073C292.457 102.073 299.828 103.339 308.093 95.5103Z" fill="#A8DADC"/>
<path d="M175.676 108.023L175.939 110.316C176.04 111.185 175.912 112.066 175.567 112.864C175.221 113.662 174.673 114.348 173.981 114.848L172.159 116.169H175.739L175.476 117.032C175.141 118.147 174.597 119.183 173.874 120.079C173.151 120.975 172.264 121.713 171.264 122.251L170.516 122.655L173.38 122.994L172.475 124.085C171.285 125.558 169.654 126.577 167.842 126.979L167.463 127.056C167.463 127.056 168.726 129.796 175.886 131.008C172.13 132.848 167.898 133.369 163.83 132.493C157.923 131.281 152.459 127.525 149.984 121.847C148.509 118.774 148.208 115.237 149.142 111.943C148.111 110.774 147.145 109.545 146.246 108.264L146.425 107.86L149.658 109.65C149.658 109.65 146.741 106.178 146.941 105.566C146.941 105.566 150.289 107.543 150.616 107.423C150.942 107.303 154.628 102.88 158.892 106.2C163.156 109.519 161.777 113.843 161.777 113.843C161.777 113.843 168.347 115.001 175.676 108.023Z" fill="#455A64"/>
<path d="M47.5546 171.726L47.8178 174.019C47.9145 174.888 47.7826 175.768 47.4359 176.566C47.0892 177.364 46.5408 178.05 45.8488 178.55L44.0272 179.872H47.6178L47.3545 180.734C47.0191 181.849 46.4743 182.884 45.7515 183.78C45.0286 184.676 44.1421 185.415 43.1428 185.954L42.3952 186.358L45.2697 186.707L44.3537 187.799C43.147 189.284 41.4924 190.304 39.6576 190.693L39.2785 190.769C39.2785 190.769 40.542 193.51 47.7652 194.722C44.0046 196.56 39.7696 197.082 35.6985 196.207C29.7915 194.995 24.3268 191.239 21.8524 185.56C20.3768 182.488 20.076 178.95 21.01 175.657C19.9822 174.488 19.0156 173.264 18.1144 171.988C18.1881 171.802 18.2934 171.573 18.2934 171.573L21.526 173.364C21.526 173.364 18.6093 169.891 18.8094 169.28C18.8094 169.28 22.1577 171.256 22.4947 171.136C22.8316 171.016 26.4958 166.594 30.7602 169.913C35.0246 173.233 33.6453 177.557 33.6453 177.557C33.6453 177.557 40.2156 178.681 47.5546 171.726Z" fill="#A8DADC"/>
<path d="M361.267 314.407L361.53 316.7C361.633 317.569 361.504 318.45 361.159 319.248C360.814 320.047 360.265 320.733 359.572 321.231L357.75 322.553H361.33L361.077 323.415C360.742 324.532 360.197 325.568 359.475 326.466C358.752 327.364 357.865 328.104 356.866 328.645L356.118 329.038L358.982 329.399L358.077 330.491C356.888 331.964 355.256 332.979 353.444 333.373L353.065 333.45C353.065 333.45 354.328 336.201 361.488 337.402C357.731 339.242 353.5 339.763 349.432 338.887C343.525 337.686 338.06 333.93 335.586 328.241C334.11 325.169 333.809 321.631 334.743 318.338C333.716 317.169 332.749 315.945 331.848 314.669L332.027 314.254L335.259 316.045C335.259 316.045 332.343 312.572 332.543 311.961C332.543 311.961 335.891 313.948 336.218 313.817C336.544 313.686 340.229 309.275 344.494 312.594C348.758 315.914 347.379 320.238 347.379 320.238C347.379 320.238 353.938 321.384 361.267 314.407Z" fill="#A8DADC"/>
<path d="M95.5791 272.336L95.7476 273.81C95.8101 274.367 95.7256 274.932 95.5031 275.443C95.2805 275.955 94.9284 276.394 94.4841 276.714L93.3153 277.566H95.6212L95.4527 278.112C95.2357 278.83 94.8828 279.497 94.4146 280.073C93.9463 280.648 93.3722 281.121 92.7256 281.464L92.2518 281.715L94.0839 281.944L93.5048 282.676C92.738 283.619 91.689 284.268 90.525 284.521L90.2828 284.576C90.2828 284.576 91.0936 286.334 95.7265 287.109C92.7542 288.512 89.3773 288.684 86.2867 287.59C83.1961 286.496 80.6254 284.218 79.1006 281.224C78.1582 279.254 77.9665 276.989 78.5637 274.88C77.9048 274.129 77.2861 273.342 76.7105 272.521L76.8263 272.259L78.9322 273.406C78.9322 273.406 77.0685 271.222 77.1948 270.785C77.9447 271.255 78.7341 271.653 79.5534 271.975C79.764 271.888 82.1226 269.06 84.8181 271.189C85.5804 271.699 86.1692 272.445 86.5017 273.32C86.8341 274.196 86.8934 275.158 86.6713 276.07C86.6713 276.07 90.8725 276.812 95.5791 272.336Z" fill="#A8DADC"/>
<path d="M55.9574 359.132L56.3681 360.224C56.5295 360.631 56.5805 361.076 56.5155 361.511C56.4506 361.946 56.2721 362.354 55.9995 362.692L55.2835 363.587L57.0209 363.085V363.532C56.9986 364.122 56.8644 364.702 56.6259 365.237C56.3874 365.773 56.0493 366.255 55.631 366.655L55.3151 366.95L56.7471 366.732L56.4523 367.398C56.0624 368.275 55.4033 368.993 54.5781 369.44L54.3991 369.527C54.3991 369.527 55.3678 370.684 59.0215 370.269C57.0599 371.955 54.5532 372.802 52.0108 372.64C49.4683 372.478 47.0808 371.318 45.3333 369.396C44.2196 368.112 43.6175 366.438 43.6486 364.712C43.0043 364.288 42.3822 363.828 41.7848 363.336V363.107L43.5748 363.532C43.5748 363.532 41.7217 362.244 41.7427 361.927C42.403 362.125 43.08 362.256 43.7644 362.32C43.9013 362.211 45.1227 359.569 47.6181 360.584C48.291 360.81 48.88 361.246 49.3042 361.832C49.7285 362.419 49.9671 363.127 49.9872 363.86C49.9872 363.86 53.2935 363.522 55.9574 359.132Z" fill="#263238"/>
<path d="M417.915 258.206L418.336 259.297C418.497 259.705 418.548 260.15 418.484 260.585C418.419 261.02 418.24 261.428 417.968 261.765L417.252 262.65L418.989 262.147V262.606C418.972 263.195 418.84 263.774 418.601 264.309C418.362 264.844 418.021 265.323 417.599 265.718L417.294 266.013L418.726 265.794L418.431 266.46C418.038 267.339 417.375 268.057 416.546 268.502L416.378 268.59C416.378 268.59 417.346 269.747 421 269.343C419.408 270.748 417.421 271.583 415.335 271.723C413.835 271.874 412.323 271.656 410.919 271.087C409.516 270.518 408.262 269.614 407.259 268.448C406.153 267.16 405.555 265.487 405.585 263.763C404.938 263.343 404.316 262.884 403.721 262.388V262.158L405.511 262.584C405.511 262.584 403.658 261.307 403.679 260.979C404.339 261.176 405.016 261.308 405.701 261.372C405.838 261.263 407.059 258.62 409.544 259.647C410.22 259.867 410.813 260.302 411.24 260.889C411.667 261.476 411.906 262.187 411.924 262.923C411.924 262.923 415.261 262.606 417.915 258.206Z" fill="#A8DADC"/>
<path d="M251.508 370.695L251.93 371.787C252.089 372.195 252.139 372.639 252.074 373.074C252.009 373.508 251.832 373.916 251.561 374.255L250.845 375.139L252.582 374.637V375.096C252.561 375.684 252.427 376.262 252.189 376.796C251.95 377.331 251.611 377.81 251.193 378.208L250.877 378.502L252.319 378.284L252.014 378.95C251.634 379.834 250.972 380.555 250.14 380.992L249.971 381.079C249.971 381.079 250.929 382.237 254.583 381.833C252.994 383.237 251.011 384.071 248.929 384.213C247.428 384.373 245.913 384.159 244.508 383.589C243.104 383.02 241.85 382.111 240.853 380.937C239.745 379.651 239.147 377.978 239.179 376.253C238.53 375.83 237.905 375.371 237.304 374.877V374.648L239.105 375.074C239.105 375.074 237.252 373.796 237.262 373.469C237.923 373.665 238.6 373.797 239.284 373.862C239.431 373.753 240.642 371.11 243.138 372.137C243.813 372.358 244.405 372.792 244.829 373.38C245.254 373.967 245.491 374.678 245.507 375.412C245.507 375.412 248.845 375.096 251.508 370.695Z" fill="#263238"/>
<path d="M359.435 97.5742L359.856 98.6661C360.016 99.076 360.065 99.5233 359.998 99.9599C359.931 100.397 359.751 100.806 359.477 101.145L358.761 102.029L360.498 101.527V101.985C360.476 102.574 360.342 103.151 360.103 103.685C359.865 104.219 359.527 104.699 359.109 105.097L358.793 105.392L360.225 105.174L359.93 105.84C359.544 106.719 358.884 107.439 358.056 107.882L357.887 107.969C357.887 107.969 358.845 109.126 362.499 108.722C360.91 110.126 358.927 110.961 356.845 111.103C355.345 111.254 353.832 111.036 352.429 110.467C351.026 109.897 349.772 108.993 348.769 107.827C347.664 106.536 347.073 104.858 347.116 103.132C347.116 103.132 345.231 101.844 345.241 101.756V101.527L347.042 101.953C347.042 101.953 345.178 100.675 345.199 100.348C345.86 100.544 346.537 100.676 347.221 100.741C347.368 100.632 348.579 97.9891 351.075 99.0046C351.749 99.2271 352.34 99.6622 352.765 100.249C353.189 100.837 353.427 101.546 353.444 102.28C353.444 102.28 356.771 101.964 359.435 97.5742Z" fill="#263238"/>
<path d="M223.469 121.432L223.89 122.524C224.048 122.933 224.096 123.378 224.029 123.812C223.963 124.247 223.784 124.654 223.511 124.992L222.795 125.887L224.533 125.385V125.843C224.51 126.432 224.376 127.009 224.137 127.543C223.899 128.077 223.561 128.557 223.143 128.955L222.827 129.25L224.259 129.032L223.964 129.698C223.574 130.575 222.915 131.293 222.09 131.74L221.911 131.827C221.911 131.827 222.88 132.984 226.533 132.57C224.575 134.262 222.066 135.115 219.522 134.952C216.977 134.79 214.589 133.625 212.845 131.696C211.731 130.414 211.132 128.738 211.171 127.012C210.523 126.588 209.898 126.128 209.297 125.636V125.407L211.097 125.833C211.097 125.833 209.234 124.555 209.255 124.227C209.915 124.425 210.592 124.557 211.276 124.62C211.413 124.511 212.634 121.869 215.13 122.884C215.803 123.11 216.392 123.546 216.816 124.132C217.24 124.719 217.479 125.427 217.499 126.16C217.499 126.16 220.763 125.822 223.469 121.432Z" fill="#455A64"/>
<path d="M102.339 177.426L102.76 178.517C102.921 178.925 102.972 179.37 102.907 179.805C102.842 180.24 102.664 180.648 102.391 180.985L101.675 181.87L103.413 181.367V181.826C103.396 182.415 103.264 182.995 103.025 183.529C102.786 184.064 102.445 184.543 102.023 184.938L101.718 185.233L103.149 185.015L102.855 185.692C102.464 186.569 101.8 187.284 100.97 187.723L100.801 187.81C100.801 187.81 101.77 188.967 105.424 188.563C103.458 190.263 100.939 191.119 98.3839 190.954C95.8289 190.79 93.4315 189.618 91.6831 187.679C90.5751 186.392 89.9771 184.719 90.0089 182.994C89.3623 182.574 88.74 182.115 88.1452 181.619V181.4L89.9352 181.815C89.9352 181.815 88.0821 180.538 88.1031 180.21C88.7634 180.407 89.4403 180.539 90.1248 180.603C90.2616 180.494 91.483 177.851 93.9679 178.878C94.6436 179.1 95.2357 179.535 95.6622 180.122C96.0886 180.709 96.3282 181.419 96.3476 182.154C96.3476 182.154 99.6748 181.826 102.339 177.426Z" fill="#455A64"/>
<path d="M138.107 329.792L138.528 330.884C138.687 331.291 138.737 331.736 138.672 332.17C138.607 332.605 138.43 333.013 138.16 333.351L137.444 334.236L139.181 333.734V334.192C139.164 334.781 139.032 335.361 138.793 335.896C138.554 336.43 138.213 336.91 137.791 337.304L137.486 337.599L138.918 337.381L138.623 338.058C138.232 338.935 137.569 339.65 136.738 340.089L136.57 340.176C136.57 340.176 137.528 341.333 141.182 340.929C139.22 342.615 136.713 343.462 134.171 343.3C131.628 343.138 129.241 341.978 127.493 340.056C126.389 338.767 125.792 337.095 125.819 335.371C125.171 334.945 124.545 334.482 123.945 333.985V333.766L125.735 334.181C125.735 334.181 123.882 332.904 123.892 332.576C124.553 332.773 125.23 332.904 125.914 332.969C126.061 332.86 127.272 330.218 129.768 331.244C130.443 331.465 131.035 331.9 131.46 332.487C131.884 333.075 132.121 333.786 132.137 334.52C132.137 334.52 135.475 334.192 138.107 329.792Z" fill="#455A64"/>
<path d="M304.724 278.286L305.145 279.378C305.307 279.785 305.358 280.23 305.293 280.665C305.228 281.1 305.049 281.508 304.777 281.846L304.061 282.73L305.798 282.228V282.687C305.776 283.275 305.641 283.852 305.403 284.387C305.164 284.921 304.826 285.401 304.408 285.799L304.092 286.093L305.524 285.875L305.23 286.541C304.84 287.418 304.181 288.136 303.355 288.583L303.176 288.67C303.176 288.67 304.145 289.828 307.799 289.424C306.207 290.829 304.22 291.664 302.134 291.804C300.636 291.954 299.125 291.736 297.723 291.167C296.322 290.598 295.07 289.694 294.068 288.529C292.955 287.245 292.353 285.571 292.384 283.844C291.737 283.424 291.115 282.964 290.52 282.468V282.239L292.31 282.665C292.31 282.665 290.457 281.387 290.478 281.06C291.138 281.257 291.815 281.389 292.5 281.453C292.636 281.344 293.858 278.701 296.353 279.727C297.028 279.95 297.619 280.385 298.043 280.972C298.468 281.56 298.705 282.27 298.722 283.003C298.722 283.003 302.071 282.676 304.724 278.286Z" fill="#455A64"/>
</svg>
