<svg xmlns="http://www.w3.org/2000/svg" viewBox="0 0 500 500"><g id="freepik--background-complete--inject-69"><path d="M81.16,129.58c-.13.06-5.3-10.28-11.54-23.1S58.42,83.21,58.55,83.14s5.3,10.28,11.54,23.11S81.29,129.51,81.16,129.58Z" style="fill:#e0e0e0"></path><path d="M187,165.6a6,6,0,0,1-.62-1.06c-.41-.79-.93-1.78-1.53-2.95-1.28-2.51-3-6-4.88-9.84s-3.55-7.36-4.74-9.9c-.54-1.21-1-2.22-1.38-3a6.23,6.23,0,0,1-.44-1.14,5.9,5.9,0,0,1,.63,1l1.53,3c1.27,2.51,3,6,4.87,9.84s3.55,7.36,4.74,9.91l1.38,3A5.13,5.13,0,0,1,187,165.6Z" style="fill:#e0e0e0"></path><path d="M51.92,48.71H154.43S145.37,32.21,119,34.62c-25.2,2.29-26.48-8.12-39.29-9.4S56.2,33.76,51.92,48.71Z" style="fill:#ebebeb"></path><path d="M40.36,300.81l-.16,1.35a2.84,2.84,0,0,0,1.2,2.66l1.11.78H40.32l.16.5a5.19,5.19,0,0,0,2.59,3.07l.46.24-1.75.2.55.67A5.09,5.09,0,0,0,45.16,312l.23.05s-.77,1.61-5.17,2.32a11.7,11.7,0,0,0,7.35.87A11.57,11.57,0,0,0,56,308.94a8,8,0,0,0,.51-5.81A27.57,27.57,0,0,0,58.29,301l-.11-.24-2,1s1.77-2,1.65-2.4a13,13,0,0,1-2.24,1.09c-.2-.08-2.44-2.67-5-.72a4.13,4.13,0,0,0-1.76,4.47S44.83,304.91,40.36,300.81Z" style="fill:#e0e0e0"></path><path d="M429.44,257.44l-.16,1.34a2.86,2.86,0,0,0,1.2,2.67l1.11.77H429.4l.16.51a5.22,5.22,0,0,0,2.59,3.07l.46.23-1.75.21.55.66a5.08,5.08,0,0,0,2.83,1.7l.23,0s-.77,1.62-5.17,2.33a12.16,12.16,0,0,0,15.79-5.39,8,8,0,0,0,.51-5.82,23.92,23.92,0,0,0,1.76-2.16l-.1-.24-2,1s1.77-2,1.65-2.39a13.75,13.75,0,0,1-2.24,1.09c-.2-.08-2.44-2.67-5-.72a4.12,4.12,0,0,0-1.76,4.47S433.91,261.54,429.44,257.44Z" style="fill:#e0e0e0"></path><path d="M455.38,131.8c-.13.06-5.3-10.28-11.54-23.1s-11.2-23.27-11.07-23.34,5.3,10.28,11.54,23.11S455.51,131.73,455.38,131.8Z" style="fill:#e0e0e0"></path><path d="M148.18,153.48c-.12.07-5.29-10.28-11.53-23.1s-11.2-23.27-11.07-23.33,5.29,10.28,11.54,23.11S148.31,153.42,148.18,153.48Z" style="fill:#e0e0e0"></path><path d="M351.16,317.6c-.12.07-5.29-10.28-11.53-23.1s-11.2-23.27-11.07-23.33,5.29,10.28,11.54,23.1S351.29,317.54,351.16,317.6Z" style="fill:#e0e0e0"></path><path d="M350.34,379c-.13.06-8.12-16-17.84-36s-17.5-36.13-17.37-36.19,8.11,16,17.84,36S350.47,379,350.34,379Z" style="fill:#e0e0e0"></path><path d="M100.4,295.62c-.13.07-5.3-10.28-11.54-23.1s-11.2-23.27-11.07-23.33,5.29,10.28,11.54,23.1S100.53,295.56,100.4,295.62Z" style="fill:#e0e0e0"></path><path d="M43.17,212.26c-.13.06-5.3-10.29-11.54-23.11s-11.2-23.26-11.07-23.33,5.3,10.28,11.54,23.11S43.3,212.19,43.17,212.26Z" style="fill:#e0e0e0"></path><path d="M202.54,293.86c-.13.07-5.29-10.28-11.53-23.1s-11.2-23.27-11.07-23.33,5.29,10.28,11.53,23.1S202.67,293.8,202.54,293.86Z" style="fill:#e0e0e0"></path><path d="M250.49,308.71c-.13.06-5.3-10.28-11.54-23.1s-11.2-23.27-11.07-23.33,5.3,10.28,11.54,23.1S250.62,308.65,250.49,308.71Z" style="fill:#e0e0e0"></path><path d="M190.17,414.93c-.13.06-5.3-10.29-11.54-23.11s-11.2-23.26-11.07-23.33,5.3,10.28,11.54,23.11S190.3,414.86,190.17,414.93Z" style="fill:#e0e0e0"></path><path d="M460.83,414.17c-.12.06-5.29-10.28-11.53-23.1s-11.2-23.27-11.07-23.34,5.29,10.28,11.54,23.11S461,414.1,460.83,414.17Z" style="fill:#e0e0e0"></path><path d="M374.3,158.33c-.13.07-5.29-10.28-11.53-23.1S351.57,112,351.7,111.9,357,122.18,363.24,135,374.43,158.27,374.3,158.33Z" style="fill:#e0e0e0"></path><path d="M373,267.4c-.13.07-5.3-10.28-11.54-23.1S350.21,221,350.34,221s5.29,10.28,11.54,23.11S373.08,267.34,373,267.4Z" style="fill:#e0e0e0"></path><path d="M448.34,328.45c-.13.07-5.29-10.28-11.54-23.1S425.61,282.08,425.73,282s5.3,10.28,11.54,23.11S448.47,328.39,448.34,328.45Z" style="fill:#e0e0e0"></path><path d="M148.87,430.8c-.13.06-5.29-10.28-11.53-23.1s-11.2-23.27-11.07-23.34,5.29,10.28,11.53,23.11S149,430.73,148.87,430.8Z" style="fill:#e0e0e0"></path><path d="M229.74,72.8c-.13.06-5.29-10.29-11.54-23.11S207,26.43,207.14,26.36s5.29,10.28,11.53,23.11S229.87,72.73,229.74,72.8Z" style="fill:#e0e0e0"></path><path d="M403.83,166a6,6,0,0,1-.62-1.06c-.41-.79-.93-1.78-1.53-3-1.28-2.51-3-6-4.88-9.84s-3.55-7.36-4.74-9.9c-.54-1.21-1-2.22-1.38-3a6.23,6.23,0,0,1-.44-1.14,5.59,5.59,0,0,1,.62,1.05c.42.79.93,1.78,1.54,2.95,1.27,2.51,3,6,4.87,9.84s3.55,7.36,4.74,9.91l1.38,3A5.13,5.13,0,0,1,403.83,166Z" style="fill:#ebebeb"></path><path d="M241.73,82.1H438s-17.35-31.58-67.87-27c-48.25,4.39-50.7-15.53-75.24-18S249.91,53.48,241.73,82.1Z" style="fill:#f5f5f5"></path><path d="M356.4,71.64H476.19s-10.6-19.28-41.43-16.47c-29.45,2.68-30.95-9.48-45.92-11S361.39,54.17,356.4,71.64Z" style="fill:#ebebeb"></path></g><g id="freepik--Floor--inject-69"><path d="M448.87,476.87c0,.14-89,.26-198.86.26S51.13,477,51.13,476.87s89-.26,198.88-.26S448.87,476.72,448.87,476.87Z" style="fill:#263238"></path><path d="M108,471.64a48.08,48.08,0,0,1-6.26-3.45,47.91,47.91,0,0,1-6-3.91,50.84,50.84,0,0,1,6.25,3.46A50.22,50.22,0,0,1,108,471.64Z" style="fill:#263238"></path><path d="M105.36,449.78a64.18,64.18,0,0,1,3.48,7.39,61.6,61.6,0,0,1,3,7.59,64.18,64.18,0,0,1-3.48-7.39A62.85,62.85,0,0,1,105.36,449.78Z" style="fill:#263238"></path><path d="M126.16,448.24a51.14,51.14,0,0,1-1.64,7.17,51,51,0,0,1-2.14,7,52.91,52.91,0,0,1,1.64-7.17A51,51,0,0,1,126.16,448.24Z" style="fill:#263238"></path><path d="M136.41,464.91a15.73,15.73,0,0,1-3.28,2.21,15.49,15.49,0,0,1-3.54,1.77,14.51,14.51,0,0,1,3.28-2.22A14.72,14.72,0,0,1,136.41,464.91Z" style="fill:#263238"></path><path d="M192.78,470.91a25.28,25.28,0,0,1-4.7-2.12,25.12,25.12,0,0,1-4.46-2.59,26.45,26.45,0,0,1,4.7,2.12A25.58,25.58,0,0,1,192.78,470.91Z" style="fill:#263238"></path><path d="M198.5,468.65a33.77,33.77,0,0,1-3.86-4.44,33.4,33.4,0,0,1-3.45-4.76,33.77,33.77,0,0,1,3.86,4.44A33.4,33.4,0,0,1,198.5,468.65Z" style="fill:#263238"></path><path d="M211.57,464a31.36,31.36,0,0,1-5.76,5.75,16.47,16.47,0,0,1,2.7-3.06A15.75,15.75,0,0,1,211.57,464Z" style="fill:#263238"></path><path d="M334.05,465.91a42.43,42.43,0,0,1-4.43-4.82,41.24,41.24,0,0,1-4-5.15,40.23,40.23,0,0,1,4.42,4.81A42.46,42.46,0,0,1,334.05,465.91Z" style="fill:#263238"></path><path d="M341.7,465.57a47,47,0,0,1,3.46-9.21,45.38,45.38,0,0,1-3.46,9.21Z" style="fill:#263238"></path><path d="M353.21,468.64a12.25,12.25,0,0,1,1.9-3,12.43,12.43,0,0,1,2.32-2.73,12.75,12.75,0,0,1-1.9,3A12.23,12.23,0,0,1,353.21,468.64Z" style="fill:#263238"></path><path d="M324,469.47a59.58,59.58,0,0,1-10.75-2.7,29.31,29.31,0,0,1,5.44,1.1A29.66,29.66,0,0,1,324,469.47Z" style="fill:#263238"></path></g><g id="freepik--Character--inject-69"><path d="M291.65,471.66v-1.82l-17.11,0,0,6,1.06.07c4.7.28,23.92,1.08,27.06.14C306.11,475,291.65,471.66,291.65,471.66Z" style="fill:#A8DADC"></path><g style="opacity:0.30000000000000004"><path d="M280.66,475.7a5.91,5.91,0,0,0-2.16-3.64,5.75,5.75,0,0,0-4-1.25l0,4.76Z" style="fill:#fff"></path></g><g style="opacity:0.30000000000000004"><path d="M298.71,473.53s5.07,1.48,4.44,2.31-20.09.76-28.67,0l0-.38,22.69.29S297.72,473.57,298.71,473.53Z" style="fill:#fff"></path></g><path d="M274.24,475.42l.3,0,.84.06,3.09.14c2.62.11,6.23.2,10.23.22s7.61,0,10.22-.12l3.1-.12.84,0,.29,0H302l-3.1.05c-2.62,0-6.23.09-10.22.07s-7.61-.1-10.22-.16l-3.1-.08-.84,0Z" style="fill:#263238"></path><path d="M297.19,476a7.67,7.67,0,0,1,.59-1.47,6.69,6.69,0,0,1,1.06-1.19,2.77,2.77,0,0,0-1.65,2.66Z" style="fill:#263238"></path><path d="M292.18,473.41s.29-.26.54-.65.41-.73.36-.76-.29.26-.54.65S292.13,473.38,292.18,473.41Z" style="fill:#263238"></path><path d="M290.8,472.68s.31-.14.6-.4.5-.51.47-.55-.31.13-.61.39S290.76,472.63,290.8,472.68Z" style="fill:#263238"></path><path d="M289.93,471.06a2,2,0,0,0,.89.12,1.91,1.91,0,0,0,.89-.09c0-.06-.39-.11-.88-.12A2.35,2.35,0,0,0,289.93,471.06Z" style="fill:#263238"></path><path d="M289.64,469.93a2.52,2.52,0,0,0,2,.16,4.89,4.89,0,0,0-1-.07A4.63,4.63,0,0,0,289.64,469.93Z" style="fill:#263238"></path><path d="M292.76,471.93a3.4,3.4,0,0,0,1.1,0,5.41,5.41,0,0,0,1.16-.25,2.85,2.85,0,0,0,.67-.27.56.56,0,0,0,.27-.34.43.43,0,0,0-.16-.44,2,2,0,0,0-2.49.58,2.11,2.11,0,0,0-.36.73.71.71,0,0,0,0,.29,3.26,3.26,0,0,1,.51-.93,2,2,0,0,1,.93-.6,1.75,1.75,0,0,1,1.31.09c.17.13.1.34-.09.45a2.81,2.81,0,0,1-.62.26,7.86,7.86,0,0,1-1.13.29C293.18,471.89,292.76,471.89,292.76,471.93Z" style="fill:#263238"></path><path d="M293,472a1,1,0,0,0,.13-.76,1.74,1.74,0,0,0-.29-.8,1.11,1.11,0,0,0-.91-.56.43.43,0,0,0-.34.5,1.14,1.14,0,0,0,.18.49,3.18,3.18,0,0,0,.52.67,1.49,1.49,0,0,0,.62.44s-.22-.19-.52-.54a3.6,3.6,0,0,1-.45-.66c-.15-.23-.25-.65,0-.7s.56.25.72.47a1.81,1.81,0,0,1,.31.71A3.33,3.33,0,0,1,293,472Z" style="fill:#263238"></path><path d="M274.61,470.76s.49,0,1.26.05a5.59,5.59,0,0,1,2.74,1.14,5.53,5.53,0,0,1,1.71,2.43c.25.74.28,1.23.31,1.22s0-.12,0-.34a4.41,4.41,0,0,0-.19-.92,5.22,5.22,0,0,0-1.71-2.55,5.33,5.33,0,0,0-2.86-1.13,5.25,5.25,0,0,0-.93,0A1.49,1.49,0,0,0,274.61,470.76Z" style="fill:#263238"></path><path d="M282.81,474.05a9.65,9.65,0,0,0,2.49.25,8.92,8.92,0,0,0,2.49-.19c0-.06-1.12,0-2.49,0S282.82,474,282.81,474.05Z" style="fill:#263238"></path><path d="M279.47,474s.09.24.2.49.18.48.24.48.09-.27-.05-.56S279.51,474,279.47,474Z" style="fill:#263238"></path><path d="M278.22,472.46s.07.22.24.4.35.29.4.25-.07-.22-.25-.4S278.26,472.42,278.22,472.46Z" style="fill:#263238"></path><path d="M276.42,471.74c0,.05.24.05.49.14s.43.22.47.19-.09-.28-.4-.38S276.4,471.68,276.42,471.74Z" style="fill:#263238"></path><path d="M275.14,471.39c0,.06.08.14.22.2s.27.06.29,0-.07-.14-.22-.19S275.16,471.34,275.14,471.39Z" style="fill:#263238"></path><path d="M258.31,266.35c1.38,5.77,2.15,13.38-.82,18.41,0,0-4.07,3.12-.83,6.55H299s6-4.07.52-8.6l-3.43-8.6,2.22-10.49.83-4.2,3.73,6.39S310.29,275.1,318,274c9.23-1.38,14.58-18.19,6.24-40.41l-10,3-1.26,15.69s-6-14-10.15-20.83c-3.9-6.41-9.07-7.45-11.82-7.64a19,19,0,0,0-3.51-.72l-22.52-.19a21.31,21.31,0,0,0-13.45,4.93l6.84,38.51" style="fill:#A8DADC"></path><path d="M313.16,259.35a14.41,14.41,0,0,1-.38-3.77,13.7,13.7,0,0,1,.15-3.79,14.25,14.25,0,0,1,.38,3.77A13.74,13.74,0,0,1,313.16,259.35Z" style="fill:#263238"></path><g style="opacity:0.4"><path d="M256.21,286.16c-.17,0-1.09,1.38-.83,2a1.74,1.74,0,0,0,1.55.94,5.2,5.2,0,0,0,1.86-.39l21.52-7.34,9.86-3.36c1.13-.38,2.43-1,2.66-2.12a8.36,8.36,0,0,1,.14-1.12,2.05,2.05,0,0,1,1.33-1.1A6,6,0,0,0,296,273a1.9,1.9,0,0,0,.5-2c.05.09-3.56.52-5.37,1.43.12.72.6,2.55.6,2.55s-1.93.52-2.62.79c-11.41,4.58-21.46,6.56-32.85,10.44"></path></g><path d="M292.84,236.16a1.82,1.82,0,0,1-.16.5,12.5,12.5,0,0,1-.61,1.36,16.48,16.48,0,0,1-3.36,4.35,16.89,16.89,0,0,1-7.13,3.91,16.75,16.75,0,0,1-17.76-6.68A16.85,16.85,0,0,1,261,232a16.45,16.45,0,0,1,.34-5.49,10.88,10.88,0,0,1,.44-1.42,1.72,1.72,0,0,1,.21-.48c.05,0-.2.69-.45,2a17.33,17.33,0,0,0-.17,5.39,16.82,16.82,0,0,0,2.81,7.42,16.48,16.48,0,0,0,17.24,6.49,17,17,0,0,0,7-3.72,17.59,17.59,0,0,0,3.43-4.18C292.54,236.81,292.79,236.14,292.84,236.16Z" style="fill:#263238"></path><path d="M241,465s22.49-77.8,22.92-80.25c.39-2.21-10.13-55.92-11.65-69.85l31.93.3a2.07,2.07,0,0,1,0,.23l15.43.43-8.07,155.08-17,.23,2-55.64c-8.38,24.57-20.22,55.75-20.22,55.75Z" style="fill:#455a64"></path><path d="M282,447.26a11.1,11.1,0,0,1-1.87-2.81,10.92,10.92,0,0,1-1.42-3.06,11.23,11.23,0,0,1,1.87,2.8A11,11,0,0,1,282,447.26Z" style="fill:#e0e0e0"></path><path d="M285.49,431.23c-.11-.1.63-1,1.64-2s1.91-1.75,2-1.65-.63,1-1.64,2S285.59,431.33,285.49,431.23Z" style="fill:#e0e0e0"></path><path d="M283.62,423.52a6,6,0,0,1-1.37-2,6.11,6.11,0,0,1-.92-2.29c.13-.07.75.85,1.38,2.05A5.87,5.87,0,0,1,283.62,423.52Z" style="fill:#e0e0e0"></path><path d="M280.27,434.74c-.13-.05,0-.72.24-1.49s.6-1.37.74-1.32,0,.71-.24,1.49S280.41,434.79,280.27,434.74Z" style="fill:#e0e0e0"></path><path d="M288.46,441.62a17.16,17.16,0,0,1-1.51-2.2c-.85-1.19-1.71-2-1.61-2.14s1.14.58,2,1.83A4.58,4.58,0,0,1,288.46,441.62Z" style="fill:#e0e0e0"></path><path d="M285.76,456.25a6.25,6.25,0,0,1-2.06,1.42,6.37,6.37,0,0,1-2.3,1c-.07-.13.85-.76,2.05-1.42A6,6,0,0,1,285.76,456.25Z" style="fill:#e0e0e0"></path><path d="M280.3,466.35c-.08.12-.81-.26-1.62-.84s-1.41-1.15-1.33-1.27.81.26,1.63.84S280.39,466.23,280.3,466.35Z" style="fill:#e0e0e0"></path><path d="M288.31,464.56c.11.1-.15.58-.57,1.09s-.86.84-1,.74.14-.57.57-1.08S288.2,464.47,288.31,464.56Z" style="fill:#e0e0e0"></path><path d="M289.81,420.83A9.28,9.28,0,0,1,288.7,418a9.38,9.38,0,0,1-.61-3,18.16,18.16,0,0,1,1.72,5.89Z" style="fill:#e0e0e0"></path><path d="M259.19,421c-.13.07-.67-.66-1.21-1.63s-.89-1.82-.76-1.89.67.66,1.21,1.63S259.31,420.9,259.19,421Z" style="fill:#e0e0e0"></path><path d="M269,420.83c0,.13-.75.61-1.8,1.07s-1.95.73-2,.6.75-.62,1.8-1.08S269,420.69,269,420.83Z" style="fill:#e0e0e0"></path><path d="M262.29,428.11a3.76,3.76,0,0,1-2.16.12,3.92,3.92,0,0,1-2.07-.64c0-.15,1,0,2.13.12A5.77,5.77,0,0,1,262.29,428.11Z" style="fill:#e0e0e0"></path><path d="M263.5,435a5.43,5.43,0,0,1,1-2.09c.67-1.09,1.31-1.91,1.43-1.83a5.43,5.43,0,0,1-1,2.1C264.26,434.25,263.62,435.07,263.5,435Z" style="fill:#e0e0e0"></path><path d="M255.1,437.28a5.54,5.54,0,0,1-.68-2.27,5.63,5.63,0,0,1-.18-2.37,5.4,5.4,0,0,1,.69,2.27A5.52,5.52,0,0,1,255.1,437.28Z" style="fill:#e0e0e0"></path><path d="M256.1,444.31a6.52,6.52,0,0,1-2.64-.09,6.79,6.79,0,0,1-2.56-.61,6.93,6.93,0,0,1,2.63.09A7,7,0,0,1,256.1,444.31Z" style="fill:#e0e0e0"></path><path d="M260.6,448.8a4.9,4.9,0,0,1-.12-2.26,5.19,5.19,0,0,1,.4-2.23,5.07,5.07,0,0,1,.12,2.26A5.19,5.19,0,0,1,260.6,448.8Z" style="fill:#e0e0e0"></path><path d="M254.66,453.6c-.12.07-.62-.64-.85-1.66s-.08-1.88.06-1.87.24.8.45,1.75S254.79,453.53,254.66,453.6Z" style="fill:#e0e0e0"></path><path d="M250.76,461.46a9.62,9.62,0,0,1-2.19-.82,9.48,9.48,0,0,1-2.17-.87,3.87,3.87,0,0,1,2.36.39C250,460.64,250.84,461.35,250.76,461.46Z" style="fill:#e0e0e0"></path><path d="M255.4,460.76c.13.07-.31,1-1,2.1s-1.3,1.9-1.42,1.83a5.2,5.2,0,0,1,1-2.1C254.64,461.5,255.28,460.68,255.4,460.76Z" style="fill:#e0e0e0"></path><path d="M290.15,452c-.13.07-.55-.44-.94-1.14s-.6-1.32-.48-1.39.54.44.94,1.14S290.27,452,290.15,452Z" style="fill:#e0e0e0"></path><path d="M255.7,472.11l.78-1.65L241,463.14l-2.6,5.39.92.52c4.14,2.26,21.17,11.19,24.42,11.68C267.37,481.27,255.7,472.11,255.7,472.11Z" style="fill:#A8DADC"></path><g style="opacity:0.30000000000000004"><path d="M244,471.07a5.85,5.85,0,0,0-.4-4.21,5.69,5.69,0,0,0-3.06-2.83l-2.05,4.29Z" style="fill:#fff"></path></g><g style="opacity:0.30000000000000004"><path d="M261.3,476.81s3.95,3.51,3,4-18.49-7.89-25.91-12.27l.19-.33L259,478.15S260.38,476.43,261.3,476.81Z" style="fill:#fff"></path></g><path d="M238.36,468.08a2.08,2.08,0,0,0,.25.15l.74.41,2.74,1.45c2.32,1.21,5.54,2.85,9.15,4.57s6.9,3.21,9.3,4.25l2.85,1.22.78.32.27.1s-.08-.06-.26-.14l-.76-.35-2.83-1.28c-2.38-1.08-5.66-2.59-9.27-4.31s-6.83-3.33-9.17-4.51l-2.76-1.39-.76-.37A1,1,0,0,0,238.36,468.08Z" style="fill:#263238"></path><path d="M258.87,478.38A7.83,7.83,0,0,1,260,477.3a7.21,7.21,0,0,1,1.47-.62,2.36,2.36,0,0,0-1.58.44A2.3,2.3,0,0,0,258.87,478.38Z" style="fill:#263238"></path><path d="M255.44,473.92c0,.05.37-.12.76-.36s.69-.49.66-.54a2,2,0,0,0-.77.36C255.7,473.63,255.4,473.87,255.44,473.92Z" style="fill:#263238"></path><path d="M254.5,472.66c0,.06.34,0,.72-.1s.67-.24.65-.3-.33,0-.71.1S254.49,472.61,254.5,472.66Z" style="fill:#263238"></path><path d="M254.41,470.84c0,.05.31.27.75.48a2,2,0,0,0,.85.3c0-.05-.31-.27-.76-.48A2,2,0,0,0,254.41,470.84Z" style="fill:#263238"></path><path d="M254.63,469.69s.27.4.77.68a1.76,1.76,0,0,0,1,.32c0-.06-.4-.22-.88-.5S254.67,469.64,254.63,469.69Z" style="fill:#263238"></path><path d="M256.6,472.82a3.09,3.09,0,0,0,1,.47,6,6,0,0,0,1.16.27,3.33,3.33,0,0,0,.72,0,.6.6,0,0,0,.39-.19.45.45,0,0,0,0-.47,2,2,0,0,0-2.49-.54,1.89,1.89,0,0,0-.64.51c-.12.15-.16.25-.15.25a3.3,3.3,0,0,1,.85-.63,1.94,1.94,0,0,1,1.1-.14,1.68,1.68,0,0,1,1.14.64c.11.19,0,.35-.27.37a3,3,0,0,1-.67,0,7.45,7.45,0,0,1-1.14-.22C257,473,256.61,472.79,256.6,472.82Z" style="fill:#263238"></path><path d="M256.83,473a1.16,1.16,0,0,0,.44-.64,1.9,1.9,0,0,0,.08-.85,1.1,1.1,0,0,0-.59-.89.43.43,0,0,0-.52.31,1.18,1.18,0,0,0,0,.52,3.34,3.34,0,0,0,.18.82,1.57,1.57,0,0,0,.37.67s-.11-.27-.23-.71a3.52,3.52,0,0,1-.13-.79c0-.28.05-.7.32-.62s.39.46.45.73a1.77,1.77,0,0,1,0,.77A5.27,5.27,0,0,1,256.83,473Z" style="fill:#263238"></path><path d="M240.68,464s.46.17,1.12.58a5.59,5.59,0,0,1,2,2.21,5.46,5.46,0,0,1,.5,2.92c-.08.77-.26,1.23-.23,1.24a.92.92,0,0,0,.15-.31,4.55,4.55,0,0,0,.23-.91,5.26,5.26,0,0,0-.47-3,5.16,5.16,0,0,0-2.1-2.24,3.8,3.8,0,0,0-.85-.38A1,1,0,0,0,240.68,464Z" style="fill:#263238"></path><path d="M246.69,470.49a13.74,13.74,0,0,0,4.48,2.19c0-.06-1-.47-2.25-1.08S246.73,470.44,246.69,470.49Z" style="fill:#263238"></path><path d="M243.68,469.05c-.05,0,0,.25,0,.53s0,.51,0,.54.2-.21.2-.53S243.73,469,243.68,469.05Z" style="fill:#263238"></path><path d="M243.22,467.1c-.05,0,0,.22.05.46s.19.41.25.4,0-.23-.05-.47S243.27,467.08,243.22,467.1Z" style="fill:#263238"></path><path d="M241.9,465.68c0,.05.2.15.38.34s.3.38.35.37,0-.29-.2-.52S241.91,465.62,241.9,465.68Z" style="fill:#263238"></path><path d="M240.89,464.82s0,.16.12.27.22.17.26.13,0-.16-.11-.27S240.93,464.78,240.89,464.82Z" style="fill:#263238"></path><path d="M315.8,150.76s-46.77-27.37-92,1.59-33.35,88.33-33.35,88.33,7.29-7.64,20.73-5.17c0,0-.25-18.34,19.59-16.65,0,0,10-23.13,31.48-16.8,0,0,4-20.67,30-18.05C292.25,184,298,160.43,315.8,150.76Z" style="fill:#A8DADC"></path><g style="opacity:0.4"><path d="M315.8,150.76s-46.77-27.37-92,1.59-33.35,88.33-33.35,88.33,7.29-7.64,20.73-5.17c0,0-.25-18.34,19.59-16.65,0,0,10-23.13,31.48-16.8,0,0,4-20.67,30-18.05C292.25,184,298,160.43,315.8,150.76Z"></path></g><path d="M234,406.91s5.91,11.49,21.35,5.91c0,0,15.11,8.21,29.56-1,0,0,18.71,2.51,28.89-2.41L300.7,308.65,299,291.31H257.75s-6.84,1.82-12.18,34.19c-1.3,7.85-4,25.91-4,25.91Z" style="fill:#263238"></path><path d="M302.5,323.72c0,.07-.85-.09-2.36.06a18.54,18.54,0,0,0-6.06,2c-2.45,1.17-5.19,3-8.62,4.23a21.68,21.68,0,0,1-11.7.74,21,21,0,0,1-5.75-2.13,46.74,46.74,0,0,1-4.78-3.06c-2.93-2.09-5.61-4-8.15-4.87a6.18,6.18,0,0,0-3.53-.29,8,8,0,0,0-2.47,1.14c-1.24.86-1.86,1.45-1.89,1.41s.13-.17.42-.45a15.7,15.7,0,0,1,1.36-1.13,7.72,7.72,0,0,1,2.51-1.25,6.47,6.47,0,0,1,3.71.22c2.64.89,5.37,2.76,8.31,4.82a48.87,48.87,0,0,0,4.75,3,21,21,0,0,0,5.62,2.06,21.31,21.31,0,0,0,11.43-.69c3.36-1.2,6.13-3,8.62-4.1a17.73,17.73,0,0,1,6.2-1.84A8.07,8.07,0,0,1,302.5,323.72Z" style="fill:#455a64"></path><path d="M306.39,355.31a19.56,19.56,0,0,0-2.48-1.27,14.24,14.24,0,0,0-7.47-.57,24.76,24.76,0,0,0-5,1.43,45.16,45.16,0,0,0-5.4,2.69c-1.86,1.06-3.79,2.21-5.86,3.29a29.74,29.74,0,0,1-6.75,2.65,23.6,23.6,0,0,1-13.8-1.23,42.23,42.23,0,0,1-9.9-5.62c-2.6-1.94-4.58-3.66-5.94-4.85l-1.56-1.38c-.35-.33-.53-.5-.51-.52a4.58,4.58,0,0,1,.58.44l1.62,1.31c1.4,1.14,3.41,2.81,6,4.7a42.63,42.63,0,0,0,9.85,5.47A23.34,23.34,0,0,0,273.27,363c4.77-1.16,8.75-3.81,12.49-5.85a43.05,43.05,0,0,1,5.48-2.68,24.27,24.27,0,0,1,5.14-1.39,14,14,0,0,1,7.6.75,8,8,0,0,1,1.09.53,4.7,4.7,0,0,1,.75.47A3.69,3.69,0,0,1,306.39,355.31Z" style="fill:#455a64"></path><path d="M236.07,393.39a6.2,6.2,0,0,1,.66.52c.42.36,1.05.87,1.88,1.51a41.55,41.55,0,0,0,7.52,4.63,30.76,30.76,0,0,0,12.64,3,24.83,24.83,0,0,0,15-4.72c4.69-3.24,8.48-7.22,12.43-10.25s8-5.21,11.8-5.77a15.27,15.27,0,0,1,8.79.94,10.56,10.56,0,0,1,2.09,1.22,4.75,4.75,0,0,1,.65.55,17.2,17.2,0,0,0-2.82-1.59,15.43,15.43,0,0,0-8.65-.76c-3.68.6-7.71,2.72-11.56,5.79s-7.69,7-12.44,10.3a25.07,25.07,0,0,1-15.28,4.77A30.65,30.65,0,0,1,246,400.38a38.76,38.76,0,0,1-7.5-4.8c-.81-.67-1.42-1.21-1.82-1.59A4.53,4.53,0,0,1,236.07,393.39Z" style="fill:#455a64"></path><path d="M300,300.08s-.43-.54-1.34-1.36a11.9,11.9,0,0,0-4.54-2.39,18.69,18.69,0,0,0-7.61-.42,52,52,0,0,0-9.11,2.49,41.25,41.25,0,0,1-9.27,2.29,17.46,17.46,0,0,1-7.74-1,10.82,10.82,0,0,1-4.33-3,7.6,7.6,0,0,1-.82-1.18,2.48,2.48,0,0,1-.23-.44c.06,0,.37.58,1.2,1.48a11.16,11.16,0,0,0,4.32,2.77,17.5,17.5,0,0,0,7.55.87,42.88,42.88,0,0,0,9.15-2.3,50.59,50.59,0,0,1,9.22-2.48,18.67,18.67,0,0,1,7.78.55,11.2,11.2,0,0,1,4.56,2.6,7.35,7.35,0,0,1,.94,1.08Q300,300.07,300,300.08Z" style="fill:#455a64"></path><path d="M285,180.93a7,7,0,0,1,10.78,6.54c-.15,1.79-1,3.56-.57,5.31.72,3.14,5,4.52,5.59,7.69.66,3.44-3.43,6.69-2.26,10,.58,1.64,2.34,2.68,2.82,4.35a4.25,4.25,0,0,1-1.6,4.24,10.8,10.8,0,0,1-4.37,1.9,11.59,11.59,0,0,1-6.17.31,20.27,20.27,0,0,1-4.49-2.51,6.26,6.26,0,0,0-4.89-1.1" style="fill:#263238"></path><path d="M292.46,207.45c.67-4.19.46-11.06.1-16.68a8.89,8.89,0,0,0-9.81-8.29L268.14,184a3,3,0,0,0-2.65,3l1.5,35.9h-3.38v6.5a13.47,13.47,0,0,0,26.94,0v-5.62a20.28,20.28,0,0,0-5.63-1l-.52,0c0-3.29.27-5.87.27-5.87S291.12,215.87,292.46,207.45Z" style="fill:#ffbe9d"></path><path d="M290,195.19a1.07,1.07,0,0,1-1,1.09,1,1,0,0,1-1.11-1,1.08,1.08,0,0,1,1-1.09A1,1,0,0,1,290,195.19Z" style="fill:#263238"></path><path d="M291.07,194.35c-.13.14-.95-.47-2.11-.47s-2,.59-2.14.45.07-.32.44-.59a3,3,0,0,1,1.72-.53,2.84,2.84,0,0,1,1.68.54C291,194,291.14,194.28,291.07,194.35Z" style="fill:#263238"></path><path d="M278.6,195.56a1.09,1.09,0,0,1-1.05,1.09,1,1,0,0,1-1.11-1,1.08,1.08,0,0,1,1-1.09A1,1,0,0,1,278.6,195.56Z" style="fill:#263238"></path><path d="M279.65,194.56c-.14.14-1-.46-2.12-.46s-2,.59-2.14.44.07-.31.45-.59a3,3,0,0,1,1.71-.52,2.84,2.84,0,0,1,1.68.54C279.59,194.24,279.71,194.5,279.65,194.56Z" style="fill:#263238"></path><path d="M283.86,203.18a8.25,8.25,0,0,1,1.89-.34c.3,0,.58-.09.63-.29a1.48,1.48,0,0,0-.2-.88l-.88-2.26a40,40,0,0,1-2-5.91,38.38,38.38,0,0,1,2.45,5.74l.84,2.27a1.75,1.75,0,0,1,.15,1.17.74.74,0,0,1-.49.43,1.93,1.93,0,0,1-.5.07A7.52,7.52,0,0,1,283.86,203.18Z" style="fill:#263238"></path><path d="M284.67,216.94a21.36,21.36,0,0,1-11.28-3s2.73,5.79,11.16,5Z" style="fill:#eb996e"></path><path d="M283.37,206a2.07,2.07,0,0,0-1.87-.78,1.92,1.92,0,0,0-1.33.71,1.21,1.21,0,0,0-.09,1.38,1.42,1.42,0,0,0,1.53.39,4.5,4.5,0,0,0,1.48-.89,1.18,1.18,0,0,0,.33-.34.39.39,0,0,0,0-.44" style="fill:#A8DADC"></path><path d="M280.44,204c.19,0,.19,1.25,1.27,2.14s2.43.76,2.44.94-.3.24-.87.26a3.12,3.12,0,0,1-2-.71,2.77,2.77,0,0,1-1-1.8C280.22,204.29,280.36,204,280.44,204Z" style="fill:#263238"></path><path d="M280.17,192.53c-.12.31-1.28.16-2.64.33s-2.47.53-2.65.25.11-.43.56-.74a4.58,4.58,0,0,1,2-.69,4.33,4.33,0,0,1,2.07.25C280,192.13,280.22,192.38,280.17,192.53Z" style="fill:#263238"></path><path d="M290.65,192c-.21.26-1,0-2,0s-1.78.17-2-.1.05-.4.4-.65a2.72,2.72,0,0,1,1.6-.43,2.68,2.68,0,0,1,1.57.53C290.62,191.57,290.74,191.84,290.65,192Z" style="fill:#263238"></path><path d="M286.17,177.19c.07.1.12.21.19.31l0,0Z" style="fill:#263238"></path><path d="M286.39,177.54l.39.65C286.66,178,286.53,177.75,286.39,177.54Z" style="fill:#263238"></path><path d="M293.21,187.21a17.93,17.93,0,0,0-2.08-3.47,8,8,0,0,0-2.68-2.5,4,4,0,0,0-1.11-.37,7,7,0,0,0-1-3.37,7.25,7.25,0,0,0-4.09-2.84,7.16,7.16,0,0,0-5.64,1,16.34,16.34,0,0,1-2.58,1.76c-2,.85-4.24-.09-6.4-.11a7.78,7.78,0,0,0-7.43,5.84c-.55,2.39.09,5-.69,7.3-1.19,3.57-5.43,5.75-5.87,9.49-.4,3.4,2.61,6.56,2.1,10-.55,3.66-5,6-4.92,9.76,0,2.3,2,4.22,4.16,5a17.32,17.32,0,0,0,6.85.5c1.52-.09,3.18-.23,4.29-1.27a9.51,9.51,0,0,0,1.51-2.28c.92-1.55,2.22-2.84,3.26-4.31a6.92,6.92,0,0,0,1.49-5.05,14.76,14.76,0,0,0-1.89-3.92c-.67-1.29-1.05-3-.2-4.15.69-1,2-1.31,2.81-2.17,1.41-1.46,1-3.83.44-5.77s-1.22-4.17-.14-5.89a5.49,5.49,0,0,1,4.15-2.1,30.25,30.25,0,0,0,4.77-.5,7,7,0,0,0,3.51-2.37,7.15,7.15,0,0,0,5.54,4.67,2.09,2.09,0,0,0,1.77-.32C293.8,189.09,293.57,188,293.21,187.21Z" style="fill:#263238"></path><path d="M254.58,223.62a1.52,1.52,0,0,1-.7-.13,2.65,2.65,0,0,1-1.37-1.51,3.75,3.75,0,0,1,.3-3.2,20.59,20.59,0,0,1,2.59-3.4,7,7,0,0,0,1.21-2.07,5.6,5.6,0,0,0,.17-2.56c-.24-1.8-1.17-3.57-1.66-5.66a7.53,7.53,0,0,1-.08-3.28,4.33,4.33,0,0,1,2-2.76c1-.63,2.1-1,3-1.67a6.15,6.15,0,0,0,2-2.72c.87-2.19,1.06-4.6,2.05-6.73a6.3,6.3,0,0,1,2.19-2.65,7.14,7.14,0,0,1,3.1-1.07,17.51,17.51,0,0,1,5.94.63,18.61,18.61,0,0,0,5.05.63,6.69,6.69,0,0,0,3.86-1.33,4.75,4.75,0,0,0,1.6-2.62,3.55,3.55,0,0,0-.09-2c-.14-.44-.3-.64-.27-.65a1.75,1.75,0,0,1,.37.61,3.56,3.56,0,0,1,.19,2,4.89,4.89,0,0,1-1.61,2.8,6.93,6.93,0,0,1-4,1.47,18.22,18.22,0,0,1-5.16-.57,17.51,17.51,0,0,0-5.79-.57,6.77,6.77,0,0,0-2.89,1,5.76,5.76,0,0,0-2,2.45c-.93,2-1.13,4.4-2,6.7a6.57,6.57,0,0,1-2.17,3c-1,.71-2.11,1.1-3,1.68a3.85,3.85,0,0,0-1.83,2.45,7,7,0,0,0,.06,3.06c.44,2,1.38,3.81,1.62,5.7a5.89,5.89,0,0,1-.22,2.75,7.41,7.41,0,0,1-1.3,2.17,21.3,21.3,0,0,0-2.62,3.31,3.54,3.54,0,0,0-.37,3,2.59,2.59,0,0,0,1.22,1.48A5.58,5.58,0,0,0,254.58,223.62Z" style="fill:#455a64"></path><path d="M300.61,202.68c-.87,3.43-2.7,6.31-.7,8.18s4.49,3.67,4.82,6.39c.3,2.49-1.4,5-.87,7.42.48,2.26,2.66,3.69,3.89,5.65,2.2,3.49,1,8.24-1.39,11.59-1.78,2.46-4.37,4.55-7.4,4.86s-6.36-1.66-6.81-4.66c-.15-1,0-2.1-.08-3.14a2.8,2.8,0,0,0-1.63-2.49c-1.07-.35-2.29.36-3.36,0a5.75,5.75,0,0,1-2.93-3.91c-.38-4.57.25-10.14.52-15.3,0,0,6.05-1.69,8.23-6S300.61,202.68,300.61,202.68Z" style="fill:#263238"></path><polygon points="314.13 206.11 298.74 231.05 310.85 234.42 324.29 213.7 314.13 206.11" style="fill:#455a64"></polygon><path d="M313.17,227.36l.53,3.64,2.14,2.76.22,2.27,7.72-2.35-3.12-11a22.8,22.8,0,0,0,.3-4.51L318.84,221l-.59-4.59-4.35-3.5a1.06,1.06,0,0,0-1.49.23h0a1.06,1.06,0,0,0,.12,1.37l3.49,3.08.23,3.8L313.72,219a1.76,1.76,0,0,0-.89-.45l-3.51-.71a.92.92,0,0,0-1.09.81h0a.93.93,0,0,0,.64,1l3.19,1,3.24,3.26-3.16-1.2-4.29.6a.83.83,0,0,0-.72.82h0a.83.83,0,0,0,.88.83l2.73-.15,1.6.5-3.69,1a.76.76,0,0,0-.56.76h0a.74.74,0,0,0,.81.7Z" style="fill:#ffbe9d"></path><path d="M298.74,231.05s-1-1.41-.95-1.64,14.64-24.21,14.64-24.21l1.7.91Z" style="fill:#263238"></path><path d="M318,212.38a.53.53,0,1,1,.27.9.57.57,0,0,1-.3-.87" style="fill:#263238"></path><path d="M305.87,273.12a10.84,10.84,0,0,1-9.27-5.23l-56.76-92.8a1,1,0,1,1,1.7-1l56.76,92.8a8.91,8.91,0,1,0,15.09-9.46l-1.73-2.68a1,1,0,1,1,1.69-1.08l1.72,2.68a10.93,10.93,0,0,1-9.2,16.81Z" style="fill:#455a64"></path><path d="M255.79,225.24s-11.46,3.48-13.95,20.63c-.87,5.93-1.92,19.58-2.28,29.71-.23,6.65,2.23,10.39,6.25,11.78a10.55,10.55,0,0,0,6.55,0L291,275.56l-2.8-16.83-29.5,7.95.74-12.17Z" style="fill:#A8DADC"></path><path d="M253.28,272.87a6,6,0,0,1,.79-2.06,12.2,12.2,0,0,1,4.55-4.26h0l29.16-7.34.25-.07.06.26c.79,3.34,1.62,6.85,2.46,10.45.41,1.72.8,3.42,1.18,5l.05.23-.22.07c-11.79,3.88-22.3,7.21-29.89,9.51-3.79,1.15-6.85,2-9,2.62l-2.44.65-.64.16-.22,0,.21-.09.62-.2,2.41-.74,8.92-2.78c7.55-2.38,18-5.77,29.83-9.66l-.17.31c-.38-1.61-.78-3.3-1.18-5-.85-3.61-1.67-7.11-2.45-10.46l.31.19-29.22,7.13h0a12.42,12.42,0,0,0-4.55,4.08A12.94,12.94,0,0,0,253.28,272.87Z" style="fill:#263238"></path><path d="M258.64,251.79a56.77,56.77,0,0,1,0,7.58,54.29,54.29,0,0,1-.53,7.57,56,56,0,0,1,0-7.59A55.25,55.25,0,0,1,258.64,251.79Z" style="fill:#263238"></path><path d="M291.08,272.38l-2.4-10.63,2.59-1.07a26,26,0,0,0,3.46-3.15,7.29,7.29,0,0,0,1.32-2,10.73,10.73,0,0,0,.92-2.84.93.93,0,0,1,1.66-.57c.44.71.32,3.25-1.11,5.84-1,1.75.69,1.53,2.35,1a2.53,2.53,0,0,1,3.08,1.42l1.53,3.49a4.2,4.2,0,0,1-2.4,5.63l-1.29.47h0l-9.71,2.4" style="fill:#ffbe9d"></path><path d="M315.8,150.76a37.77,37.77,0,0,0-29.63,20.94s-22-1.81-28.71,16.16c0,0-25.42-2.89-30.87,20.55,0,0-20.35-.75-21.53,17.79,0,0-13.73.53-14.65,14.48,0,0-11.53-56.86,31-86.73C266.27,122.39,315.8,150.76,315.8,150.76Z" style="fill:#A8DADC"></path><path d="M220.81,154.35a4.56,4.56,0,0,1-.58.55c-.38.34-1,.83-1.65,1.52a45.76,45.76,0,0,0-5.39,6.29,60.3,60.3,0,0,0-8.66,17.41,51.1,51.1,0,0,0-1.66,7.58A118.48,118.48,0,0,0,203,215c.37,3.49.74,6.3,1,8.25.12.93.21,1.68.28,2.24a4.56,4.56,0,0,1,.07.79,4.06,4.06,0,0,1-.17-.77c-.1-.56-.22-1.3-.38-2.23-.32-1.94-.74-4.75-1.16-8.24a112.34,112.34,0,0,1-.33-27.41A50.93,50.93,0,0,1,204,180a58.72,58.72,0,0,1,8.86-17.48,42.41,42.41,0,0,1,5.54-6.21,20.45,20.45,0,0,1,1.73-1.46A4.61,4.61,0,0,1,220.81,154.35Z" style="fill:#263238"></path><path d="M220.81,154.35s-.49.63-1.16,1.87a17,17,0,0,0-1.74,5.69,42.11,42.11,0,0,0-.12,8.87c.21,3.35.54,7,1.08,10.87A115.41,115.41,0,0,0,223.23,201c.78,2.42,1.48,4.35,2,5.68l.57,1.54a2.15,2.15,0,0,1,.16.55,2.2,2.2,0,0,1-.26-.51l-.66-1.5c-.55-1.32-1.31-3.24-2.14-5.65a104.93,104.93,0,0,1-4.53-19.37c-.53-3.85-.86-7.55-1-10.91a40.39,40.39,0,0,1,.24-9,16.16,16.16,0,0,1,1.92-5.72,9.41,9.41,0,0,1,.94-1.36A2.6,2.6,0,0,1,220.81,154.35Z" style="fill:#263238"></path><path d="M222.61,153.09a2.31,2.31,0,0,1,.48.16c.31.13.76.3,1.33.56a48.65,48.65,0,0,1,4.74,2.41,46.87,46.87,0,0,1,6.44,4.55,71.25,71.25,0,0,1,6.88,6.76,143.18,143.18,0,0,1,10.77,13.81c1.28,1.84,2.29,3.34,3,4.38l.78,1.21a2.06,2.06,0,0,1,.25.44s-.13-.12-.34-.38l-.86-1.15L253,181.55a172.75,172.75,0,0,0-10.85-13.67,76.79,76.79,0,0,0-6.81-6.74,49,49,0,0,0-6.32-4.6c-1.91-1.16-3.52-2-4.63-2.55A15,15,0,0,1,222.61,153.09Z" style="fill:#263238"></path><path d="M222.61,153.09a4.8,4.8,0,0,1,.63-.37c.43-.22,1-.57,1.86-1a46,46,0,0,1,7.21-2.79,34.52,34.52,0,0,1,11.38-1.33,49.91,49.91,0,0,1,13.73,2.93,66.22,66.22,0,0,1,21.79,13A69,69,0,0,1,284.7,169c.61.67,1.06,1.22,1.37,1.59a5.67,5.67,0,0,1,.45.58,3.13,3.13,0,0,1-.53-.51c-.34-.34-.8-.87-1.44-1.52-1.26-1.31-3.13-3.17-5.58-5.3a68.1,68.1,0,0,0-21.72-12.81,50.69,50.69,0,0,0-13.58-2.94,35.19,35.19,0,0,0-11.26,1.2,49.52,49.52,0,0,0-7.22,2.63c-.83.36-1.46.68-1.9.87A3.46,3.46,0,0,1,222.61,153.09Z" style="fill:#263238"></path><path d="M309.37,151.83l-.22-.08-.63-.28-2.38-1.1-1.72-.81-2.1-.84c-1.5-.6-3.2-1.32-5.15-1.92l-3-1c-1.07-.31-2.19-.59-3.34-.91-2.3-.69-4.82-1.13-7.45-1.7a108.39,108.39,0,0,0-17.42-1.65,99.8,99.8,0,0,0-17.41,1.61c-2.62.61-5.15,1.07-7.42,1.83-1.14.35-2.26.65-3.31,1l-3,1.13a52,52,0,0,0-5,2.2c-.73.34-1.41.65-2,1l-1.65.94-2.29,1.29-.6.32-.22.1a.71.71,0,0,1,.19-.14l.57-.37L226,151l1.63-1c.61-.32,1.3-.64,2-1a49.77,49.77,0,0,1,5-2.27l3-1.17c1.05-.37,2.17-.68,3.32-1,2.28-.79,4.81-1.27,7.45-1.89a96.93,96.93,0,0,1,17.5-1.66,104.82,104.82,0,0,1,17.51,1.7c2.64.58,5.17,1,7.47,1.75,1.16.33,2.28.63,3.35,1l3,1c1.95.62,3.65,1.37,5.15,2l2.08.88,1.7.85,2.35,1.2.6.32A.82.82,0,0,1,309.37,151.83Z" style="fill:#263238"></path><path d="M189,185.89a23.05,23.05,0,0,1-4.8.82,23.14,23.14,0,0,1-4.87.3,23.07,23.07,0,0,1,4.81-.82A22.27,22.27,0,0,1,189,185.89Z" style="fill:#e0e0e0"></path><path d="M191.16,178.07a17.25,17.25,0,0,1-3.72-1.93,17.47,17.47,0,0,1-3.45-2.37,17.46,17.46,0,0,1,3.72,1.92A16.45,16.45,0,0,1,191.16,178.07Z" style="fill:#e0e0e0"></path><path d="M195.39,173.46a25.61,25.61,0,0,1-1.32-5,25.85,25.85,0,0,1-.82-5.07,26,26,0,0,1,1.33,5A25.35,25.35,0,0,1,195.39,173.46Z" style="fill:#e0e0e0"></path><path d="M196.47,190.47a5.53,5.53,0,0,1-.38,1.19c-.28.75-.66,1.84-1.09,3.2a62,62,0,0,0-3,22c.06,1.43.14,2.58.21,3.38a5.09,5.09,0,0,1,.05,1.24,6.34,6.34,0,0,1-.25-1.22c-.14-.79-.27-1.95-.38-3.38a55.26,55.26,0,0,1,.35-11.21,54.46,54.46,0,0,1,2.63-10.9c.48-1.35.92-2.43,1.26-3.15A6.47,6.47,0,0,1,196.47,190.47Z" style="fill:#e0e0e0"></path><path d="M199.77,182.09c.12.07-.23.9-.78,1.85s-1.1,1.67-1.23,1.6.23-.91.78-1.86S199.64,182,199.77,182.09Z" style="fill:#e0e0e0"></path></g><g id="freepik--Plant--inject-69"><path d="M404.59,458.8c-.67-2.66,1.09-5.32,3.06-7.24s4.31-3.64,5.35-6.19c1.67-4.13-.52-9.5,2.32-12.93,1.66-2,4.64-2.69,6.12-4.85a11.2,11.2,0,0,0,1.34-3.87,39.41,39.41,0,0,1,9.9-18.27,34.23,34.23,0,0,1-3.94,17.64c-1.15,2.17-2.57,4.27-3,6.69-.63,3.93,1.54,8,.55,11.85C425.2,446,420.22,449,420,453.52c-.22,3.84,3.11,7.23,2.84,11.07a10.33,10.33,0,0,1-1.74,4.55c-3,4.93-7.38,8.3-14,8.16l-8.11.23Z" style="fill:#A8DADC"></path><g style="opacity:0.30000000000000004"><path d="M404.59,458.8c-.67-2.66,1.09-5.32,3.06-7.24s4.31-3.64,5.35-6.19c1.67-4.13-.52-9.5,2.32-12.93,1.66-2,4.64-2.69,6.12-4.85a11.2,11.2,0,0,0,1.34-3.87,39.41,39.41,0,0,1,9.9-18.27,34.23,34.23,0,0,1-3.94,17.64c-1.15,2.17-2.57,4.27-3,6.69-.63,3.93,1.54,8,.55,11.85C425.2,446,420.22,449,420,453.52c-.22,3.84,3.11,7.23,2.84,11.07a10.33,10.33,0,0,1-1.74,4.55c-3,4.93-7.38,8.3-14,8.16l-8.11.23Z"></path></g><path d="M397.31,477.74a6.65,6.65,0,0,1-2.23-.06,13.46,13.46,0,0,1-2.63-.68,11.28,11.28,0,0,1-3.24-1.8,4.57,4.57,0,0,1-1.33-1.79,8.35,8.35,0,0,1-.37-2.43,23.81,23.81,0,0,0-.17-2.62,7.37,7.37,0,0,0-1-2.61c-.95-1.69-2.52-3.28-3-5.57s-.13-4.67.26-7.1.77-5.08-.15-7.62-2.62-4.84-3.49-7.7-.44-6-.61-9.05a12,12,0,0,0-1-4.51c-.65-1.44-1.55-2.8-2.25-4.31-1.42-3.06-1.66-6.53-2-9.92-.18-1.71-.37-3.44-.55-5.18a25.94,25.94,0,0,0-.87-5.19,47.47,47.47,0,0,0-1.91-5,15.72,15.72,0,0,1-.93-2.63c-.15-.95-.19-1.85-.25-2.78a32.94,32.94,0,0,1,.25-5.61c.23-1.87.58-3.73.79-5.6l0-.32,0-.38.34.17a12.55,12.55,0,0,1,4.34,3.71,19.71,19.71,0,0,1,2.65,4.95c1.34,3.5,1.8,7.15,2.46,10.63a29,29,0,0,0,3.28,9.83c.88,1.44,1.95,2.77,2.88,4.18a11.41,11.41,0,0,1,2,4.63c.46,3.44-1.44,6.44-1.07,9.47A10.68,10.68,0,0,0,389,429c.73,1.3,1.59,2.51,2.4,3.72a23.41,23.41,0,0,1,2.15,3.75,11.77,11.77,0,0,1,1,4.07c.18,2.73-.22,5.32,0,7.77a17.8,17.8,0,0,0,2,6.68c1,2,2.05,3.81,2.95,5.56.45.88.87,1.73,1.21,2.59a12.63,12.63,0,0,1,.7,2.57,15.93,15.93,0,0,1,0,4.62,11.56,11.56,0,0,1-2.35,5.89,5.15,5.15,0,0,1-.66.71,3.75,3.75,0,0,1-.53.45l-.47.32a9.83,9.83,0,0,0,1.58-1.55,11.66,11.66,0,0,0,2.23-5.84,16.33,16.33,0,0,0-.07-4.56,12.62,12.62,0,0,0-.71-2.51,28.1,28.1,0,0,0-1.22-2.56c-.91-1.73-2-3.54-3-5.55a18.07,18.07,0,0,1-2-6.79c-.2-2.5.19-5.1,0-7.77a11.33,11.33,0,0,0-1-3.93A22.47,22.47,0,0,0,391,433c-.81-1.21-1.68-2.42-2.43-3.74a10.89,10.89,0,0,1-1.52-4.39c-.37-3.24,1.52-6.26,1.05-9.45a11,11,0,0,0-1.92-4.43c-.92-1.39-2-2.71-2.9-4.2a29.43,29.43,0,0,1-3.35-10c-.67-3.51-1.13-7.12-2.44-10.54a19.4,19.4,0,0,0-2.59-4.83,12,12,0,0,0-4.16-3.55l.38-.21,0,.33c-.22,1.9-.56,3.75-.79,5.6a32,32,0,0,0-.25,5.52,26,26,0,0,0,.24,2.71,16.21,16.21,0,0,0,.89,2.53,47.3,47.3,0,0,1,1.93,5.08,26.24,26.24,0,0,1,.88,5.28c.18,1.75.36,3.47.54,5.19.37,3.4.61,6.81,2,9.77.67,1.47,1.57,2.83,2.24,4.32a12.36,12.36,0,0,1,1.06,4.67c.16,3.13-.27,6.18.56,9s2.58,5.07,3.46,7.69.53,5.39.13,7.81-.81,4.81-.3,7,2,3.76,2.95,5.49a7.4,7.4,0,0,1,1,2.72,22.39,22.39,0,0,1,.16,2.65,8.36,8.36,0,0,0,.33,2.36,4.35,4.35,0,0,0,1.25,1.72,11.06,11.06,0,0,0,3.16,1.8,13,13,0,0,0,2.6.72,9.39,9.39,0,0,0,1.64.17Z" style="fill:#263238"></path><path d="M372.24,382.1a.75.75,0,0,1,.08.24c.05.2.1.44.17.74.16.63.34,1.6.64,2.81s1,2.56,1.66,4.24a59,59,0,0,1,1.9,5.76c.6,2.16,1.14,4.57,1.69,7.14a30.11,30.11,0,0,0,2.55,7.93c.66,1.32,1.4,2.66,2,4.12a19.14,19.14,0,0,1,1.14,4.66,94,94,0,0,0,1.69,9.82l4.48,18.75,3.75,15.3c1,4.33,1.89,7.84,2.49,10.33.27,1.19.49,2.12.65,2.81.06.3.11.54.16.73a.86.86,0,0,1,0,.26.91.91,0,0,1-.09-.24l-.2-.73c-.18-.67-.43-1.61-.75-2.79-.63-2.47-1.54-6-2.65-10.28l-3.86-15.27-4.52-18.76a92.52,92.52,0,0,1-1.69-9.86,18.17,18.17,0,0,0-1.1-4.54c-.56-1.43-1.29-2.76-1.95-4.09a30.61,30.61,0,0,1-2.54-8.06c-.54-2.58-1-5-1.63-7.13s-1.2-4.09-1.81-5.76-1.29-3.05-1.58-4.29-.43-2.19-.55-2.84l-.12-.74A.86.86,0,0,1,372.24,382.1Z" style="fill:#263238"></path><path d="M395.88,477.75c-5.28-3.17-6.74-12.73-4.5-18.47s6.14-11,6.77-17.1c.48-4.71-1-9.55.09-14.15,1.52-6.21,7.61-11,7.58-17.38,0-3.58-2-7-1.86-10.55.23-4.39,3.62-7.86,5.73-11.72,3.23-5.9,3.48-12.9,4.61-19.54s3.7-13.73,9.61-17c.83,5.64,2.3,9.51,1.79,17.15-.19,2.74-3.4,8-3.87,14-.28,3.6-.48,7.19-.72,10.79s-.48,7.06-1.75,10.33c-1,2.5-2.54,4.77-3.26,7.36-1.38,4.86.36,10.15-.75,15.08-1,4.18-3.86,7.76-4.48,12-.86,6,3,12.17.95,17.84-1,2.82-3.33,5.07-4,8-.52,2.26,0,4.65-.46,6.92-.76,3.65-7.76,6.45-11.48,6.21" style="fill:#A8DADC"></path><path d="M422.42,357.47a2.49,2.49,0,0,1,0,.31l-.12.93c-.13.81-.27,2-.56,3.55s-1.11,3.3-1.76,5.41-1.38,4.52-2,7.24-1.14,5.72-1.69,8.95A37.79,37.79,0,0,1,413.5,394c-.75,1.69-1.6,3.38-2.23,5.18a23.32,23.32,0,0,0-1.15,5.72,116.71,116.71,0,0,1-1.62,12.32c-1.67,8.35-3.26,16.3-4.71,23.53s-2.89,13.7-4.05,19.17-2.11,9.82-2.77,12.91c-.34,1.49-.6,2.67-.78,3.5-.09.38-.16.68-.22.91a1.31,1.31,0,0,1-.09.31,1.09,1.09,0,0,1,0-.32c0-.23.1-.54.16-.92.17-.84.4-2,.69-3.52.62-3.1,1.51-7.51,2.61-12.95s2.46-12,3.94-19.19,3-15.18,4.66-23.52a116.07,116.07,0,0,0,1.63-12.28A24.05,24.05,0,0,1,410.8,399c.65-1.84,1.51-3.54,2.26-5.21a37.27,37.27,0,0,0,2.79-10c.56-3.22,1.11-6.24,1.75-8.95s1.35-5.15,2.07-7.25,1.52-3.85,1.85-5.36.48-2.72.64-3.53c.08-.38.13-.68.18-.91A1,1,0,0,1,422.42,357.47Z" style="fill:#263238"></path></g><g id="freepik--Rain--inject-69"><path d="M218.44,171.61c-.13.06-5.3-10.28-11.54-23.1s-11.2-23.27-11.07-23.33,5.29,10.27,11.54,23.1S218.57,171.55,218.44,171.61Z" style="fill:#263238"></path><path d="M59.3,285c-.13.06-5.3-10.29-11.54-23.11s-11.2-23.26-11.07-23.33,5.3,10.28,11.54,23.11S59.43,284.9,59.3,285Z" style="fill:#263238"></path><path d="M281.83,129.28c-.13.06-5.3-10.28-11.54-23.1s-11.2-23.27-11.07-23.33,5.29,10.28,11.54,23.1S282,129.22,281.83,129.28Z" style="fill:#263238"></path><path d="M382.38,118.33c-.13.06-5.3-10.28-11.54-23.1S359.64,72,359.77,71.9s5.3,10.28,11.54,23.1S382.51,118.27,382.38,118.33Z" style="fill:#263238"></path><path d="M52.45,132.91c-.12.07-5.29-10.28-11.53-23.1S29.72,86.54,29.85,86.48s5.29,10.28,11.54,23.1S52.58,132.85,52.45,132.91Z" style="fill:#263238"></path><path d="M60.06,371c-.13.06-5.29-10.28-11.53-23.1s-11.2-23.27-11.07-23.34S42.75,334.8,49,347.63,60.19,370.89,60.06,371Z" style="fill:#e0e0e0"></path><path d="M104,216.43c-.13.06-5.3-10.28-11.54-23.1S81.27,170.06,81.4,170s5.29,10.28,11.54,23.1S104.13,216.37,104,216.43Z" style="fill:#263238"></path><path d="M140.65,88.8c-.13.07-3.61-6.81-7.77-15.36s-7.43-15.53-7.3-15.59,3.61,6.81,7.77,15.36S140.78,88.74,140.65,88.8Z" style="fill:#263238"></path><path d="M106,399.84c-.13.06-3.61-6.81-7.77-15.36s-7.43-15.53-7.3-15.59,3.61,6.81,7.77,15.36S106.08,399.78,106,399.84Z" style="fill:#263238"></path><path d="M110.71,140.65c-.12.07-3.6-6.81-7.76-15.36s-7.44-15.53-7.31-15.59,3.61,6.81,7.77,15.36S110.84,140.59,110.71,140.65Z" style="fill:#263238"></path><path d="M408.34,237.22c-.13.06-5.3-10.28-11.54-23.1s-11.2-23.27-11.07-23.33,5.3,10.27,11.54,23.1S408.47,237.16,408.34,237.22Z" style="fill:#263238"></path><path d="M147.15,343a5.59,5.59,0,0,1-.62-1.05L145,339c-1.28-2.5-3-6-4.88-9.83s-3.55-7.36-4.74-9.91c-.54-1.2-1-2.21-1.38-3a5.93,5.93,0,0,1-.44-1.14,6.08,6.08,0,0,1,.62,1.05l1.54,3c1.27,2.5,3,6,4.87,9.84s3.55,7.35,4.74,9.9l1.38,3A5.18,5.18,0,0,1,147.15,343Z" style="fill:#263238"></path><path d="M425.14,376.6a5.59,5.59,0,0,1-.62-1.05l-1.53-3c-1.27-2.5-3-6-4.88-9.83s-3.55-7.36-4.73-9.91l-1.38-3a5.66,5.66,0,0,1-.45-1.14,5.58,5.58,0,0,1,.63,1.06l1.53,2.95c1.27,2.51,3,6,4.87,9.84s3.55,7.36,4.74,9.9l1.38,3A4.76,4.76,0,0,1,425.14,376.6Z" style="fill:#ebebeb"></path><path d="M204.3,370.15a5.59,5.59,0,0,1-.62-1l-1.53-3c-1.27-2.51-3-6-4.88-9.84s-3.55-7.36-4.73-9.91l-1.38-3a5.59,5.59,0,0,1-.45-1.15,5.58,5.58,0,0,1,.63,1.06l1.53,2.95c1.27,2.51,3,6,4.87,9.84s3.55,7.36,4.74,9.9l1.38,3A4.76,4.76,0,0,1,204.3,370.15Z" style="fill:#ebebeb"></path><path d="M161,227.91a6.32,6.32,0,0,1-.63-1.06l-1.53-2.95c-1.27-2.51-3-6-4.87-9.84s-3.55-7.36-4.74-9.9l-1.38-3a4.76,4.76,0,0,1-.44-1.14,5.59,5.59,0,0,1,.62,1c.41.79.93,1.78,1.53,3,1.28,2.51,3,6,4.88,9.84s3.55,7.36,4.73,9.91l1.39,3A5.85,5.85,0,0,1,161,227.91Z" style="fill:#263238"></path><path d="M209.28,384.11a2.45,2.45,0,0,1-.3-.54l-.77-1.59c-.68-1.46-1.61-3.45-2.74-5.9l-8.86-19.54c-3.4-7.63-6.47-14.53-8.72-19.6-1.08-2.48-2-4.5-2.59-6-.28-.67-.51-1.21-.68-1.63a4.52,4.52,0,0,1-.21-.58,2.16,2.16,0,0,1,.3.54l.77,1.59c.68,1.45,1.61,3.45,2.74,5.9l8.86,19.54c3.4,7.63,6.47,14.53,8.72,19.6,1.08,2.47,2,4.5,2.59,6,.28.66.51,1.2.68,1.63A4,4,0,0,1,209.28,384.11Z" style="fill:#263238"></path><path d="M181.22,450.07a2.45,2.45,0,0,1-.3-.54c-.2-.42-.45-.95-.77-1.6-.67-1.45-1.6-3.45-2.74-5.89l-8.86-19.54c-3.39-7.63-6.47-14.54-8.72-19.61-1.08-2.47-2-4.49-2.59-6l-.68-1.64a3.52,3.52,0,0,1-.21-.58,2.45,2.45,0,0,1,.3.54l.77,1.59,2.74,5.9L169,422.28l8.72,19.61,2.59,6c.27.67.5,1.21.68,1.63A2.35,2.35,0,0,1,181.22,450.07Z" style="fill:#263238"></path><path d="M389.46,380.82a3.11,3.11,0,0,1-.3-.54c-.2-.41-.45-.94-.77-1.59-.67-1.46-1.6-3.46-2.74-5.9l-8.86-19.54c-3.39-7.63-6.46-14.53-8.72-19.6-1.07-2.48-1.95-4.5-2.59-6-.28-.67-.5-1.21-.68-1.63a2.35,2.35,0,0,1-.2-.59,3.58,3.58,0,0,1,.3.55c.2.41.45.94.77,1.59l2.74,5.9L377.27,353l8.72,19.6,2.59,6c.28.66.5,1.2.68,1.63A2.23,2.23,0,0,1,389.46,380.82Z" style="fill:#263238"></path><path d="M445.09,222.57a5.9,5.9,0,0,1-.63-1l-1.53-3c-1.27-2.51-3-6-4.87-9.84s-3.55-7.36-4.74-9.91l-1.38-3a4.56,4.56,0,0,1-.44-1.15,6,6,0,0,1,.62,1.06l1.53,2.95c1.27,2.51,3,6,4.88,9.84s3.55,7.36,4.73,9.9c.55,1.21,1,2.22,1.39,3A6.23,6.23,0,0,1,445.09,222.57Z" style="fill:#263238"></path><path d="M401.85,312.21a5,5,0,0,1-.63-1.06l-1.53-2.95c-1.27-2.51-3-6-4.87-9.84s-3.55-7.36-4.74-9.9l-1.38-3a5.94,5.94,0,0,1-.45-1.14,4.72,4.72,0,0,1,.63,1l1.53,3c1.27,2.51,3,6,4.87,9.84s3.55,7.36,4.74,9.91l1.38,3A5.59,5.59,0,0,1,401.85,312.21Z" style="fill:#263238"></path><path d="M169.79,302.33a6,6,0,0,1-.62-1.06c-.42-.79-.93-1.78-1.54-2.95-1.27-2.51-3-6-4.87-9.84s-3.55-7.36-4.74-9.9l-1.38-3a6.23,6.23,0,0,1-.44-1.14,5.59,5.59,0,0,1,.62,1c.41.79.93,1.78,1.53,3,1.28,2.51,3,6,4.88,9.84s3.55,7.36,4.74,9.91c.54,1.2,1,2.21,1.38,3A5.85,5.85,0,0,1,169.79,302.33Z" style="fill:#263238"></path><path d="M427.13,131a5.66,5.66,0,0,1-.63-1.05c-.41-.8-.92-1.79-1.53-3-1.27-2.5-3-6-4.87-9.84s-3.55-7.35-4.74-9.9l-1.38-3a4.59,4.59,0,0,1-.44-1.14,5.59,5.59,0,0,1,.62,1.05l1.53,3c1.27,2.5,3,6,4.88,9.84s3.55,7.35,4.73,9.9l1.38,3A5.66,5.66,0,0,1,427.13,131Z" style="fill:#263238"></path><path d="M220.73,110.77a5,5,0,0,1-.63-1.06l-1.53-2.95c-1.27-2.51-3-6-4.87-9.84S210.15,89.56,209,87l-1.38-3a5.94,5.94,0,0,1-.45-1.14,4.72,4.72,0,0,1,.63,1.05l1.53,3c1.27,2.5,3,6,4.87,9.83s3.55,7.36,4.74,9.91l1.38,3A5.85,5.85,0,0,1,220.73,110.77Z" style="fill:#263238"></path><path d="M328.62,121.44a5.24,5.24,0,0,1-.63-1l-1.53-3c-1.27-2.5-3-6-4.87-9.83s-3.55-7.36-4.74-9.91l-1.38-3a4.59,4.59,0,0,1-.44-1.14,6.08,6.08,0,0,1,.62,1c.41.8.92,1.79,1.53,3,1.27,2.51,3,6,4.88,9.84s3.55,7.35,4.73,9.9l1.38,3A5.94,5.94,0,0,1,328.62,121.44Z" style="fill:#263238"></path><path d="M333,188.55a5.59,5.59,0,0,1-.62-1.05c-.41-.79-.93-1.78-1.53-3-1.28-2.5-3-6-4.88-9.83s-3.55-7.36-4.74-9.91c-.54-1.2-1-2.21-1.38-3a5.93,5.93,0,0,1-.44-1.14,6,6,0,0,1,.62,1.06c.42.79.93,1.78,1.54,2.95,1.27,2.51,3,6,4.87,9.84s3.55,7.36,4.74,9.9l1.38,3A6.23,6.23,0,0,1,333,188.55Z" style="fill:#263238"></path><path d="M341.77,445.76a5.66,5.66,0,0,1-.63-1.05c-.41-.8-.92-1.79-1.53-3-1.27-2.51-3-6-4.87-9.84s-3.55-7.36-4.74-9.9l-1.38-3a4.76,4.76,0,0,1-.44-1.14,5.59,5.59,0,0,1,.62,1.05l1.53,3c1.27,2.5,3,6,4.88,9.84s3.54,7.35,4.73,9.9l1.38,3A5.66,5.66,0,0,1,341.77,445.76Z" style="fill:#263238"></path></g><g id="freepik--twitter-icons--inject-69"><path d="M114,164.65l-.28,2.36a5,5,0,0,0,2.1,4.68l2,1.36L114,173l.28.89a9.12,9.12,0,0,0,4.54,5.39l.8.41-3.07.36,1,1.17a8.86,8.86,0,0,0,5,3l.4.09s-1.36,2.83-9.07,4.07a20.56,20.56,0,0,0,12.9,1.54c6.31-1.25,12.16-5.13,14.81-11a14,14,0,0,0,.9-10.22,45.29,45.29,0,0,0,3.1-3.78l-.19-.43-3.46,1.85s3.11-3.58,2.9-4.21c0,0-3.58,2-3.93,1.91s-4.29-4.69-8.85-1.26-3.08,7.85-3.08,7.85S121.86,171.85,114,164.65Z" style="fill:#455a64"></path><path d="M159.06,80.83l-.28,2.37a5,5,0,0,0,2.1,4.67l2,1.36H159l.28.89a9.12,9.12,0,0,0,4.55,5.38l.79.41-3.06.37,1,1.16a8.85,8.85,0,0,0,5,3l.41.08s-1.36,2.83-9.08,4.07a20.52,20.52,0,0,0,12.91,1.54c6.31-1.25,12.16-5.12,14.81-11a14,14,0,0,0,.9-10.21,45.38,45.38,0,0,0,3.09-3.79l-.19-.42-3.45,1.84s3.11-3.58,2.9-4.21c0,0-3.59,2.05-3.94,1.91S181.56,75.55,177,79s-3.09,7.84-3.09,7.84S166.91,88,159.06,80.83Z" style="fill:#A8DADC"></path><path d="M284.82,92.29l-.25,2.1a4.41,4.41,0,0,0,1.86,4.15l1.73,1.21-3.4,0,.25.79a8.09,8.09,0,0,0,4,4.78l.71.37L287,106l.86,1a7.9,7.9,0,0,0,4.4,2.65l.36.07s-1.2,2.51-8,3.62a18.17,18.17,0,0,0,11.45,1.36c5.61-1.11,10.8-4.55,13.15-9.75a12.46,12.46,0,0,0,.8-9.07,39,39,0,0,0,2.75-3.37l-.17-.37-3.07,1.64s2.77-3.18,2.58-3.74c0,0-3.18,1.81-3.49,1.7s-3.81-4.16-7.86-1.12-2.74,7-2.74,7S291.78,98.68,284.82,92.29Z" style="fill:#455a64"></path><path d="M406.5,150.63l-.25,2.1a4.44,4.44,0,0,0,1.87,4.15l1.73,1.21-3.41,0,.25.79a8.11,8.11,0,0,0,4,4.78l.71.37-2.73.32.87,1A7.9,7.9,0,0,0,414,168l.36.07s-1.2,2.51-8.06,3.62a18.21,18.21,0,0,0,11.46,1.36c5.61-1.11,10.8-4.55,13.15-9.75a12.46,12.46,0,0,0,.8-9.07,40.43,40.43,0,0,0,2.75-3.36c-.07-.17-.17-.38-.17-.38l-3.07,1.64s2.77-3.18,2.58-3.74c0,0-3.18,1.81-3.5,1.7s-3.8-4.16-7.85-1.12-2.74,7-2.74,7S413.47,157,406.5,150.63Z" style="fill:#A8DADC"></path><path d="M108.56,281.3l-.25,2.1a4.4,4.4,0,0,0,1.86,4.15l1.73,1.21-3.4,0,.24.79a8.13,8.13,0,0,0,4,4.79l.71.36-2.72.33.86,1a7.83,7.83,0,0,0,4.4,2.64l.36.07s-1.2,2.52-8,3.62a18.17,18.17,0,0,0,11.45,1.36c5.61-1.1,10.8-4.54,13.15-9.75a12.46,12.46,0,0,0,.8-9.07,40.43,40.43,0,0,0,2.75-3.36l-.17-.38-3.07,1.64s2.77-3.18,2.58-3.74c0,0-3.18,1.82-3.49,1.7s-3.81-4.16-7.86-1.12-2.74,7-2.74,7S115.52,287.69,108.56,281.3Z" style="fill:#A8DADC"></path><path d="M360.89,242.77l-.16,1.35a2.84,2.84,0,0,0,1.2,2.66l1.11.78h-2.19l.16.5a5.19,5.19,0,0,0,2.59,3.07l.45.23-1.74.21.55.67a5.06,5.06,0,0,0,2.83,1.69l.23.05s-.77,1.61-5.17,2.32a12.16,12.16,0,0,0,15.79-5.39,8,8,0,0,0,.51-5.81,25.4,25.4,0,0,0,1.76-2.16l-.11-.24-2,1.05s1.77-2,1.65-2.4a13.75,13.75,0,0,1-2.24,1.09c-.2-.08-2.44-2.67-5-.72a4.12,4.12,0,0,0-1.76,4.47S365.36,246.87,360.89,242.77Z" style="fill:#A8DADC"></path><path d="M57.76,387.18l-.16,1.34a2.83,2.83,0,0,0,1.19,2.67l1.12.77H57.72l.16.51a5.22,5.22,0,0,0,2.59,3.07l.45.23-1.75.21.56.66a5.05,5.05,0,0,0,2.82,1.7l.23,0S62,400,57.62,400.69a12.13,12.13,0,0,0,15.78-5.38,8,8,0,0,0,.52-5.82,23.92,23.92,0,0,0,1.76-2.16l-.11-.24-2,1.05s1.78-2,1.66-2.39A13.09,13.09,0,0,1,73,386.83c-.2-.07-2.44-2.67-5-.71a4.12,4.12,0,0,0-1.76,4.47S62.23,391.28,57.76,387.18Z" style="fill:#455a64"></path><path d="M398.52,322.26l-.39,1a2.21,2.21,0,0,0,.35,2.26l.68.82-1.65-.46v.41a4.11,4.11,0,0,0,1.32,2.86l.3.27-1.36-.2.28.61a4,4,0,0,0,1.78,1.87l.17.08s-.92,1.06-4.39.68a9.52,9.52,0,0,0,13-.8,6.24,6.24,0,0,0,1.6-4.29,20.51,20.51,0,0,0,1.77-1.26l0-.21-1.7.39s1.76-1.18,1.74-1.47a10.25,10.25,0,0,1-1.92.36c-.13-.1-1.29-2.52-3.66-1.59a3.25,3.25,0,0,0-2.25,3S401.05,326.28,398.52,322.26Z" style="fill:#263238"></path><path d="M54.76,229.83l-.4,1a2.21,2.21,0,0,0,.35,2.26l.68.81-1.65-.46,0,.42a4,4,0,0,0,1.32,2.85l.29.27-1.36-.2.28.61a4,4,0,0,0,1.79,1.87l.16.08s-.92,1.06-4.39.69a9.22,9.22,0,0,0,5.38,2.18,9.1,9.1,0,0,0,7.67-3,6.28,6.28,0,0,0,1.59-4.29,18.54,18.54,0,0,0,1.77-1.26l0-.21-1.7.39s1.76-1.17,1.74-1.47a10.25,10.25,0,0,1-1.92.36c-.13-.1-1.29-2.52-3.65-1.58a3.23,3.23,0,0,0-2.26,3S57.28,233.86,54.76,229.83Z" style="fill:#A8DADC"></path><path d="M212.8,332.85l-.4,1a2.23,2.23,0,0,0,.35,2.26l.68.81-1.65-.46,0,.42a4.07,4.07,0,0,0,1.32,2.85l.3.27-1.37-.2.29.61a3.85,3.85,0,0,0,1.78,1.87l.16.08s-.91,1.06-4.38.69a9.21,9.21,0,0,0,5.37,2.18,9,9,0,0,0,7.67-3,6.26,6.26,0,0,0,1.59-4.29,20,20,0,0,0,1.78-1.26l0-.21-1.71.39s1.76-1.17,1.75-1.47a10.41,10.41,0,0,1-1.92.36c-.14-.1-1.29-2.52-3.66-1.58a3.22,3.22,0,0,0-2.25,3S215.33,336.88,212.8,332.85Z" style="fill:#263238"></path><path d="M110.3,82.72l-.4,1a2.23,2.23,0,0,0,.36,2.27l.68.81-1.65-.46v.42a4.09,4.09,0,0,0,1.32,2.85l.3.27-1.36-.2.28.61a3.94,3.94,0,0,0,1.78,1.87l.16.08s-.91,1.06-4.38.69a9.21,9.21,0,0,0,5.37,2.18,9.1,9.1,0,0,0,7.67-3A6.24,6.24,0,0,0,122,87.81s1.79-1.18,1.78-1.26l0-.21-1.71.39s1.77-1.17,1.75-1.47a10.41,10.41,0,0,1-1.92.36c-.14-.1-1.29-2.52-3.66-1.59a3.23,3.23,0,0,0-2.25,3S112.83,86.74,110.3,82.72Z" style="fill:#263238"></path><path d="M239.43,104.57l-.4,1a2.23,2.23,0,0,0,.36,2.26l.68.82-1.65-.46v.42a4.09,4.09,0,0,0,1.32,2.85l.3.27-1.36-.2.28.61a4,4,0,0,0,1.78,1.87l.17.08s-.92,1.06-4.39.68a9.49,9.49,0,0,0,13-.8,6.19,6.19,0,0,0,1.59-4.29,20.64,20.64,0,0,0,1.78-1.26l0-.21-1.71.39s1.77-1.17,1.75-1.47a10.25,10.25,0,0,1-1.92.36c-.13-.1-1.29-2.52-3.66-1.59a3.25,3.25,0,0,0-2.25,3S242,108.59,239.43,104.57Z" style="fill:#455a64"></path><path d="M354.47,155.85l-.4,1a2.21,2.21,0,0,0,.35,2.26l.68.81-1.65-.46,0,.42a4,4,0,0,0,1.32,2.85l.29.27-1.36-.2.28.62a3.94,3.94,0,0,0,1.79,1.86l.16.08s-.92,1.06-4.39.69a9.52,9.52,0,0,0,13.05-.81,6.26,6.26,0,0,0,1.59-4.29,18.54,18.54,0,0,0,1.77-1.26l0-.2-1.7.38s1.76-1.17,1.74-1.47a10.25,10.25,0,0,1-1.92.36c-.13-.1-1.29-2.52-3.65-1.58a3.24,3.24,0,0,0-2.26,3S357,159.88,354.47,155.85Z" style="fill:#455a64"></path><path d="M320.5,295.39l-.4,1a2.23,2.23,0,0,0,.35,2.26l.68.81-1.65-.46,0,.42a4,4,0,0,0,1.32,2.85l.29.27-1.36-.2.28.62a3.94,3.94,0,0,0,1.79,1.86l.16.08s-.91,1.06-4.38.69a9.52,9.52,0,0,0,13-.8,6.3,6.3,0,0,0,1.59-4.29,20.17,20.17,0,0,0,1.78-1.27l0-.2-1.7.38s1.76-1.17,1.75-1.47a10.41,10.41,0,0,1-1.92.36c-.14-.1-1.29-2.52-3.66-1.58a3.22,3.22,0,0,0-2.25,3S323,299.42,320.5,295.39Z" style="fill:#455a64"></path><path d="M48.06,150.24l-.4,1a2.21,2.21,0,0,0,.36,2.26l.68.82-1.65-.46v.42a4.09,4.09,0,0,0,1.32,2.85l.3.27-1.36-.2.28.61a3.94,3.94,0,0,0,1.78,1.87l.17.08s-.92,1.06-4.39.69a9.21,9.21,0,0,0,5.37,2.18,9.1,9.1,0,0,0,7.67-3,6.24,6.24,0,0,0,1.59-4.29s1.79-1.18,1.78-1.26l0-.21-1.71.39s1.77-1.17,1.75-1.47a10.25,10.25,0,0,1-1.92.36c-.13-.1-1.29-2.52-3.66-1.59a3.25,3.25,0,0,0-2.25,3S50.59,154.26,48.06,150.24Z" style="fill:#455a64"></path><path d="M162.26,248.22l-.4,1a2.21,2.21,0,0,0,.35,2.26l.68.81-1.65-.46v.42a4.09,4.09,0,0,0,1.32,2.85l.3.27-1.36-.2.28.61a4,4,0,0,0,1.78,1.87l.17.08s-.92,1.06-4.39.69a9.22,9.22,0,0,0,5.38,2.18,9.09,9.09,0,0,0,7.66-3,6.24,6.24,0,0,0,1.6-4.29,18.54,18.54,0,0,0,1.77-1.26l0-.21-1.7.39s1.76-1.17,1.74-1.47a10.25,10.25,0,0,1-1.92.36c-.13-.1-1.29-2.52-3.66-1.58a3.23,3.23,0,0,0-2.25,3S164.78,252.24,162.26,248.22Z" style="fill:#455a64"></path></g></svg>