<svg width="88" height="80" viewBox="0 0 88 80" fill="none" xmlns="http://www.w3.org/2000/svg">
<path fill-rule="evenodd" clip-rule="evenodd" d="M9.1377 0C4.16713 0 0.137695 4.02944 0.137695 9V71C0.137695 75.9706 4.16713 80 9.1377 80H79C83.9706 80 88 75.9706 88 71V9C88 4.02944 83.9706 0 79 0H9.1377ZM62.3147 27.2264C64.2339 26.9849 66.0747 26.4875 67.8023 25.7371C66.5073 27.6461 64.9191 29.305 63.0289 30.6333C63.0493 31.0329 63.0638 31.4354 63.0638 31.8522C63.0638 44.3125 53.4822 58.6875 35.9567 58.6875C30.5649 58.6875 25.5651 57.1494 21.3463 54.4555C22.0954 54.5504 22.8446 54.5849 23.6256 54.5849C28.0796 54.5849 32.1938 53.0726 35.4341 50.5627C31.2705 50.4736 27.7689 47.728 26.5349 43.9934C27.1127 44.1199 27.7282 44.1544 28.338 44.1544C29.2148 44.1544 30.0597 44.0537 30.835 43.8439C26.5059 42.967 23.2046 39.1605 23.2046 34.5778V34.4743C24.4763 35.1671 25.9774 35.607 27.5076 35.6357C24.9757 33.9596 23.2772 31.0645 23.2772 27.7985C23.2772 26.0591 23.7592 24.4434 24.5808 23.0317C29.2874 28.7559 36.2935 32.5135 44.2114 32.8959C44.0546 32.2116 43.9907 31.4929 43.9907 30.7454C43.9907 25.5503 48.2356 21.3125 53.5084 21.3125C56.226 21.3125 58.7172 22.4539 60.4651 24.2968C62.6312 23.8684 64.6636 23.1007 66.5044 22.014C65.796 24.2249 64.289 26.0591 62.3147 27.2264Z" fill="#A8DADC"/>
</svg>
